<svg xmlns="http://www.w3.org/2000/svg" xmlns:xlink="http://www.w3.org/1999/xlink" width="400" zoomAndPan="magnify" viewBox="0 0 375 374.999991" height="400" preserveAspectRatio="xMidYMid meet" version="1.0"><defs><clipPath id="aba35d21ae"><path d="M 134 12.1875 L 300 12.1875 L 300 96 L 134 96 Z M 134 12.1875 " clip-rule="nonzero"/></clipPath><clipPath id="e55aeed42f"><path d="M 68 65 L 104 65 L 104 216 L 68 216 Z M 68 65 " clip-rule="nonzero"/></clipPath><clipPath id="5215d023fa"><path d="M 58.476562 70.871094 L 98.074219 62.363281 L 129.582031 209.019531 L 89.984375 217.527344 Z M 58.476562 70.871094 " clip-rule="nonzero"/></clipPath><clipPath id="d3f0fef74c"><path d="M 58.476562 70.871094 L 98.074219 62.363281 L 129.582031 209.019531 L 89.984375 217.527344 Z M 58.476562 70.871094 " clip-rule="nonzero"/></clipPath><clipPath id="aa14f255ae"><path d="M 58.476562 70.871094 L 98.074219 62.363281 L 129.582031 209.019531 L 89.984375 217.527344 Z M 58.476562 70.871094 " clip-rule="nonzero"/></clipPath><clipPath id="c75c66b70e"><path d="M 80 83 L 83 83 L 83 89 L 80 89 Z M 80 83 " clip-rule="nonzero"/></clipPath><clipPath id="276eadd00d"><path d="M 58.476562 70.871094 L 98.074219 62.363281 L 129.582031 209.019531 L 89.984375 217.527344 Z M 58.476562 70.871094 " clip-rule="nonzero"/></clipPath><clipPath id="83e7fadac5"><path d="M 58.476562 70.871094 L 98.074219 62.363281 L 129.582031 209.019531 L 89.984375 217.527344 Z M 58.476562 70.871094 " clip-rule="nonzero"/></clipPath><clipPath id="e9c4de8ed7"><path d="M 58.476562 70.871094 L 98.074219 62.363281 L 129.582031 209.019531 L 89.984375 217.527344 Z M 58.476562 70.871094 " clip-rule="nonzero"/></clipPath><clipPath id="47ab11ec67"><path d="M 92 81 L 95 81 L 95 85 L 92 85 Z M 92 81 " clip-rule="nonzero"/></clipPath><clipPath id="743f90c09f"><path d="M 58.476562 70.871094 L 98.074219 62.363281 L 129.582031 209.019531 L 89.984375 217.527344 Z M 58.476562 70.871094 " clip-rule="nonzero"/></clipPath><clipPath id="cd4dfe270a"><path d="M 58.476562 70.871094 L 98.074219 62.363281 L 129.582031 209.019531 L 89.984375 217.527344 Z M 58.476562 70.871094 " clip-rule="nonzero"/></clipPath><clipPath id="756bd95df6"><path d="M 58.476562 70.871094 L 98.074219 62.363281 L 129.582031 209.019531 L 89.984375 217.527344 Z M 58.476562 70.871094 " clip-rule="nonzero"/></clipPath><clipPath id="12f8dcb79f"><path d="M 309 73 L 332 73 L 332 104 L 309 104 Z M 309 73 " clip-rule="nonzero"/></clipPath><clipPath id="025021fdc6"><path d="M 299.917969 147.980469 L 282.269531 79.722656 L 347.621094 62.828125 L 365.269531 131.082031 Z M 299.917969 147.980469 " clip-rule="nonzero"/></clipPath><clipPath id="55c1e17f4b"><path d="M 299.917969 147.980469 L 282.269531 79.722656 L 347.621094 62.828125 L 365.269531 131.082031 Z M 299.917969 147.980469 " clip-rule="nonzero"/></clipPath><clipPath id="cd8910ea74"><path d="M 299.917969 147.980469 L 282.269531 79.722656 L 347.621094 62.828125 L 365.269531 131.082031 Z M 299.917969 147.980469 " clip-rule="nonzero"/></clipPath><clipPath id="1cd8cd24ea"><path d="M 290 92 L 324 92 L 324 118 L 290 118 Z M 290 92 " clip-rule="nonzero"/></clipPath><clipPath id="6084f23474"><path d="M 299.917969 147.980469 L 282.269531 79.722656 L 347.621094 62.828125 L 365.269531 131.082031 Z M 299.917969 147.980469 " clip-rule="nonzero"/></clipPath><clipPath id="ceaa476734"><path d="M 299.917969 147.980469 L 282.269531 79.722656 L 347.621094 62.828125 L 365.269531 131.082031 Z M 299.917969 147.980469 " clip-rule="nonzero"/></clipPath><clipPath id="6b258e40f5"><path d="M 299.917969 147.980469 L 282.269531 79.722656 L 347.621094 62.828125 L 365.269531 131.082031 Z M 299.917969 147.980469 " clip-rule="nonzero"/></clipPath><clipPath id="c53920c388"><path d="M 312 111 L 337 111 L 337 142 L 312 142 Z M 312 111 " clip-rule="nonzero"/></clipPath><clipPath id="29fb3733b0"><path d="M 299.917969 147.980469 L 282.269531 79.722656 L 347.621094 62.828125 L 365.269531 131.082031 Z M 299.917969 147.980469 " clip-rule="nonzero"/></clipPath><clipPath id="d24792d59b"><path d="M 299.917969 147.980469 L 282.269531 79.722656 L 347.621094 62.828125 L 365.269531 131.082031 Z M 299.917969 147.980469 " clip-rule="nonzero"/></clipPath><clipPath id="6a1fdd668e"><path d="M 299.917969 147.980469 L 282.269531 79.722656 L 347.621094 62.828125 L 365.269531 131.082031 Z M 299.917969 147.980469 " clip-rule="nonzero"/></clipPath><clipPath id="0c58bebdb9"><path d="M 332 106 L 352 106 L 352 125 L 332 125 Z M 332 106 " clip-rule="nonzero"/></clipPath><clipPath id="26c132e34f"><path d="M 299.917969 147.980469 L 282.269531 79.722656 L 347.621094 62.828125 L 365.269531 131.082031 Z M 299.917969 147.980469 " clip-rule="nonzero"/></clipPath><clipPath id="82d6e05393"><path d="M 299.917969 147.980469 L 282.269531 79.722656 L 347.621094 62.828125 L 365.269531 131.082031 Z M 299.917969 147.980469 " clip-rule="nonzero"/></clipPath><clipPath id="7844cc248a"><path d="M 299.917969 147.980469 L 282.269531 79.722656 L 347.621094 62.828125 L 365.269531 131.082031 Z M 299.917969 147.980469 " clip-rule="nonzero"/></clipPath><clipPath id="dce12fba8b"><path d="M 331 86 L 354 86 L 354 107 L 331 107 Z M 331 86 " clip-rule="nonzero"/></clipPath><clipPath id="34820578b4"><path d="M 299.917969 147.980469 L 282.269531 79.722656 L 347.621094 62.828125 L 365.269531 131.082031 Z M 299.917969 147.980469 " clip-rule="nonzero"/></clipPath><clipPath id="c39f776085"><path d="M 299.917969 147.980469 L 282.269531 79.722656 L 347.621094 62.828125 L 365.269531 131.082031 Z M 299.917969 147.980469 " clip-rule="nonzero"/></clipPath><clipPath id="99d606233c"><path d="M 299.917969 147.980469 L 282.269531 79.722656 L 347.621094 62.828125 L 365.269531 131.082031 Z M 299.917969 147.980469 " clip-rule="nonzero"/></clipPath><clipPath id="91b1a7a5ed"><path d="M 328 108 L 332 108 L 332 112 L 328 112 Z M 328 108 " clip-rule="nonzero"/></clipPath><clipPath id="62d59e19c5"><path d="M 299.917969 147.980469 L 282.269531 79.722656 L 347.621094 62.828125 L 365.269531 131.082031 Z M 299.917969 147.980469 " clip-rule="nonzero"/></clipPath><clipPath id="5ad392b069"><path d="M 299.917969 147.980469 L 282.269531 79.722656 L 347.621094 62.828125 L 365.269531 131.082031 Z M 299.917969 147.980469 " clip-rule="nonzero"/></clipPath><clipPath id="88d7ccc218"><path d="M 299.917969 147.980469 L 282.269531 79.722656 L 347.621094 62.828125 L 365.269531 131.082031 Z M 299.917969 147.980469 " clip-rule="nonzero"/></clipPath><clipPath id="3acac30027"><path d="M 326 104 L 330 104 L 330 108 L 326 108 Z M 326 104 " clip-rule="nonzero"/></clipPath><clipPath id="81ff881db6"><path d="M 299.917969 147.980469 L 282.269531 79.722656 L 347.621094 62.828125 L 365.269531 131.082031 Z M 299.917969 147.980469 " clip-rule="nonzero"/></clipPath><clipPath id="ffb094001f"><path d="M 299.917969 147.980469 L 282.269531 79.722656 L 347.621094 62.828125 L 365.269531 131.082031 Z M 299.917969 147.980469 " clip-rule="nonzero"/></clipPath><clipPath id="bb060855d2"><path d="M 299.917969 147.980469 L 282.269531 79.722656 L 347.621094 62.828125 L 365.269531 131.082031 Z M 299.917969 147.980469 " clip-rule="nonzero"/></clipPath><clipPath id="738059fa7a"><path d="M 324 97 L 328 97 L 328 101 L 324 101 Z M 324 97 " clip-rule="nonzero"/></clipPath><clipPath id="ec7ea8d175"><path d="M 299.917969 147.980469 L 282.269531 79.722656 L 347.621094 62.828125 L 365.269531 131.082031 Z M 299.917969 147.980469 " clip-rule="nonzero"/></clipPath><clipPath id="41cc5fa1b3"><path d="M 299.917969 147.980469 L 282.269531 79.722656 L 347.621094 62.828125 L 365.269531 131.082031 Z M 299.917969 147.980469 " clip-rule="nonzero"/></clipPath><clipPath id="80ecd43b54"><path d="M 299.917969 147.980469 L 282.269531 79.722656 L 347.621094 62.828125 L 365.269531 131.082031 Z M 299.917969 147.980469 " clip-rule="nonzero"/></clipPath><clipPath id="98ab3ef7c1"><path d="M 321 105 L 324 105 L 324 108 L 321 108 Z M 321 105 " clip-rule="nonzero"/></clipPath><clipPath id="badec6b887"><path d="M 299.917969 147.980469 L 282.269531 79.722656 L 347.621094 62.828125 L 365.269531 131.082031 Z M 299.917969 147.980469 " clip-rule="nonzero"/></clipPath><clipPath id="1d8ff1c471"><path d="M 299.917969 147.980469 L 282.269531 79.722656 L 347.621094 62.828125 L 365.269531 131.082031 Z M 299.917969 147.980469 " clip-rule="nonzero"/></clipPath><clipPath id="0642f72fbe"><path d="M 299.917969 147.980469 L 282.269531 79.722656 L 347.621094 62.828125 L 365.269531 131.082031 Z M 299.917969 147.980469 " clip-rule="nonzero"/></clipPath><clipPath id="67ed8e2444"><path d="M 318 106 L 321 106 L 321 109 L 318 109 Z M 318 106 " clip-rule="nonzero"/></clipPath><clipPath id="48b1888523"><path d="M 299.917969 147.980469 L 282.269531 79.722656 L 347.621094 62.828125 L 365.269531 131.082031 Z M 299.917969 147.980469 " clip-rule="nonzero"/></clipPath><clipPath id="4ed45e6b1b"><path d="M 299.917969 147.980469 L 282.269531 79.722656 L 347.621094 62.828125 L 365.269531 131.082031 Z M 299.917969 147.980469 " clip-rule="nonzero"/></clipPath><clipPath id="0b9016d92b"><path d="M 299.917969 147.980469 L 282.269531 79.722656 L 347.621094 62.828125 L 365.269531 131.082031 Z M 299.917969 147.980469 " clip-rule="nonzero"/></clipPath><clipPath id="2f301842e9"><path d="M 302 270 L 351 270 L 351 321 L 302 321 Z M 302 270 " clip-rule="nonzero"/></clipPath><clipPath id="e62ba1583c"><path d="M 291.585938 285.03125 L 341.746094 259.570312 L 365.167969 305.714844 L 315.011719 331.175781 Z M 291.585938 285.03125 " clip-rule="nonzero"/></clipPath><clipPath id="2b275e8f4d"><path d="M 291.585938 285.03125 L 341.746094 259.570312 L 365.167969 305.714844 L 315.011719 331.175781 Z M 291.585938 285.03125 " clip-rule="nonzero"/></clipPath><clipPath id="cc958e904c"><path d="M 291.585938 285.03125 L 341.746094 259.570312 L 365.167969 305.714844 L 315.011719 331.175781 Z M 291.585938 285.03125 " clip-rule="nonzero"/></clipPath><clipPath id="1778bafdf2"><path d="M 190 75 L 283 75 L 283 110 L 190 110 Z M 190 75 " clip-rule="nonzero"/></clipPath><clipPath id="8e87bd37da"><path d="M 215.546875 48.929688 L 283.21875 81.257812 L 255.09375 140.132812 L 187.417969 107.804688 Z M 215.546875 48.929688 " clip-rule="nonzero"/></clipPath><clipPath id="9934f57f59"><path d="M 215.546875 48.929688 L 283.21875 81.257812 L 255.09375 140.132812 L 187.417969 107.804688 Z M 215.546875 48.929688 " clip-rule="nonzero"/></clipPath><clipPath id="07c19d8e73"><path d="M 330 162 L 346 162 L 346 245 L 330 245 Z M 330 162 " clip-rule="nonzero"/></clipPath><clipPath id="d57e750b45"><path d="M 342.128906 162 L 349.367188 244.183594 L 335.921875 245.367188 L 328.679688 163.183594 Z M 342.128906 162 " clip-rule="nonzero"/></clipPath><clipPath id="2dc4a7f826"><path d="M 342.128906 162 L 349.367188 244.183594 L 335.921875 245.367188 L 328.679688 163.183594 Z M 342.128906 162 " clip-rule="nonzero"/></clipPath><clipPath id="5eaf86876d"><path d="M 342.128906 162 L 349.367188 244.183594 L 335.921875 245.367188 L 328.679688 163.183594 Z M 342.128906 162 " clip-rule="nonzero"/></clipPath></defs><path fill="#ffcfce" d="M 359.746094 333.359375 L 61.699219 325.464844 C 61.699219 325.464844 61.699219 163.519531 64.855469 61.492188 C 203.757812 46.488281 372.1875 62.28125 372.1875 62.28125 C 374.820312 76.40625 359.746094 333.359375 359.746094 333.359375 Z M 24.367188 236.859375 L 0.179688 228.875 L 9.644531 249.316406 L 17.621094 249.402344 L 16.746094 244.054688 L 23.492188 244.929688 Z M 359.746094 333.359375 L 61.699219 325.464844 C 61.699219 325.464844 61.699219 163.519531 64.855469 61.492188 C 203.757812 46.488281 372.1875 62.28125 372.1875 62.28125 C 374.820312 76.40625 359.746094 333.359375 359.746094 333.359375 Z M 359.746094 333.359375 " fill-opacity="1" fill-rule="nonzero"/><g clip-path="url(#aba35d21ae)"><path fill="#0097b2" d="M 163.53125 95.617188 L 299.015625 47.101562 L 286.570312 40.875 L 293.230469 36.226562 L 282.363281 34.910156 L 282.628906 24.207031 L 273.164062 23.328125 L 273.863281 12.1875 L 134 55.175781 L 145.917969 61.226562 L 142.5 70.878906 L 156.082031 75.527344 L 155.292969 87.546875 L 164.058594 88.074219 Z M 163.53125 95.617188 L 299.015625 47.101562 L 286.570312 40.875 L 293.230469 36.226562 L 282.363281 34.910156 L 282.628906 24.207031 L 273.164062 23.328125 L 273.863281 12.1875 L 134 55.175781 L 145.917969 61.226562 L 142.5 70.878906 L 156.082031 75.527344 L 155.292969 87.546875 L 164.058594 88.074219 Z M 163.53125 95.617188 " fill-opacity="1" fill-rule="nonzero"/></g><path fill="#a83b24" d="M 24.367188 236.859375 C 25.59375 238.085938 152.664062 337.042969 152.664062 337.042969 C 152.664062 337.042969 153.542969 349.328125 140.921875 353.097656 C 126.199219 343.011719 9.644531 249.316406 9.644531 249.316406 L 17.621094 249.316406 L 16.746094 243.964844 L 23.492188 244.84375 Z M 24.367188 236.859375 C 25.59375 238.085938 152.664062 337.042969 152.664062 337.042969 C 152.664062 337.042969 153.542969 349.328125 140.921875 353.097656 C 126.199219 343.011719 9.644531 249.316406 9.644531 249.316406 L 17.621094 249.316406 L 16.746094 243.964844 L 23.492188 244.84375 Z M 24.367188 236.859375 " fill-opacity="1" fill-rule="nonzero"/><path fill="#d8ac27" d="M 145.128906 356.257812 C 145.128906 356.257812 153.101562 363.1875 158.011719 362.574219 C 162.832031 361.960938 168.175781 354.851562 166.25 349.941406 C 164.410156 345.378906 158.097656 341.078125 158.097656 341.078125 C 158.097656 341.078125 157.046875 354.152344 145.128906 356.257812 Z M 145.128906 356.257812 C 145.128906 356.257812 153.101562 363.1875 158.011719 362.574219 C 162.832031 361.960938 168.175781 354.851562 166.25 349.941406 C 164.410156 345.378906 158.097656 341.078125 158.097656 341.078125 C 158.097656 341.078125 157.046875 354.152344 145.128906 356.257812 Z M 145.128906 356.257812 " fill-opacity="1" fill-rule="nonzero"/><path fill="#1c2546" d="M 315.226562 189.222656 C 314.964844 187.117188 313.914062 185.449219 312.160156 184.222656 C 308.566406 181.765625 302.695312 182.027344 298.578125 182.554688 C 301.554688 179.835938 304.886719 175.449219 303.132812 170.359375 C 302.519531 168.695312 301.378906 167.554688 299.804688 166.941406 C 296.824219 165.886719 292.792969 167.027344 289.726562 168.253906 C 291.390625 165.886719 292.96875 162.816406 292.617188 160.097656 C 292.355469 158.34375 291.304688 156.851562 289.550781 155.886719 C 282.976562 152.027344 274.390625 159.570312 258.789062 176.851562 C 249.324219 187.292969 238.808594 193.609375 230.132812 196.066406 C 229.695312 196.152344 229.257812 196.242188 228.820312 196.417969 C 228.382812 196.503906 228.03125 196.59375 227.59375 196.679688 C 229.433594 190.1875 235.65625 174.484375 248.097656 163.695312 C 265.363281 148.867188 273.425781 141.5 269.832031 134.917969 C 269.132812 133.425781 267.90625 132.550781 266.328125 132.289062 C 262.996094 131.761719 258.441406 134.480469 255.023438 137.199219 C 257.214844 132.988281 259.492188 127.460938 258.351562 123.953125 C 257.914062 122.550781 256.949219 121.496094 255.546875 120.96875 C 250.289062 119.128906 244.507812 124.742188 240.824219 129.304688 C 242.140625 123.601562 243.453125 115.355469 240.914062 111.144531 C 239.949219 109.566406 238.632812 108.601562 236.792969 108.335938 C 234.867188 107.988281 233.113281 108.511719 231.449219 109.742188 C 228.117188 112.371094 226.015625 117.988281 224.699219 122.988281 C 224.175781 119.390625 223.125 115.617188 221.109375 113.601562 C 219.878906 112.371094 218.390625 111.847656 216.726562 111.933594 C 215.0625 112.023438 213.660156 112.8125 212.519531 114.128906 C 210.503906 116.496094 209.539062 120.53125 209.1875 124.390625 C 208.136719 121.320312 206.558594 118.425781 204.28125 116.847656 C 202.441406 115.617188 200.425781 115.269531 198.234375 115.96875 C 196.65625 116.496094 195.429688 117.550781 194.640625 119.128906 C 190.875 126.847656 198.324219 146.410156 201.914062 155.796875 C 202.179688 156.675781 202.527344 157.378906 202.792969 158.167969 C 206.121094 166.5 208.574219 173.257812 205.597656 187.730469 C 205.160156 187.730469 204.808594 187.730469 204.457031 187.90625 C 204.28125 187.996094 204.195312 187.996094 204.019531 188.082031 C 198.496094 183.257812 190.4375 174.484375 185.878906 161.851562 C 178.167969 140.359375 173.433594 129.390625 165.984375 130.355469 C 163.96875 130.621094 162.566406 131.496094 161.605469 133.078125 C 160.113281 135.53125 160.378906 139.128906 160.992188 142.113281 C 158.535156 139.65625 155.292969 136.9375 152.140625 136.761719 C 150.386719 136.671875 148.984375 137.289062 147.757812 138.605469 C 144.339844 142.550781 145.214844 147.289062 146.53125 150.445312 C 143.375 148.78125 138.46875 146.851562 134.4375 147.726562 C 132.246094 148.164062 130.492188 149.480469 129.355469 151.5 C 128.039062 153.78125 127.777344 156.148438 128.476562 158.605469 C 129.355469 161.589844 131.546875 164.132812 133.734375 165.976562 C 132.335938 165.886719 130.84375 166.0625 129.53125 166.675781 C 127.515625 167.554688 126.199219 169.132812 125.5 171.5 C 124.097656 176.238281 126.726562 179.660156 129.96875 181.941406 C 128.742188 182.117188 127.339844 182.554688 126.199219 183.34375 C 124.097656 184.75 122.957031 187.117188 122.695312 190.363281 C 122.519531 192.03125 123.042969 193.519531 124.273438 194.835938 C 129.441406 200.363281 145.742188 201.152344 161.078125 201.152344 C 162.394531 201.152344 163.707031 201.066406 164.933594 201.066406 C 173.785156 200.890625 182.988281 200.363281 194.640625 207.644531 C 184.390625 216.507812 175.011719 218.171875 165.984375 219.664062 C 165.285156 219.753906 164.496094 219.925781 163.792969 220.015625 C 145.128906 223.171875 126.289062 227.734375 127.777344 237.035156 C 128.128906 239.140625 129.089844 240.808594 130.757812 241.949219 C 132.597656 243.175781 134.875 243.527344 136.890625 243.613281 C 135.402344 244.84375 133.910156 246.597656 133.210938 248.703125 C 132.507812 250.808594 132.773438 253 133.824219 255.105469 C 134.875 257.210938 136.539062 258.617188 138.554688 259.140625 C 140.046875 259.492188 141.449219 259.40625 142.851562 259.054688 C 141.011719 261.335938 139.257812 264.230469 138.90625 267.386719 C 138.644531 269.933594 139.34375 272.214844 141.011719 274.230469 C 142.410156 275.984375 144.253906 276.863281 146.441406 276.949219 C 150.648438 277.125 155.292969 274.054688 158.273438 271.6875 C 157.484375 275.285156 156.871094 279.671875 160.992188 283.003906 C 162.394531 284.144531 164.058594 284.496094 165.722656 284.144531 C 168.613281 283.53125 171.59375 281.511719 173.347656 278.96875 C 173.433594 281.601562 173.871094 284.847656 175.625 286.863281 C 176.851562 288.269531 178.605469 288.96875 180.707031 288.882812 C 188.332031 288.53125 191.664062 277.039062 195.519531 254.667969 C 197.796875 241.945312 203.40625 232.558594 207.960938 226.683594 C 208.050781 226.769531 208.050781 226.859375 208.136719 226.945312 C 208.574219 227.648438 209.1875 228.085938 209.976562 228.175781 C 210.152344 228.261719 210.417969 228.261719 210.589844 228.261719 C 211.03125 228.261719 211.554688 228.175781 211.992188 228 C 214.621094 235.28125 217.25 247.125 214.535156 261.160156 C 210.152344 284.058594 209.277344 295.460938 216.199219 298.445312 C 218.214844 299.320312 220.054688 299.234375 221.722656 298.355469 C 223.910156 297.128906 225.3125 294.585938 226.191406 292.304688 C 227.066406 295.023438 228.46875 298.269531 230.921875 299.847656 C 231.886719 300.375 232.9375 300.726562 233.988281 300.726562 C 234.601562 300.726562 235.304688 300.550781 236.09375 300.460938 C 241.261719 298.882812 242.753906 293.53125 243.191406 289.582031 C 245.207031 293.09375 248.539062 297.917969 252.65625 299.320312 C 254.671875 299.933594 256.597656 299.761719 258.527344 298.707031 C 260.804688 297.480469 262.296875 295.636719 262.910156 293.179688 C 263.699219 290.109375 262.996094 286.777344 262.03125 284.058594 C 263.261719 284.847656 264.660156 285.460938 266.152344 285.636719 C 268.253906 285.898438 270.269531 285.195312 272.023438 283.53125 C 273.777344 281.953125 274.652344 280.019531 274.738281 277.828125 C 274.828125 275.898438 274.214844 273.96875 273.425781 272.390625 C 274.652344 272.828125 275.964844 273.089844 277.367188 273.003906 C 279.910156 272.828125 282.1875 271.335938 284.027344 268.703125 C 284.992188 267.300781 285.257812 265.808594 284.90625 264.054688 C 283.328125 256.6875 269.65625 247.648438 256.425781 239.84375 C 255.722656 239.492188 255.023438 239.050781 254.320312 238.613281 C 246.347656 233.875 239.421875 229.753906 232.851562 217.296875 C 247.398438 214.574219 254.757812 217.734375 263.171875 221.417969 C 264.3125 221.945312 265.449219 222.382812 266.675781 222.910156 C 279.910156 228.523438 296.121094 234.492188 303.046875 231.246094 C 304.710938 230.542969 305.761719 229.3125 306.289062 227.734375 C 307.253906 224.839844 307.078125 222.296875 305.675781 220.191406 C 304.796875 218.875 303.570312 217.910156 302.257812 217.207031 C 306.464844 216.332031 310.582031 214.136719 311.109375 209.136719 C 311.285156 207.03125 310.757812 205.1875 309.355469 203.609375 C 308.039062 202.117188 306.113281 201.066406 304.183594 200.453125 C 307.425781 199.664062 311.195312 198.171875 313.386719 195.539062 C 314.964844 193.785156 315.578125 191.589844 315.226562 189.222656 Z M 204.457031 157.113281 C 204.195312 156.414062 203.929688 155.621094 203.582031 154.832031 C 200.425781 146.5 193.679688 126.320312 197.007812 119.480469 C 197.535156 118.425781 198.671875 117.199219 199.726562 116.933594 C 201.214844 116.410156 202.617188 116.582031 203.84375 117.460938 C 208.839844 120.792969 209.539062 133.425781 209.539062 133.691406 C 209.628906 134.304688 210.417969 137.636719 211.03125 137.550781 C 211.644531 137.464844 211.820312 134.128906 211.730469 133.515625 C 211.730469 133.425781 210.417969 118.953125 214.449219 114.214844 C 215.234375 113.339844 216.113281 112.898438 217.164062 112.8125 C 218.214844 112.722656 219.09375 113.074219 219.882812 113.863281 C 223.296875 117.285156 223.648438 128.515625 223.386719 132.289062 C 223.296875 132.8125 223.5625 135.796875 224.175781 135.882812 C 224.699219 135.972656 225.402344 133.078125 225.488281 132.460938 C 225.578125 132.289062 227.417969 114.566406 233.375 110.003906 C 234.515625 109.039062 235.65625 108.777344 236.96875 108.953125 C 238.109375 109.214844 238.984375 109.742188 239.597656 110.792969 C 242.492188 115.707031 238.984375 129.65625 237.40625 134.21875 C 237.234375 134.742188 236.003906 138.164062 236.53125 138.429688 C 237.058594 138.691406 239.074219 135.621094 239.335938 135.183594 C 241.878906 130.972656 250.027344 119.65625 255.460938 121.671875 C 256.25 121.933594 256.6875 122.460938 256.949219 123.25 C 258.351562 127.460938 252.21875 138.164062 249.941406 141.585938 C 249.589844 142.113281 247.75 145.445312 248.1875 145.796875 C 248.625 146.148438 251.167969 143.429688 251.605469 142.988281 C 254.234375 140.269531 262.644531 132.8125 266.765625 133.425781 C 267.640625 133.601562 268.253906 134.042969 268.691406 134.917969 C 271.496094 140.183594 262.472656 149.65625 246.785156 163.078125 C 232.585938 175.363281 227.679688 190.1875 226.277344 196.066406 C 226.191406 196.328125 225.839844 197.207031 225.664062 197.820312 C 224.085938 198.699219 222.597656 199.664062 221.371094 200.539062 C 222.160156 196.503906 223.648438 188.34375 220.144531 186.855469 C 219.96875 186.765625 219.792969 186.679688 219.53125 186.679688 C 220.054688 183.960938 220.933594 180.273438 221.984375 176.238281 C 225.925781 175.097656 231.273438 170.449219 232.761719 168.519531 C 228.996094 169.132812 224.964844 171.238281 222.773438 173.167969 C 223.738281 169.308594 224.699219 165.183594 225.402344 161.324219 C 230.660156 160.359375 236.707031 154.832031 237.847656 152.027344 C 232.5 153.867188 228.117188 156.238281 225.925781 158.253906 C 226.804688 152.902344 228.117188 148.339844 227.59375 145.359375 C 225.839844 148.867188 225.140625 153.253906 223.648438 159.042969 C 222.421875 156.414062 219.09375 152.113281 214.886719 148.515625 C 214.359375 151.851562 218.828125 157.640625 223.210938 160.800781 C 222.335938 164.21875 221.546875 168.167969 220.757812 172.730469 C 219.792969 170.535156 217.164062 167.640625 214.007812 165.625 C 214.273438 169.484375 217.867188 174.046875 220.230469 175.886719 C 219.707031 179.222656 218.652344 182.90625 217.867188 186.941406 L 217.777344 186.941406 C 215.585938 188.171875 214.359375 194.835938 213.394531 198.257812 C 212.34375 195.363281 210.417969 189.925781 207.960938 188.433594 C 207.875 188.433594 207.875 188.34375 207.789062 188.34375 C 211.90625 170.976562 208.136719 166.324219 204.457031 157.113281 Z M 206.824219 189.308594 C 209.628906 190.976562 211.730469 197.644531 212.257812 200.011719 C 212.34375 200.539062 212.871094 202.382812 213.394531 202.382812 C 213.835938 202.382812 214.273438 200.539062 214.359375 200.011719 C 215.148438 195.890625 217.078125 189.574219 218.828125 188.609375 C 219.003906 188.519531 219.09375 188.519531 219.265625 188.609375 C 221.371094 189.574219 220.667969 196.59375 219.53125 201.066406 C 219.441406 201.503906 218.566406 203.171875 218.917969 203.433594 C 219.265625 203.699219 220.84375 202.558594 221.195312 202.292969 C 225.140625 199.75 232.0625 196.328125 233.464844 198.082031 C 233.550781 198.171875 233.464844 198.347656 233.550781 198.523438 C 233.902344 199.75 230.046875 202.910156 223.125 205.453125 C 222.683594 205.628906 220.933594 206.503906 221.019531 207.03125 C 221.109375 207.46875 222.859375 207.558594 223.386719 207.558594 C 226.453125 207.644531 231.625 208.609375 233.113281 210.453125 C 234.164062 211.679688 233.988281 212.644531 233.726562 213.171875 C 232.851562 215.101562 226.804688 213.609375 223.296875 212.121094 C 222.859375 211.945312 221.808594 210.980469 221.457031 211.242188 C 221.109375 211.59375 221.632812 213.085938 221.808594 213.523438 C 223.5625 218.613281 224.351562 223.613281 223.472656 223.875 C 222.335938 224.136719 219.617188 219.578125 217.339844 215.191406 C 217.164062 214.75 216.375 213.261719 215.9375 213.347656 C 215.5 213.4375 215.410156 215.101562 215.324219 215.542969 C 215.148438 217.648438 214.007812 223.699219 211.730469 225.453125 C 211.292969 225.804688 210.855469 225.980469 210.328125 225.894531 C 210.242188 225.894531 210.152344 225.894531 210.066406 225.804688 C 209.890625 225.277344 209.714844 224.578125 209.453125 224.050781 C 209.101562 221.507812 209.714844 217.207031 210.328125 214.488281 C 210.417969 214.050781 210.503906 212.558594 210.066406 212.296875 C 209.890625 212.207031 208.664062 213.347656 208.574219 213.085938 C 206.121094 215.542969 201.300781 219.402344 198.9375 219.050781 C 198.5 219.050781 198.148438 218.785156 197.882812 218.261719 C 196.832031 216.15625 202.265625 212.03125 206.296875 209.839844 C 206.734375 209.664062 207.960938 208.785156 207.875 208.257812 C 207.699219 207.820312 206.296875 207.820312 205.773438 207.820312 C 203.667969 207.820312 197.796875 207.46875 195.957031 205.277344 C 195.429688 204.75 195.253906 204.046875 195.429688 203.257812 C 195.429688 203.171875 195.429688 203.082031 195.695312 202.910156 C 197.445312 201.855469 203.054688 202.46875 206.210938 203.171875 C 207 203.347656 208.488281 204.046875 208.574219 203.785156 C 208.664062 203.609375 207.523438 201.941406 207.347656 201.59375 C 205.507812 198.347656 203.144531 192.207031 204.105469 189.925781 C 204.28125 189.484375 204.542969 189.222656 204.984375 189.136719 C 205.683594 188.871094 206.210938 188.960938 206.824219 189.308594 Z M 165.371094 198.257812 C 164.058594 198.257812 162.832031 198.257812 161.515625 198.257812 C 153.277344 198.257812 131.457031 198.257812 126.289062 192.644531 C 125.585938 191.855469 124.796875 190.890625 124.796875 189.835938 C 124.710938 186.855469 126.375 184.925781 127.863281 183.871094 C 130.84375 181.855469 135.488281 183.871094 135.578125 183.871094 C 136.191406 184.046875 138.46875 184.398438 138.644531 183.785156 C 138.820312 183.257812 136.804688 181.941406 136.191406 181.765625 C 135.839844 181.679688 125.234375 178.34375 127.339844 171.414062 C 127.863281 169.746094 129.003906 168.429688 130.40625 167.816406 C 133.738281 166.324219 138.820312 168.78125 138.90625 168.78125 C 139.519531 169.046875 142.761719 169.835938 142.9375 169.308594 C 143.113281 168.78125 140.398438 167.027344 139.871094 166.765625 C 139.78125 166.675781 132.507812 162.730469 130.933594 157.378906 C 130.40625 155.535156 129.792969 153.429688 130.84375 151.675781 C 131.722656 150.183594 134.175781 148.605469 135.75 148.253906 C 141.359375 147.027344 149.335938 152.992188 149.246094 153.605469 C 149.246094 154.132812 152.316406 155.886719 152.753906 155.535156 C 153.191406 155.183594 151.175781 152.464844 150.824219 152.027344 C 150.738281 151.9375 145.390625 144.480469 149.949219 139.394531 C 150.648438 138.605469 152.226562 137.988281 153.277344 137.902344 C 157.921875 137.636719 161.691406 144.21875 163.355469 146.5 C 163.621094 146.9375 165.023438 149.570312 165.546875 149.304688 C 166.074219 149.042969 165.109375 146.0625 164.933594 145.535156 C 163.96875 143.253906 161.867188 136.671875 163.53125 133.425781 C 164.320312 131.9375 165.722656 131.410156 167.039062 131.234375 C 172.996094 130.445312 177.902344 142.113281 184.828125 161.589844 C 190.085938 176.238281 197.796875 184.222656 203.230469 188.609375 C 202.792969 188.960938 202.441406 189.398438 202.265625 189.925781 C 201.039062 192.820312 203.054688 197.820312 204.457031 200.804688 C 202.441406 199.488281 197.972656 196.679688 192.800781 192.996094 C 193.152344 188.871094 190.347656 182.117188 189.121094 180.011719 C 188.332031 183.785156 189.121094 188.433594 190.171875 191.152344 C 186.929688 188.871094 183.425781 186.589844 180.09375 184.484375 C 181.058594 179.222656 177.730469 171.5 175.539062 169.394531 C 175.363281 175.011719 176.328125 180.097656 177.378906 182.90625 C 172.734375 180.097656 168.613281 177.203125 165.636719 176.589844 C 168.265625 179.398438 172.734375 181.679688 177.554688 185.1875 C 174.574219 185.449219 168.789062 186.941406 163.96875 189.574219 C 166.863281 191.328125 174.398438 189.222656 178.957031 186.238281 C 181.847656 188.257812 185.175781 190.449219 189.207031 192.820312 C 186.753906 192.90625 182.636719 194.3125 179.570312 196.503906 C 183.25 197.730469 188.507812 195.890625 191.050781 194.3125 C 193.941406 196.066406 197.007812 198.257812 200.425781 200.453125 C 198.324219 200.277344 196.308594 200.453125 194.992188 201.242188 C 194.378906 201.679688 193.941406 202.292969 193.765625 202.996094 C 193.679688 203.699219 193.679688 204.398438 193.855469 205.015625 C 182.109375 197.90625 173.960938 198.082031 165.371094 198.257812 Z M 193.679688 253.964844 C 191.136719 275.984375 186.492188 286.863281 180.445312 287.128906 C 178.957031 287.128906 177.902344 286.6875 177.117188 285.8125 C 174.835938 283.265625 175.886719 276.335938 176.238281 274.230469 C 176.328125 273.703125 177.203125 270.285156 176.675781 270.109375 C 176.152344 269.933594 174.398438 273.003906 174.136719 273.53125 C 172.996094 275.722656 169.492188 281.601562 165.984375 282.390625 C 164.933594 282.566406 164.058594 282.300781 163.09375 281.601562 C 157.75 277.300781 161.953125 268.179688 161.953125 268.089844 C 162.21875 267.5625 163.621094 264.84375 163.179688 264.582031 C 162.742188 264.316406 160.550781 266.511719 160.203125 266.863281 C 160.113281 266.949219 151.703125 275.019531 145.917969 274.757812 C 144.339844 274.667969 143.113281 274.054688 142.0625 272.828125 C 140.746094 271.25 140.222656 269.582031 140.398438 267.652344 C 141.011719 262.035156 148.546875 256.335938 148.632812 256.246094 C 149.160156 255.894531 151 254.230469 150.648438 253.789062 C 150.300781 253.265625 147.84375 254.140625 147.320312 254.492188 C 147.320312 254.492188 142.324219 258 138.820312 257.125 C 137.417969 256.6875 136.015625 255.546875 135.226562 253.964844 C 134.351562 252.300781 134.523438 250.984375 135.050781 249.402344 C 136.277344 245.632812 141.796875 242.648438 141.886719 242.648438 C 142.414062 242.472656 144.691406 241.15625 144.515625 240.632812 C 144.339844 240.105469 141.710938 240.542969 141.183594 240.632812 C 141.097656 240.632812 135.578125 241.773438 132.421875 239.578125 C 131.28125 238.789062 130.667969 237.648438 130.40625 236.15625 C 129.089844 227.734375 153.980469 222.734375 163.707031 221.066406 C 164.410156 220.980469 165.808594 220.628906 166.511719 220.542969 C 175.800781 219.050781 184.914062 218.347656 196.21875 208.171875 C 197.882812 209.3125 200.074219 209.839844 202.179688 210.101562 C 198.671875 212.382812 194.203125 216.15625 195.957031 219.578125 C 196.042969 219.839844 196.21875 220.015625 196.394531 220.191406 C 194.554688 221.859375 192.976562 223.4375 191.136719 224.929688 C 188.421875 223.789062 182.375 223.523438 178.867188 225.367188 C 182.199219 227.035156 186.316406 227.296875 188.683594 227.035156 C 185.175781 230.105469 183.074219 233 180.53125 235.457031 C 175.539062 233.261719 167.210938 232.734375 164.582031 234.929688 C 169.839844 236.683594 175.363281 237.734375 178.253906 237.472656 C 174.046875 241.683594 170.457031 244.226562 168.351562 247.472656 C 171.683594 246.15625 175.714844 242.296875 179.304688 239.226562 C 178.691406 242.121094 178.167969 247.296875 179.304688 252.824219 C 181.144531 250.367188 183.6875 241.246094 181.847656 236.246094 C 184.738281 233.613281 187.808594 230.71875 190.609375 227.910156 C 189.996094 230.71875 189.382812 236.332031 190.785156 239.929688 C 191.574219 237.648438 193.851562 229.664062 192.800781 225.628906 C 194.46875 223.964844 196.042969 222.472656 197.535156 221.15625 C 197.882812 221.332031 198.324219 221.507812 198.671875 221.59375 C 201.390625 221.945312 205.246094 219.3125 207.699219 217.207031 C 207.4375 219.226562 207.175781 221.859375 207.347656 223.964844 C 202.179688 229.929688 195.253906 239.84375 193.679688 253.964844 Z M 253.355469 239.578125 C 254.058594 239.929688 254.757812 240.367188 255.460938 240.808594 C 263.171875 245.457031 281.3125 256.160156 282.890625 263.617188 C 283.152344 264.667969 282.976562 267.386719 282.363281 268.265625 C 280.875 270.371094 279.121094 271.511719 277.28125 271.6875 C 273.6875 271.949219 270.269531 267.652344 270.269531 267.652344 C 270.183594 267.652344 270.183594 267.5625 270.09375 267.5625 C 269.65625 267.214844 269.042969 267.300781 268.691406 267.652344 C 268.253906 268.089844 268.253906 268.792969 268.691406 269.230469 C 268.691406 269.230469 273.6875 273.53125 273.511719 277.742188 C 273.425781 279.320312 272.8125 280.722656 271.496094 281.863281 C 270.183594 283.089844 268.78125 283.617188 267.292969 283.441406 C 263.523438 283.089844 259.492188 278.707031 259.492188 278.707031 C 259.140625 278.265625 258.527344 278.089844 258 278.441406 C 257.476562 278.792969 257.300781 279.40625 257.652344 279.933594 C 257.652344 280.019531 262.121094 288.179688 260.71875 293.53125 C 260.191406 295.375 259.140625 296.777344 257.386719 297.742188 C 256.074219 298.53125 254.671875 298.707031 253.269531 298.179688 C 247.660156 296.25 243.191406 284.757812 243.105469 284.671875 C 242.839844 284.230469 242.316406 283.96875 241.789062 284.058594 C 241.261719 284.144531 240.914062 284.671875 241 285.195312 C 241 285.285156 241.964844 297.128906 235.390625 299.234375 C 234.164062 299.585938 233.113281 299.496094 232.148438 298.882812 C 229.171875 296.953125 227.679688 289.847656 227.417969 287.566406 C 227.417969 287.039062 226.890625 286.601562 226.367188 286.601562 C 225.839844 286.601562 225.402344 286.953125 225.488281 287.039062 C 225.226562 288.96875 223.824219 294.320312 221.019531 295.898438 C 219.96875 296.515625 217.953125 296.515625 216.550781 295.898438 C 211.03125 293.53125 213.046875 280.898438 216.988281 260.195312 C 219.878906 245.457031 216.902344 233.613281 214.183594 226.332031 C 215.675781 224.402344 216.550781 221.507812 217.078125 219.136719 C 218.742188 221.945312 221.109375 225.542969 223.035156 226.15625 C 224.085938 228.347656 225.226562 230.980469 226.453125 233.699219 C 224.085938 237.121094 222.773438 243.4375 222.773438 245.894531 C 225.3125 243 227.242188 239.492188 227.769531 236.597656 C 229.433594 240.191406 231.1875 243.964844 233.027344 247.472656 C 229.519531 251.507812 228.207031 259.054688 228.996094 261.949219 C 231.972656 257.210938 233.289062 252.125 233.816406 249.230469 C 236.445312 253.964844 238.898438 258.792969 241.175781 260.808594 C 240.300781 257.035156 238.632812 254.40625 236.179688 248.964844 C 238.808594 250.28125 243.628906 250.28125 249.152344 250.28125 C 247.484375 247.386719 240.035156 246.773438 234.601562 247.035156 C 233.113281 243.878906 231.449219 239.402344 229.257812 235.28125 C 231.359375 236.421875 235.390625 236.769531 239.160156 236.421875 C 236.53125 233.4375 230.660156 232.472656 227.679688 232.472656 C 226.542969 230.542969 225.664062 228.347656 224.613281 225.980469 C 226.980469 224.664062 225.839844 218.960938 224.699219 215.101562 C 226.191406 215.628906 228.292969 216.15625 230.222656 216.242188 C 230.132812 216.507812 230.222656 216.769531 230.308594 216.945312 C 237.40625 230.980469 245.207031 234.753906 253.355469 239.578125 Z M 312.6875 193.960938 C 308.828125 198.609375 297.699219 199.136719 297.613281 199.136719 C 297 199.136719 293.933594 199.835938 293.933594 200.453125 C 293.933594 201.066406 297 201.328125 297.613281 201.328125 C 297.699219 201.328125 305.675781 201.59375 308.65625 204.925781 C 309.617188 205.980469 310.054688 207.292969 309.882812 208.785156 C 309.09375 216.242188 296.5625 215.277344 296.472656 215.277344 C 295.859375 215.191406 292.792969 215.367188 292.703125 215.980469 C 292.703125 216.59375 295.683594 217.382812 296.296875 217.472656 C 296.386719 217.472656 301.378906 217.558594 304.011719 220.453125 C 305.851562 222.472656 306.113281 224.3125 305.238281 227.035156 C 304.972656 228 303.394531 228.699219 302.34375 229.226562 C 295.421875 232.472656 275.265625 224.929688 267.730469 221.769531 C 266.503906 221.242188 265.363281 220.804688 264.222656 220.277344 C 256.160156 216.855469 248.625 212.820312 234.953125 214.75 C 235.128906 214.488281 235.304688 214.3125 235.390625 213.960938 C 235.832031 212.820312 235.832031 211.679688 235.21875 210.628906 C 234.601562 209.488281 233.289062 208.609375 231.886719 207.910156 C 236.003906 207.207031 239.863281 206.328125 243.191406 205.804688 C 244.945312 208.171875 249.0625 211.855469 253.007812 212.207031 C 250.992188 208.960938 248.539062 206.328125 246.347656 205.277344 C 250.992188 204.574219 254.933594 203.875 258.351562 203.082031 C 261.417969 207.644531 266.765625 212.207031 270.09375 211.769531 C 266.589844 207.46875 262.734375 204.046875 260.105469 202.734375 C 265.890625 201.417969 270.007812 200.804688 273.601562 199.222656 C 270.621094 198.609375 265.714844 199.75 260.367188 200.539062 C 262.472656 198.347656 265.1875 194.046875 267.203125 188.785156 C 264.398438 189.835938 258.441406 195.714844 257.300781 200.976562 C 253.445312 201.59375 249.324219 202.382812 245.46875 203.257812 C 247.484375 201.066406 249.941406 197.117188 250.640625 193.347656 C 248.710938 194.835938 243.628906 200.011719 242.316406 203.960938 C 237.058594 205.1875 231.972656 206.152344 228.820312 206.769531 C 228.207031 206.59375 227.59375 206.417969 227.066406 206.242188 C 230.222656 204.664062 234.429688 202.117188 235.042969 199.664062 C 235.304688 198.785156 235.128906 197.996094 234.601562 197.292969 C 234.078125 196.59375 233.464844 196.152344 232.585938 195.976562 C 240.210938 193.433594 250.992188 188.257812 260.457031 177.90625 C 274.652344 162.203125 282.890625 153.515625 288.148438 156.5 C 289.289062 157.203125 290.777344 158.519531 290.953125 159.660156 C 291.476562 163.078125 286.660156 168.519531 284.992188 170.1875 C 284.554688 170.625 282.015625 173.34375 282.363281 173.78125 C 282.714844 174.222656 285.871094 172.203125 286.308594 171.941406 C 288.585938 170.625 295.859375 166.589844 299.453125 167.90625 C 300.417969 168.253906 301.117188 168.957031 301.46875 170.011719 C 303.746094 176.589844 293.84375 183.167969 293.757812 183.257812 C 293.230469 183.519531 290.425781 185.714844 290.601562 186.238281 C 290.777344 186.765625 294.019531 185.363281 294.546875 185.273438 C 294.632812 185.273438 306.8125 182.46875 311.808594 185.800781 C 313.125 186.679688 313.824219 187.820312 314 189.308594 C 314.175781 191.066406 313.824219 192.644531 312.6875 193.960938 Z M 0.179688 228.875 L 3.6875 236.15625 C 3.6875 236.15625 8.332031 236.15625 7.28125 231.246094 C 2.546875 229.664062 0.179688 228.875 0.179688 228.875 Z M 174.484375 167.289062 C 175.011719 167.640625 175.800781 167.464844 176.152344 166.851562 C 176.5 166.324219 176.328125 165.535156 175.714844 165.183594 C 175.101562 164.835938 174.398438 165.011719 174.046875 165.625 C 173.699219 166.148438 173.871094 166.941406 174.484375 167.289062 Z M 160.289062 234.050781 C 159.765625 234.492188 159.765625 235.28125 160.203125 235.71875 C 160.640625 236.246094 161.429688 236.246094 161.867188 235.804688 C 162.394531 235.367188 162.394531 234.578125 161.953125 234.140625 C 161.515625 233.613281 160.726562 233.613281 160.289062 234.050781 Z M 162.304688 172.554688 C 161.78125 172.292969 160.992188 172.464844 160.640625 172.992188 C 160.289062 173.519531 160.464844 174.308594 161.078125 174.660156 C 161.605469 175.011719 162.394531 174.835938 162.742188 174.222656 C 163.09375 173.695312 162.917969 172.90625 162.304688 172.554688 Z M 152.488281 336.867188 C 152.578125 339.5 151.964844 341.78125 151 343.710938 L 23.492188 244.84375 C 23.054688 248.613281 88.253906 295.988281 150.386719 344.589844 C 149.246094 346.429688 147.84375 347.921875 146.441406 349.0625 C 126.636719 332.746094 17.621094 249.316406 17.621094 249.316406 C 22.179688 255.632812 126.726562 334.238281 145.917969 349.5 C 143.027344 351.695312 140.222656 352.574219 140.222656 352.574219 C 140.222656 352.574219 143.199219 354.941406 145.917969 356.871094 C 159.589844 355.816406 158.886719 341.78125 158.886719 341.78125 Z M 161.164062 189.046875 C 160.640625 188.695312 159.851562 188.871094 159.5 189.484375 C 159.148438 190.011719 159.324219 190.800781 159.9375 191.152344 C 160.464844 191.503906 161.253906 191.328125 161.605469 190.714844 C 161.953125 190.1875 161.78125 189.398438 161.164062 189.046875 Z M 164.234375 250.105469 C 163.707031 250.542969 163.707031 251.335938 164.144531 251.773438 C 164.582031 252.300781 165.371094 252.300781 165.808594 251.859375 C 166.335938 251.421875 166.335938 250.632812 165.898438 250.195312 C 165.460938 249.667969 164.671875 249.667969 164.234375 250.105469 Z M 242.226562 151.5 C 242.839844 151.585938 243.542969 151.148438 243.628906 150.535156 C 243.71875 149.921875 243.367188 149.21875 242.664062 149.132812 C 242.050781 149.042969 241.351562 149.480469 241.261719 150.097656 C 241.175781 150.710938 241.613281 151.410156 242.226562 151.5 Z M 269.570312 183.960938 C 268.957031 184.046875 268.429688 184.660156 268.605469 185.363281 C 268.691406 185.976562 269.304688 186.503906 270.007812 186.328125 C 270.621094 186.238281 271.148438 185.625 270.972656 184.925781 C 270.796875 184.308594 270.183594 183.871094 269.570312 183.960938 Z M 228.820312 141.9375 C 229.433594 142.023438 230.132812 141.585938 230.222656 140.972656 C 230.398438 140.269531 229.957031 139.65625 229.257812 139.570312 C 228.644531 139.480469 227.941406 139.917969 227.855469 140.535156 C 227.769531 141.148438 228.207031 141.847656 228.820312 141.9375 Z M 213.046875 146.761719 C 213.660156 146.851562 214.359375 146.410156 214.449219 145.796875 C 214.535156 145.183594 214.183594 144.480469 213.484375 144.394531 C 212.871094 144.304688 212.167969 144.746094 212.082031 145.359375 C 211.992188 145.972656 212.433594 146.675781 213.046875 146.761719 Z M 279.035156 195.890625 C 278.421875 195.976562 277.894531 196.59375 278.070312 197.292969 C 278.246094 197.996094 278.769531 198.433594 279.472656 198.257812 C 280.085938 198.171875 280.613281 197.558594 280.4375 196.855469 C 280.347656 196.242188 279.734375 195.800781 279.035156 195.890625 Z M 213.746094 211.15625 C 215.851562 211.59375 217.953125 210.191406 218.304688 208.085938 C 218.742188 205.980469 217.339844 203.960938 215.234375 203.523438 C 213.132812 203.082031 211.03125 204.488281 210.679688 206.59375 C 210.242188 208.699219 211.644531 210.804688 213.746094 211.15625 Z M 273.863281 211.59375 C 273.25 211.679688 272.722656 212.296875 272.898438 212.996094 C 272.988281 213.609375 273.601562 214.136719 274.300781 213.960938 C 274.914062 213.875 275.441406 213.261719 275.265625 212.558594 C 275.089844 211.855469 274.476562 211.503906 273.863281 211.59375 Z M 178.605469 255.71875 C 178.078125 256.160156 178.078125 256.949219 178.515625 257.386719 C 178.957031 257.914062 179.65625 257.914062 180.183594 257.476562 C 180.707031 257.035156 180.707031 256.246094 180.269531 255.808594 C 179.832031 255.28125 179.042969 255.28125 178.605469 255.71875 Z M 227.59375 266.511719 C 226.980469 266.863281 226.804688 267.5625 227.066406 268.179688 C 227.417969 268.792969 228.207031 268.96875 228.730469 268.703125 C 229.34375 268.351562 229.519531 267.652344 229.257812 267.039062 C 228.90625 266.421875 228.207031 266.246094 227.59375 266.511719 Z M 242.664062 263.617188 C 242.050781 263.96875 241.878906 264.667969 242.140625 265.28125 C 242.492188 265.898438 243.191406 266.074219 243.804688 265.808594 C 244.417969 265.457031 244.59375 264.757812 244.332031 264.140625 C 243.980469 263.527344 243.277344 263.351562 242.664062 263.617188 Z M 254.410156 255.105469 C 255.023438 254.753906 255.199219 254.054688 254.933594 253.441406 C 254.585938 252.824219 253.882812 252.648438 253.269531 252.914062 C 252.65625 253.265625 252.480469 253.964844 252.742188 254.582031 C 253.09375 255.195312 253.796875 255.371094 254.410156 255.105469 Z M 186.316406 50.4375 C 226.890625 36.664062 262.820312 25.433594 262.820312 25.433594 C 258.265625 28.328125 210.941406 45.960938 186.316406 50.4375 Z M 159.9375 87.808594 C 159.9375 87.808594 228.46875 60.261719 228.996094 61.316406 C 229.433594 63.246094 164.058594 88.074219 164.058594 88.074219 Z M 159.9375 87.808594 " fill-opacity="1" fill-rule="nonzero"/><g clip-path="url(#e55aeed42f)"><g clip-path="url(#5215d023fa)"><g clip-path="url(#d3f0fef74c)"><g clip-path="url(#aa14f255ae)"><path fill="#000000" d="M 87.964844 99.464844 C 88.074219 99.5 88.1875 99.511719 88.300781 99.488281 C 88.316406 99.484375 88.332031 99.476562 88.34375 99.46875 C 88.570312 99.460938 88.792969 99.441406 89.011719 99.394531 C 90.855469 98.996094 92.492188 97.375 93.671875 96.210938 L 94.121094 95.773438 C 94.667969 95.238281 95.144531 94.660156 95.539062 94.164062 C 96.625 92.789062 97.375 91.230469 98.023438 89.753906 C 98.496094 88.671875 98.988281 87.507812 99.398438 86.292969 C 99.671875 85.484375 99.925781 84.625 100.214844 83.503906 C 100.691406 81.671875 101.382812 78.105469 100.710938 74.800781 C 100.070312 71.652344 98.308594 69.546875 95.617188 68.632812 C 95.613281 68.628906 95.609375 68.621094 95.605469 68.617188 C 93.644531 66.3125 91.289062 66.28125 88.796875 66.25 C 88.511719 66.246094 88.222656 66.242188 87.929688 66.234375 C 87.488281 66.226562 87.042969 66.15625 86.566406 66.082031 C 85.972656 65.992188 85.355469 65.898438 84.710938 65.917969 C 81.816406 66.019531 78.152344 67.445312 76.480469 70.410156 C 76.433594 70.496094 76.410156 70.585938 76.402344 70.675781 C 75.597656 70.902344 74.863281 71.359375 74.261719 72.207031 C 72.152344 75.183594 72.777344 79.738281 73.335938 82.1875 C 74.117188 85.585938 77.363281 96.769531 86.667969 99.351562 C 87.039062 103.867188 86.960938 108.472656 86.882812 112.933594 C 86.839844 115.332031 86.796875 117.8125 86.820312 120.257812 C 86.828125 120.933594 86.839844 121.589844 86.847656 122.261719 C 86.828125 122.34375 86.820312 122.429688 86.832031 122.515625 C 86.835938 122.535156 86.847656 122.550781 86.855469 122.570312 C 86.871094 123.792969 86.886719 125.015625 86.90625 126.21875 C 83.773438 121.171875 79.503906 117.460938 74.480469 115.480469 C 73.234375 114.992188 71.929688 114.777344 70.671875 114.570312 L 70.21875 114.488281 C 69.28125 114.289062 68.773438 114.199219 68.457031 114.59375 C 68.09375 115.046875 68.113281 115.824219 68.523438 116.902344 C 69.09375 118.4375 70.261719 119.796875 71.433594 121.039062 C 75.691406 125.539062 81.335938 128.257812 86.957031 128.53125 C 87.191406 139.855469 87.660156 150.234375 88.378906 160.027344 C 89.761719 178.789062 94.019531 197.429688 98.257812 214.914062 C 98.339844 215.253906 98.679688 215.460938 99.019531 215.386719 C 99.023438 215.386719 99.03125 215.386719 99.035156 215.386719 C 99.382812 215.300781 99.59375 214.953125 99.511719 214.609375 C 95.28125 197.175781 91.039062 178.59375 89.664062 159.929688 C 88.828125 148.578125 88.332031 136.441406 88.148438 122.9375 C 88.234375 122.921875 88.320312 122.910156 88.40625 122.890625 C 94.6875 121.539062 98.738281 116.75 101.054688 112.882812 C 102.289062 110.820312 103.136719 108.957031 103.652344 107.179688 C 103.792969 106.699219 103.917969 106.1875 103.914062 105.691406 C 103.917969 105.660156 103.925781 105.621094 103.933594 105.585938 C 103.976562 105.363281 104.046875 104.996094 103.78125 104.707031 C 103.644531 104.558594 103.382812 104.464844 103.179688 104.480469 C 102.726562 104.523438 102.253906 104.777344 101.84375 105 C 101.734375 105.058594 101.636719 105.113281 101.550781 105.15625 C 100.355469 105.734375 99.253906 106.4375 97.972656 107.3125 C 93.984375 110.042969 90.675781 114.136719 88.109375 119.492188 C 88.097656 117.308594 88.128906 115.101562 88.167969 112.953125 C 88.246094 108.535156 88.320312 103.96875 87.964844 99.464844 Z M 84.753906 67.203125 C 85.273438 67.183594 85.804688 67.265625 86.367188 67.351562 C 86.859375 67.429688 87.371094 67.507812 87.898438 67.519531 C 88.195312 67.527344 88.488281 67.53125 88.777344 67.535156 C 90.425781 67.554688 91.828125 67.585938 93.066406 68.214844 C 91.214844 68.257812 89.527344 69.007812 87.882812 69.738281 C 86.402344 70.394531 85.007812 71.015625 83.507812 71.148438 C 82.6875 71.222656 81.710938 71.042969 80.679688 70.851562 C 79.796875 70.6875 78.871094 70.519531 77.972656 70.503906 C 79.523438 68.34375 82.414062 67.28125 84.753906 67.203125 Z M 74.59375 81.902344 C 74.078125 79.660156 73.492188 75.515625 75.3125 72.945312 C 76.433594 71.371094 78.378906 71.730469 80.441406 72.113281 C 81.515625 72.3125 82.625 72.519531 83.625 72.425781 C 85.335938 72.269531 86.894531 71.578125 88.40625 70.910156 C 90.492188 69.984375 92.460938 69.113281 94.660156 69.671875 C 97.242188 70.328125 98.851562 72.140625 99.449219 75.058594 C 100.070312 78.113281 99.414062 81.460938 98.964844 83.1875 C 98.683594 84.277344 98.441406 85.109375 98.175781 85.886719 C 97.78125 87.054688 97.300781 88.1875 96.84375 89.242188 C 96.132812 90.859375 95.46875 92.183594 94.527344 93.371094 C 94.160156 93.835938 93.71875 94.375 93.222656 94.851562 L 92.761719 95.304688 C 91.78125 96.277344 90.539062 97.5 89.257812 97.988281 C 91.402344 94.671875 92.921875 90.945312 93.648438 87.132812 C 93.714844 86.785156 93.484375 86.449219 93.136719 86.382812 C 92.789062 86.320312 92.449219 86.546875 92.382812 86.894531 C 91.761719 90.148438 90.539062 93.335938 88.824219 96.242188 C 88.828125 96.136719 88.832031 96.03125 88.835938 95.925781 C 89.007812 91.28125 89.183594 86.476562 88.644531 81.773438 C 88.605469 81.421875 88.285156 81.167969 87.929688 81.210938 C 87.585938 81.25 87.324219 81.570312 87.363281 81.921875 C 87.894531 86.53125 87.71875 91.285156 87.546875 95.878906 C 87.535156 96.167969 87.527344 96.453125 87.515625 96.742188 C 87.507812 96.730469 87.5 96.714844 87.492188 96.703125 C 85.941406 94.425781 84.472656 92.277344 83.65625 89.601562 C 83.554688 89.261719 83.1875 89.074219 82.855469 89.171875 C 82.511719 89.277344 82.320312 89.636719 82.425781 89.972656 C 83.296875 92.839844 84.816406 95.066406 86.425781 97.421875 C 86.566406 97.632812 86.707031 97.847656 86.851562 98.058594 C 78.359375 95.570312 75.324219 85.101562 74.59375 81.902344 Z M 72.371094 120.160156 C 71.292969 119.015625 70.222656 117.777344 69.730469 116.453125 C 69.605469 116.128906 69.535156 115.847656 69.5 115.65625 C 69.613281 115.679688 69.761719 115.707031 69.941406 115.746094 L 70.457031 115.835938 C 71.707031 116.042969 72.886719 116.238281 74 116.675781 C 78.863281 118.59375 83.003906 122.21875 86.011719 127.179688 C 81.058594 126.664062 76.144531 124.148438 72.371094 120.160156 Z M 98.699219 108.371094 C 99.933594 107.53125 100.988281 106.855469 102.109375 106.3125 C 102.214844 106.261719 102.332031 106.199219 102.457031 106.128906 C 102.5 106.105469 102.546875 106.082031 102.597656 106.054688 C 102.558594 106.308594 102.488281 106.574219 102.414062 106.828125 C 101.929688 108.496094 101.121094 110.261719 99.945312 112.226562 C 97.820312 115.777344 94.164062 120.148438 88.585938 121.53125 C 91.144531 115.640625 94.542969 111.214844 98.699219 108.371094 Z M 98.699219 108.371094 " fill-opacity="1" fill-rule="evenodd"/></g></g></g></g><g clip-path="url(#c75c66b70e)"><g clip-path="url(#276eadd00d)"><g clip-path="url(#83e7fadac5)"><g clip-path="url(#e9c4de8ed7)"><path fill="#000000" d="M 82.53125 88.300781 C 82.859375 88.15625 83.007812 87.78125 82.867188 87.453125 C 82.441406 86.488281 82.089844 85.375 81.789062 84.046875 C 81.710938 83.707031 81.371094 83.488281 81.027344 83.5625 C 81.023438 83.5625 81.019531 83.566406 81.019531 83.566406 C 80.671875 83.644531 80.453125 83.988281 80.53125 84.332031 C 80.851562 85.738281 81.226562 86.929688 81.683594 87.96875 C 81.808594 88.253906 82.117188 88.402344 82.40625 88.339844 C 82.449219 88.332031 82.492188 88.316406 82.53125 88.300781 Z M 82.53125 88.300781 " fill-opacity="1" fill-rule="evenodd"/></g></g></g></g><g clip-path="url(#47ab11ec67)"><g clip-path="url(#743f90c09f)"><g clip-path="url(#cd4dfe270a)"><g clip-path="url(#756bd95df6)"><path fill="#000000" d="M 93.511719 84.921875 C 93.582031 84.925781 93.648438 84.921875 93.714844 84.910156 C 93.980469 84.851562 94.1875 84.632812 94.21875 84.347656 C 94.292969 83.648438 94.34375 82.949219 94.394531 82.25 L 94.417969 81.914062 C 94.445312 81.5625 94.175781 81.253906 93.820312 81.230469 C 93.472656 81.203125 93.160156 81.46875 93.132812 81.824219 L 93.109375 82.160156 C 93.058594 82.847656 93.011719 83.53125 92.9375 84.214844 C 92.902344 84.566406 93.15625 84.882812 93.511719 84.921875 Z M 93.511719 84.921875 " fill-opacity="1" fill-rule="evenodd"/></g></g></g></g><g clip-path="url(#12f8dcb79f)"><g clip-path="url(#025021fdc6)"><g clip-path="url(#55c1e17f4b)"><g clip-path="url(#cd8910ea74)"><path fill="#000000" d="M 329.390625 100.75 C 328.769531 99.886719 329.257812 100.085938 330.039062 95.902344 C 333.382812 77.953125 312.402344 72.117188 312.292969 75.769531 C 312.113281 81.679688 310.769531 79.101562 311.019531 83.5625 C 311.421875 90.847656 314.851562 91.523438 319.34375 95.789062 C 324.160156 100.355469 321.769531 99.707031 324.464844 102.0625 C 325.828125 103.257812 323.078125 104.460938 321.417969 99.886719 C 321.222656 99.351562 316.476562 94.507812 314.253906 93.371094 C 310.546875 91.488281 308.472656 83.019531 310.382812 79.269531 C 311.210938 77.648438 310.660156 76.691406 310.636719 74.953125 C 310.597656 72.417969 321.664062 73.117188 324.941406 77.804688 C 336.472656 91.203125 330.171875 101.828125 329.390625 100.75 " fill-opacity="1" fill-rule="evenodd"/></g></g></g></g><g clip-path="url(#1cd8cd24ea)"><g clip-path="url(#6084f23474)"><g clip-path="url(#ceaa476734)"><g clip-path="url(#6b258e40f5)"><path fill="#000000" d="M 310.730469 93.617188 C 319.019531 96.316406 318.359375 100.46875 320.746094 102.886719 C 321.460938 103.613281 321.367188 104.601562 320.191406 103.183594 C 317.230469 99.621094 317.964844 97.59375 311.449219 94.917969 C 307.71875 93.386719 301.34375 93.066406 297.148438 96.316406 C 295.585938 97.527344 296.332031 97.855469 293.90625 99.394531 C 291.390625 100.988281 289.886719 103.28125 291.96875 105.390625 C 296.464844 109.949219 294.722656 112.5625 299.902344 114.574219 C 309.460938 118.285156 318.164062 112.546875 319.765625 110.921875 C 323.226562 107.398438 326.101562 110.199219 320.882812 113.296875 C 315.328125 116.59375 308.414062 118.265625 302.179688 116.582031 C 298.445312 115.574219 295.59375 113.773438 294.277344 110.210938 C 292.695312 105.933594 289.105469 106.140625 290.265625 102.425781 C 290.632812 101.261719 291.304688 100.300781 292.234375 99.519531 C 295.6875 96.625 300.183594 90.183594 310.730469 93.617188 " fill-opacity="1" fill-rule="evenodd"/></g></g></g></g><g clip-path="url(#c53920c388)"><g clip-path="url(#29fb3733b0)"><g clip-path="url(#d24792d59b)"><g clip-path="url(#6a1fdd668e)"><path fill="#000000" d="M 331.921875 114.25 C 332.109375 114.378906 342.722656 126.707031 331.527344 136.550781 C 329.238281 138.558594 328.371094 138.296875 326.570312 139.445312 C 324.796875 140.578125 321.421875 142.394531 319.691406 141.195312 C 318.15625 140.125 316.757812 141.488281 315.582031 139.191406 C 314.398438 136.875 312.40625 135.066406 312.492188 130.140625 C 312.558594 126.609375 313.105469 124.519531 315.074219 121.558594 C 321.675781 111.621094 328.871094 109.808594 325.980469 112.15625 C 324.953125 112.988281 313.261719 120.65625 313.355469 129.730469 C 313.410156 135.015625 316.785156 139.457031 318.210938 139.335938 C 319.925781 139.183594 320.261719 140.542969 321.699219 140.109375 C 332.964844 136.703125 339.164062 128.582031 333.285156 117.246094 C 332.054688 114.867188 331.859375 114.789062 331.921875 114.25 " fill-opacity="1" fill-rule="evenodd"/></g></g></g></g><g clip-path="url(#0c58bebdb9)"><g clip-path="url(#26c132e34f)"><g clip-path="url(#82d6e05393)"><g clip-path="url(#7844cc248a)"><path fill="#000000" d="M 333.660156 112.339844 C 334.445312 114.070312 338.070312 117.539062 339.289062 118.636719 C 341.945312 121.027344 343.179688 119.90625 347.011719 123.316406 C 348.105469 124.285156 349.402344 123.070312 349.714844 122.207031 C 350.3125 120.5625 350.113281 120.308594 350.148438 117.65625 C 350.167969 116.328125 351.933594 109.820312 348.195312 108.066406 C 342.59375 105.4375 336.527344 110.46875 334.894531 108.621094 C 334.703125 108.402344 334.734375 108.125 335.136719 108.007812 C 335.425781 108.953125 351.953125 100.792969 351.355469 113.734375 C 351.238281 116.3125 350.855469 115.53125 350.910156 117.898438 C 351.089844 125.742188 347.855469 125.296875 346.996094 124.652344 C 345.25 123.347656 345.449219 122.90625 343.828125 122.289062 C 337.71875 119.953125 336.789062 117.425781 334.566406 115.550781 C 331.800781 113.214844 333.140625 111.179688 333.660156 112.339844 " fill-opacity="1" fill-rule="evenodd"/></g></g></g></g><g clip-path="url(#dce12fba8b)"><g clip-path="url(#34820578b4)"><g clip-path="url(#c39f776085)"><g clip-path="url(#99d606233c)"><path fill="#000000" d="M 348.636719 86.871094 C 350.742188 86.378906 351 88.113281 352.105469 88.824219 C 354.796875 90.546875 352.441406 105.835938 337.035156 106.003906 C 336.316406 106.011719 333.492188 107.0625 334.40625 105.898438 C 336.019531 103.855469 352.976562 106.363281 352.15625 90.742188 C 352.101562 89.648438 351.71875 89.789062 350.484375 88.3125 C 349.703125 87.378906 350.027344 87.363281 341.316406 89.628906 C 335.449219 91.152344 332.28125 97.417969 332.558594 101.964844 C 332.6875 104.050781 329.890625 101.5625 334.289062 93.921875 C 334.394531 93.742188 334.535156 93.574219 334.605469 93.382812 C 336.09375 89.285156 343.175781 88.144531 348.636719 86.871094 " fill-opacity="1" fill-rule="evenodd"/></g></g></g></g><g clip-path="url(#91b1a7a5ed)"><g clip-path="url(#62d59e19c5)"><g clip-path="url(#5ad392b069)"><g clip-path="url(#88d7ccc218)"><path fill="#000000" d="M 328.339844 109.289062 C 329.066406 107.65625 331.289062 107.886719 331.304688 109.34375 C 331.328125 110.960938 330.609375 111.410156 330.375 111.292969 C 330.089844 111.15625 330.34375 110.714844 330.457031 109.8125 C 330.621094 108.496094 327.902344 109.785156 329.632812 110.582031 C 330.183594 110.835938 329.867188 111.589844 329.347656 111.617188 C 328.820312 111.644531 327.59375 110.976562 328.339844 109.289062 " fill-opacity="1" fill-rule="evenodd"/></g></g></g></g><g clip-path="url(#3acac30027)"><g clip-path="url(#81ff881db6)"><g clip-path="url(#ffb094001f)"><g clip-path="url(#bb060855d2)"><path fill="#000000" d="M 328.71875 104.261719 C 329.730469 104.496094 329.753906 105.957031 329.007812 106.667969 C 328.3125 107.328125 326.425781 107.503906 326.742188 105.417969 C 326.84375 104.75 327.898438 104.074219 328.71875 104.261719 Z M 328.679688 105.9375 C 328.953125 105.003906 327.363281 105.316406 327.722656 105.828125 C 327.921875 106.109375 328.355469 106.160156 328.679688 105.9375 " fill-opacity="1" fill-rule="evenodd"/></g></g></g></g><g clip-path="url(#738059fa7a)"><g clip-path="url(#ec7ea8d175)"><g clip-path="url(#41cc5fa1b3)"><g clip-path="url(#80ecd43b54)"><path fill="#000000" d="M 327.023438 99.84375 C 326.84375 100.082031 325.007812 100.613281 324.773438 99.59375 C 324.0625 96.511719 329.355469 96.78125 327.023438 99.84375 Z M 326.550781 99.277344 C 327.585938 97.585938 324.449219 98.636719 325.929688 99.328125 C 326.121094 99.421875 326.3125 99.476562 326.550781 99.277344 " fill-opacity="1" fill-rule="evenodd"/></g></g></g></g><g clip-path="url(#98ab3ef7c1)"><g clip-path="url(#badec6b887)"><g clip-path="url(#1d8ff1c471)"><g clip-path="url(#0642f72fbe)"><path fill="#000000" d="M 323.40625 107.347656 C 323.136719 107.972656 321.191406 108.351562 321.089844 106.769531 C 320.964844 104.742188 324.644531 104.515625 323.40625 107.347656 Z M 322.988281 106.863281 C 323.273438 105.8125 321.628906 106.191406 322.046875 106.734375 C 322.242188 106.988281 322.714844 107.050781 322.988281 106.863281 " fill-opacity="1" fill-rule="evenodd"/></g></g></g></g><g clip-path="url(#67ed8e2444)"><g clip-path="url(#48b1888523)"><g clip-path="url(#4ed45e6b1b)"><g clip-path="url(#0b9016d92b)"><path fill="#000000" d="M 318.933594 108.039062 C 316.984375 107.640625 318.828125 105.128906 319.851562 106.339844 C 320.242188 106.804688 319.988281 108.925781 318.894531 108.035156 C 319.585938 107.578125 318.945312 106.796875 318.734375 107.328125 C 318.625 107.601562 318.683594 107.851562 318.933594 108.039062 " fill-opacity="1" fill-rule="evenodd"/></g></g></g></g><g clip-path="url(#2f301842e9)"><g clip-path="url(#e62ba1583c)"><g clip-path="url(#2b275e8f4d)"><g clip-path="url(#cc958e904c)"><path fill="#000000" d="M 338.363281 275.132812 C 331.351562 277.710938 330.65625 281.59375 330 285.390625 C 329.921875 285.84375 329.03125 290.359375 328.621094 290.15625 C 328.007812 289.773438 328.59375 285.019531 328.714844 284.300781 C 329.046875 282.339844 329.550781 280.351562 329.921875 278.539062 C 330.414062 276.152344 330.671875 274.070312 330 272.746094 C 329.027344 270.828125 326.972656 269.9375 325.425781 270.484375 C 320.238281 272.308594 320.585938 270.316406 317.222656 277.132812 C 315.226562 281.183594 316.042969 282.476562 319.933594 289.625 C 320.339844 290.375 319.914062 290.605469 319.324219 290.34375 C 314.769531 288.320312 312.542969 281.875 307.777344 283.414062 C 306.878906 283.703125 306.207031 284.164062 305.6875 284.703125 C 305.082031 285.335938 304.683594 286.082031 304.378906 286.789062 C 303.980469 287.710938 303.742188 288.570312 303.402344 289.0625 C 300.140625 293.792969 303.535156 300.265625 308.929688 302.292969 C 313.253906 303.914062 315.460938 301.449219 318.46875 302.125 C 318.675781 302.171875 318.988281 302.171875 319.023438 302.414062 C 319.191406 303.5 316.667969 303.191406 313.171875 304.964844 C 309.8125 306.671875 306.792969 309.515625 307.792969 312.707031 C 308.441406 314.785156 307.679688 316.742188 310.238281 318.890625 C 313.898438 321.96875 314.527344 320.5 317.285156 320.871094 C 318.78125 321.070312 320.105469 320.636719 321.25 319.789062 C 325.378906 316.730469 327.195312 308.332031 326.527344 305.265625 C 326.425781 304.808594 326.328125 304.488281 326.148438 304.367188 C 325.890625 304.195312 326.03125 305.070312 326.035156 305.394531 C 326.066406 306.996094 326.25 308.636719 325.707031 310.167969 C 323.691406 315.828125 322.207031 317.824219 320.753906 318.5625 C 319.261719 319.320312 317.828125 318.820312 315.835938 319.453125 C 312.503906 320.507812 310.957031 318.152344 309.632812 315.546875 C 308.570312 313.453125 308.144531 311.109375 308.742188 309.945312 C 311.890625 303.789062 317.316406 305.195312 319.65625 302.707031 C 320.007812 302.332031 319.996094 302.046875 319.445312 301.757812 C 316.820312 300.382812 313.707031 302.421875 310.25 301.292969 C 308.0625 300.578125 306.078125 299.570312 303.300781 293.699219 C 302.765625 292.554688 302.492188 291.289062 305.296875 286.324219 C 306.628906 283.972656 308.113281 283.40625 309.621094 283.765625 C 311.128906 284.132812 312.660156 285.429688 314.066406 286.796875 C 315.613281 288.300781 317.019531 289.890625 318.09375 290.429688 C 323.152344 292.933594 319.816406 287.179688 318.0625 282.546875 C 317.40625 280.808594 317.21875 279.074219 318.253906 277.347656 C 318.863281 276.328125 319.34375 275.226562 319.824219 274.136719 C 320.851562 271.796875 322.371094 272.363281 325.285156 271.226562 C 327.425781 270.386719 329.816406 272.160156 329.824219 274.449219 C 329.828125 275.699219 326.84375 287.824219 327.75 290.0625 C 327.753906 290.074219 327.757812 290.085938 327.761719 290.09375 C 327.773438 290.125 327.796875 290.15625 327.8125 290.191406 C 327.824219 290.207031 327.832031 290.230469 327.84375 290.25 C 328.054688 290.632812 328.382812 291.015625 328.855469 290.988281 C 328.863281 290.988281 328.863281 290.980469 328.871094 290.976562 C 329.375 290.996094 330.511719 288.753906 330.855469 284.832031 C 331.402344 278.625 338.480469 274.3125 343.816406 277.109375 C 351.15625 280.96875 347.28125 284.363281 349.136719 288.746094 C 351.195312 293.613281 338.167969 295.578125 334.40625 294.667969 C 332.773438 294.273438 331.109375 295.574219 332.316406 296.867188 C 335.117188 299.871094 342.265625 297.8125 347.246094 307.1875 C 349.957031 312.296875 342.164062 313.363281 341.875 314.644531 C 341.652344 315.636719 340.933594 315.96875 340 315.890625 C 329.238281 315.015625 328.15625 302.734375 327.726562 300.804688 C 327.128906 298.132812 325.800781 301.765625 322.933594 299.046875 C 320.933594 297.152344 322.570312 293.699219 324.324219 292.808594 C 326.3125 291.800781 328.628906 296.457031 328.078125 298.25 C 327.988281 298.546875 327.753906 298.9375 328.210938 299.105469 C 328.585938 299.242188 328.71875 298.859375 328.867188 298.601562 C 331.066406 294.800781 327.238281 290.277344 324.433594 291.789062 C 322.476562 292.84375 320.09375 295.585938 321.730469 298.601562 C 322.347656 299.734375 323.445312 301.019531 324.871094 300.847656 C 325.976562 300.714844 326.84375 299.988281 327.03125 301.117188 C 328.289062 308.660156 331.601562 315.71875 339.820312 316.730469 C 342.75 317.085938 341.664062 315.246094 344.363281 314.003906 C 355.589844 308.824219 345.328125 296.894531 333.222656 296.285156 C 332.488281 296.25 332.496094 295.5 333.160156 295.410156 C 334.351562 295.242188 340.433594 295.773438 343.808594 294.535156 C 354.609375 290.566406 349.054688 288.921875 349.976562 283.816406 C 351.054688 277.910156 343.984375 273.070312 338.363281 275.132812 " fill-opacity="1" fill-rule="evenodd"/></g></g></g></g><g clip-path="url(#1778bafdf2)"><g clip-path="url(#8e87bd37da)"><g clip-path="url(#9934f57f59)"><path fill="#1a1a1a" d="M 190.824219 109.425781 C 190.582031 109.3125 190.453125 109.117188 190.441406 108.847656 C 190.144531 102.140625 195.492188 95.632812 202.125 94.640625 C 207.398438 93.847656 212.292969 96.15625 217.023438 98.386719 C 220.203125 99.882812 223.488281 101.433594 226.859375 102.03125 C 234.515625 103.394531 242.78125 99.410156 246.507812 92.5625 C 247.417969 90.890625 247.953125 88.960938 248.085938 87.039062 C 245.660156 87.804688 242.671875 88.023438 240.203125 86.84375 C 239.664062 86.589844 239.164062 86.269531 238.703125 85.890625 C 237.128906 84.585938 236.300781 82.328125 236.597656 80.140625 C 236.84375 78.355469 237.816406 76.957031 239.273438 76.300781 C 240.617188 75.695312 242.320312 75.730469 243.941406 76.394531 C 246.191406 77.316406 247.855469 79.144531 248.753906 81.683594 C 249.132812 82.777344 249.359375 83.902344 249.433594 85.0625 C 250.90625 84.382812 252.320312 83.523438 253.699219 82.6875 C 254.851562 81.984375 256.039062 81.261719 257.273438 80.636719 C 261.109375 78.695312 265.492188 77.722656 269.953125 77.828125 C 274.410156 77.933594 278.738281 79.113281 282.46875 81.238281 C 282.632812 81.328125 282.738281 81.464844 282.789062 81.648438 C 282.839844 81.828125 282.816406 82 282.726562 82.164062 C 282.632812 82.324219 282.496094 82.433594 282.316406 82.480469 C 282.132812 82.53125 281.960938 82.507812 281.800781 82.414062 C 274.632812 78.335938 265.246094 78.113281 257.878906 81.84375 C 256.695312 82.445312 255.527344 83.15625 254.398438 83.84375 C 252.824219 84.800781 251.203125 85.785156 249.457031 86.527344 C 249.386719 88.839844 248.789062 91.199219 247.695312 93.207031 C 243.695312 100.554688 234.832031 104.824219 226.621094 103.367188 C 223.074219 102.734375 219.703125 101.148438 216.445312 99.609375 C 211.6875 97.367188 207.191406 95.246094 202.320312 95.976562 C 196.34375 96.875 191.523438 102.738281 191.789062 108.785156 C 191.796875 108.902344 191.773438 109.015625 191.71875 109.121094 C 191.664062 109.226562 191.585938 109.3125 191.488281 109.378906 C 191.390625 109.445312 191.28125 109.484375 191.164062 109.492188 C 191.042969 109.5 190.929688 109.480469 190.824219 109.425781 Z M 243.785156 77.808594 C 243.667969 77.75 243.550781 77.699219 243.425781 77.648438 C 242.144531 77.125 240.832031 77.082031 239.824219 77.535156 C 238.425781 78.164062 238.042969 79.550781 237.9375 80.320312 C 237.703125 82.03125 238.359375 83.847656 239.566406 84.84375 C 241.941406 86.8125 245.46875 86.546875 248.113281 85.605469 C 248.070312 84.394531 247.863281 83.214844 247.480469 82.140625 C 246.972656 80.707031 245.921875 78.828125 243.785156 77.808594 Z M 243.785156 77.808594 " fill-opacity="1" fill-rule="nonzero"/></g></g></g><g clip-path="url(#07c19d8e73)"><g clip-path="url(#d57e750b45)"><g clip-path="url(#2dc4a7f826)"><g clip-path="url(#5eaf86876d)"><path fill="#333333" d="M 330.75 186.5 C 330.570312 184.480469 330.984375 182.996094 331.984375 182.070312 C 332.058594 181.996094 332.140625 181.929688 332.222656 181.867188 C 331.445312 178.371094 331.746094 174.453125 333.132812 170.335938 C 334.542969 166.144531 336.546875 163.261719 336.628906 163.140625 C 336.800781 162.894531 337.136719 162.839844 337.378906 163.011719 C 337.621094 163.183594 337.679688 163.519531 337.507812 163.765625 C 337.4375 163.867188 331.433594 172.597656 333.207031 181.335938 C 334.847656 180.757812 336.945312 181.234375 338.476562 181.960938 C 340.148438 182.75 341.015625 184.175781 340.789062 185.785156 C 340.578125 187.304688 339.410156 188.570312 338.007812 188.796875 C 337.203125 188.925781 335.148438 188.859375 333.46875 185.433594 C 333.09375 184.667969 332.78125 183.875 332.53125 183.050781 C 331.6875 184.039062 331.191406 186.285156 333.078125 191.371094 C 335.144531 196.945312 337.84375 201.324219 340.226562 205.1875 C 342.507812 208.886719 344.476562 212.082031 345.269531 215.339844 C 347.707031 225.324219 343.644531 239.980469 338.730469 244.535156 C 338.511719 244.734375 338.171875 244.722656 337.972656 244.5 C 337.769531 244.28125 337.785156 243.9375 338.003906 243.734375 C 343.503906 238.636719 346.175781 223.5625 344.226562 215.597656 C 343.472656 212.503906 341.546875 209.378906 339.3125 205.757812 C 336.90625 201.851562 334.175781 197.421875 332.070312 191.75 C 331.320312 189.722656 330.878906 187.96875 330.75 186.5 Z M 339.738281 185.089844 C 339.660156 184.195312 339.058594 183.429688 338.019531 182.9375 C 336.5625 182.25 334.734375 181.890625 333.460938 182.398438 C 333.699219 183.257812 334.019531 184.113281 334.433594 184.957031 C 335.390625 186.910156 336.632812 187.921875 337.835938 187.726562 C 338.785156 187.574219 339.578125 186.691406 339.726562 185.632812 C 339.75 185.449219 339.753906 185.269531 339.738281 185.089844 Z M 339.738281 185.089844 " fill-opacity="1" fill-rule="nonzero"/></g></g></g></g></svg>