<svg xmlns="http://www.w3.org/2000/svg" xmlns:xlink="http://www.w3.org/1999/xlink" width="250" zoomAndPan="magnify" viewBox="0 0 375 374.999991" height="250" preserveAspectRatio="xMidYMid meet" version="1.0"><defs><g/><clipPath id="95d33897ff"><path d="M 101.550781 48.222656 L 273.300781 48.222656 L 273.300781 243 L 101.550781 243 Z M 101.550781 48.222656 " clip-rule="nonzero"/></clipPath></defs><path fill="#ffffff" d="M 102.253906 49.171875 C 102.253906 49.171875 103.992188 236.167969 104.570312 238.488281 C 105.730469 243.078125 272.703125 243.972656 272.492188 238.4375 C 272.28125 232.953125 270.648438 57.394531 268.699219 51.226562 C 267.753906 48.222656 102.253906 49.171875 102.253906 49.171875 Z M 102.253906 49.171875 " fill-opacity="1" fill-rule="nonzero"/><g clip-path="url(#95d33897ff)"><path fill="#241726" d="M 194.007812 242.867188 C 171.792969 242.867188 149.632812 242.496094 133.207031 241.863281 C 104.570312 240.757812 104.203125 239.386719 104.046875 238.648438 C 103.464844 236.328125 101.886719 68.363281 101.730469 49.171875 C 101.730469 49.011719 101.78125 48.855469 101.886719 48.75 C 101.992188 48.644531 102.152344 48.589844 102.308594 48.589844 C 102.570312 48.589844 127.679688 48.433594 157.949219 48.433594 C 268.492188 48.433594 269.015625 50.121094 269.28125 51.015625 C 270.648438 55.390625 271.859375 136.84375 272.808594 215.976562 C 272.964844 228.789062 273.070312 237.277344 273.121094 238.4375 C 273.121094 238.59375 273.070312 238.859375 272.859375 239.121094 C 269.4375 242.550781 211.640625 242.867188 194.007812 242.867188 Z M 105.097656 238.277344 C 107.730469 240.175781 147.367188 241.707031 194.007812 241.707031 C 245.066406 241.707031 270.070312 239.964844 271.910156 238.382812 C 271.859375 236.855469 271.753906 228.527344 271.597656 216.03125 C 271.015625 168.6875 269.648438 58.34375 268.175781 51.597656 C 266.28125 50.859375 248.910156 49.644531 157.894531 49.644531 C 130.15625 49.644531 106.78125 49.75 102.835938 49.804688 C 103.414062 113.59375 104.675781 233.585938 105.097656 238.277344 Z M 105.097656 238.277344 " fill-opacity="1" fill-rule="nonzero"/></g><path fill="#d87be1" d="M 113.363281 57.238281 L 172.425781 57.449219 C 172.425781 57.449219 173.425781 109.535156 172.632812 109.484375 C 169.898438 109.273438 114.785156 110.75 113.152344 110.167969 Z M 113.363281 57.238281 " fill-opacity="1" fill-rule="nonzero"/><path fill="#241726" d="M 230.011719 136.210938 C 229.90625 136.210938 229.644531 136.160156 229.589844 136.054688 C 228.328125 135.15625 222.429688 126.988281 221.746094 126.089844 C 221.640625 125.984375 221.640625 125.828125 221.640625 125.667969 C 221.695312 125.511719 221.746094 125.351562 221.90625 125.300781 C 222.695312 124.773438 226.800781 122.1875 228.328125 122.1875 C 228.589844 122.1875 228.800781 122.242188 229.011719 122.398438 C 229.695312 122.980469 231.167969 125.457031 231.957031 126.777344 C 235.222656 123.085938 243.59375 113.910156 245.855469 113.910156 C 245.960938 113.910156 246.117188 113.910156 246.222656 113.964844 C 248.171875 114.703125 250.855469 117.445312 250.960938 117.601562 C 251.066406 117.707031 251.121094 117.867188 251.121094 118.023438 C 251.121094 118.183594 251.066406 118.339844 250.960938 118.445312 C 246.488281 122.609375 232.0625 136.210938 230.011719 136.210938 Z M 223.011719 125.933594 C 225.429688 129.253906 229.0625 134.105469 230.0625 135.050781 C 231.800781 134.421875 241.222656 126.039062 249.59375 118.023438 C 248.804688 117.234375 247.011719 115.597656 245.699219 115.070312 C 244.488281 115.070312 237.855469 121.714844 232.167969 128.144531 C 232.0625 128.304688 231.855469 128.355469 231.695312 128.355469 C 231.484375 128.355469 231.328125 128.25 231.273438 128.039062 C 230.328125 126.300781 228.746094 123.664062 228.222656 123.296875 C 227.535156 123.347656 224.90625 124.773438 223.011719 125.933594 Z M 223.011719 125.933594 " fill-opacity="1" fill-rule="nonzero"/><path fill="#241726" d="M 229.90625 154.929688 C 229.800781 154.929688 229.539062 154.875 229.484375 154.769531 C 228.222656 153.875 222.324219 145.703125 221.640625 144.804688 C 221.535156 144.699219 221.535156 144.542969 221.535156 144.382812 C 221.589844 144.226562 221.640625 144.066406 221.800781 144.015625 C 222.589844 143.488281 226.695312 140.90625 228.222656 140.90625 C 228.484375 140.90625 228.695312 140.957031 228.90625 141.117188 C 229.589844 141.695312 231.0625 144.171875 231.855469 145.492188 C 235.117188 141.800781 243.488281 132.628906 245.75 132.628906 C 245.855469 132.628906 246.011719 132.628906 246.117188 132.679688 C 248.066406 133.417969 250.75 136.160156 250.855469 136.316406 C 250.960938 136.421875 251.015625 136.582031 251.015625 136.738281 C 251.015625 136.898438 250.960938 137.054688 250.855469 137.160156 C 246.382812 141.328125 231.957031 154.929688 229.90625 154.929688 Z M 222.957031 144.648438 C 225.378906 147.96875 229.011719 152.820312 230.011719 153.769531 C 231.75 153.136719 241.171875 144.753906 249.539062 136.738281 C 248.75 135.949219 246.960938 134.316406 245.644531 133.789062 C 244.433594 133.789062 237.800781 140.429688 232.117188 146.863281 C 232.011719 147.019531 231.800781 147.074219 231.644531 147.074219 C 231.433594 147.074219 231.273438 146.96875 231.222656 146.757812 C 230.273438 145.015625 228.695312 142.378906 228.167969 142.011719 C 227.378906 142.0625 224.746094 143.539062 222.957031 144.648438 Z M 222.957031 144.648438 " fill-opacity="1" fill-rule="nonzero"/><path fill="#241726" d="M 231.484375 174.910156 C 231.378906 174.910156 231.117188 174.855469 231.0625 174.75 C 229.800781 173.855469 223.90625 165.683594 223.21875 164.785156 C 223.117188 164.679688 223.117188 164.523438 223.117188 164.363281 C 223.167969 164.207031 223.21875 164.046875 223.378906 163.996094 C 224.167969 163.46875 228.273438 160.886719 229.800781 160.886719 C 230.0625 160.886719 230.273438 160.9375 230.484375 161.097656 C 231.167969 161.675781 232.644531 164.152344 233.433594 165.472656 C 236.695312 161.78125 245.066406 152.609375 247.328125 152.609375 C 247.433594 152.609375 247.59375 152.609375 247.699219 152.660156 C 249.644531 153.398438 252.332031 156.140625 252.433594 156.300781 C 252.539062 156.402344 252.59375 156.5625 252.59375 156.71875 C 252.59375 156.878906 252.539062 157.035156 252.433594 157.140625 C 247.960938 161.308594 233.539062 174.910156 231.484375 174.910156 Z M 224.535156 164.628906 C 226.957031 167.949219 230.589844 172.800781 231.589844 173.75 C 233.328125 173.117188 242.75 164.734375 251.121094 156.71875 C 250.328125 155.929688 248.539062 154.296875 247.222656 153.769531 C 246.011719 153.769531 239.382812 160.410156 233.695312 166.84375 C 233.589844 167 233.378906 167.054688 233.222656 167.054688 C 233.011719 167.054688 232.855469 166.949219 232.800781 166.738281 C 231.855469 164.996094 230.273438 162.363281 229.746094 161.992188 C 229.011719 162.046875 226.433594 163.46875 224.535156 164.628906 Z M 224.535156 164.628906 " fill-opacity="1" fill-rule="nonzero"/><path fill="#241726" d="M 217.0625 84.703125 L 183.164062 84.703125 C 182.847656 84.703125 182.582031 84.441406 182.582031 84.125 C 182.582031 83.808594 182.847656 83.546875 183.164062 83.546875 L 217.0625 83.546875 C 217.378906 83.546875 217.640625 83.808594 217.640625 84.125 C 217.640625 84.441406 217.378906 84.703125 217.0625 84.703125 Z M 217.0625 84.703125 " fill-opacity="1" fill-rule="nonzero"/><path fill="#241726" d="M 217.0625 94.089844 L 182.476562 93.035156 C 182.164062 93.035156 181.898438 92.769531 181.898438 92.453125 C 181.898438 92.136719 182.214844 91.925781 182.476562 91.875 L 217.0625 92.929688 C 217.378906 92.929688 217.640625 93.191406 217.640625 93.507812 C 217.640625 93.824219 217.378906 94.089844 217.0625 94.089844 Z M 217.0625 94.089844 " fill-opacity="1" fill-rule="nonzero"/><path fill="#241726" d="M 200.796875 102.894531 C 200.742188 102.894531 200.742188 102.894531 200.796875 102.894531 L 182.847656 102.367188 C 182.53125 102.367188 182.265625 102.101562 182.265625 101.785156 C 182.265625 101.46875 182.53125 101.207031 182.847656 101.207031 L 200.796875 101.734375 C 201.113281 101.734375 201.375 101.996094 201.375 102.3125 C 201.324219 102.683594 201.058594 102.894531 200.796875 102.894531 Z M 200.796875 102.894531 " fill-opacity="1" fill-rule="nonzero"/><path fill="#241726" d="M 264.070312 85.441406 L 230.167969 85.441406 C 229.851562 85.441406 229.589844 85.179688 229.589844 84.863281 C 229.589844 84.546875 229.851562 84.28125 230.167969 84.28125 L 264.070312 84.28125 C 264.382812 84.28125 264.648438 84.546875 264.648438 84.863281 C 264.648438 85.179688 264.382812 85.441406 264.070312 85.441406 Z M 264.070312 85.441406 " fill-opacity="1" fill-rule="nonzero"/><path fill="#241726" d="M 264.070312 94.773438 L 229.484375 93.71875 C 229.167969 93.71875 228.90625 93.457031 228.90625 93.140625 C 228.90625 92.824219 229.167969 92.558594 229.484375 92.558594 L 264.070312 93.613281 C 264.382812 93.613281 264.648438 93.878906 264.648438 94.195312 C 264.648438 94.5625 264.382812 94.773438 264.070312 94.773438 Z M 264.070312 94.773438 " fill-opacity="1" fill-rule="nonzero"/><path fill="#241726" d="M 247.804688 103.632812 L 229.851562 103.105469 C 229.539062 103.105469 229.273438 102.839844 229.273438 102.523438 C 229.273438 102.207031 229.539062 101.996094 229.851562 101.945312 L 247.804688 102.472656 C 248.117188 102.472656 248.382812 102.734375 248.382812 103.050781 C 248.382812 103.367188 248.117188 103.632812 247.804688 103.632812 Z M 247.804688 103.632812 " fill-opacity="1" fill-rule="nonzero"/><path fill="#241726" d="M 196.425781 74.476562 C 196.058594 73.527344 195.742188 72.527344 195.585938 71.523438 L 195.375 70.574219 C 194.847656 67.941406 194.480469 66.464844 194.375 66.09375 L 194.058594 66.09375 C 194.058594 66.621094 194.058594 67.097656 194.007812 67.570312 L 194.007812 69.101562 C 194.007812 71.578125 194.164062 73.476562 194.53125 74.847656 L 194.214844 75.585938 L 193.425781 75.585938 L 193.058594 75.164062 L 193.109375 73.316406 C 193.109375 71.683594 193.003906 69.152344 192.847656 65.777344 C 192.691406 62.191406 192.636719 59.664062 192.636719 58.238281 C 192.636719 57.34375 192.953125 56.921875 193.53125 56.921875 C 194.53125 56.921875 195.320312 57.183594 195.953125 57.710938 C 196.585938 58.238281 196.902344 58.925781 196.902344 59.875 L 196.902344 61.824219 C 196.902344 62.085938 196.847656 62.402344 196.742188 62.773438 C 196.636719 63.140625 196.53125 63.40625 196.425781 63.617188 L 195.902344 64.617188 L 195.480469 65.460938 L 195.636719 66.148438 L 196.007812 68.097656 C 196.269531 69.519531 196.53125 70.679688 196.742188 71.523438 C 197.007812 72.421875 197.269531 73.210938 197.636719 73.949219 L 197.796875 74.265625 C 197.953125 74.636719 198.058594 74.953125 198.058594 75.164062 C 198.058594 75.320312 198.007812 75.53125 197.902344 75.636719 C 197.796875 75.796875 197.636719 75.847656 197.480469 75.847656 C 197.164062 75.796875 196.796875 75.375 196.425781 74.476562 Z M 195.214844 63.089844 C 195.480469 62.191406 195.636719 61.351562 195.636719 60.558594 C 195.636719 59.980469 195.585938 59.398438 195.425781 58.925781 C 195.320312 58.609375 195.164062 58.398438 194.953125 58.238281 C 194.742188 58.082031 194.480469 58.027344 194.164062 58.027344 L 194.109375 58.1875 L 194.058594 58.449219 L 194.109375 61.71875 C 194.164062 62.667969 194.164062 63.722656 194.164062 64.828125 C 194.585938 64.566406 194.902344 63.984375 195.214844 63.089844 Z M 195.214844 63.089844 " fill-opacity="1" fill-rule="nonzero"/><path fill="#241726" d="M 201.480469 75.480469 C 201.269531 75.320312 201.164062 75.109375 201.164062 74.847656 L 201.164062 73.582031 C 201.164062 73.421875 201.113281 73.210938 201.113281 73 C 201.113281 72.632812 201.058594 72.050781 201.007812 71.261719 L 200.953125 69.519531 C 200.953125 68.625 201.007812 67.253906 201.058594 65.515625 C 201.113281 63.933594 201.164062 62.5625 201.164062 61.507812 C 201.164062 61.246094 201.113281 60.875 201.058594 60.347656 C 201.007812 59.820312 200.953125 59.453125 200.953125 59.1875 C 200.953125 57.871094 201.324219 57.238281 202.113281 57.238281 C 202.742188 57.238281 203.429688 57.34375 204.21875 57.605469 C 205.007812 57.871094 205.429688 58.132812 205.429688 58.449219 C 205.429688 58.609375 205.375 58.820312 205.21875 58.976562 C 205.058594 59.136719 204.847656 59.242188 204.640625 59.347656 C 203.847656 59.082031 203.164062 58.871094 202.535156 58.820312 C 202.535156 59.082031 202.585938 59.503906 202.585938 60.03125 C 202.585938 60.769531 202.585938 61.457031 202.535156 62.035156 C 202.480469 62.929688 202.429688 63.5625 202.429688 64.039062 L 202.535156 64.460938 L 202.953125 64.40625 C 203.113281 64.40625 203.269531 64.355469 203.480469 64.355469 C 204.375 64.355469 204.796875 64.617188 204.796875 65.144531 C 204.796875 65.355469 204.691406 65.515625 204.535156 65.671875 C 204.375 65.832031 204.164062 65.882812 203.902344 65.882812 C 203.585938 65.882812 203.324219 65.882812 203.113281 65.832031 L 202.429688 65.832031 C 202.480469 66.304688 202.480469 66.992188 202.480469 67.941406 C 202.480469 68.835938 202.480469 69.679688 202.429688 70.417969 C 202.375 71.523438 202.324219 72.367188 202.324219 72.949219 C 202.324219 74.003906 202.324219 74.476562 202.375 74.476562 L 203.269531 74.425781 C 203.585938 74.425781 203.953125 74.371094 204.375 74.371094 C 205.058594 74.371094 205.429688 74.582031 205.429688 75.058594 C 205.429688 75.320312 205.324219 75.53125 205.058594 75.636719 C 204.847656 75.796875 204.535156 75.847656 204.21875 75.847656 L 202.113281 75.847656 C 201.902344 75.691406 201.691406 75.636719 201.480469 75.480469 Z M 201.480469 75.480469 " fill-opacity="1" fill-rule="nonzero"/><path fill="#241726" d="M 208.324219 75.375 C 208.113281 75.214844 207.957031 74.953125 207.902344 74.636719 L 208.21875 74.160156 C 208.324219 74.160156 208.480469 74.214844 208.746094 74.265625 C 209.007812 74.320312 209.21875 74.371094 209.375 74.371094 C 209.691406 74.371094 210.007812 74.214844 210.269531 73.949219 C 210.535156 73.632812 210.746094 73.265625 210.851562 72.789062 C 211.113281 71.894531 211.21875 71.101562 211.21875 70.417969 C 211.21875 69.207031 210.851562 67.941406 210.0625 66.570312 L 209.746094 66.042969 C 209.375 65.410156 209.113281 64.882812 208.851562 64.40625 C 208.585938 63.933594 208.429688 63.40625 208.21875 62.878906 C 208.007812 62.140625 207.902344 61.457031 207.902344 60.71875 C 207.902344 59.925781 208.0625 59.082031 208.429688 58.1875 C 208.585938 57.765625 208.851562 57.394531 209.21875 57.132812 C 209.535156 56.867188 209.957031 56.710938 210.375 56.710938 C 210.691406 56.710938 211.007812 56.816406 211.324219 57.027344 C 211.585938 57.238281 211.746094 57.5 211.746094 57.765625 C 211.746094 57.921875 211.691406 58.082031 211.535156 58.132812 C 211.429688 58.238281 211.273438 58.292969 211.0625 58.292969 C 210.851562 58.292969 210.640625 58.238281 210.480469 58.132812 C 210.0625 58.132812 209.746094 58.503906 209.535156 59.1875 C 209.324219 59.820312 209.21875 60.347656 209.21875 60.769531 C 209.21875 61.296875 209.324219 61.824219 209.480469 62.402344 C 209.640625 62.929688 209.851562 63.457031 210.113281 63.878906 L 210.746094 64.988281 L 211.691406 66.832031 C 211.957031 67.359375 212.167969 67.941406 212.324219 68.625 C 212.480469 69.308594 212.535156 69.996094 212.535156 70.679688 C 212.535156 71.789062 212.273438 72.894531 211.746094 73.898438 C 211.480469 74.425781 211.113281 74.847656 210.640625 75.164062 C 210.167969 75.480469 209.640625 75.636719 209.0625 75.636719 L 209.0625 75.742188 C 208.851562 75.691406 208.585938 75.53125 208.324219 75.375 Z M 208.324219 75.375 " fill-opacity="1" fill-rule="nonzero"/><path fill="#241726" d="M 217.273438 75.480469 C 216.902344 75.269531 216.640625 75.003906 216.429688 74.636719 C 216.007812 73.84375 215.691406 73 215.589844 72 C 215.484375 71.15625 215.378906 70.152344 215.378906 68.941406 C 215.324219 66.9375 215.273438 64.511719 215.273438 61.667969 L 215.21875 59.558594 C 215.21875 59.453125 215.167969 59.242188 215.167969 59.03125 C 215.113281 58.34375 215.113281 57.921875 215.113281 57.765625 C 215.273438 57.394531 215.484375 57.183594 215.691406 57.183594 C 215.902344 57.183594 216.113281 57.34375 216.273438 57.660156 C 216.429688 57.976562 216.535156 58.34375 216.535156 58.714844 L 216.535156 66.199219 C 216.535156 66.9375 216.589844 67.886719 216.746094 69.101562 C 216.851562 70.628906 216.957031 71.578125 216.957031 72 C 216.957031 73.371094 217.535156 74.054688 218.695312 74.054688 C 220.007812 74.054688 220.695312 69.101562 220.695312 59.1875 L 220.695312 57.394531 C 220.695312 57.34375 220.640625 57.289062 220.640625 57.183594 C 220.640625 56.972656 220.695312 56.816406 220.800781 56.710938 C 220.90625 56.605469 221.113281 56.550781 221.378906 56.550781 C 221.640625 56.550781 221.800781 56.605469 221.957031 56.761719 C 222.113281 56.921875 222.167969 57.078125 222.21875 57.238281 C 222.21875 57.34375 222.273438 57.554688 222.273438 57.871094 C 222.273438 58.1875 222.21875 58.609375 222.167969 59.292969 C 222.113281 59.820312 222.0625 60.296875 222.0625 60.664062 C 222.0625 61.085938 222.0625 61.457031 222.011719 61.773438 L 221.957031 62.929688 L 221.957031 63.140625 C 221.957031 63.195312 222.011719 63.300781 222.011719 63.40625 C 222.011719 71.578125 220.800781 75.636719 218.429688 75.636719 C 218.007812 75.742188 217.589844 75.636719 217.273438 75.480469 Z M 217.273438 75.480469 " fill-opacity="1" fill-rule="nonzero"/><path fill="#241726" d="M 235.695312 75.058594 L 235.695312 71.578125 C 235.695312 70.679688 235.644531 69.46875 235.484375 67.941406 C 235.328125 66.253906 235.273438 65.09375 235.273438 64.511719 L 235.328125 62.824219 C 235.378906 62.351562 235.378906 61.773438 235.378906 61.140625 C 235.328125 61.402344 235.011719 62.667969 234.484375 64.933594 C 233.960938 67.148438 233.378906 69.207031 232.855469 71.101562 C 232.328125 72.949219 231.855469 73.84375 231.484375 73.84375 C 231.117188 73.84375 230.851562 73.738281 230.644531 73.527344 C 230.433594 73.316406 230.328125 73.054688 230.328125 72.683594 C 230.328125 71.894531 230.011719 70.152344 229.328125 67.519531 C 228.695312 64.882812 228.0625 62.71875 227.535156 61.085938 L 227.378906 64.195312 C 227.222656 66.832031 227.117188 68.996094 227.0625 70.785156 C 227.011719 72.472656 227.011719 73.632812 227.011719 74.265625 C 227.011719 74.425781 227.011719 74.53125 227.0625 74.6875 L 227.0625 75.058594 C 227.0625 75.375 227.011719 75.585938 226.851562 75.742188 C 226.746094 75.902344 226.484375 75.953125 226.117188 75.953125 C 225.957031 75.953125 225.746094 75.902344 225.589844 75.742188 C 225.429688 75.585938 225.328125 75.480469 225.328125 75.269531 C 225.328125 73.371094 225.484375 70.574219 225.746094 66.832031 C 226.011719 63.089844 226.167969 60.242188 226.167969 58.398438 C 226.0625 58.238281 226.011719 58.082031 226.011719 57.871094 C 226.011719 57.660156 226.117188 57.5 226.328125 57.34375 C 226.535156 57.183594 226.800781 57.183594 227.0625 57.183594 C 227.328125 57.183594 227.746094 58.027344 228.378906 59.769531 C 229.011719 61.507812 229.644531 63.457031 230.328125 65.621094 C 230.957031 67.835938 231.378906 69.414062 231.589844 70.363281 C 231.75 69.890625 231.855469 69.414062 231.957031 68.996094 L 232.117188 68.308594 C 232.695312 65.726562 233.273438 63.40625 233.855469 61.351562 C 234.222656 60.085938 234.539062 59.082031 234.855469 58.34375 C 235.167969 57.554688 235.484375 57.183594 235.75 57.183594 C 236.011719 57.183594 236.222656 57.238281 236.433594 57.394531 C 236.644531 57.554688 236.75 57.710938 236.75 57.921875 C 236.75 59.242188 236.800781 61.246094 236.90625 63.878906 C 237.011719 66.359375 237.117188 68.257812 237.117188 69.625 L 237.066406 71.101562 L 237.011719 72.578125 C 237.011719 72.789062 237.066406 73.105469 237.117188 73.582031 L 237.222656 74.53125 C 237.222656 74.6875 237.273438 74.847656 237.273438 74.898438 C 237.273438 74.953125 237.273438 75.058594 237.273438 75.058594 C 237.378906 75.320312 237.433594 75.480469 237.433594 75.585938 C 237.433594 75.902344 237.328125 76.164062 237.171875 76.429688 C 237.011719 76.691406 236.75 76.796875 236.484375 76.796875 C 235.960938 76.796875 235.695312 76.21875 235.695312 75.058594 Z M 235.695312 75.058594 " fill-opacity="1" fill-rule="nonzero"/><path fill="#241726" d="M 241.488281 75.480469 C 241.277344 75.320312 241.171875 75.109375 241.171875 74.847656 L 241.171875 73.582031 C 241.171875 73.421875 241.117188 73.210938 241.117188 73 C 241.117188 72.632812 241.066406 72.050781 241.011719 71.261719 L 240.960938 69.519531 C 240.960938 68.625 241.011719 67.253906 241.066406 65.515625 C 241.117188 63.933594 241.171875 62.5625 241.171875 61.507812 C 241.171875 61.246094 241.117188 60.875 241.066406 60.347656 C 241.011719 59.820312 240.960938 59.453125 240.960938 59.1875 C 240.960938 57.871094 241.328125 57.238281 242.117188 57.238281 C 242.75 57.238281 243.433594 57.34375 244.222656 57.605469 C 245.011719 57.871094 245.433594 58.132812 245.433594 58.449219 C 245.433594 58.609375 245.382812 58.820312 245.222656 58.976562 C 245.066406 59.136719 244.855469 59.242188 244.644531 59.347656 C 243.855469 59.082031 243.171875 58.871094 242.539062 58.820312 C 242.539062 59.082031 242.59375 59.503906 242.59375 60.03125 C 242.59375 60.769531 242.59375 61.457031 242.539062 62.035156 C 242.488281 62.929688 242.433594 63.5625 242.433594 64.039062 L 242.539062 64.460938 L 242.960938 64.40625 C 243.117188 64.40625 243.277344 64.355469 243.488281 64.355469 C 244.382812 64.355469 244.804688 64.617188 244.804688 65.144531 C 244.804688 65.355469 244.699219 65.515625 244.539062 65.671875 C 244.382812 65.832031 244.171875 65.882812 243.90625 65.882812 C 243.59375 65.882812 243.328125 65.882812 243.117188 65.832031 L 242.433594 65.832031 C 242.488281 66.304688 242.488281 66.992188 242.488281 67.941406 C 242.488281 68.835938 242.488281 69.679688 242.433594 70.417969 C 242.382812 71.523438 242.328125 72.367188 242.328125 72.949219 C 242.328125 74.003906 242.328125 74.476562 242.382812 74.476562 L 243.277344 74.425781 C 243.59375 74.425781 243.960938 74.371094 244.382812 74.371094 C 245.066406 74.371094 245.433594 74.582031 245.433594 75.058594 C 245.433594 75.320312 245.328125 75.53125 245.066406 75.636719 C 244.855469 75.796875 244.539062 75.847656 244.222656 75.847656 L 241.90625 75.847656 C 241.90625 75.691406 241.695312 75.636719 241.488281 75.480469 Z M 241.488281 75.480469 " fill-opacity="1" fill-rule="nonzero"/><path fill="#53af52" d="M 116.941406 125.351562 C 116.941406 125.351562 181.792969 122.714844 183.214844 123.402344 C 184.636719 124.140625 184.269531 135.15625 184.269531 135.15625 C 184.269531 135.15625 117.625 136.476562 116.941406 135.472656 C 116.207031 134.472656 116.941406 125.351562 116.941406 125.351562 Z M 116.941406 125.351562 " fill-opacity="1" fill-rule="nonzero"/><path fill="#241726" d="M 133.207031 136.632812 C 116.625 136.632812 116.519531 136.265625 116.363281 135.632812 C 115.996094 134.050781 116.308594 126.25 116.363281 125.351562 C 116.363281 125.035156 116.625 124.824219 116.941406 124.824219 C 117.574219 124.824219 178.054688 123.347656 197.691406 123.347656 C 203.796875 123.347656 204.007812 123.453125 204.21875 123.613281 C 205.324219 124.457031 205.746094 131.097656 205.902344 134.945312 C 205.902344 135.105469 205.851562 135.261719 205.746094 135.367188 C 205.640625 135.472656 205.480469 135.527344 205.324219 135.527344 C 204.851562 135.527344 158.472656 136.632812 133.207031 136.632812 Z M 117.46875 135.050781 C 118.3125 135.210938 121.574219 135.472656 133.207031 135.472656 C 156.894531 135.472656 199.21875 134.527344 204.691406 134.367188 C 204.535156 130.097656 204.058594 125.351562 203.535156 124.5625 C 203.164062 124.507812 201.953125 124.457031 197.691406 124.457031 C 179.054688 124.457031 123.574219 125.773438 117.46875 125.933594 C 117.414062 128.410156 117.257812 133.523438 117.46875 135.050781 Z M 117.46875 135.050781 " fill-opacity="1" fill-rule="nonzero"/><path fill="#e76f00" d="M 117.414062 143.855469 C 117.414062 143.855469 170.792969 142.75 172.003906 143.433594 C 173.214844 144.171875 172.214844 153.875 172.214844 153.875 C 172.214844 153.875 118.257812 155.085938 117.625 154.085938 C 117.046875 153.136719 117.414062 143.855469 117.414062 143.855469 Z M 117.414062 143.855469 " fill-opacity="1" fill-rule="nonzero"/><path fill="#241726" d="M 133.207031 155.191406 C 116.574219 155.191406 116.519531 154.824219 116.363281 154.191406 C 115.996094 152.609375 116.308594 144.804688 116.363281 143.910156 C 116.363281 143.59375 116.625 143.382812 116.941406 143.382812 C 117.574219 143.382812 178.054688 141.90625 197.691406 141.90625 C 203.847656 141.90625 204.007812 142.011719 204.21875 142.167969 C 205.324219 143.011719 205.746094 149.65625 205.902344 153.503906 C 205.902344 153.664062 205.851562 153.820312 205.746094 153.925781 C 205.640625 154.03125 205.480469 154.085938 205.324219 154.085938 C 204.851562 154.085938 158.472656 155.191406 133.207031 155.191406 Z M 117.46875 153.609375 C 118.3125 153.769531 121.574219 154.03125 133.261719 154.03125 C 156.949219 154.03125 199.269531 153.082031 204.746094 152.925781 C 204.585938 148.65625 204.113281 143.910156 203.585938 143.117188 C 203.21875 143.066406 202.007812 143.011719 197.691406 143.011719 C 179.054688 143.011719 123.574219 144.332031 117.519531 144.488281 C 117.414062 146.96875 117.257812 152.027344 117.46875 153.609375 Z M 117.46875 153.609375 " fill-opacity="1" fill-rule="nonzero"/><path fill="#9373b1" d="M 117.414062 162.785156 C 117.414062 162.785156 192.742188 160.832031 194.425781 161.570312 C 196.113281 162.308594 195.847656 172.589844 195.847656 172.589844 C 195.847656 172.589844 117.835938 174.644531 116.996094 173.644531 C 116.152344 172.640625 117.414062 162.785156 117.414062 162.785156 Z M 117.414062 162.785156 " fill-opacity="1" fill-rule="nonzero"/><path fill="#241726" d="M 133.207031 174.011719 C 116.574219 174.011719 116.519531 173.644531 116.363281 173.011719 C 115.996094 171.429688 116.308594 163.625 116.363281 162.730469 C 116.363281 162.414062 116.625 162.203125 116.941406 162.203125 C 117.574219 162.203125 178.054688 160.726562 197.742188 160.726562 C 203.847656 160.726562 204.058594 160.832031 204.269531 160.992188 C 205.375 161.835938 205.796875 168.476562 205.953125 172.324219 C 205.953125 172.484375 205.902344 172.640625 205.796875 172.746094 C 205.691406 172.851562 205.535156 172.90625 205.375 172.90625 C 204.851562 172.90625 158.472656 174.011719 133.207031 174.011719 Z M 117.46875 172.429688 C 118.3125 172.589844 121.574219 172.851562 133.261719 172.851562 C 156.949219 172.851562 199.269531 171.902344 204.746094 171.746094 C 204.585938 167.476562 204.113281 162.730469 203.585938 161.941406 C 203.21875 161.886719 202.007812 161.835938 197.742188 161.835938 C 179.109375 161.835938 123.628906 163.152344 117.519531 163.3125 C 117.414062 165.789062 117.257812 170.902344 117.46875 172.429688 Z M 117.46875 172.429688 " fill-opacity="1" fill-rule="nonzero"/><path fill="#fdffff" d="M 119.207031 110.378906 C 119.207031 110.378906 117.890625 101.945312 128.523438 101.945312 C 139.15625 101.945312 139.628906 95.933594 134.785156 92.824219 C 129.945312 89.714844 125.363281 84.230469 128.257812 73.84375 C 131.15625 63.457031 148.316406 62.667969 154.367188 69.941406 C 160.421875 77.21875 153.632812 90.242188 150.527344 93.613281 C 147.367188 96.988281 151.261719 102.734375 159.949219 101.679688 C 166.6875 100.890625 166.898438 109.695312 166.898438 109.695312 Z M 119.207031 110.378906 " fill-opacity="1" fill-rule="nonzero"/><path fill="#9373b1" d="M 153.789062 198.792969 C 151.316406 192.9375 145.523438 188.828125 138.789062 188.828125 C 138.578125 188.828125 138.417969 188.828125 138.207031 188.878906 C 138.367188 194.152344 138.734375 203.21875 139.15625 203.429688 C 139.523438 203.640625 148.15625 200.742188 153.789062 198.792969 Z M 153.789062 198.792969 " fill-opacity="1" fill-rule="nonzero"/><path fill="#d87be1" d="M 139.15625 203.429688 C 138.734375 203.167969 138.367188 194.152344 138.207031 188.878906 C 129.46875 189.195312 122.46875 196.367188 122.46875 205.171875 C 122.46875 214.1875 129.785156 221.515625 138.789062 221.515625 C 147.789062 221.515625 155.105469 214.1875 155.105469 205.171875 C 155.105469 202.902344 154.632812 200.742188 153.789062 198.792969 C 148.15625 200.742188 139.523438 203.640625 139.15625 203.429688 Z M 139.15625 203.429688 " fill-opacity="1" fill-rule="nonzero"/><path fill="#241726" d="M 139.15625 204.011719 C 139.050781 204.011719 138.945312 203.957031 138.839844 203.90625 C 138.683594 203.800781 138.578125 203.640625 138.578125 203.484375 L 137.628906 188.933594 C 137.628906 188.617188 137.839844 188.351562 138.15625 188.300781 C 138.472656 188.300781 138.734375 188.511719 138.789062 188.828125 L 139.683594 202.640625 L 153.632812 198.210938 C 153.949219 198.105469 154.261719 198.265625 154.367188 198.582031 C 154.472656 198.898438 154.316406 199.214844 154 199.320312 L 139.367188 203.957031 C 139.261719 204.011719 139.207031 204.011719 139.15625 204.011719 Z M 139.15625 204.011719 " fill-opacity="1" fill-rule="nonzero"/><path fill="#9373b1" d="M 205.851562 205.171875 C 205.851562 196.15625 198.53125 188.828125 189.53125 188.828125 C 189.425781 188.828125 189.320312 188.828125 189.214844 188.828125 L 189.003906 206.277344 L 200.429688 217.296875 C 203.746094 214.292969 205.851562 209.96875 205.851562 205.171875 Z M 205.851562 205.171875 " fill-opacity="1" fill-rule="nonzero"/><path fill="#d87be1" d="M 189.214844 188.828125 C 180.371094 188.984375 173.214844 196.207031 173.214844 205.117188 C 173.214844 214.132812 180.53125 221.460938 189.53125 221.460938 C 193.691406 221.460938 197.53125 219.878906 200.375 217.296875 L 189.003906 206.277344 Z M 189.214844 188.828125 " fill-opacity="1" fill-rule="nonzero"/><path fill="#241726" d="M 200.429688 217.875 C 200.269531 217.875 200.164062 217.824219 200.007812 217.71875 L 188.585938 206.699219 C 188.480469 206.59375 188.425781 206.4375 188.425781 206.277344 L 188.636719 188.828125 C 188.636719 188.511719 188.953125 188.195312 189.214844 188.246094 C 189.53125 188.246094 189.792969 188.511719 189.792969 188.828125 L 189.585938 206.015625 L 200.796875 216.875 C 201.007812 217.085938 201.007812 217.453125 200.796875 217.664062 C 200.742188 217.824219 200.585938 217.875 200.429688 217.875 Z M 200.429688 217.875 " fill-opacity="1" fill-rule="nonzero"/><path fill="#9373b1" d="M 254.382812 206.488281 C 254.4375 206.066406 254.4375 205.59375 254.4375 205.117188 C 254.4375 196.101562 247.117188 188.773438 238.117188 188.773438 C 238.011719 188.773438 237.960938 188.773438 237.855469 188.773438 L 237.855469 206.277344 Z M 254.382812 206.488281 " fill-opacity="1" fill-rule="nonzero"/><path fill="#d87be1" d="M 237.90625 206.277344 L 237.90625 188.828125 C 229.011719 188.984375 221.851562 196.207031 221.851562 205.171875 C 221.851562 214.1875 229.167969 221.515625 238.171875 221.515625 C 246.699219 221.515625 253.699219 214.921875 254.382812 206.542969 Z M 237.90625 206.277344 " fill-opacity="1" fill-rule="nonzero"/><path fill="#241726" d="M 254.382812 207.070312 L 237.855469 206.859375 C 237.539062 206.859375 237.273438 206.59375 237.273438 206.277344 L 237.273438 188.828125 C 237.273438 188.511719 237.539062 188.246094 237.855469 188.246094 C 238.171875 188.246094 238.433594 188.511719 238.433594 188.828125 L 238.433594 205.699219 L 254.382812 205.910156 C 254.699219 205.910156 254.960938 206.171875 254.960938 206.488281 C 254.960938 206.804688 254.699219 207.070312 254.382812 207.070312 Z M 254.382812 207.070312 " fill-opacity="1" fill-rule="nonzero"/><path fill="#241726" d="M 150.527344 227.15625 L 123.839844 226.945312 C 123.523438 226.945312 123.257812 226.679688 123.257812 226.363281 C 123.257812 226.046875 123.523438 225.785156 123.839844 225.785156 L 150.472656 225.996094 C 150.789062 225.996094 151.050781 226.257812 151.050781 226.574219 C 151.050781 226.890625 150.84375 227.15625 150.527344 227.15625 Z M 150.527344 227.15625 " fill-opacity="1" fill-rule="nonzero"/><path fill="#241726" d="M 147.367188 232.375 L 126.679688 231.425781 C 126.363281 231.425781 126.101562 231.160156 126.152344 230.84375 C 126.152344 230.527344 126.417969 230.316406 126.734375 230.316406 L 147.367188 231.265625 C 147.683594 231.265625 147.945312 231.53125 147.894531 231.847656 C 147.945312 232.164062 147.683594 232.375 147.367188 232.375 Z M 147.367188 232.375 " fill-opacity="1" fill-rule="nonzero"/><path fill="#241726" d="M 201.585938 227.15625 L 174.898438 226.945312 C 174.582031 226.945312 174.320312 226.679688 174.320312 226.363281 C 174.320312 226.046875 174.582031 225.785156 174.898438 225.785156 L 201.535156 225.996094 C 201.847656 225.996094 202.113281 226.257812 202.113281 226.574219 C 202.164062 226.890625 201.902344 227.15625 201.585938 227.15625 Z M 201.585938 227.15625 " fill-opacity="1" fill-rule="nonzero"/><path fill="#241726" d="M 198.480469 232.375 C 198.480469 232.375 198.425781 232.375 198.480469 232.375 L 177.792969 231.425781 C 177.476562 231.425781 177.214844 231.160156 177.265625 230.84375 C 177.265625 230.527344 177.53125 230.316406 177.847656 230.316406 L 198.480469 231.265625 C 198.796875 231.265625 199.058594 231.53125 199.007812 231.847656 C 199.007812 232.164062 198.796875 232.375 198.480469 232.375 Z M 198.480469 232.375 " fill-opacity="1" fill-rule="nonzero"/><path fill="#241726" d="M 250.960938 227.15625 L 224.324219 226.945312 C 224.011719 226.945312 223.746094 226.679688 223.746094 226.363281 C 223.746094 226.046875 224.011719 225.785156 224.324219 225.785156 L 250.960938 225.996094 C 251.277344 225.996094 251.539062 226.257812 251.539062 226.574219 C 251.539062 226.890625 251.277344 227.15625 250.960938 227.15625 Z M 250.960938 227.15625 " fill-opacity="1" fill-rule="nonzero"/><path fill="#241726" d="M 247.855469 232.375 L 227.167969 231.425781 C 226.851562 231.425781 226.589844 231.160156 226.640625 230.84375 C 226.640625 230.527344 226.90625 230.316406 227.222656 230.316406 L 247.855469 231.265625 C 248.171875 231.265625 248.433594 231.53125 248.382812 231.847656 C 248.433594 232.164062 248.171875 232.375 247.855469 232.375 Z M 247.855469 232.375 " fill-opacity="1" fill-rule="nonzero"/><path fill="#241726" d="M 117.785156 110.855469 C 113.414062 110.855469 113.152344 110.75 112.941406 110.695312 C 112.730469 110.589844 112.574219 110.378906 112.574219 110.167969 L 112.785156 57.238281 C 112.785156 56.921875 113.046875 56.65625 113.363281 56.65625 L 172.425781 56.867188 C 172.738281 56.867188 173.003906 57.132812 173.003906 57.449219 C 173.949219 108.957031 173.320312 109.640625 173.054688 109.851562 C 172.949219 109.957031 172.792969 110.011719 172.632812 110.011719 C 172.425781 110.011719 172.054688 110.011719 171.527344 110.011719 C 168.632812 110.011719 160.84375 110.167969 151.789062 110.328125 C 139.3125 110.589844 125.101562 110.855469 117.785156 110.855469 Z M 113.785156 109.640625 C 114.308594 109.695312 115.414062 109.695312 117.835938 109.695312 C 125.101562 109.695312 139.3125 109.429688 151.84375 109.167969 C 161.632812 108.957031 170.003906 108.796875 172.214844 108.851562 C 172.582031 105.109375 172.214844 77.058594 171.898438 57.976562 L 113.996094 57.765625 Z M 113.785156 109.640625 " fill-opacity="1" fill-rule="nonzero"/><path fill="#241726" d="M 142.683594 85.8125 C 142.367188 85.8125 142.105469 85.546875 142.105469 85.230469 C 142.105469 84.914062 142.367188 84.652344 142.683594 84.652344 C 143.261719 84.652344 144.894531 84.546875 145.683594 84.335938 C 145.683594 83.492188 144.472656 80.59375 143.3125 78.167969 C 143.15625 77.902344 143.3125 77.535156 143.578125 77.375 C 143.839844 77.21875 144.210938 77.375 144.367188 77.640625 C 145.261719 79.433594 147.261719 83.652344 146.789062 84.808594 C 146.683594 85.019531 146.523438 85.230469 146.316406 85.285156 C 145.261719 85.757812 142.945312 85.8125 142.683594 85.8125 Z M 142.683594 85.8125 " fill-opacity="1" fill-rule="nonzero"/><path fill="#241726" d="M 142.683594 89.609375 C 140.839844 89.609375 139.578125 88.976562 139.472656 88.921875 C 139.207031 88.765625 139.101562 88.449219 139.207031 88.132812 C 139.367188 87.867188 139.683594 87.761719 140 87.867188 C 140.101562 87.921875 142.894531 89.34375 146.050781 87.5 C 146.316406 87.339844 146.683594 87.445312 146.839844 87.710938 C 147 87.972656 146.894531 88.34375 146.628906 88.5 C 145.210938 89.34375 143.839844 89.609375 142.683594 89.609375 Z M 142.683594 89.609375 " fill-opacity="1" fill-rule="nonzero"/><path fill="#241726" d="M 135.261719 78.800781 C 133.996094 78.800781 132.945312 78.273438 132.890625 78.21875 C 132.628906 78.0625 132.523438 77.746094 132.628906 77.429688 C 132.785156 77.164062 133.101562 77.007812 133.417969 77.164062 C 133.417969 77.164062 135.523438 78.21875 136.734375 77.113281 C 136.945312 76.902344 137.3125 76.902344 137.523438 77.164062 C 137.734375 77.375 137.734375 77.746094 137.472656 77.957031 C 136.839844 78.589844 135.996094 78.800781 135.261719 78.800781 Z M 135.261719 78.800781 " fill-opacity="1" fill-rule="nonzero"/><path fill="#241726" d="M 150.894531 78.800781 C 149.632812 78.800781 148.578125 78.273438 148.527344 78.21875 C 148.261719 78.0625 148.15625 77.746094 148.261719 77.429688 C 148.421875 77.164062 148.734375 77.007812 149.050781 77.164062 C 149.050781 77.164062 151.15625 78.21875 152.367188 77.113281 C 152.578125 76.902344 152.949219 76.902344 153.15625 77.164062 C 153.367188 77.375 153.367188 77.746094 153.105469 77.957031 C 152.472656 78.589844 151.632812 78.800781 150.894531 78.800781 Z M 150.894531 78.800781 " fill-opacity="1" fill-rule="nonzero"/><g fill="#0097b2" fill-opacity="1"><g transform="translate(78.770558, 300.320522)"><g><path d="M 20.632812 -38.960938 C 20.960938 -38.488281 21.375 -38.242188 21.773438 -38.171875 C 22.101562 -38.128906 22.5 -38.058594 22.925781 -38.0625 C 23.578125 -37.976562 24.152344 -37.921875 24.804688 -37.839844 C 25.453125 -37.753906 26.03125 -37.699219 26.710938 -37.691406 C 26.929688 -37.601562 27.183594 -37.589844 27.40625 -37.503906 C 27.625 -37.417969 27.847656 -37.328125 28.203125 -37.363281 C 28.703125 -37.335938 29.207031 -37.308594 29.738281 -37.359375 C 30.238281 -37.332031 30.769531 -37.378906 31.375 -37.398438 C 31.804688 -37.402344 32.101562 -37.285156 32.21875 -37.15625 C 32.339844 -37.023438 32.398438 -36.742188 32.375 -36.242188 C 31.953125 -33.417969 31.234375 -30.710938 30.367188 -28.0625 C 29.398438 -25.367188 28.457031 -22.75 27.414062 -20.085938 C 26.226562 -17.050781 25.214844 -14.03125 24.277344 -10.984375 C 23.339844 -7.933594 22.226562 -4.871094 20.992188 -1.941406 C 19.859375 0.519531 18.21875 2.523438 16.058594 3.898438 C 13.898438 5.273438 11.515625 6.128906 8.976562 6.503906 C 8.167969 6.613281 7.621094 6.484375 7.335938 6.117188 C 6.980469 5.722656 6.785156 5.132812 6.777344 4.277344 C 6.730469 4.171875 6.6875 4.070312 6.714844 3.996094 C 6.746094 3.921875 6.699219 3.820312 6.683594 3.640625 C 6.640625 3.539062 6.589844 3.007812 6.464844 2.019531 C 6.339844 1.03125 6.214844 0.0429688 5.941406 -1.003906 C 5.667969 -2.050781 5.335938 -2.945312 4.949219 -3.695312 C 4.457031 -4.402344 3.9375 -4.605469 3.261719 -4.1875 C 2.792969 -3.859375 2.292969 -3.457031 1.894531 -3.097656 C 1.472656 -2.667969 1.195312 -2.179688 1.035156 -1.558594 C 0.648438 -0.34375 0.480469 0.957031 0.519531 2.167969 C 0.554688 3.375 0.492188 4.632812 0.351562 5.859375 C 0.101562 7.808594 0.425781 9.8125 1.429688 11.828125 C 2.433594 13.84375 3.773438 15.648438 5.527344 17.273438 C 7.207031 18.871094 9.109375 20.128906 11.195312 21.117188 C 13.285156 22.105469 15.25 22.53125 17.167969 22.429688 C 20.652344 22.257812 23.464844 21.394531 25.636719 19.769531 C 27.78125 18.21875 29.59375 15.769531 30.898438 12.441406 C 32.464844 8.441406 33.777344 4.433594 35.046875 0.320312 C 36.316406 -3.792969 37.511719 -7.933594 38.632812 -12.105469 C 39.765625 -16.527344 40.972656 -20.921875 42.253906 -25.285156 C 43.507812 -29.574219 45.042969 -33.925781 46.722656 -38.21875 C 47.011719 -38.960938 47.226562 -39.730469 47.546875 -40.542969 C 47.761719 -41.3125 47.933594 -42.183594 48.074219 -42.984375 C 48.21875 -43.78125 48.210938 -44.636719 48.203125 -45.492188 C 48.125 -46.378906 47.835938 -47.175781 47.476562 -47.996094 C 46.671875 -49.425781 45.675781 -50.15625 44.347656 -50.25 C 42.988281 -50.269531 41.734375 -49.90625 40.5625 -49.085938 C 39.414062 -48.335938 38.460938 -47.429688 37.554688 -46.417969 C 36.648438 -45.410156 35.859375 -44.265625 35.171875 -43.167969 C 34.851562 -42.785156 34.648438 -42.265625 34.445312 -41.746094 C 34.242188 -41.230469 33.964844 -40.738281 33.6875 -40.25 C 33.335938 -39.789062 33.015625 -39.402344 32.617188 -39.046875 C 32.148438 -38.71875 31.691406 -38.640625 31.191406 -38.667969 C 29.683594 -38.746094 28.28125 -38.867188 26.804688 -39.019531 C 25.296875 -39.097656 23.894531 -39.21875 22.488281 -39.34375 C 22.136719 -39.308594 21.855469 -39.25 21.574219 -39.1875 C 21.265625 -39.050781 20.988281 -38.992188 20.632812 -38.960938 Z M 20.632812 -38.960938 "/></g></g></g><g fill="#0097b2" fill-opacity="1"><g transform="translate(113.90237, 313.359571)"><g><path d="M 16.53125 -9.480469 C 16.632812 -9.863281 16.578125 -10.289062 16.46875 -10.808594 C 16.394531 -11.15625 16.378906 -11.410156 16.4375 -11.640625 C 16.425781 -12.21875 16.296875 -12.664062 16.070312 -13.050781 C 15.574219 -13.671875 15.039062 -14.140625 14.367188 -14.398438 C 13.925781 -14.597656 13.484375 -14.796875 13.023438 -14.914062 C 12.5625 -15.035156 12.039062 -14.925781 11.574219 -14.71875 C 11.382812 -14.605469 11.128906 -14.589844 10.957031 -14.554688 C 10.683594 -14.460938 10.511719 -14.421875 10.394531 -14.289062 C 10.199219 -14.175781 10.125 -14.195312 10.125 -14.195312 C 9.386719 -13.894531 8.824219 -13.632812 8.320312 -13.269531 C 7.738281 -12.929688 7.234375 -12.570312 6.652344 -12.226562 C 6.144531 -11.867188 5.71875 -11.488281 5.34375 -11.007812 C 4.898438 -10.550781 4.527344 -10.074219 4.25 -9.652344 C 4.132812 -9.519531 3.996094 -9.308594 3.957031 -9.152344 C 3.839844 -9.019531 3.722656 -8.886719 3.683594 -8.734375 C 2.429688 -7.089844 1.640625 -5.324219 1.269531 -3.28125 C 0.824219 -1.261719 0.976562 0.667969 1.628906 2.5625 C 1.984375 3.722656 2.53125 4.769531 3.292969 5.628906 C 4.054688 6.484375 4.855469 7.1875 5.894531 7.621094 C 6.910156 8.136719 7.910156 8.398438 9.066406 8.371094 C 10.222656 8.34375 11.289062 8.046875 12.453125 7.367188 C 13.617188 6.683594 14.492188 5.847656 15.179688 4.792969 C 15.769531 3.796875 16.589844 2.863281 17.640625 1.984375 C 18.144531 1.625 18.535156 1.070312 18.890625 0.339844 C 19.246094 -0.386719 19.425781 -1.078125 19.453125 -1.8125 C 19.480469 -2.542969 19.414062 -3.21875 19.09375 -3.878906 C 18.769531 -4.539062 18.332031 -5.0625 17.683594 -5.398438 C 17.449219 -5.457031 17.242188 -5.597656 17.148438 -5.867188 C 16.765625 -6.296875 16.4375 -6.296875 16.183594 -5.953125 C 15.910156 -5.53125 15.828125 -5.226562 16.078125 -4.914062 C 16.902344 -3.054688 16.871094 -1.667969 15.933594 -0.597656 C 14.996094 0.472656 13.636719 1.265625 12.011719 1.828125 C 11.082031 2.242188 10.019531 2.210938 8.867188 1.910156 C 8.40625 1.789062 8.257812 1.421875 8.492188 0.824219 C 8.730469 0.230469 9.085938 -0.5 9.617188 -1.265625 C 10.144531 -2.027344 10.671875 -2.792969 11.183594 -3.484375 C 11.691406 -4.171875 12.042969 -4.574219 12.257812 -4.761719 C 12.257812 -4.761719 12.277344 -4.839844 12.472656 -4.953125 C 12.683594 -5.144531 12.898438 -5.335938 13.113281 -5.523438 C 13.308594 -5.640625 13.597656 -5.808594 13.964844 -5.960938 C 14.0625 -6.015625 14.160156 -6.074219 14.277344 -6.207031 C 14.316406 -6.359375 14.414062 -6.417969 14.609375 -6.53125 C 14.726562 -6.664062 14.84375 -6.796875 14.960938 -6.933594 C 15 -7.085938 15.097656 -7.140625 15.292969 -7.257812 C 15.625 -7.578125 15.878906 -7.925781 15.976562 -8.308594 C 16.078125 -8.695312 16.257812 -9.058594 16.53125 -9.480469 Z M 16.53125 -9.480469 "/></g></g></g><g fill="#0097b2" fill-opacity="1"><g transform="translate(135.342348, 318.8826)"><g><path d="M 13.101562 -50.132812 C 12.605469 -50.054688 12.34375 -49.9375 12.160156 -49.804688 C 11.640625 -49.566406 11.273438 -49.304688 11.171875 -49.160156 C 10.976562 -48.953125 10.910156 -48.558594 10.976562 -47.984375 C 10.96875 -46.9375 10.90625 -45.578125 10.730469 -43.996094 C 10.460938 -42.351562 10.164062 -40.546875 9.78125 -38.675781 C 9.382812 -36.726562 8.890625 -34.714844 8.402344 -32.699219 C 7.910156 -30.683594 7.34375 -28.683594 6.878906 -26.824219 C 6.402344 -24.890625 5.949219 -23.113281 5.523438 -21.488281 C 5.097656 -19.867188 4.722656 -18.558594 4.554688 -17.539062 C 3.679688 -14.140625 3.050781 -10.777344 2.5 -7.40625 C 1.945312 -4.03125 1.316406 -0.671875 0.6875 2.691406 C 0.613281 3.160156 0.480469 3.460938 0.429688 3.777344 C 0.378906 4.089844 0.238281 4.46875 0.183594 4.78125 C -0.0195312 5.554688 -0.265625 6.5625 -0.640625 7.871094 C -1.015625 9.175781 -1.324219 10.578125 -1.632812 11.976562 C -2.019531 13.363281 -2.25 14.773438 -2.46875 16.109375 C -2.6875 17.441406 -2.777344 18.476562 -2.644531 19.140625 C -2.375 21.441406 -1.453125 23.203125 0.0546875 24.332031 C 1.558594 25.464844 3.261719 26.386719 5.238281 27.113281 C 5.367188 27.296875 5.445312 27.308594 5.617188 27.253906 C 5.773438 27.28125 5.863281 27.214844 6.035156 27.164062 L 6.453125 27.070312 C 6.621094 27.015625 6.714844 26.953125 6.871094 26.976562 C 7.195312 26.949219 7.445312 26.910156 7.785156 26.804688 C 8.03125 26.765625 8.292969 26.644531 8.476562 26.515625 C 8.828125 26.332031 9.113281 26.054688 9.191406 25.585938 C 9.257812 25.191406 9.320312 24.800781 9.398438 24.328125 C 9.316406 23.832031 9.316406 23.347656 9.25 22.773438 C 9.167969 22.277344 9.257812 21.730469 9.359375 21.101562 C 9.410156 20.304688 9.578125 19.285156 9.886719 17.886719 C 10.183594 16.5625 10.492188 15.164062 10.890625 13.699219 C 11.199219 12.300781 11.507812 10.902344 11.898438 9.515625 C 12.195312 8.195312 12.453125 7.109375 12.578125 6.324219 C 12.628906 6.007812 12.65625 5.851562 12.761719 5.707031 C 12.785156 5.550781 12.957031 5.5 13.28125 5.472656 C 14.511719 5.351562 15.699219 4.980469 16.914062 4.453125 C 18.113281 4.003906 19.117188 3.285156 19.898438 2.445312 C 20.679688 1.605469 21.316406 0.664062 21.652344 -0.410156 C 21.988281 -1.484375 22.039062 -2.765625 21.640625 -4.277344 C 21.480469 -4.789062 21.324219 -5.296875 21.085938 -5.820312 C 20.851562 -6.339844 20.523438 -6.796875 20.195312 -7.253906 C 19.863281 -7.710938 19.523438 -8.085938 19.09375 -8.398438 C 18.648438 -8.632812 18.109375 -8.800781 17.484375 -8.90625 C 16.988281 -8.824219 16.503906 -8.824219 16.007812 -8.742188 C 15.511719 -8.664062 15.039062 -8.738281 14.648438 -8.804688 C 15.070312 -10.910156 15.507812 -13.09375 15.878906 -15.367188 C 16.238281 -17.566406 16.847656 -19.800781 17.519531 -21.945312 C 17.699219 -22.5625 18.0625 -23.792969 18.605469 -25.636719 C 19.070312 -27.492188 19.625 -29.414062 20.207031 -31.496094 C 20.695312 -33.511719 21.1875 -35.523438 21.570312 -37.394531 C 21.878906 -39.277344 22.007812 -40.546875 21.953125 -41.199219 C 21.527344 -43.523438 20.34375 -45.648438 18.46875 -47.484375 C 18.191406 -47.773438 17.839844 -48.070312 17.417969 -48.460938 C 17 -48.851562 16.488281 -49.179688 16.058594 -49.492188 C 15.535156 -49.738281 15.011719 -49.984375 14.550781 -50.140625 C 14.003906 -50.230469 13.519531 -50.226562 13.101562 -50.132812 Z M 13.570312 1.25 C 13.4375 1.066406 13.371094 0.976562 13.554688 0.84375 C 13.589844 0.125 13.707031 -0.582031 13.824219 -1.285156 L 14.167969 -3.40625 C 14.167969 -3.886719 14.492188 -4.398438 15.117188 -4.78125 C 15.585938 -5.1875 16.199219 -5.488281 16.851562 -5.542969 C 17.179688 -5.570312 17.414062 -5.53125 17.480469 -5.441406 C 17.546875 -5.351562 17.679688 -5.167969 17.875 -4.894531 C 18.007812 -4.226562 18.074219 -3.652344 17.984375 -3.105469 C 17.882812 -2.476562 17.871094 -1.914062 17.78125 -1.363281 C 17.523438 -0.761719 17.222656 -0.410156 16.871094 -0.226562 C 16.101562 0.535156 15.304688 0.96875 14.46875 1.15625 C 14.132812 1.261719 13.804688 1.289062 13.570312 1.25 Z M 13.570312 1.25 "/></g></g></g><g fill="#0097b2" fill-opacity="1"><g transform="translate(160.716504, 322.650605)"><g/></g></g><g fill="#0097b2" fill-opacity="1"><g transform="translate(173.914856, 324.349699)"><g><path d="M 35.800781 -10.074219 C 36.023438 -10.792969 36.246094 -11.511719 36.46875 -12.3125 C 36.691406 -13.035156 36.753906 -13.832031 36.738281 -14.625 L 36.703125 -16.214844 C 36.691406 -16.769531 36.601562 -17.324219 36.511719 -17.800781 C 36.339844 -18.273438 36.171875 -18.746094 36.003906 -19.21875 C 35.832031 -19.695312 35.664062 -20.089844 35.417969 -20.480469 C 35.09375 -20.792969 34.847656 -21.183594 34.601562 -21.496094 C 34.355469 -21.808594 34.113281 -22.121094 33.863281 -22.515625 C 33.703125 -22.589844 33.621094 -22.667969 33.621094 -22.828125 C 31.601562 -24.214844 29.359375 -24.960938 26.972656 -24.988281 C 26.335938 -24.976562 25.78125 -24.882812 25.308594 -24.714844 C 24.835938 -24.546875 24.285156 -24.375 23.804688 -24.363281 C 23.488281 -24.277344 23.253906 -24.195312 23.015625 -24.1875 C 22.777344 -24.105469 22.539062 -24.179688 22.292969 -24.414062 C 22.292969 -24.570312 22.367188 -24.652344 22.367188 -24.8125 C 22.363281 -24.890625 22.359375 -25.050781 22.515625 -25.210938 C 22.667969 -25.535156 22.898438 -25.855469 23.050781 -26.175781 C 23.203125 -26.5 23.355469 -26.898438 23.503906 -27.300781 C 23.886719 -28.105469 24.183594 -29.0625 24.398438 -30.183594 C 24.53125 -31.296875 24.585938 -32.492188 24.402344 -33.601562 C 24.21875 -34.710938 23.878906 -35.816406 23.382812 -36.757812 C 22.882812 -37.703125 22.15625 -38.324219 21.191406 -38.699219 C 19.910156 -39.148438 18.792969 -39.445312 17.675781 -39.578125 C 17.195312 -39.648438 16.796875 -39.71875 16.636719 -39.875 C 16.472656 -39.949219 16.386719 -40.265625 16.378906 -40.742188 L 16.3125 -43.84375 C 16.207031 -45.035156 16.179688 -46.226562 16.152344 -47.496094 C 16.125 -48.769531 16.019531 -49.960938 15.992188 -51.230469 C 15.828125 -51.546875 15.824219 -51.703125 15.820312 -51.863281 C 15.894531 -52.183594 15.882812 -52.582031 15.796875 -52.976562 C 15.628906 -53.371094 15.542969 -53.765625 15.453125 -54.160156 C 15.203125 -54.710938 15.03125 -55.265625 14.859375 -55.898438 C 14.6875 -56.449219 14.4375 -57 14.265625 -57.632812 C 14.011719 -58.421875 13.519531 -59.050781 12.714844 -59.507812 C 12.394531 -59.582031 12.15625 -59.65625 11.992188 -59.8125 C 11.75 -59.964844 11.507812 -60.121094 11.261719 -60.433594 C 10.777344 -60.898438 10.214844 -61.046875 9.660156 -60.953125 L 7.445312 -60.589844 L 5.226562 -60.222656 C 4.433594 -59.96875 3.808594 -59.476562 3.507812 -58.753906 C 3.355469 -58.433594 3.28125 -58.191406 3.207031 -57.953125 C 3.132812 -57.710938 3.054688 -57.550781 2.898438 -57.46875 C 2.589844 -56.984375 2.519531 -56.585938 2.527344 -56.269531 C 2.535156 -55.949219 2.542969 -55.554688 2.710938 -55.078125 C 3.050781 -54.054688 3.3125 -53.105469 3.328125 -52.308594 C 3.214844 -50.242188 3.179688 -48.171875 3.140625 -46.183594 C 3.027344 -44.113281 3.148438 -42.128906 3.351562 -40.144531 C 3.378906 -38.875 3.324219 -37.679688 3.1875 -36.722656 C 3.035156 -36.402344 2.960938 -36.082031 2.804688 -35.917969 C 2.652344 -35.679688 2.574219 -35.515625 2.421875 -35.355469 C 1.328125 -34.457031 0.3125 -33.558594 -0.625 -32.746094 C -1.640625 -31.847656 -2.570312 -30.875 -3.425781 -29.824219 C -3.734375 -29.417969 -4.042969 -29.015625 -4.351562 -28.609375 C -4.660156 -28.207031 -4.972656 -27.882812 -5.285156 -27.554688 C -5.902344 -26.828125 -6.285156 -26.101562 -6.585938 -25.300781 C -6.886719 -24.5 -7.109375 -23.78125 -7.332031 -22.980469 C -7.472656 -22.101562 -7.148438 -21.792969 -6.359375 -22.046875 C -5.804688 -22.21875 -5.253906 -22.386719 -4.621094 -22.640625 C -4.070312 -22.8125 -3.519531 -23.140625 -3.050781 -23.46875 C -2.265625 -23.964844 -1.480469 -24.535156 -0.78125 -25.269531 C -0.0820312 -26 0.535156 -26.808594 1.152344 -27.695312 C 1.464844 -27.941406 1.699219 -28.261719 1.929688 -28.585938 C 2.160156 -28.910156 2.554688 -29.078125 3.1875 -29.167969 C 3.191406 -29.011719 3.277344 -28.851562 3.277344 -28.773438 L 3.414062 -22.414062 C 3.355469 -21.460938 3.296875 -20.425781 3.316406 -19.472656 C 3.339844 -18.519531 3.359375 -17.566406 3.378906 -16.691406 C 3.25 -15.175781 3.28125 -13.746094 3.3125 -12.316406 C 3.34375 -10.886719 3.296875 -9.453125 3.324219 -8.023438 C 3.332031 -7.703125 3.257812 -7.464844 3.261719 -7.226562 C 3.269531 -6.988281 3.273438 -6.75 3.277344 -6.511719 C 3.296875 -5.714844 3.3125 -5 3.328125 -4.285156 C 3.34375 -3.570312 3.4375 -2.855469 3.453125 -2.0625 C 3.308594 -1.503906 3.074219 -1.257812 2.597656 -1.25 C 2.277344 -1.242188 1.960938 -1.234375 1.644531 -1.226562 C 1.324219 -1.222656 1.003906 -1.292969 0.6875 -1.285156 C 0.527344 -1.285156 0.371094 -1.28125 0.207031 -1.4375 C 0.046875 -1.511719 -0.113281 -1.585938 -0.191406 -1.585938 C -0.507812 -1.421875 -0.664062 -1.257812 -0.820312 -1.09375 C -0.972656 -0.933594 -0.890625 -0.695312 -0.644531 -0.464844 C -0.402344 -0.152344 -0.0742188 0.160156 0.25 0.472656 C 0.574219 0.78125 0.976562 1.011719 1.453125 1.082031 C 1.9375 1.308594 2.261719 1.621094 2.507812 2.011719 C 2.757812 2.484375 3.082031 2.796875 3.484375 3.027344 C 3.484375 3.105469 3.570312 3.261719 3.574219 3.5 C 3.59375 4.375 3.613281 5.25 3.628906 6.042969 C 3.648438 6.917969 3.746094 7.792969 3.761719 8.585938 C 3.871094 10.015625 3.980469 11.363281 4.011719 12.714844 C 4.042969 14.144531 4.070312 15.496094 4.257812 16.84375 C 4.265625 17.164062 4.191406 17.480469 4.199219 17.800781 C 4.207031 18.117188 4.214844 18.433594 4.21875 18.753906 C 4.242188 19.707031 4.339844 20.578125 4.355469 21.375 C 4.375 22.25 4.472656 23.121094 4.492188 23.996094 C 4.601562 25.425781 4.871094 26.769531 5.214844 28.035156 C 5.558594 29.300781 6.378906 30.472656 7.511719 31.402344 C 8.078125 31.871094 8.726562 32.332031 9.367188 32.636719 C 10.011719 32.941406 10.730469 33.164062 11.527344 33.226562 L 11.925781 33.21875 C 12.085938 33.214844 12.164062 33.210938 12.320312 33.050781 C 12.710938 32.722656 13.183594 32.554688 13.660156 32.464844 C 14.136719 32.453125 14.609375 32.363281 15.085938 32.273438 C 17.066406 31.992188 18 30.941406 17.878906 29.035156 C 17.875 28.875 17.789062 28.640625 17.785156 28.480469 C 17.785156 28.320312 17.78125 28.242188 17.777344 28.082031 C 17.601562 27.292969 17.503906 26.5 17.328125 25.707031 C 17.15625 24.996094 17.296875 24.195312 17.675781 23.394531 C 17.675781 23.394531 17.675781 23.3125 17.675781 23.234375 C 17.671875 23.15625 17.671875 23.074219 17.667969 22.917969 C 17.492188 22.125 17.550781 21.25 17.769531 20.371094 C 17.992188 19.570312 18.054688 18.695312 18.035156 17.820312 L 18.03125 17.660156 C 18.027344 17.503906 18.101562 17.183594 18.089844 16.707031 C 18.066406 15.515625 18.039062 14.320312 18.011719 13.050781 C 17.984375 11.859375 17.800781 10.667969 17.457031 9.484375 C 17.375 9.246094 17.367188 8.929688 17.359375 8.613281 C 17.351562 8.292969 17.425781 8.054688 17.5 7.734375 C 17.496094 7.496094 17.488281 7.257812 17.644531 7.015625 C 17.71875 6.773438 17.710938 6.535156 17.707031 6.21875 C 17.691406 5.582031 17.683594 5.105469 17.835938 4.863281 C 17.992188 4.703125 18.382812 4.453125 19.011719 4.125 C 19.089844 4.121094 19.171875 4.121094 19.171875 4.121094 C 19.171875 4.121094 19.25 4.039062 19.40625 4.035156 C 21.308594 3.597656 23.203125 3 25.09375 2.242188 C 26.984375 1.488281 28.710938 0.417969 30.113281 -1.046875 C 31.199219 -2.179688 32.285156 -3.554688 33.363281 -5.089844 C 34.445312 -6.625 35.285156 -8.234375 35.726562 -9.832031 L 35.722656 -9.992188 C 35.722656 -9.992188 35.722656 -10.070312 35.800781 -10.074219 Z M 17.433594 -36.074219 C 17.984375 -36.246094 18.390625 -35.9375 18.722656 -35.226562 C 19.058594 -34.441406 19.234375 -33.570312 19.253906 -32.773438 C 19.269531 -31.980469 19.207031 -31.183594 19.144531 -30.464844 C 19 -29.667969 18.777344 -28.949219 18.394531 -28.304688 C 18.238281 -28.140625 18.160156 -28.058594 18.085938 -27.898438 C 17.929688 -27.738281 17.777344 -27.496094 17.621094 -27.332031 C 17.457031 -27.488281 17.375 -27.644531 17.371094 -27.804688 C 17.367188 -27.964844 17.285156 -28.042969 17.285156 -28.199219 C 16.917969 -30.417969 16.789062 -32.640625 16.898438 -35.03125 C 16.894531 -35.269531 16.886719 -35.507812 16.964844 -35.667969 C 16.960938 -35.828125 17.117188 -35.988281 17.433594 -36.074219 Z M 28.023438 -13.085938 C 27.503906 -11.324219 26.746094 -9.71875 25.824219 -8.1875 C 25.359375 -7.542969 24.894531 -6.976562 24.429688 -6.410156 C 23.964844 -5.84375 23.421875 -5.355469 22.949219 -5.027344 C 22.324219 -4.535156 21.621094 -4.042969 20.992188 -3.710938 C 20.363281 -3.378906 19.65625 -2.96875 18.945312 -2.632812 C 18.316406 -2.300781 17.921875 -2.214844 17.757812 -2.371094 C 17.597656 -2.523438 17.507812 -2.921875 17.492188 -3.636719 L 17.484375 -4.113281 C 17.460938 -5.144531 17.519531 -6.179688 17.496094 -7.292969 C 17.472656 -8.328125 17.449219 -9.359375 17.503906 -10.472656 L 17.4375 -13.734375 C 17.421875 -14.367188 17.808594 -14.933594 18.59375 -15.425781 C 19.140625 -15.757812 19.769531 -16.167969 20.472656 -16.660156 L 22.511719 -17.976562 C 22.984375 -18.304688 23.535156 -18.554688 24.167969 -18.726562 C 24.722656 -18.820312 25.277344 -18.832031 25.914062 -18.84375 C 26.234375 -18.773438 26.472656 -18.699219 26.792969 -18.546875 C 27.117188 -18.394531 27.359375 -18.082031 27.527344 -17.6875 C 27.695312 -17.292969 27.863281 -16.898438 28.109375 -16.585938 C 28.273438 -16.273438 28.441406 -15.878906 28.53125 -15.480469 C 28.539062 -15.003906 28.46875 -14.605469 28.316406 -14.285156 C 28.167969 -13.882812 28.09375 -13.484375 28.023438 -13.085938 Z M 28.023438 -13.085938 "/></g></g></g><g fill="#0097b2" fill-opacity="1"><g transform="translate(215.540758, 322.607305)"><g><path d="M 11.488281 -15.203125 C 11.429688 -15.597656 11.214844 -15.964844 10.910156 -16.402344 C 10.703125 -16.695312 10.589844 -16.917969 10.554688 -17.15625 C 10.316406 -17.679688 10.023438 -18.039062 9.664062 -18.308594 C 8.964844 -18.6875 8.289062 -18.90625 7.566406 -18.882812 C 7.085938 -18.890625 6.601562 -18.898438 6.128906 -18.828125 C 5.65625 -18.757812 5.222656 -18.453125 4.875 -18.082031 C 4.742188 -17.898438 4.515625 -17.785156 4.371094 -17.683594 C 4.15625 -17.492188 4.011719 -17.390625 3.957031 -17.222656 C 3.824219 -17.039062 3.746094 -17.027344 3.746094 -17.027344 C 3.183594 -16.464844 2.773438 -16 2.449219 -15.46875 C 2.046875 -14.929688 1.722656 -14.398438 1.320312 -13.855469 C 1 -13.328125 0.753906 -12.808594 0.597656 -12.222656 C 0.367188 -11.625 0.210938 -11.039062 0.125 -10.546875 C 0.0703125 -10.375 0.0273438 -10.128906 0.0507812 -9.972656 C -0.0078125 -9.804688 -0.0625 -9.632812 -0.0390625 -9.476562 C -0.546875 -7.472656 -0.578125 -5.539062 -0.121094 -3.519531 C 0.261719 -1.484375 1.160156 0.230469 2.503906 1.71875 C 3.285156 2.648438 4.199219 3.394531 5.238281 3.886719 C 6.273438 4.375 7.285156 4.707031 8.410156 4.699219 C 9.546875 4.773438 10.570312 4.621094 11.625 4.144531 C 12.679688 3.667969 13.539062 2.976562 14.34375 1.890625 C 15.148438 0.808594 15.625 -0.304688 15.84375 -1.542969 C 15.996094 -2.691406 16.382812 -3.875 17.003906 -5.089844 C 17.328125 -5.621094 17.472656 -6.285156 17.511719 -7.09375 C 17.550781 -7.90625 17.449219 -8.613281 17.183594 -9.296875 C 16.921875 -9.980469 16.59375 -10.574219 16.039062 -11.054688 C 15.488281 -11.535156 14.878906 -11.847656 14.148438 -11.902344 C 13.910156 -11.867188 13.664062 -11.910156 13.472656 -12.121094 C 12.953125 -12.367188 12.652344 -12.242188 12.550781 -11.824219 C 12.464844 -11.328125 12.511719 -11.015625 12.859375 -10.824219 C 14.351562 -9.441406 14.863281 -8.148438 14.421875 -6.796875 C 13.980469 -5.445312 13.042969 -4.183594 11.765625 -3.03125 C 11.074219 -2.285156 10.085938 -1.894531 8.90625 -1.722656 C 8.433594 -1.652344 8.152344 -1.929688 8.136719 -2.570312 C 8.121094 -3.210938 8.164062 -4.023438 8.347656 -4.933594 C 8.535156 -5.84375 8.722656 -6.757812 8.921875 -7.589844 C 9.117188 -8.421875 9.285156 -8.929688 9.40625 -9.1875 C 9.40625 -9.1875 9.394531 -9.269531 9.527344 -9.449219 C 9.652344 -9.707031 9.773438 -9.964844 9.894531 -10.226562 C 10.03125 -10.40625 10.230469 -10.675781 10.511719 -10.960938 C 10.578125 -11.050781 10.644531 -11.140625 10.699219 -11.308594 C 10.675781 -11.464844 10.742188 -11.558594 10.878906 -11.738281 C 10.933594 -11.90625 10.988281 -12.074219 11.042969 -12.246094 C 11.019531 -12.402344 11.085938 -12.492188 11.222656 -12.671875 C 11.398438 -13.101562 11.496094 -13.515625 11.4375 -13.910156 C 11.378906 -14.304688 11.402344 -14.707031 11.488281 -15.203125 Z M 11.488281 -15.203125 "/></g></g></g><g fill="#0097b2" fill-opacity="1"><g transform="translate(237.306898, 319.176883)"><g><path d="M 6.359375 -6.367188 C 6.394531 -6.214844 6.507812 -6.078125 6.542969 -5.921875 C 6.578125 -5.765625 6.597656 -5.691406 6.691406 -5.628906 L 7.210938 -3.382812 L 7.285156 -3.074219 C 7.238281 -2.574219 7.285156 -2.015625 7.46875 -1.566406 C 7.65625 -1.121094 7.839844 -0.675781 8.101562 -0.246094 C 8.4375 0.492188 8.949219 0.945312 9.796875 1.074219 C 10.066406 1.175781 10.429688 1.335938 10.773438 1.421875 C 11.304688 1.949219 11.898438 2.058594 12.640625 1.722656 C 12.871094 1.667969 13.085938 1.539062 13.316406 1.484375 L 14.09375 1.304688 C 14.324219 1.25 14.539062 1.121094 14.8125 0.894531 C 15.085938 0.667969 15.1875 0.398438 15.269531 0.0507812 C 15.269531 0.0507812 15.3125 -0.121094 15.257812 -0.351562 C 15.03125 -0.625 14.863281 -0.996094 14.699219 -1.367188 C 14.546875 -1.65625 14.382812 -2.027344 14.230469 -2.316406 C 13.96875 -2.746094 13.765625 -3.269531 13.660156 -3.734375 C 13.550781 -4.199219 13.425781 -4.742188 13.300781 -5.285156 C 13.1875 -5.421875 13.152344 -5.578125 13.113281 -5.730469 C 13.078125 -5.886719 13.101562 -6.136719 13.066406 -6.292969 C 13.089844 -6.542969 12.960938 -6.757812 12.75 -6.953125 C 12.523438 -7.226562 12.355469 -7.59375 12.34375 -8 L 12.238281 -8.464844 L 11.679688 -10.867188 C 11.625 -11.097656 11.496094 -11.3125 11.460938 -11.46875 C 11.234375 -11.742188 11.179688 -11.972656 11.183594 -12.300781 C 11.132812 -12.535156 11.136719 -12.863281 11.21875 -13.207031 C 11.226562 -13.535156 11.214844 -13.941406 11.140625 -14.25 C 11.070312 -14.558594 11.074219 -14.886719 11.140625 -15.308594 L 11.085938 -15.542969 C 10.746094 -15.953125 10.601562 -16.574219 10.769531 -17.265625 C 10.835938 -17.6875 10.746094 -18.074219 10.65625 -18.460938 C 10.488281 -18.832031 10.320312 -19.199219 10.136719 -19.648438 C 9.796875 -20.058594 9.507812 -20.238281 9.320312 -20.355469 C 8.992188 -20.359375 8.800781 -20.480469 8.765625 -20.636719 C 7.964844 -21.265625 7.21875 -21.664062 6.566406 -21.675781 C 5.832031 -21.667969 5.039062 -21.566406 4.1875 -21.371094 C 3.957031 -21.316406 3.679688 -21.089844 3.332031 -20.84375 C 2.9375 -20.425781 2.605469 -20.105469 2.253906 -19.859375 C 1.84375 -19.519531 1.507812 -19.199219 1.175781 -18.875 C 0.765625 -18.535156 0.292969 -18.101562 -0.0820312 -17.605469 C -0.515625 -17.015625 -0.933594 -16.347656 -1.3125 -15.527344 C -1.828125 -14.589844 -2.019531 -13.648438 -1.996094 -12.839844 C -1.964844 -12.355469 -1.976562 -11.699219 -1.988281 -11.042969 L -2.183594 -9.777344 C -2.226562 -9.601562 -2.171875 -9.371094 -2.097656 -9.0625 C -1.847656 -7.976562 -1.363281 -6.945312 -0.589844 -6.066406 C -0.0820312 -5.285156 0.664062 -4.886719 1.585938 -4.773438 C 1.757812 -4.730469 1.855469 -4.671875 2.007812 -4.707031 C 2.183594 -4.667969 2.277344 -4.609375 2.433594 -4.644531 C 3.011719 -4.613281 3.554688 -4.738281 4.171875 -4.882812 C 4.714844 -5.007812 5.203125 -5.367188 5.734375 -5.898438 C 6.023438 -6.046875 6.238281 -6.179688 6.359375 -6.367188 Z M 5.363281 -18.050781 C 5.398438 -17.898438 5.359375 -17.722656 5.359375 -17.722656 L 5.449219 -16.277344 C 5.40625 -16.105469 5.445312 -15.949219 5.480469 -15.792969 C 5.515625 -15.640625 5.457031 -15.542969 5.414062 -15.371094 C 5.289062 -14.851562 5.261719 -14.273438 5.214844 -13.773438 C 5.183594 -13.195312 5.058594 -12.675781 4.933594 -12.160156 C 4.578125 -10.527344 3.996094 -9.167969 3.1875 -8.082031 L 2.777344 -7.742188 C 2.363281 -7.402344 1.960938 -7.390625 1.621094 -7.800781 C 0.867188 -8.933594 0.519531 -10.074219 0.699219 -11.421875 C 0.742188 -11.59375 0.765625 -11.84375 0.726562 -12 C 0.691406 -12.15625 0.65625 -12.308594 0.757812 -12.578125 C 1.007812 -13.617188 1.351562 -14.59375 1.984375 -15.390625 C 2.375 -15.808594 2.691406 -16.207031 3.082031 -16.625 C 3.476562 -17.042969 3.886719 -17.382812 4.375 -17.742188 C 4.648438 -17.96875 5.035156 -18.058594 5.363281 -18.050781 Z M 5.363281 -18.050781 "/></g></g></g><g fill="#0097b2" fill-opacity="1"><g transform="translate(255.808476, 314.800538)"><g><path d="M 13.066406 -18.742188 C 12.964844 -18.796875 12.941406 -18.871094 12.917969 -18.945312 C 12.917969 -18.945312 12.816406 -19 12.769531 -19.148438 C 12.59375 -19.175781 12.492188 -19.230469 12.292969 -19.332031 C 12.09375 -19.4375 11.894531 -19.539062 11.769531 -19.667969 C 11.394531 -19.796875 11.144531 -19.800781 10.890625 -19.554688 C 10 -18.9375 9.136719 -18.246094 8.246094 -17.628906 C 7.382812 -16.9375 6.816406 -16.09375 6.476562 -15.066406 L 6.238281 -14.242188 C 6.03125 -13.839844 5.804688 -13.769531 5.582031 -14.199219 C 5.460938 -14.328125 5.410156 -14.480469 5.363281 -14.628906 C 5.316406 -14.78125 5.167969 -14.984375 5.121094 -15.136719 C 5.046875 -15.363281 4.976562 -15.589844 4.902344 -15.820312 C 4.832031 -16.046875 4.757812 -16.273438 4.585938 -16.550781 C 4.089844 -17.0625 3.421875 -17.597656 2.550781 -18.242188 C 1.703125 -18.804688 0.804688 -19.269531 -0.144531 -19.636719 C -1.070312 -19.925781 -2.027344 -20.039062 -2.929688 -20.003906 C -3.8125 -19.890625 -4.523438 -19.5 -5.085938 -18.652344 C -5.652344 -17.804688 -5.613281 -17.152344 -5.015625 -16.589844 C -4.746094 -16.257812 -4.625 -15.878906 -4.527344 -15.578125 C -4.40625 -15.199219 -4.289062 -14.820312 -4.039062 -14.5625 C -3.917969 -14.183594 -3.824219 -13.882812 -3.726562 -13.578125 C -3.632812 -13.277344 -3.511719 -12.898438 -3.414062 -12.59375 C -3.175781 -11.835938 -2.761719 -10.800781 -2.375 -9.585938 C -1.992188 -8.375 -1.507812 -7.109375 -1.074219 -5.746094 C -0.640625 -4.382812 -0.207031 -3.019531 0.175781 -1.808594 C 0.5625 -0.59375 0.796875 0.414062 0.964844 1.195312 C 1.289062 3.011719 1.992188 4.703125 3.128906 6.179688 C 4.1875 7.675781 5.734375 8.605469 7.792969 8.785156 L 9.5 8.910156 C 10.027344 8.992188 10.558594 8.824219 11.066406 8.328125 C 11.066406 8.328125 11.144531 8.304688 11.21875 8.28125 C 11.472656 8.285156 11.675781 8.136719 11.851562 7.914062 C 12.03125 7.6875 12.210938 7.464844 12.390625 7.242188 C 12.496094 7.042969 12.671875 6.820312 12.753906 6.542969 C 12.855469 6.34375 12.859375 6.09375 12.863281 5.839844 C 12.796875 5.363281 12.652344 4.90625 12.429688 4.476562 C 12.210938 4.046875 11.914062 3.640625 11.46875 3.28125 C 11.042969 3 10.746094 2.59375 10.65625 2.039062 C 10.464844 1.433594 10.25 0.5 9.890625 -0.636719 L 8.757812 -4.199219 C 8.375 -5.410156 8.011719 -6.546875 7.726562 -7.707031 C 7.441406 -8.867188 7.304688 -9.824219 7.417969 -10.527344 C 7.511719 -11.808594 7.78125 -13.0625 8.375 -14.335938 C 8.972656 -15.609375 9.691406 -16.753906 10.539062 -17.773438 C 10.714844 -17.996094 10.945312 -18.070312 11.246094 -18.167969 C 11.925781 -18.132812 12.53125 -18.324219 13.066406 -18.742188 Z M 13.066406 -18.742188 "/></g></g></g><g fill="#0097b2" fill-opacity="1"><g transform="translate(276.481592, 308.138248)"><g><path d="M 7.941406 -9.8125 L 8.121094 -9.800781 C 8.253906 -9.6875 8.421875 -9.496094 8.542969 -9.203125 C 9.324219 -6.945312 10.175781 -4.714844 11.101562 -2.519531 C 11.953125 -0.289062 12.703125 1.898438 13.480469 4.15625 C 13.765625 5.242188 14.15625 6.375 14.648438 7.546875 C 15.070312 8.75 15.824219 9.722656 16.8125 10.429688 C 17.289062 10.746094 17.84375 11.03125 18.539062 11.253906 C 19.238281 11.480469 19.976562 11.597656 20.761719 11.613281 C 21.46875 11.660156 22.253906 11.675781 22.972656 11.542969 C 23.621094 11.445312 24.238281 11.269531 24.824219 11.023438 C 25.496094 10.570312 25.957031 10.027344 26.152344 9.257812 C 26.3125 8.414062 26.078125 7.648438 25.59375 6.90625 C 25.0625 6.265625 24.578125 5.519531 24.121094 4.851562 C 23.636719 4.105469 23.265625 3.226562 22.898438 2.347656 C 22.527344 1.46875 22.261719 0.632812 21.964844 -0.277344 C 21.210938 -1.859375 20.429688 -3.511719 19.75 -5.125 C 19 -6.707031 18.246094 -8.285156 17.496094 -9.867188 C 15.066406 -15.226562 13 -20.742188 11.292969 -26.230469 C 9.585938 -31.722656 7.773438 -37.257812 5.855469 -42.832031 C 5.484375 -43.710938 5.144531 -44.515625 4.691406 -45.1875 C 4.238281 -45.859375 3.664062 -46.394531 3.050781 -46.828125 C 2.46875 -47.183594 1.804688 -47.335938 1.09375 -47.382812 C 0.3125 -47.398438 -0.527344 -47.132812 -1.417969 -46.582031 C -1.792969 -46.253906 -2.039062 -45.804688 -2.03125 -45.375 C -1.9375 -45.15625 -1.917969 -44.90625 -1.855469 -44.761719 C -1.867188 -44.582031 -1.878906 -44.40625 -1.816406 -44.257812 C -1.617188 -42.964844 -1.386719 -41.59375 -1.039062 -40.359375 C -0.691406 -39.125 -0.492188 -37.832031 -0.320312 -36.609375 C 0.183594 -33.976562 0.835938 -31.402344 1.5625 -28.863281 C 2.316406 -26.246094 3.1875 -23.769531 4.164062 -21.246094 C 4.265625 -20.597656 3.992188 -20.222656 3.3125 -20.199219 C 1.882812 -20.113281 0.425781 -19.671875 -1.050781 -18.878906 C -2.527344 -18.085938 -3.523438 -16.972656 -4.105469 -15.695312 C -4.617188 -14.445312 -4.800781 -13.246094 -4.734375 -12.066406 C -4.710938 -10.78125 -4.46875 -9.589844 -4.050781 -8.386719 C -3.492188 -7.066406 -2.707031 -6.019531 -1.675781 -5.417969 C -0.617188 -4.742188 0.558594 -4.203125 1.851562 -3.796875 C 2.683594 -3.457031 3.464844 -3.445312 4.199219 -3.753906 C 4.960938 -3.988281 5.664062 -4.367188 6.273438 -4.96875 C 6.808594 -5.542969 7.242188 -6.15625 7.582031 -6.988281 C 7.847656 -7.789062 7.964844 -8.53125 7.878906 -9.355469 C 7.878906 -9.355469 7.917969 -9.457031 7.890625 -9.53125 C 7.890625 -9.53125 7.859375 -9.605469 7.941406 -9.8125 Z M 2.015625 -8.527344 C 1.785156 -8.253906 1.546875 -8.414062 1.238281 -9.144531 C 1.023438 -9.660156 0.804688 -10.171875 0.707031 -10.820312 C 0.5625 -11.363281 0.421875 -11.90625 0.351562 -12.480469 C 0.269531 -12.878906 0.261719 -13.308594 0.222656 -13.808594 C 0.214844 -14.234375 0.207031 -14.664062 0.347656 -15.152344 C 0.347656 -15.152344 0.390625 -15.257812 0.429688 -15.363281 C 0.503906 -15.394531 0.546875 -15.496094 0.558594 -15.675781 C 1.050781 -16.140625 1.480469 -16.148438 1.8125 -15.769531 C 2.253906 -14.921875 2.59375 -14.117188 2.757812 -13.324219 C 2.917969 -12.527344 3.007812 -11.703125 2.917969 -10.890625 C 2.894531 -10.535156 2.800781 -10.148438 2.660156 -9.660156 C 2.480469 -9.066406 2.277344 -8.722656 2.015625 -8.527344 Z M 2.015625 -8.527344 "/></g></g></g></svg>