<svg xmlns="http://www.w3.org/2000/svg" xmlns:xlink="http://www.w3.org/1999/xlink" width="250" zoomAndPan="magnify" viewBox="0 0 375 374.999991" height="250" preserveAspectRatio="xMidYMid meet" version="1.0"><defs><clipPath id="97011038e2"><path d="M 0.46875 0 L 374.71875 0 L 374.71875 374 L 0.46875 374 Z M 0.46875 0 " clip-rule="nonzero"/></clipPath></defs><g clip-path="url(#97011038e2)"><path fill="#f2e6dc" d="M 374.660156 186.972656 C 374.660156 290.234375 290.90625 373.945312 187.59375 373.945312 C 84.28125 373.945312 0.527344 290.234375 0.527344 186.972656 C 0.527344 83.710938 84.28125 0 187.59375 0 C 290.90625 0 374.660156 83.710938 374.660156 186.972656 " fill-opacity="1" fill-rule="nonzero"/></g><path fill="#e2a18d" d="M 140.773438 202.257812 L 98.570312 202.257812 L 98.570312 129.632812 L 140.773438 129.632812 L 140.773438 202.257812 " fill-opacity="1" fill-rule="nonzero"/><path fill="#e2a18d" d="M 116.738281 176.433594 C 116.738281 176.433594 42.226562 187.382812 28.796875 207.808594 C 6.996094 240.976562 19.910156 279.082031 19.910156 279.082031 C 38.707031 291.683594 88.777344 323.351562 113.113281 323.351562 C 138.222656 323.351562 190.980469 303.171875 210.125 289.824219 C 219.164062 283.519531 219.363281 227.414062 201.546875 205.550781 C 186.355469 186.90625 116.738281 176.433594 116.738281 176.433594 " fill-opacity="1" fill-rule="nonzero"/><path fill="#363e44" d="M 181.03125 250.097656 C 180.921875 250.097656 180.832031 250.007812 180.828125 249.898438 L 180.007812 224.058594 C 180.003906 223.945312 180.089844 223.851562 180.203125 223.847656 L 180.210938 223.847656 C 180.320312 223.847656 180.410156 223.933594 180.414062 224.046875 L 181.238281 249.886719 C 181.238281 250 181.152344 250.09375 181.039062 250.097656 L 181.03125 250.097656 " fill-opacity="1" fill-rule="nonzero"/><path fill="#363e44" d="M 48.839844 251.003906 L 48.835938 251.003906 C 48.722656 251.003906 48.632812 250.910156 48.632812 250.796875 L 48.953125 224.945312 C 48.957031 224.832031 49.046875 224.742188 49.160156 224.742188 C 49.273438 224.746094 49.363281 224.835938 49.363281 224.949219 L 49.042969 250.804688 C 49.042969 250.914062 48.949219 251.003906 48.839844 251.003906 " fill-opacity="1" fill-rule="nonzero"/><path fill="#ffffff" d="M 46.378906 330.527344 C 46.378906 330.527344 163.917969 333.480469 174.269531 330.515625 C 186.910156 326.898438 184.4375 293.292969 181.117188 237.132812 C 166.582031 233.601562 145.847656 230.945312 117.5 230.769531 C 88.769531 230.589844 64.875 234.070312 47.835938 238.355469 C 48.546875 283.765625 46.378906 330.527344 46.378906 330.527344 " fill-opacity="1" fill-rule="nonzero"/><path fill="#e6d0be" d="M 66.421875 248.730469 C 66.324219 248.730469 66.238281 248.664062 66.21875 248.566406 C 66.199219 248.457031 66.273438 248.351562 66.382812 248.328125 C 80.515625 245.636719 96.992188 244.019531 119.800781 243.082031 C 132.523438 242.5625 142.867188 242.367188 150.417969 242.230469 C 158.132812 242.085938 163.796875 241.980469 164.636719 241.601562 C 162.964844 240.460938 139.738281 237.917969 113.683594 237.371094 C 92.132812 236.917969 70.472656 238.804688 54.277344 242.550781 C 54.167969 242.578125 54.054688 242.507812 54.03125 242.398438 C 54.003906 242.289062 54.074219 242.179688 54.183594 242.152344 C 70.414062 238.402344 92.101562 236.507812 113.691406 236.964844 C 138.015625 237.472656 163.632812 239.925781 165.003906 241.382812 C 165.089844 241.476562 165.105469 241.566406 165.105469 241.625 C 165.078125 242.3125 162.863281 242.40625 150.425781 242.636719 C 142.875 242.777344 132.535156 242.96875 119.820312 243.492188 C 97.027344 244.425781 80.570312 246.042969 66.460938 248.730469 L 66.421875 248.730469 " fill-opacity="1" fill-rule="nonzero"/><path fill="#e2a18d" d="M 151.773438 117.867188 C 151.773438 138.84375 137.238281 160.96875 119.308594 160.96875 C 101.378906 160.96875 86.84375 138.84375 86.84375 117.867188 C 86.84375 96.894531 101.378906 79.890625 119.308594 79.890625 C 137.238281 79.890625 151.773438 96.894531 151.773438 117.867188 " fill-opacity="1" fill-rule="nonzero"/><path fill="#363e44" d="M 119.308594 161.175781 C 112.882812 161.175781 106.554688 158.351562 101.015625 153.011719 C 100.933594 152.929688 100.929688 152.800781 101.011719 152.71875 C 101.089844 152.636719 101.21875 152.636719 101.300781 152.714844 C 106.761719 157.980469 112.988281 160.765625 119.308594 160.765625 C 126.179688 160.765625 132.863281 157.523438 138.628906 151.386719 C 138.707031 151.304688 138.835938 151.300781 138.917969 151.378906 C 139 151.457031 139.003906 151.582031 138.929688 151.664062 C 133.082031 157.886719 126.296875 161.175781 119.308594 161.175781 " fill-opacity="1" fill-rule="nonzero"/><path fill="#363e44" d="M 119.957031 136.105469 C 119.886719 136.105469 119.820312 136.074219 119.785156 136.011719 C 119.722656 135.914062 119.75 135.789062 119.84375 135.730469 C 120.976562 135.011719 121.664062 134.171875 121.886719 133.230469 C 122.125 132.234375 121.761719 131.414062 121.304688 130.378906 C 120.957031 129.585938 120.558594 128.683594 120.328125 127.5 C 120.035156 125.992188 120.089844 124.390625 120.496094 122.742188 C 120.523438 122.632812 120.632812 122.566406 120.742188 122.59375 C 120.851562 122.621094 120.917969 122.730469 120.890625 122.839844 C 120.5 124.429688 120.445312 125.972656 120.730469 127.421875 C 120.953125 128.5625 121.339844 129.441406 121.679688 130.214844 C 122.148438 131.277344 122.554688 132.195312 122.285156 133.328125 C 122.039062 134.371094 121.289062 135.296875 120.066406 136.074219 C 120.03125 136.09375 119.992188 136.105469 119.957031 136.105469 " fill-opacity="1" fill-rule="nonzero"/><path fill="#e2a18d" d="M 155.757812 122.78125 C 155.757812 127.40625 152.867188 131.160156 149.296875 131.160156 C 145.726562 131.160156 142.835938 127.40625 142.835938 122.78125 C 142.835938 118.148438 145.726562 114.398438 149.296875 114.398438 C 152.867188 114.398438 155.757812 118.148438 155.757812 122.78125 " fill-opacity="1" fill-rule="nonzero"/><path fill="#e2a18d" d="M 96.257812 122.78125 C 96.257812 127.40625 93.367188 131.160156 89.796875 131.160156 C 86.226562 131.160156 83.335938 127.40625 83.335938 122.78125 C 83.335938 118.148438 86.226562 114.398438 89.796875 114.398438 C 93.367188 114.398438 96.257812 118.148438 96.257812 122.78125 " fill-opacity="1" fill-rule="nonzero"/><path fill="#363e44" d="M 116.863281 143.433594 C 115.40625 143.433594 114.042969 142.789062 113.238281 141.679688 C 112.507812 140.675781 112.277344 139.347656 112.601562 138.035156 C 112.628906 137.925781 112.738281 137.855469 112.847656 137.882812 C 112.957031 137.914062 113.023438 138.023438 112.996094 138.132812 C 112.703125 139.328125 112.910156 140.53125 113.570312 141.441406 C 114.441406 142.644531 116.042969 143.238281 117.65625 142.957031 C 117.765625 142.933594 117.871094 143.011719 117.890625 143.121094 C 117.910156 143.234375 117.835938 143.335938 117.726562 143.359375 C 117.4375 143.410156 117.148438 143.433594 116.863281 143.433594 " fill-opacity="1" fill-rule="nonzero"/><path fill="#363e44" d="M 101.808594 124.964844 C 95.292969 124.964844 89.941406 118.917969 89.890625 118.855469 C 89.816406 118.769531 89.824219 118.640625 89.90625 118.566406 C 89.992188 118.492188 90.121094 118.503906 90.195312 118.585938 C 90.25 118.648438 95.480469 124.554688 101.808594 124.554688 C 108.136719 124.554688 113.371094 118.648438 113.421875 118.585938 C 113.496094 118.503906 113.625 118.492188 113.710938 118.566406 C 113.792969 118.640625 113.804688 118.769531 113.730469 118.855469 C 113.675781 118.917969 108.324219 124.964844 101.808594 124.964844 " fill-opacity="1" fill-rule="nonzero"/><path fill="#363e44" d="M 137.328125 124.964844 C 130.8125 124.964844 125.460938 118.917969 125.40625 118.855469 C 125.332031 118.769531 125.339844 118.640625 125.425781 118.566406 C 125.511719 118.492188 125.640625 118.503906 125.714844 118.585938 C 125.765625 118.648438 131 124.554688 137.328125 124.554688 C 143.65625 124.554688 148.886719 118.648438 148.9375 118.585938 C 149.011719 118.503906 149.144531 118.492188 149.226562 118.566406 C 149.3125 118.640625 149.320312 118.769531 149.246094 118.855469 C 149.195312 118.917969 143.84375 124.964844 137.328125 124.964844 " fill-opacity="1" fill-rule="nonzero"/><path fill="#ffffff" d="M 119.308594 79.890625 C 114.257812 82.324219 107.59375 86.339844 101.613281 92.992188 C 87.757812 108.425781 86.238281 125.859375 83.335938 125.859375 C 77.476562 125.863281 74.804688 103.476562 78.261719 85 C 81.386719 68.292969 95.269531 50.3125 104.371094 50.960938 C 112.210938 51.523438 117.152344 69.960938 119.308594 79.890625 " fill-opacity="1" fill-rule="nonzero"/><path fill="#e6d0be" d="M 82.484375 119.382812 L 82.460938 119.382812 C 82.347656 119.371094 82.269531 119.269531 82.28125 119.15625 C 83.296875 109.894531 86.640625 96.378906 96.808594 84.589844 C 99.613281 81.335938 102.816406 78.371094 106.320312 75.777344 C 106.410156 75.707031 106.539062 75.726562 106.605469 75.820312 C 106.671875 75.910156 106.652344 76.035156 106.5625 76.105469 C 103.082031 78.679688 99.90625 81.625 97.117188 84.859375 C 87.019531 96.566406 83.695312 109.996094 82.6875 119.199219 C 82.675781 119.308594 82.585938 119.382812 82.484375 119.382812 " fill-opacity="1" fill-rule="nonzero"/><path fill="#e6d0be" d="M 78.160156 97.359375 C 78.140625 97.359375 78.121094 97.355469 78.097656 97.351562 C 77.992188 97.316406 77.929688 97.203125 77.964844 97.09375 C 80.054688 90.332031 84.519531 80.84375 93.910156 74.054688 C 96.761719 71.996094 99.910156 70.304688 103.265625 69.03125 C 103.371094 68.992188 103.488281 69.046875 103.527344 69.152344 C 103.570312 69.257812 103.515625 69.375 103.410156 69.414062 C 100.085938 70.675781 96.972656 72.347656 94.152344 74.386719 C 84.847656 81.105469 80.425781 90.511719 78.355469 97.214844 C 78.328125 97.304688 78.246094 97.359375 78.160156 97.359375 " fill-opacity="1" fill-rule="nonzero"/><path fill="#e6d0be" d="M 79.988281 85.527344 C 79.960938 85.527344 79.929688 85.519531 79.902344 85.507812 C 79.800781 85.460938 79.753906 85.339844 79.804688 85.238281 C 83.085938 78.109375 87.59375 71.925781 93.203125 66.855469 C 98.066406 62.460938 103.039062 59.636719 106.351562 58.039062 C 106.453125 57.988281 106.578125 58.03125 106.625 58.132812 C 106.675781 58.234375 106.632812 58.355469 106.53125 58.40625 C 103.242188 59.992188 98.304688 62.800781 93.480469 67.15625 C 87.910156 72.191406 83.433594 78.332031 80.175781 85.40625 C 80.140625 85.480469 80.066406 85.527344 79.988281 85.527344 " fill-opacity="1" fill-rule="nonzero"/><path fill="#ffffff" d="M 155.757812 127.460938 C 151.972656 127.914062 151.535156 111.011719 137.003906 100.847656 C 127.90625 94.484375 123.472656 93.859375 110.941406 87.632812 C 105.726562 85.042969 97.683594 79.027344 97.910156 70.34375 C 98.019531 66.035156 100.253906 62.617188 101.996094 60.527344 C 100.929688 59.054688 98.703125 55.535156 99.1875 51.222656 C 99.859375 45.242188 105.1875 41.734375 108.128906 40.90625 C 122.167969 36.941406 146.332031 49.738281 156.933594 70.34375 C 169.960938 95.667969 160.671875 126.871094 155.757812 127.460938 " fill-opacity="1" fill-rule="nonzero"/><path fill="#e6d0be" d="M 160.210938 110.332031 C 160.117188 110.332031 160.03125 110.269531 160.011719 110.175781 C 158.300781 103.015625 150.828125 78.730469 126.425781 66.902344 C 118.949219 63.277344 110.703125 61.195312 101.925781 60.722656 C 101.8125 60.714844 101.726562 60.617188 101.730469 60.503906 C 101.738281 60.390625 101.835938 60.304688 101.949219 60.3125 C 110.78125 60.792969 119.078125 62.882812 126.605469 66.53125 C 137.539062 71.835938 146.355469 80.152344 152.804688 91.257812 C 156.210938 97.117188 158.910156 103.800781 160.410156 110.082031 C 160.433594 110.191406 160.367188 110.300781 160.257812 110.328125 L 160.210938 110.332031 " fill-opacity="1" fill-rule="nonzero"/><path fill="#e6d0be" d="M 108.875 86.703125 C 108.835938 86.703125 108.800781 86.695312 108.769531 86.675781 C 105.367188 84.644531 97.480469 78.980469 97.703125 70.339844 C 97.792969 66.96875 99.148438 63.664062 101.738281 60.515625 C 100.402344 58.640625 98.867188 55.730469 98.914062 52.285156 C 98.917969 52.171875 99.007812 52.085938 99.121094 52.085938 C 99.234375 52.085938 99.324219 52.179688 99.324219 52.292969 C 99.277344 55.703125 100.84375 58.585938 102.164062 60.402344 C 102.21875 60.476562 102.214844 60.582031 102.152344 60.652344 C 99.558594 63.769531 98.199219 67.03125 98.113281 70.347656 C 97.894531 78.777344 105.640625 84.328125 108.980469 86.324219 C 109.074219 86.382812 109.109375 86.507812 109.050781 86.605469 C 109.011719 86.671875 108.941406 86.703125 108.875 86.703125 " fill-opacity="1" fill-rule="nonzero"/><path fill="#e6d0be" d="M 103.515625 69.320312 Z M 157.300781 119.660156 C 156.851562 119.660156 156.351562 118.714844 155.015625 116.085938 C 152.144531 110.410156 146.15625 98.601562 134.226562 87.804688 C 122.898438 77.558594 111.667969 73.078125 106.269531 70.925781 C 103.730469 69.914062 102.964844 69.609375 103.148438 69.144531 C 103.195312 69.03125 103.308594 68.945312 103.492188 68.886719 C 105.382812 68.296875 119.339844 70.113281 132.636719 78.980469 C 132.730469 79.042969 132.757812 79.171875 132.695312 79.265625 C 132.632812 79.359375 132.503906 79.386719 132.410156 79.320312 C 125.058594 74.417969 117.839844 71.878906 113.082031 70.609375 C 107.484375 69.117188 104.148438 69.054688 103.582031 69.28125 C 103.855469 69.523438 105.054688 70 106.421875 70.546875 C 111.84375 72.707031 123.117188 77.203125 134.5 87.5 C 146.488281 98.351562 152.496094 110.207031 155.382812 115.902344 C 156.246094 117.605469 156.996094 119.085938 157.292969 119.238281 C 157.316406 119.191406 157.382812 119.035156 157.398438 118.597656 C 157.5 115.246094 153.933594 99.421875 141.457031 86.761719 C 141.375 86.683594 141.378906 86.554688 141.457031 86.472656 C 141.539062 86.394531 141.667969 86.394531 141.746094 86.476562 C 154.492188 99.410156 158.265625 116.238281 157.761719 119.082031 C 157.710938 119.375 157.613281 119.550781 157.457031 119.621094 C 157.40625 119.644531 157.355469 119.660156 157.300781 119.660156 " fill-opacity="1" fill-rule="nonzero"/><path fill="#e6d0be" d="M 108.804688 48.699219 Z M 162.589844 99.039062 C 162.140625 99.039062 161.640625 98.09375 160.308594 95.46875 C 157.429688 89.792969 151.445312 77.984375 139.515625 67.1875 C 137.070312 64.972656 134.457031 62.882812 131.746094 60.964844 C 131.652344 60.902344 131.632812 60.773438 131.699219 60.679688 C 131.761719 60.589844 131.890625 60.566406 131.984375 60.632812 C 134.707031 62.554688 137.332031 64.660156 139.789062 66.882812 C 151.777344 77.730469 157.785156 89.585938 160.671875 95.28125 C 161.535156 96.984375 162.28125 98.464844 162.582031 98.617188 C 162.605469 98.574219 162.671875 98.414062 162.683594 97.976562 C 162.789062 94.628906 159.222656 78.804688 146.742188 66.144531 C 138.53125 57.8125 128.917969 53.40625 122.300781 51.175781 C 114.9375 48.695312 109.617188 48.347656 108.867188 48.664062 C 109.140625 48.902344 110.339844 49.378906 111.710938 49.925781 C 113.910156 50.800781 117.226562 52.125 121.152344 54.121094 C 121.253906 54.171875 121.292969 54.292969 121.242188 54.394531 C 121.191406 54.496094 121.070312 54.535156 120.96875 54.484375 C 117.058594 52.5 113.75 51.179688 111.5625 50.304688 C 109.019531 49.292969 108.253906 48.988281 108.4375 48.527344 C 108.515625 48.332031 108.757812 48.261719 108.9375 48.226562 C 110.347656 47.941406 116.085938 48.511719 123.558594 51.179688 C 129.902344 53.445312 139.121094 57.828125 147.035156 65.859375 C 159.785156 78.789062 163.558594 95.621094 163.050781 98.460938 C 163 98.753906 162.898438 98.929688 162.75 99.003906 C 162.695312 99.027344 162.644531 99.039062 162.589844 99.039062 " fill-opacity="1" fill-rule="nonzero"/><path fill="#e6d0be" d="M 122.179688 55.078125 C 122.144531 55.078125 122.113281 55.074219 122.082031 55.058594 C 121.707031 54.859375 121.335938 54.667969 120.96875 54.480469 C 120.867188 54.429688 120.828125 54.308594 120.878906 54.207031 C 120.929688 54.105469 121.054688 54.066406 121.15625 54.117188 C 121.523438 54.304688 121.894531 54.496094 122.273438 54.695312 C 122.371094 54.75 122.410156 54.871094 122.359375 54.972656 C 122.320312 55.042969 122.25 55.078125 122.179688 55.078125 " fill-opacity="1" fill-rule="nonzero"/><path fill="#363e44" d="M 127.324219 205.269531 C 127.234375 205.269531 127.152344 205.210938 127.128906 205.121094 C 127.097656 205.011719 127.164062 204.898438 127.273438 204.867188 C 131.695312 203.675781 136.226562 202.730469 140.742188 202.058594 C 152.804688 200.261719 165.160156 200.332031 177.457031 202.269531 C 177.570312 202.285156 177.644531 202.390625 177.628906 202.503906 C 177.609375 202.613281 177.503906 202.691406 177.394531 202.671875 C 165.136719 200.742188 152.828125 200.671875 140.804688 202.460938 C 136.304688 203.132812 131.785156 204.074219 127.378906 205.261719 L 127.324219 205.269531 " fill-opacity="1" fill-rule="nonzero"/><path fill="#363e44" d="M 111.925781 205.269531 L 111.875 205.261719 C 107.46875 204.074219 102.949219 203.132812 98.449219 202.460938 C 86.425781 200.671875 74.117188 200.742188 61.859375 202.671875 C 61.746094 202.691406 61.644531 202.613281 61.625 202.503906 C 61.609375 202.390625 61.683594 202.285156 61.796875 202.269531 C 74.09375 200.332031 86.445312 200.261719 98.507812 202.058594 C 103.027344 202.730469 107.558594 203.675781 111.980469 204.867188 C 112.089844 204.898438 112.15625 205.011719 112.125 205.121094 C 112.101562 205.210938 112.019531 205.269531 111.925781 205.269531 " fill-opacity="1" fill-rule="nonzero"/><path fill="#b77250" d="M 272.535156 96.433594 C 272.535156 101.074219 266.753906 140.875 225.816406 140.875 C 189.0625 140.875 179.101562 101.074219 179.101562 96.433594 C 179.101562 91.796875 200.015625 92.542969 225.816406 92.542969 C 251.617188 92.542969 272.535156 91.796875 272.535156 96.433594 " fill-opacity="1" fill-rule="nonzero"/><path fill="#84524d" d="M 272.535156 96.4375 C 272.535156 101.074219 251.617188 104.835938 225.816406 104.835938 C 200.015625 104.835938 179.097656 101.074219 179.097656 96.4375 C 179.097656 91.800781 200.015625 88.039062 225.816406 88.039062 C 251.617188 88.039062 272.535156 91.800781 272.535156 96.4375 " fill-opacity="1" fill-rule="nonzero"/><path fill="#363e44" d="M 225.816406 88.242188 C 213.351562 88.242188 201.632812 89.113281 192.820312 90.699219 C 184.234375 92.242188 179.304688 94.335938 179.304688 96.433594 C 179.304688 98.539062 184.234375 100.628906 192.820312 102.171875 C 201.632812 103.757812 213.351562 104.628906 225.816406 104.628906 C 238.285156 104.628906 250.003906 103.757812 258.816406 102.171875 C 267.40625 100.628906 272.332031 98.539062 272.332031 96.433594 C 272.332031 94.335938 267.40625 92.242188 258.816406 90.699219 C 250.003906 89.113281 238.285156 88.242188 225.816406 88.242188 Z M 225.816406 105.039062 C 199.507812 105.039062 178.898438 101.257812 178.898438 96.433594 C 178.898438 91.613281 199.507812 87.832031 225.816406 87.832031 C 252.128906 87.832031 272.738281 91.613281 272.738281 96.433594 C 272.738281 101.257812 252.128906 105.039062 225.816406 105.039062 " fill-opacity="1" fill-rule="nonzero"/><path fill="#d3bba3" d="M 223.90625 88.050781 L 208.902344 61.753906 C 210.175781 58.988281 210.28125 55.707031 208.910156 52.726562 C 206.421875 47.300781 200.003906 44.921875 194.578125 47.414062 C 189.152344 49.902344 186.769531 56.316406 189.261719 61.738281 C 190.585938 64.621094 193.019531 66.644531 195.824219 67.53125 L 203.367188 88.683594 L 209.023438 104.539062 C 212.941406 104.730469 217.058594 104.832031 221.3125 104.832031 C 225.335938 104.832031 229.246094 104.742188 232.972656 104.570312 L 233.25 104.441406 L 223.90625 88.050781 " fill-opacity="1" fill-rule="nonzero"/><path fill="#363e44" d="M 225.816406 105.035156 C 210.621094 105.035156 196.3125 103.699219 187.542969 101.460938 C 187.433594 101.433594 187.367188 101.324219 187.394531 101.214844 C 187.421875 101.105469 187.535156 101.039062 187.644531 101.066406 C 196.382812 103.296875 210.652344 104.628906 225.816406 104.628906 C 239.074219 104.628906 251.75 103.609375 260.59375 101.835938 C 260.703125 101.8125 260.8125 101.882812 260.835938 101.996094 C 260.859375 102.105469 260.785156 102.214844 260.675781 102.234375 C 251.804688 104.015625 239.101562 105.035156 225.816406 105.035156 " fill-opacity="1" fill-rule="nonzero"/><path fill="#b77250" d="M 285.488281 46.132812 L 264.121094 46.132812 L 260.632812 15.234375 L 288.980469 15.234375 L 285.488281 46.132812 " fill-opacity="1" fill-rule="nonzero"/><path fill="#363e44" d="M 242.078125 164.761719 L 308.917969 164.761719 L 315.859375 104.855469 L 292.75 84.003906 C 292.710938 83.96875 292.6875 83.917969 292.683594 83.863281 L 289.207031 32.25 L 254.953125 32.25 L 260.964844 44.007812 C 260.980469 44.042969 260.992188 44.078125 260.988281 44.113281 L 258.3125 83.863281 C 258.304688 83.917969 258.28125 83.96875 258.242188 84.003906 L 235.132812 104.855469 Z M 309.097656 165.171875 L 241.898438 165.171875 C 241.792969 165.171875 241.707031 165.09375 241.691406 164.988281 L 234.71875 104.796875 C 234.707031 104.730469 234.734375 104.667969 234.78125 104.621094 L 257.910156 83.753906 L 260.574219 44.140625 L 254.433594 32.140625 C 254.402344 32.078125 254.40625 32 254.441406 31.941406 C 254.476562 31.878906 254.546875 31.839844 254.617188 31.839844 L 289.398438 31.839844 C 289.503906 31.839844 289.59375 31.925781 289.605469 32.035156 L 293.085938 83.753906 L 316.210938 104.621094 C 316.261719 104.667969 316.285156 104.730469 316.277344 104.796875 L 309.300781 164.988281 C 309.285156 165.09375 309.199219 165.171875 309.097656 165.171875 " fill-opacity="1" fill-rule="nonzero"/><path fill="#363e44" d="M 292.632812 80.417969 C 292.554688 80.417969 292.484375 80.378906 292.445312 80.304688 C 292.398438 80.203125 292.441406 80.082031 292.542969 80.03125 C 300.867188 76.066406 307.164062 71.710938 311.265625 67.082031 C 315.546875 62.246094 317.429688 57.167969 317.019531 51.554688 C 316.675781 46.894531 312.066406 44.0625 308.257812 42.511719 C 303.453125 40.554688 297.332031 39.558594 290.058594 39.558594 L 290.007812 39.558594 C 289.894531 39.558594 289.804688 39.46875 289.804688 39.355469 C 289.804688 39.242188 289.894531 39.148438 290.007812 39.148438 L 290.058594 39.148438 C 297.386719 39.148438 303.554688 40.15625 308.414062 42.132812 C 312.328125 43.730469 317.066406 46.65625 317.425781 51.523438 C 317.84375 57.25 315.929688 62.429688 311.570312 67.351562 C 307.4375 72.023438 301.09375 76.414062 292.71875 80.398438 C 292.691406 80.414062 292.664062 80.417969 292.632812 80.417969 " fill-opacity="1" fill-rule="nonzero"/><path fill="#363e44" d="M 296.238281 86.726562 C 296.160156 86.726562 296.089844 86.683594 296.054688 86.609375 C 296.003906 86.511719 296.046875 86.386719 296.144531 86.339844 C 305.15625 81.988281 312.074219 77.128906 316.707031 71.894531 C 322.277344 65.605469 324.816406 58.585938 324.265625 51.023438 C 323.785156 44.492188 319.074219 39.078125 311 35.789062 C 305.152344 33.402344 297.644531 32.167969 289.308594 32.226562 C 289.203125 32.226562 289.105469 32.136719 289.105469 32.027344 C 289.101562 31.914062 289.195312 31.820312 289.304688 31.820312 C 297.710938 31.761719 305.257812 33.003906 311.15625 35.40625 C 319.382812 38.761719 324.183594 44.300781 324.671875 50.996094 C 325.234375 58.667969 322.65625 65.789062 317.011719 72.167969 C 312.34375 77.441406 305.382812 82.332031 296.324219 86.707031 C 296.296875 86.71875 296.265625 86.726562 296.238281 86.726562 " fill-opacity="1" fill-rule="nonzero"/><path fill="#9e9569" d="M 288.367188 77.375 L 262.628906 77.375 L 261.78125 89.207031 L 241.054688 107.660156 L 246.976562 158.75 L 304.015625 158.75 L 309.9375 107.660156 L 289.210938 89.207031 L 288.367188 77.375 " fill-opacity="1" fill-rule="nonzero"/><path fill="#ffffff" d="M 247.875 107.183594 L 250.265625 129.335938 L 256.746094 128.996094 L 258.449219 107.183594 L 247.875 107.183594 " fill-opacity="1" fill-rule="nonzero"/><path fill="#ffffff" d="M 250.226562 131.800781 L 250.984375 138.917969 L 255.984375 138.464844 L 256.4375 131.421875 L 250.226562 131.800781 " fill-opacity="1" fill-rule="nonzero"/><path fill="#8b865c" d="M 254.289062 165.949219 C 254.289062 165.949219 241.128906 169.269531 227.308594 165.1875 C 213.492188 161.105469 204.25 151.167969 204.25 151.167969 C 204.25 151.167969 217.414062 147.851562 231.230469 151.929688 C 245.046875 156.011719 254.289062 165.949219 254.289062 165.949219 " fill-opacity="1" fill-rule="nonzero"/><path fill="#776e42" d="M 254.167969 165.980469 C 254.242188 165.960938 254.289062 165.949219 254.289062 165.949219 C 254.289062 165.949219 245.046875 156.011719 231.230469 151.929688 C 217.414062 147.851562 204.25 151.167969 204.25 151.167969 C 204.25 151.167969 204.285156 151.203125 204.335938 151.257812 L 254.167969 165.980469 " fill-opacity="1" fill-rule="nonzero"/><path fill="#8b865c" d="M 279.988281 157.753906 C 279.988281 157.753906 264.738281 157.511719 250.9375 149.050781 C 237.136719 140.589844 230.015625 127.109375 230.015625 127.109375 C 230.015625 127.109375 245.265625 127.347656 259.0625 135.8125 C 272.867188 144.273438 279.988281 157.753906 279.988281 157.753906 " fill-opacity="1" fill-rule="nonzero"/><path fill="#776e42" d="M 279.851562 157.75 C 279.9375 157.75 279.988281 157.753906 279.988281 157.753906 C 279.988281 157.753906 272.867188 144.273438 259.0625 135.8125 C 245.265625 127.347656 230.015625 127.109375 230.015625 127.109375 C 230.015625 127.109375 230.039062 127.15625 230.078125 127.230469 L 279.851562 157.75 " fill-opacity="1" fill-rule="nonzero"/><path fill="#8b865c" d="M 306.476562 159.367188 C 306.476562 159.367188 293.660156 151.097656 286.429688 136.621094 C 279.195312 122.144531 280.285156 106.9375 280.285156 106.9375 C 280.285156 106.9375 293.097656 115.203125 300.332031 129.683594 C 307.566406 144.15625 306.476562 159.367188 306.476562 159.367188 " fill-opacity="1" fill-rule="nonzero"/><path fill="#776e42" d="M 306.363281 159.289062 C 306.433594 159.335938 306.476562 159.367188 306.476562 159.367188 C 306.476562 159.367188 307.566406 144.160156 300.332031 129.683594 C 293.097656 115.203125 280.285156 106.9375 280.285156 106.9375 C 280.285156 106.9375 280.277344 106.992188 280.273438 107.074219 L 306.363281 159.289062 " fill-opacity="1" fill-rule="nonzero"/><path fill="#8b865c" d="M 348.015625 147.539062 C 348.015625 147.539062 332.824219 146.210938 319.664062 136.785156 C 306.503906 127.363281 300.359375 113.40625 300.359375 113.40625 C 300.359375 113.40625 315.554688 114.734375 328.714844 124.160156 C 341.875 133.582031 348.015625 147.539062 348.015625 147.539062 " fill-opacity="1" fill-rule="nonzero"/><path fill="#776e42" d="M 347.878906 147.523438 C 347.96875 147.535156 348.015625 147.539062 348.015625 147.539062 C 348.015625 147.539062 341.875 133.582031 328.714844 124.160156 C 315.554688 114.734375 300.359375 113.40625 300.359375 113.40625 C 300.359375 113.40625 300.378906 113.453125 300.414062 113.53125 L 347.878906 147.523438 " fill-opacity="1" fill-rule="nonzero"/><path fill="#8b865c" d="M 265.859375 160.828125 C 265.859375 160.828125 269.457031 172.296875 266.542969 184.71875 C 263.621094 197.140625 255.292969 205.8125 255.292969 205.8125 C 255.292969 205.8125 251.691406 194.34375 254.613281 181.917969 C 257.53125 169.496094 265.859375 160.828125 265.859375 160.828125 " fill-opacity="1" fill-rule="nonzero"/><path fill="#776e42" d="M 265.890625 160.933594 C 265.871094 160.867188 265.859375 160.828125 265.859375 160.828125 C 265.859375 160.828125 257.53125 169.496094 254.613281 181.917969 C 251.695312 194.339844 255.289062 205.808594 255.289062 205.808594 C 255.289062 205.808594 255.320312 205.78125 255.367188 205.734375 L 265.890625 160.933594 " fill-opacity="1" fill-rule="nonzero"/><path fill="#8b865c" d="M 291.9375 157.078125 C 291.9375 157.078125 297.660156 171.207031 295.238281 187.210938 C 292.820312 203.210938 283.175781 215.023438 283.175781 215.023438 C 283.175781 215.023438 277.457031 200.890625 279.875 184.886719 C 282.292969 168.886719 291.9375 157.078125 291.9375 157.078125 " fill-opacity="1" fill-rule="nonzero"/><path fill="#776e42" d="M 291.984375 157.207031 C 291.957031 157.128906 291.9375 157.078125 291.9375 157.078125 C 291.9375 157.078125 282.292969 168.890625 279.871094 184.890625 C 277.453125 200.890625 283.175781 215.023438 283.175781 215.023438 C 283.175781 215.023438 283.207031 214.980469 283.257812 214.914062 L 291.984375 157.207031 " fill-opacity="1" fill-rule="nonzero"/><path fill="#8b865c" d="M 327.292969 161.445312 C 327.292969 161.445312 333.011719 175.578125 330.597656 191.578125 C 328.175781 207.578125 318.53125 219.390625 318.53125 219.390625 C 318.53125 219.390625 312.808594 205.257812 315.226562 189.257812 C 317.644531 173.257812 327.292969 161.445312 327.292969 161.445312 " fill-opacity="1" fill-rule="nonzero"/><path fill="#776e42" d="M 327.339844 161.574219 C 327.308594 161.496094 327.289062 161.449219 327.289062 161.449219 C 327.289062 161.449219 317.644531 173.257812 315.226562 189.257812 C 312.808594 205.257812 318.53125 219.390625 318.53125 219.390625 C 318.53125 219.390625 318.566406 219.351562 318.617188 219.285156 L 327.339844 161.574219 " fill-opacity="1" fill-rule="nonzero"/><path fill="#363e44" d="M 230.574219 181.582031 C 230.515625 181.582031 230.457031 181.558594 230.417969 181.503906 C 230.34375 181.421875 230.359375 181.292969 230.445312 181.21875 C 241.484375 172.226562 252.617188 165.660156 263.542969 161.703125 C 271.871094 158.6875 280.277344 157.125 288.53125 157.0625 C 296.65625 157 303.378906 158.371094 309.316406 159.570312 C 317.851562 161.304688 325.222656 162.796875 333.453125 159.332031 C 345.464844 154.269531 354.0625 141.019531 359.019531 119.941406 C 359.042969 119.832031 359.152344 119.761719 359.265625 119.789062 C 359.375 119.8125 359.441406 119.921875 359.417969 120.03125 C 354.429688 141.246094 345.75 154.59375 333.613281 159.707031 C 325.265625 163.222656 317.835938 161.71875 309.234375 159.972656 C 303.320312 158.773438 296.617188 157.410156 288.53125 157.472656 C 269.582031 157.613281 250.125 165.710938 230.707031 181.535156 C 230.667969 181.566406 230.621094 181.582031 230.574219 181.582031 " fill-opacity="1" fill-rule="nonzero"/><path fill="#363e44" d="M 222.351562 205.65625 C 222.328125 205.65625 222.308594 205.652344 222.285156 205.648438 C 222.179688 205.609375 222.121094 205.492188 222.160156 205.386719 L 230.304688 181.53125 L 199.925781 175.480469 C 199.816406 175.457031 199.746094 175.351562 199.765625 175.242188 C 199.789062 175.128906 199.898438 175.058594 200.007812 175.082031 L 230.613281 181.175781 C 230.671875 181.191406 230.722656 181.222656 230.75 181.273438 C 230.78125 181.324219 230.789062 181.386719 230.769531 181.445312 L 222.542969 205.519531 C 222.515625 205.605469 222.4375 205.65625 222.351562 205.65625 " fill-opacity="1" fill-rule="nonzero"/><path fill="#363e44" d="M 206.714844 192.941406 C 206.640625 192.941406 206.566406 192.898438 206.53125 192.824219 C 206.480469 192.722656 206.523438 192.597656 206.628906 192.550781 L 230.046875 181.433594 C 230.152344 181.382812 230.273438 181.425781 230.320312 181.527344 C 230.371094 181.632812 230.328125 181.753906 230.222656 181.800781 L 206.804688 192.917969 C 206.773438 192.933594 206.742188 192.941406 206.714844 192.941406 " fill-opacity="1" fill-rule="nonzero"/><path fill="#363e44" d="M 207.054688 175.5625 C 206.304688 181.167969 198.644531 184.765625 189.941406 183.605469 C 181.242188 182.441406 174.796875 176.957031 175.542969 171.351562 C 176.292969 165.746094 183.957031 162.148438 192.65625 163.308594 C 201.355469 164.472656 207.804688 169.957031 207.054688 175.5625 " fill-opacity="1" fill-rule="nonzero"/><path fill="#ffffff" d="M 179.105469 169.855469 C 178.964844 169.414062 182.492188 167.277344 186.703125 166.578125 C 195.4375 165.125 203.070312 170.523438 202.894531 170.992188 C 202.75 171.371094 197.605469 168.363281 189.453125 168.496094 C 183.46875 168.589844 179.253906 170.324219 179.105469 169.855469 " fill-opacity="1" fill-rule="nonzero"/><path fill="#363e44" d="M 212.515625 190.835938 C 214.761719 196.03125 210.042969 203.054688 201.984375 206.53125 C 193.925781 210.011719 185.574219 208.621094 183.332031 203.429688 C 181.089844 198.238281 185.808594 191.210938 193.867188 187.734375 C 201.925781 184.257812 210.277344 185.644531 212.515625 190.835938 " fill-opacity="1" fill-rule="nonzero"/><path fill="#ffffff" d="M 185.613281 200.316406 C 185.265625 200.007812 187.191406 196.363281 190.445312 193.597656 C 197.183594 187.863281 206.507812 188.566406 206.597656 189.058594 C 206.671875 189.457031 200.710938 189.519531 193.785156 193.828125 C 188.707031 196.988281 185.984375 200.636719 185.613281 200.316406 " fill-opacity="1" fill-rule="nonzero"/><path fill="#9e9569" d="M 225.1875 194.515625 C 230.648438 195.988281 233.226562 204.050781 230.941406 212.519531 C 228.652344 220.992188 222.375 226.664062 216.910156 225.191406 C 211.449219 223.71875 208.875 215.660156 211.160156 207.1875 C 213.445312 198.71875 219.726562 193.042969 225.1875 194.515625 " fill-opacity="1" fill-rule="nonzero"/><path fill="#ffffff" d="M 215.890625 221.46875 C 215.4375 221.550781 213.773438 217.777344 213.628906 213.511719 C 213.324219 204.671875 219.667969 197.808594 220.113281 198.042969 C 220.472656 198.234375 216.816406 202.941406 215.886719 211.039062 C 215.203125 216.980469 216.375 221.378906 215.890625 221.46875 " fill-opacity="1" fill-rule="nonzero"/><path fill="#e6d0be" d="M 162.351562 294.820312 L 29.757812 294.820312 C 15.875 294.820312 4.621094 286.339844 4.621094 275.878906 C 4.621094 264.652344 16.699219 255.554688 31.597656 255.554688 L 150.015625 255.554688 C 162.03125 255.554688 171.769531 262.890625 171.769531 271.945312 L 171.769531 273.203125 C 171.769531 277.421875 169.3125 281.425781 165.050781 284.15625 L 167.597656 289.007812 C 169.0625 291.796875 166.332031 294.820312 162.351562 294.820312 " fill-opacity="1" fill-rule="nonzero"/><path fill="#d3bba3" d="M 164.738281 284.484375 L 31.242188 284.484375 C 24.097656 284.484375 18.28125 280.082031 18.28125 274.671875 C 18.28125 269.261719 24.097656 264.859375 31.242188 264.859375 L 149.6875 264.859375 C 152.828125 264.859375 155.558594 266.476562 156.335938 268.785156 C 156.765625 270.074219 156.542969 271.425781 155.710938 272.582031 C 154.503906 274.257812 152.195312 275.296875 149.6875 275.296875 L 35.15625 275.296875 C 35.042969 275.296875 34.953125 275.207031 34.953125 275.09375 C 34.953125 274.980469 35.042969 274.890625 35.15625 274.890625 L 149.6875 274.890625 C 152.066406 274.890625 154.246094 273.914062 155.375 272.34375 C 156.132812 271.292969 156.335938 270.078125 155.945312 268.917969 C 155.226562 266.769531 152.652344 265.269531 149.6875 265.269531 L 31.242188 265.269531 C 24.320312 265.269531 18.691406 269.488281 18.691406 274.671875 C 18.691406 279.855469 24.320312 284.074219 31.242188 284.074219 L 164.738281 284.074219 C 164.851562 284.074219 164.941406 284.167969 164.941406 284.28125 C 164.941406 284.394531 164.851562 284.484375 164.738281 284.484375 " fill-opacity="1" fill-rule="nonzero"/><path fill="#d3bba3" d="M 162.351562 333.886719 L 29.757812 333.886719 C 15.875 333.886719 4.621094 325.410156 4.621094 314.949219 C 4.621094 303.726562 16.699219 294.625 31.597656 294.625 L 150.015625 294.625 C 162.03125 294.625 171.769531 301.960938 171.769531 311.011719 L 171.769531 312.273438 C 171.769531 316.488281 169.3125 320.496094 165.050781 323.226562 L 167.597656 328.078125 C 169.0625 330.867188 166.332031 333.886719 162.351562 333.886719 " fill-opacity="1" fill-rule="nonzero"/><path fill="#e6d0be" d="M 164.738281 323.554688 L 31.242188 323.554688 C 24.097656 323.554688 18.28125 319.152344 18.28125 313.742188 C 18.28125 308.332031 24.097656 303.929688 31.242188 303.929688 L 149.6875 303.929688 C 152.828125 303.929688 155.558594 305.542969 156.335938 307.859375 C 156.765625 309.148438 156.542969 310.496094 155.710938 311.652344 C 154.503906 313.328125 152.195312 314.367188 149.6875 314.367188 L 35.15625 314.367188 C 35.042969 314.367188 34.953125 314.277344 34.953125 314.164062 C 34.953125 314.050781 35.042969 313.960938 35.15625 313.960938 L 149.6875 313.960938 C 152.066406 313.960938 154.246094 312.984375 155.375 311.414062 C 156.132812 310.363281 156.335938 309.148438 155.945312 307.984375 C 155.226562 305.839844 152.652344 304.339844 149.6875 304.339844 L 31.242188 304.339844 C 24.320312 304.339844 18.691406 308.558594 18.691406 313.742188 C 18.691406 318.929688 24.320312 323.144531 31.242188 323.144531 L 164.738281 323.144531 C 164.851562 323.144531 164.941406 323.238281 164.941406 323.351562 C 164.941406 323.460938 164.851562 323.554688 164.738281 323.554688 " fill-opacity="1" fill-rule="nonzero"/><path fill="#363e44" d="M 134.820312 245.964844 C 134.820312 251.527344 114.625 256.039062 89.710938 256.039062 C 64.792969 256.039062 44.59375 251.527344 44.59375 245.964844 C 44.59375 240.402344 64.792969 235.890625 89.710938 235.890625 C 114.625 235.890625 134.820312 240.402344 134.820312 245.964844 " fill-opacity="1" fill-rule="nonzero"/><path fill="#363e44" d="M 120.730469 229.175781 C 120.730469 233.003906 106.839844 236.101562 89.710938 236.101562 C 72.578125 236.101562 58.6875 233.003906 58.6875 229.175781 C 58.6875 225.351562 72.578125 222.25 89.710938 222.25 C 106.839844 222.25 120.730469 225.351562 120.730469 229.175781 " fill-opacity="1" fill-rule="nonzero"/><path fill="#363e44" d="M 111.394531 217.984375 C 111.394531 220.660156 101.683594 222.828125 89.710938 222.828125 C 77.734375 222.828125 68.023438 220.660156 68.023438 217.984375 C 68.023438 215.3125 77.734375 213.144531 89.710938 213.144531 C 101.683594 213.144531 111.394531 215.3125 111.394531 217.984375 " fill-opacity="1" fill-rule="nonzero"/><path fill="#b77250" d="M 42.136719 339.222656 L 12.871094 339.222656 L 12.871094 273.113281 L 42.136719 273.113281 L 42.136719 339.222656 " fill-opacity="1" fill-rule="nonzero"/><path fill="#84524d" d="M 42.136719 272.765625 C 42.136719 275.335938 35.585938 277.417969 27.503906 277.417969 C 19.421875 277.417969 12.871094 275.335938 12.871094 272.765625 C 12.871094 270.199219 19.421875 268.117188 27.503906 268.117188 C 35.585938 268.117188 42.136719 270.199219 42.136719 272.765625 " fill-opacity="1" fill-rule="nonzero"/><path fill="#ffffff" d="M 28.496094 274.957031 C 27.195312 274.957031 25.921875 274.898438 24.710938 274.777344 C 24.597656 274.765625 24.515625 274.664062 24.527344 274.550781 C 24.539062 274.4375 24.640625 274.355469 24.75 274.367188 C 25.949219 274.488281 27.207031 274.550781 28.496094 274.550781 C 33.058594 274.550781 37.210938 273.75 38.589844 272.613281 C 38.675781 272.539062 38.804688 272.550781 38.878906 272.636719 C 38.949219 272.722656 38.9375 272.851562 38.851562 272.925781 C 37.382812 274.140625 33.21875 274.957031 28.496094 274.957031 " fill-opacity="1" fill-rule="nonzero"/><path fill="#ffffff" d="M 30.078125 264.835938 C 30.078125 269.984375 28.710938 271.691406 27.023438 271.691406 C 25.335938 271.691406 23.96875 269.984375 23.96875 264.835938 C 23.96875 259.6875 27.023438 253.046875 27.023438 253.046875 C 27.023438 253.046875 30.078125 259.6875 30.078125 264.835938 " fill-opacity="1" fill-rule="nonzero"/><path fill="#ffffff" d="M 17.332031 328.363281 C 17.21875 328.363281 17.128906 328.273438 17.128906 328.160156 L 17.128906 321.515625 C 17.128906 321.402344 17.21875 321.3125 17.332031 321.3125 C 17.445312 321.3125 17.535156 321.402344 17.535156 321.515625 L 17.535156 328.160156 C 17.535156 328.273438 17.445312 328.363281 17.332031 328.363281 " fill-opacity="1" fill-rule="nonzero"/><path fill="#ffffff" d="M 17.332031 318.507812 C 17.21875 318.507812 17.128906 318.414062 17.128906 318.300781 L 17.128906 292.417969 C 17.128906 292.304688 17.21875 292.214844 17.332031 292.214844 C 17.445312 292.214844 17.535156 292.304688 17.535156 292.417969 L 17.535156 318.300781 C 17.535156 318.414062 17.445312 318.507812 17.332031 318.507812 " fill-opacity="1" fill-rule="nonzero"/><path fill="#b77250" d="M 66.816406 339.222656 L 37.550781 339.222656 L 37.550781 294.820312 L 66.816406 294.820312 L 66.816406 339.222656 " fill-opacity="1" fill-rule="nonzero"/><path fill="#ffffff" d="M 38.0625 339.710938 C 37.949219 339.710938 37.859375 339.621094 37.859375 339.507812 L 37.859375 294.390625 C 37.859375 294.277344 37.949219 294.1875 38.0625 294.1875 C 38.175781 294.1875 38.265625 294.277344 38.265625 294.390625 L 38.265625 339.507812 C 38.265625 339.621094 38.175781 339.710938 38.0625 339.710938 " fill-opacity="1" fill-rule="nonzero"/><path fill="#ffffff" d="M 43 334.777344 C 42.886719 334.777344 42.792969 334.6875 42.792969 334.574219 L 42.792969 327.464844 C 42.792969 327.347656 42.886719 327.257812 43 327.257812 C 43.113281 327.257812 43.203125 327.347656 43.203125 327.464844 L 43.203125 334.574219 C 43.203125 334.6875 43.113281 334.777344 43 334.777344 " fill-opacity="1" fill-rule="nonzero"/><path fill="#ffffff" d="M 43 323.554688 C 42.886719 323.554688 42.792969 323.460938 42.792969 323.351562 L 42.792969 309.191406 C 42.792969 309.078125 42.886719 308.988281 43 308.988281 C 43.113281 308.988281 43.203125 309.078125 43.203125 309.191406 L 43.203125 323.351562 C 43.203125 323.460938 43.113281 323.554688 43 323.554688 " fill-opacity="1" fill-rule="nonzero"/><path fill="#84524d" d="M 66.816406 294.472656 C 66.816406 297.042969 60.265625 299.125 52.183594 299.125 C 44.101562 299.125 37.550781 297.042969 37.550781 294.472656 C 37.550781 291.90625 44.101562 289.824219 52.183594 289.824219 C 60.265625 289.824219 66.816406 291.90625 66.816406 294.472656 " fill-opacity="1" fill-rule="nonzero"/><path fill="#ffffff" d="M 54.757812 286.542969 C 54.757812 291.691406 53.390625 293.398438 51.703125 293.398438 C 50.015625 293.398438 48.648438 291.691406 48.648438 286.542969 C 48.648438 281.394531 51.703125 274.753906 51.703125 274.753906 C 51.703125 274.753906 54.757812 281.394531 54.757812 286.542969 " fill-opacity="1" fill-rule="nonzero"/><path fill="#ffffff" d="M 52.683594 296.171875 C 51.378906 296.171875 50.105469 296.109375 48.898438 295.988281 C 48.785156 295.976562 48.703125 295.878906 48.714844 295.765625 C 48.726562 295.652344 48.824219 295.570312 48.9375 295.582031 C 50.132812 295.703125 51.394531 295.761719 52.683594 295.761719 C 57.246094 295.761719 61.394531 294.96875 62.777344 293.824219 C 62.863281 293.753906 62.992188 293.765625 63.0625 293.851562 C 63.136719 293.9375 63.125 294.066406 63.035156 294.140625 C 61.566406 295.355469 57.40625 296.171875 52.683594 296.171875 " fill-opacity="1" fill-rule="nonzero"/><path fill="#ffffff" d="M 368.292969 356.902344 L 268.636719 356.902344 L 268.636719 300.78125 L 368.292969 319.015625 L 368.292969 356.902344 " fill-opacity="1" fill-rule="nonzero"/><path fill="#e2a18d" d="M 112.503906 349.464844 C 109.167969 333.757812 144.953125 301.882812 206.816406 301.855469 C 269.257812 301.828125 311.039062 333.710938 308.375 349.464844 C 304.050781 375 116.929688 370.300781 112.503906 349.464844 " fill-opacity="1" fill-rule="nonzero"/><path fill="#363e44" d="M 229.261719 340.308594 C 229.261719 351.40625 220.265625 360.398438 209.164062 360.398438 C 198.0625 360.398438 189.0625 351.40625 189.0625 340.308594 C 189.0625 329.214844 198.0625 320.222656 209.164062 320.222656 C 220.265625 320.222656 229.261719 329.214844 229.261719 340.308594 " fill-opacity="1" fill-rule="nonzero"/><path fill="#363e44" d="M 205.160156 321.710938 C 193.125 321.710938 183.339844 331.492188 183.339844 343.519531 C 183.339844 355.546875 193.125 365.328125 205.160156 365.328125 C 217.191406 365.328125 226.980469 355.546875 226.980469 343.519531 C 226.980469 331.492188 217.191406 321.710938 205.160156 321.710938 Z M 205.160156 365.738281 C 192.902344 365.738281 182.929688 355.769531 182.929688 343.519531 C 182.929688 331.269531 192.902344 321.300781 205.160156 321.300781 C 217.417969 321.300781 227.386719 331.269531 227.386719 343.519531 C 227.386719 355.769531 217.417969 365.738281 205.160156 365.738281 " fill-opacity="1" fill-rule="nonzero"/><path fill="#e2a18d" d="M 136.28125 327.308594 C 150.910156 330.492188 185.734375 336.277344 189.109375 336.980469 C 195.421875 338.285156 229.113281 346.191406 228.5 351.171875 C 228.207031 353.554688 221.648438 352.804688 219.441406 352.328125 C 224.019531 353.800781 231.058594 361.914062 229.261719 364.398438 C 226.957031 367.589844 216.796875 357.976562 216.625 358 C 218.371094 359.121094 232.730469 363.355469 231.050781 368.003906 C 229.695312 371.761719 216.125 366.730469 213.8125 366.054688 C 215.792969 366.421875 222.765625 366.582031 221.617188 369.355469 C 220.933594 371 212.382812 372.464844 209.425781 372.101562 C 203.8125 370.941406 181.773438 367.609375 170.992188 366.496094 C 145.664062 363.890625 137.851562 360.992188 125.828125 357.582031 C 121.121094 356.242188 129.105469 330.972656 136.28125 327.308594 " fill-opacity="1" fill-rule="nonzero"/><path fill="#363e44" d="M 230.882812 366.324219 C 230.8125 366.324219 230.742188 366.285156 230.703125 366.214844 C 229.011719 363.070312 218.933594 358.949219 210.0625 356.136719 C 209.957031 356.101562 209.894531 355.988281 209.929688 355.878906 C 209.964844 355.773438 210.078125 355.710938 210.1875 355.746094 C 214.527344 357.121094 228.863281 361.925781 231.0625 366.019531 C 231.117188 366.121094 231.082031 366.246094 230.980469 366.296875 C 230.949219 366.316406 230.917969 366.324219 230.882812 366.324219 " fill-opacity="1" fill-rule="nonzero"/><path fill="#363e44" d="M 229.261719 364.601562 C 229.222656 364.601562 229.179688 364.589844 229.144531 364.5625 C 229.050781 364.496094 229.03125 364.371094 229.097656 364.277344 C 229.363281 363.910156 229.410156 363.378906 229.234375 362.695312 C 228.394531 359.433594 222.851562 353.890625 219.480469 352.292969 C 219.386719 352.25 219.339844 352.140625 219.375 352.042969 C 219.410156 351.945312 219.511719 351.886719 219.613281 351.910156 C 221.78125 352.382812 226.289062 352.988281 227.816406 351.90625 C 228.101562 351.703125 228.257812 351.457031 228.296875 351.148438 C 228.832031 346.808594 199.730469 339.390625 189.066406 337.179688 C 188.070312 336.972656 184.320312 336.320312 179.128906 335.414062 C 166.9375 333.296875 146.535156 329.75 136.238281 327.507812 C 136.128906 327.484375 136.058594 327.375 136.082031 327.265625 C 136.105469 327.15625 136.214844 327.085938 136.324219 327.109375 C 146.613281 329.347656 167.011719 332.894531 179.199219 335.011719 C 184.394531 335.917969 188.148438 336.570312 189.152344 336.777344 C 191.941406 337.355469 202.027344 339.648438 211.460938 342.503906 C 223.175781 346.042969 228.980469 348.96875 228.703125 351.199219 C 228.652344 351.621094 228.433594 351.96875 228.050781 352.238281 C 226.539062 353.3125 222.761719 352.871094 220.777344 352.542969 C 224.253906 354.699219 228.839844 359.515625 229.632812 362.59375 C 229.835938 363.398438 229.769531 364.046875 229.429688 364.519531 C 229.390625 364.574219 229.328125 364.601562 229.261719 364.601562 " fill-opacity="1" fill-rule="nonzero"/><path fill="#363e44" d="M 219.566406 352.3125 C 219.53125 352.3125 219.492188 352.304688 219.460938 352.28125 C 219.078125 352.046875 218.679688 351.746094 218.257812 351.429688 C 217.511719 350.875 216.742188 350.296875 215.898438 349.925781 C 213.703125 348.957031 211.378906 348.257812 208.992188 347.847656 C 208.878906 347.828125 208.804688 347.722656 208.824219 347.613281 C 208.84375 347.5 208.949219 347.425781 209.058594 347.445312 C 211.480469 347.859375 213.835938 348.566406 216.066406 349.554688 C 216.949219 349.945312 217.773438 350.5625 218.503906 351.105469 C 218.917969 351.414062 219.308594 351.707031 219.675781 351.933594 C 219.773438 351.992188 219.800781 352.121094 219.742188 352.214844 C 219.703125 352.28125 219.636719 352.3125 219.566406 352.3125 " fill-opacity="1" fill-rule="nonzero"/><path fill="#363e44" d="M 213.675781 366.160156 C 213.65625 366.160156 213.632812 366.15625 213.609375 366.148438 C 212.125 365.636719 210.582031 365.246094 209.023438 364.976562 C 208.914062 364.960938 208.835938 364.855469 208.855469 364.742188 C 208.875 364.632812 208.980469 364.558594 209.09375 364.574219 C 210.671875 364.847656 212.238281 365.246094 213.742188 365.761719 C 213.847656 365.796875 213.90625 365.914062 213.871094 366.019531 C 213.839844 366.105469 213.761719 366.160156 213.675781 366.160156 " fill-opacity="1" fill-rule="nonzero"/><path fill="#e2a18d" d="M 285.769531 328.269531 C 271.136719 331.453125 236.316406 337.242188 232.941406 337.941406 C 226.625 339.25 192.933594 347.152344 193.546875 352.136719 C 193.839844 354.519531 200.402344 353.765625 202.605469 353.285156 C 198.03125 354.761719 190.988281 362.875 192.785156 365.359375 C 195.09375 368.554688 205.25 358.9375 205.425781 358.960938 C 203.675781 360.085938 189.320312 364.316406 190.996094 368.964844 C 192.355469 372.726562 205.925781 367.695312 208.234375 367.015625 C 206.257812 367.382812 199.285156 370.425781 200.433594 373.199219 C 201.113281 374.847656 209.664062 373.425781 212.625 373.0625 C 218.238281 371.902344 240.273438 368.570312 251.058594 367.460938 C 276.382812 364.851562 284.199219 361.957031 296.222656 358.542969 C 300.929688 357.203125 292.945312 331.933594 285.769531 328.269531 " fill-opacity="1" fill-rule="nonzero"/><path fill="#363e44" d="M 201.269531 370.882812 C 201.21875 370.882812 201.164062 370.867188 201.125 370.828125 C 201.046875 370.75 201.042969 370.617188 201.121094 370.539062 C 201.769531 369.867188 202.667969 369.238281 203.621094 368.691406 C 197.632812 370.480469 191.746094 371.632812 190.804688 369.035156 C 189.308594 364.882812 198.195312 361.617188 202.46875 360.050781 C 203.160156 359.796875 203.707031 359.59375 204.011719 359.457031 C 204.117188 359.410156 204.238281 359.457031 204.28125 359.5625 C 204.328125 359.664062 204.28125 359.785156 204.179688 359.832031 C 203.859375 359.972656 203.308594 360.175781 202.609375 360.433594 C 198.785156 361.835938 189.828125 365.128906 191.191406 368.894531 C 192.242188 371.8125 201.894531 368.855469 206.089844 367.492188 C 206.953125 367.144531 207.710938 366.90625 208.199219 366.816406 C 208.308594 366.796875 208.410156 366.863281 208.433594 366.96875 C 208.460938 367.074219 208.398438 367.179688 208.292969 367.210938 C 208.019531 367.292969 207.574219 367.4375 207.011719 367.621094 C 206.757812 367.707031 206.507812 367.789062 206.257812 367.871094 C 204.597656 368.542969 202.554688 369.640625 201.414062 370.824219 C 201.375 370.863281 201.320312 370.882812 201.269531 370.882812 " fill-opacity="1" fill-rule="nonzero"/><path fill="#363e44" d="M 192.550781 365.042969 C 192.457031 365.042969 192.375 364.980469 192.351562 364.886719 C 191.660156 362.054688 197.097656 356.164062 201.269531 353.53125 C 198.835938 353.972656 195.464844 354.253906 194.039062 353.261719 C 193.636719 352.980469 193.402344 352.609375 193.347656 352.160156 C 193.074219 349.933594 198.875 347.007812 210.589844 343.464844 C 220.023438 340.613281 230.109375 338.316406 232.902344 337.738281 C 233.902344 337.53125 237.660156 336.878906 242.851562 335.976562 C 255.039062 333.855469 275.4375 330.308594 285.726562 328.070312 C 285.835938 328.046875 285.945312 328.117188 285.96875 328.226562 C 285.992188 328.335938 285.921875 328.445312 285.8125 328.46875 C 275.515625 330.710938 255.113281 334.257812 242.921875 336.378906 C 237.730469 337.28125 233.980469 337.933594 232.984375 338.140625 C 222.320312 340.351562 193.21875 347.769531 193.753906 352.109375 C 193.792969 352.445312 193.964844 352.710938 194.277344 352.925781 C 195.855469 354.027344 200.304688 353.371094 202.4375 352.871094 C 202.535156 352.847656 202.636719 352.902344 202.671875 353 C 202.710938 353.097656 202.667969 353.203125 202.574219 353.25 C 198.136719 355.515625 192.09375 362.097656 192.75 364.789062 C 192.773438 364.898438 192.707031 365.007812 192.597656 365.039062 L 192.550781 365.042969 " fill-opacity="1" fill-rule="nonzero"/><path fill="#363e44" d="M 191.164062 367.28125 C 191.132812 367.28125 191.101562 367.273438 191.070312 367.257812 C 190.96875 367.207031 190.933594 367.082031 190.984375 366.984375 C 193.1875 362.890625 207.523438 358.082031 211.867188 356.707031 C 211.972656 356.675781 212.085938 356.734375 212.121094 356.84375 C 212.15625 356.949219 212.09375 357.0625 211.988281 357.097656 C 203.117188 359.90625 193.035156 364.03125 191.347656 367.175781 C 191.308594 367.246094 191.238281 367.28125 191.164062 367.28125 " fill-opacity="1" fill-rule="nonzero"/><path fill="#363e44" d="M 202.484375 353.273438 C 202.414062 353.273438 202.347656 353.238281 202.308594 353.179688 C 202.25 353.082031 202.277344 352.957031 202.375 352.894531 C 202.742188 352.667969 203.132812 352.375 203.546875 352.066406 C 204.277344 351.519531 205.101562 350.902344 205.984375 350.511719 C 208.214844 349.53125 210.570312 348.820312 212.988281 348.40625 C 213.105469 348.386719 213.207031 348.460938 213.226562 348.574219 C 213.246094 348.683594 213.167969 348.789062 213.058594 348.808594 C 210.671875 349.21875 208.347656 349.917969 206.152344 350.886719 C 205.304688 351.257812 204.539062 351.835938 203.792969 352.390625 C 203.371094 352.707031 202.972656 353.007812 202.589844 353.242188 C 202.554688 353.265625 202.519531 353.273438 202.484375 353.273438 " fill-opacity="1" fill-rule="nonzero"/><path fill="#363e44" d="M 208.375 367.121094 C 208.289062 367.121094 208.210938 367.066406 208.179688 366.984375 C 208.144531 366.875 208.203125 366.761719 208.308594 366.722656 C 209.816406 366.207031 211.378906 365.808594 212.957031 365.539062 C 213.070312 365.519531 213.175781 365.59375 213.195312 365.703125 C 213.214844 365.816406 213.136719 365.921875 213.027344 365.941406 C 211.46875 366.207031 209.925781 366.601562 208.441406 367.109375 C 208.417969 367.117188 208.398438 367.121094 208.375 367.121094 " fill-opacity="1" fill-rule="nonzero"/><path fill="#efbc73" d="M 326.601562 231.675781 C 322.191406 225.671875 303.980469 208.636719 279.871094 214.6875 C 260.699219 219.5 250.917969 228.550781 241.699219 237.796875 C 243.8125 242.570312 254.347656 272.347656 254.347656 272.347656 L 262.796875 267.699219 C 262.796875 267.699219 267.503906 298.15625 269.394531 307.679688 C 290.796875 309.492188 368.292969 319.015625 368.292969 319.015625 C 368.292969 319.015625 347.300781 259.871094 326.601562 231.675781 " fill-opacity="1" fill-rule="nonzero"/><path fill="#bc8271" d="M 286.695312 255.71875 C 260.585938 296.644531 278.097656 296.371094 285.765625 300.335938 C 291.949219 303.53125 304.121094 289.144531 314.597656 270.515625 L 286.695312 255.71875 " fill-opacity="1" fill-rule="nonzero"/><path fill="#363e44" d="M 316.882812 271.957031 L 284.195312 254.621094 L 296.371094 234.453125 C 296.433594 234.359375 296.558594 234.324219 296.65625 234.382812 C 296.75 234.445312 296.78125 234.570312 296.722656 234.664062 L 284.769531 254.464844 L 316.671875 271.382812 L 326.414062 247.769531 C 326.457031 247.664062 326.574219 247.617188 326.679688 247.65625 C 326.78125 247.699219 326.832031 247.820312 326.789062 247.921875 L 316.882812 271.957031 " fill-opacity="1" fill-rule="nonzero"/><path fill="#bc8271" d="M 277.855469 273.554688 C 266.664062 278.363281 241.332031 289.21875 238.742188 290.300781 C 233.902344 292.328125 210.515625 302.402344 211.9375 305.816406 C 212.84375 307.996094 224.628906 303.179688 226.746094 302.503906 C 224.480469 303.933594 211.804688 309.394531 212.429688 311.460938 C 213.109375 313.699219 229.867188 308.167969 230.011719 308.164062 C 228.289062 308.980469 215.519531 314.710938 216.421875 316.542969 C 217.464844 318.671875 231.246094 313.886719 233.449219 312.980469 C 233.386719 313.3125 223.828125 316.960938 224.566406 319.167969 C 225.222656 321.132812 236.292969 317.421875 237.890625 317.132812 C 242.050781 316.257812 249.355469 313.632812 257.796875 311.074219 C 277.625 305.066406 287.441406 303.414062 295.261719 296.917969 C 298.761719 294.007812 286.144531 275.9375 277.855469 273.554688 " fill-opacity="1" fill-rule="nonzero"/><path fill="#bc8271" d="M 242.753906 240.40625 C 234.28125 245.929688 193.613281 287.304688 191.648438 288.558594 C 187.980469 290.898438 175.019531 299.710938 175.648438 301.855469 C 176.199219 303.738281 180.296875 301.46875 181.933594 300.617188 C 180.285156 302.105469 175.65625 305.3125 176.460938 306.914062 C 177.335938 308.648438 186.929688 304.433594 187.046875 304.40625 C 185.75 305.320312 176.460938 310.402344 177.117188 312.710938 C 177.933594 315.570312 188.871094 308.910156 190.542969 307.863281 C 190.539062 308.140625 182.089844 314.042969 182.914062 315.789062 C 184.015625 318.128906 193.5 311.570312 194.765625 311.105469 C 198.046875 309.800781 203.644531 306.136719 210.1875 302.84375 C 225.554688 295.117188 253.867188 270.988281 253.867188 270.988281 C 253.867188 270.988281 246.03125 247.117188 242.753906 240.40625 " fill-opacity="1" fill-rule="nonzero"/><path fill="#bc8271" d="M 263.507812 216.589844 C 268.121094 217.105469 273.933594 205.550781 273.933594 205.550781 L 273.082031 191.402344 C 269.917969 185.695312 262.726562 183.632812 257.011719 186.796875 C 251.304688 189.957031 249.238281 197.148438 252.402344 202.855469 C 252.402344 202.855469 258.808594 216.0625 263.507812 216.589844 " fill-opacity="1" fill-rule="nonzero"/><path fill="#bc8271" d="M 269.550781 226.28125 C 270.664062 229.171875 277.285156 229.320312 284.34375 226.605469 C 291.398438 223.894531 296.21875 219.347656 295.101562 216.457031 C 293.992188 213.566406 286.929688 211.972656 279.871094 214.6875 C 276.027344 216.167969 272.628906 219.101562 271.210938 221.101562 C 269.824219 223.058594 269.042969 224.96875 269.550781 226.28125 " fill-opacity="1" fill-rule="nonzero"/><path fill="#bc8271" d="M 287.445312 217.335938 L 274.664062 224.414062 L 260.179688 198.28125 L 272.960938 191.207031 L 287.445312 217.335938 " fill-opacity="1" fill-rule="nonzero"/><path fill="#363e44" d="M 268.640625 213.75 C 268.59375 213.75 268.542969 213.730469 268.503906 213.695312 C 268.421875 213.621094 268.414062 213.492188 268.488281 213.40625 C 271.355469 210.195312 273.730469 205.503906 273.753906 205.457031 C 273.800781 205.355469 273.925781 205.316406 274.027344 205.367188 C 274.125 205.417969 274.167969 205.542969 274.117188 205.640625 C 274.09375 205.6875 271.695312 210.425781 268.792969 213.679688 C 268.753906 213.726562 268.695312 213.75 268.640625 213.75 " fill-opacity="1" fill-rule="nonzero"/><path fill="#ffffff" d="M 264.8125 198.015625 C 264.8125 198.015625 262.347656 198.046875 260.0625 199.3125 C 259.574219 199.582031 262.648438 202.96875 262.988281 202.492188 C 264.484375 200.398438 264.8125 198.015625 264.8125 198.015625 " fill-opacity="1" fill-rule="nonzero"/><path fill="#363e44" d="M 258.652344 200.300781 C 256.109375 202.542969 255.617188 206.128906 255.617188 206.128906 C 255.617188 206.128906 259.242188 206.085938 261.777344 203.84375 C 262.25 203.429688 262.648438 202.964844 262.992188 202.488281 C 262.640625 201.039062 261.566406 199.808594 260.058594 199.316406 C 259.574219 199.585938 259.09375 199.910156 258.652344 200.300781 " fill-opacity="1" fill-rule="nonzero"/><path fill="#363e44" d="M 250.34375 201.609375 C 249.117188 200.226562 246.6875 190.015625 255.351562 184.53125 C 260.085938 181.539062 266.6875 179.644531 273.878906 183.128906 C 283.820312 187.953125 296.574219 206.660156 296.574219 206.660156 C 296.574219 206.660156 279.949219 222.464844 279.523438 224.050781 C 277.636719 223.742188 276.492188 201.945312 274.167969 201.554688 C 275.371094 197.320312 273.835938 194.53125 272.335938 193.945312 C 271.125 193.46875 268.800781 193.546875 267.566406 196.8125 C 266.125 195.597656 262.605469 195.011719 258.980469 196.828125 C 256.847656 197.894531 250.34375 201.609375 250.34375 201.609375 " fill-opacity="1" fill-rule="nonzero"/><path fill="#363e44" d="M 261.046875 211.074219 C 260.867188 211.074219 260.683594 211.042969 260.507812 210.980469 C 260.402344 210.941406 260.34375 210.824219 260.382812 210.71875 C 260.421875 210.609375 260.539062 210.554688 260.644531 210.59375 C 261.152344 210.773438 261.726562 210.585938 261.976562 210.148438 C 262.1875 209.792969 262.152344 209.332031 261.894531 208.972656 C 261.828125 208.882812 261.851562 208.753906 261.941406 208.691406 C 262.035156 208.625 262.164062 208.644531 262.230469 208.738281 C 262.578125 209.226562 262.621094 209.863281 262.332031 210.355469 C 262.066406 210.8125 261.574219 211.074219 261.046875 211.074219 " fill-opacity="1" fill-rule="nonzero"/><path fill="#bc8271" d="M 254.539062 210.242188 C 254.292969 209.5 254.839844 208.671875 255.132812 207.804688 C 255.304688 207.289062 255.296875 206.859375 255.222656 206.527344 L 257.371094 210.402344 C 257.070312 210.542969 256.691406 210.707031 256.371094 210.800781 C 255.644531 211.019531 254.753906 210.878906 254.539062 210.242188 " fill-opacity="1" fill-rule="nonzero"/><path fill="#363e44" d="M 272.464844 199.441406 L 272.445312 199.441406 C 272.335938 199.429688 272.253906 199.328125 272.261719 199.214844 C 272.460938 197.222656 272.210938 196.128906 271.515625 195.964844 C 270.753906 195.78125 270.402344 196.441406 270.160156 197.105469 C 270.128906 197.199219 270.113281 197.253906 270.085938 197.292969 C 270.03125 197.390625 269.90625 197.421875 269.804688 197.367188 C 269.710938 197.308594 269.679688 197.183594 269.734375 197.089844 C 269.746094 197.066406 269.761719 197.023438 269.777344 196.96875 C 269.929688 196.550781 270.390625 195.273438 271.609375 195.566406 C 272.863281 195.863281 272.816406 197.816406 272.667969 199.257812 C 272.660156 199.363281 272.570312 199.441406 272.464844 199.441406 " fill-opacity="1" fill-rule="nonzero"/><path fill="#ffffff" d="M 61.746094 148.378906 C 58.386719 153.96875 52.355469 153.835938 48.269531 150.722656 C 44.183594 147.613281 42.339844 141.730469 46.953125 137.113281 C 52.089844 131.972656 64.390625 129.570312 64.390625 129.570312 C 64.390625 129.570312 65.378906 142.332031 61.746094 148.378906 " fill-opacity="1" fill-rule="nonzero"/><path fill="#ffffff" d="M 43.554688 136.132812 C 47.667969 141.195312 45.484375 146.816406 41.167969 149.59375 C 36.847656 152.371094 30.6875 152.097656 27.917969 146.191406 C 24.832031 139.609375 26.765625 127.234375 26.765625 127.234375 C 26.765625 127.234375 39.105469 130.65625 43.554688 136.132812 " fill-opacity="1" fill-rule="nonzero"/><path fill="#ffffff" d="M 26.691406 149.171875 C 32.742188 146.734375 37.472656 150.472656 38.859375 155.414062 C 40.242188 160.355469 38.167969 166.164062 31.707031 167.070312 C 24.503906 168.078125 13.238281 162.589844 13.238281 162.589844 C 13.238281 162.589844 20.144531 151.808594 26.691406 149.171875 " fill-opacity="1" fill-rule="nonzero"/><path fill="#ffffff" d="M 34.515625 169.855469 C 33.644531 163.390625 38.4375 159.734375 43.574219 159.609375 C 48.707031 159.488281 53.820312 162.933594 53.105469 169.417969 C 52.308594 176.640625 44.203125 186.195312 44.203125 186.195312 C 44.203125 186.195312 35.457031 176.847656 34.515625 169.855469 " fill-opacity="1" fill-rule="nonzero"/><path fill="#ffffff" d="M 58.140625 169.226562 C 51.621094 168.929688 48.871094 163.5625 49.667969 158.492188 C 50.464844 153.421875 54.765625 149.003906 61.019531 150.863281 C 67.988281 152.933594 75.953125 162.609375 75.953125 162.609375 C 75.953125 162.609375 65.1875 169.546875 58.140625 169.226562 " fill-opacity="1" fill-rule="nonzero"/><path fill="#efbc73" d="M 53.082031 152.652344 C 52.898438 152.601562 52.71875 152.558594 52.539062 152.523438 C 52.871094 152.214844 53.179688 151.84375 53.453125 151.390625 C 55.296875 148.320312 54.796875 141.832031 54.796875 141.832031 C 54.796875 141.832031 48.542969 143.054688 45.933594 145.667969 C 45.582031 146.019531 45.308594 146.390625 45.097656 146.765625 C 44.921875 146.230469 44.632812 145.695312 44.207031 145.167969 C 41.945312 142.386719 35.671875 140.648438 35.671875 140.648438 C 35.671875 140.648438 34.691406 146.9375 36.257812 150.28125 C 36.472656 150.734375 36.726562 151.117188 37.011719 151.445312 C 36.570312 151.492188 36.109375 151.601562 35.632812 151.796875 C 32.308594 153.136719 28.796875 158.613281 28.796875 158.613281 C 28.796875 158.613281 34.523438 161.40625 38.183594 160.890625 C 38.753906 160.808594 39.253906 160.652344 39.695312 160.4375 C 39.558594 160.996094 39.519531 161.621094 39.613281 162.308594 C 40.089844 165.859375 44.535156 170.613281 44.535156 170.613281 C 44.535156 170.613281 48.65625 165.757812 49.058594 162.082031 C 49.09375 161.765625 49.09375 161.46875 49.078125 161.179688 C 49.742188 161.644531 50.585938 161.941406 51.621094 161.988281 C 55.203125 162.152344 60.671875 158.625 60.671875 158.625 C 60.671875 158.625 56.625 153.707031 53.082031 152.652344 " fill-opacity="1" fill-rule="nonzero"/><path fill="#ffffff" d="M 55.351562 100.316406 C 55.09375 103.445312 52.464844 104.671875 50.042969 104.199219 C 47.617188 103.730469 45.566406 101.585938 46.570312 98.613281 C 47.6875 95.300781 52.480469 91.644531 52.480469 91.644531 C 52.480469 91.644531 55.628906 96.9375 55.351562 100.316406 " fill-opacity="1" fill-rule="nonzero"/><path fill="#ffffff" d="M 44.898438 98.914062 C 47.75 100.21875 48.007812 103.109375 46.738281 105.226562 C 45.46875 107.34375 42.753906 108.539062 40.300781 106.582031 C 37.566406 104.402344 35.761719 98.652344 35.761719 98.652344 C 35.761719 98.652344 41.8125 97.5 44.898438 98.914062 " fill-opacity="1" fill-rule="nonzero"/><path fill="#ffffff" d="M 40.40625 108.128906 C 42.496094 105.789062 45.332031 106.394531 46.984375 108.230469 C 48.636719 110.066406 48.980469 113.007812 46.386719 114.777344 C 43.496094 116.75 37.46875 116.78125 37.46875 116.78125 C 37.46875 116.78125 38.144531 110.660156 40.40625 108.128906 " fill-opacity="1" fill-rule="nonzero"/><path fill="#ffffff" d="M 48.191406 115.378906 C 46.4375 112.777344 47.722656 110.179688 49.910156 109.035156 C 52.097656 107.886719 55.039062 108.28125 56.113281 111.226562 C 57.3125 114.515625 55.855469 120.363281 55.855469 120.363281 C 55.855469 120.363281 50.089844 118.195312 48.191406 115.378906 " fill-opacity="1" fill-rule="nonzero"/><path fill="#ffffff" d="M 58.246094 110.074219 C 55.371094 111.335938 53.039062 109.609375 52.300781 107.25 C 51.5625 104.894531 52.476562 102.074219 55.570312 101.542969 C 59.015625 100.953125 64.511719 103.425781 64.511719 103.425781 C 64.511719 103.425781 61.351562 108.710938 58.246094 110.074219 " fill-opacity="1" fill-rule="nonzero"/><path fill="#efbc73" d="M 52.527344 104.007812 C 52.4375 104.023438 52.351562 104.042969 52.265625 104.066406 C 52.34375 103.863281 52.398438 103.636719 52.417969 103.382812 C 52.558594 101.667969 50.957031 98.976562 50.957031 98.976562 C 50.957031 98.976562 48.523438 100.835938 47.957031 102.519531 C 47.878906 102.746094 47.839844 102.964844 47.828125 103.167969 C 47.640625 102.976562 47.402344 102.808594 47.105469 102.671875 C 45.535156 101.953125 42.460938 102.539062 42.460938 102.539062 C 42.460938 102.539062 43.378906 105.460938 44.769531 106.566406 C 44.957031 106.71875 45.148438 106.828125 45.339844 106.910156 C 45.160156 107.027344 44.988281 107.171875 44.824219 107.355469 C 43.675781 108.640625 43.328125 111.753906 43.328125 111.753906 C 43.328125 111.753906 46.394531 111.734375 47.863281 110.734375 C 48.089844 110.578125 48.273438 110.402344 48.414062 110.214844 C 48.476562 110.484375 48.59375 110.765625 48.777344 111.039062 C 49.742188 112.46875 52.675781 113.570312 52.675781 113.570312 C 52.675781 113.570312 53.414062 110.597656 52.804688 108.929688 C 52.753906 108.789062 52.691406 108.65625 52.621094 108.535156 C 53.003906 108.59375 53.433594 108.542969 53.886719 108.34375 C 55.46875 107.652344 57.074219 104.964844 57.074219 104.964844 C 57.074219 104.964844 54.28125 103.707031 52.527344 104.007812 " fill-opacity="1" fill-rule="nonzero"/></svg>