<svg xmlns="http://www.w3.org/2000/svg" xmlns:xlink="http://www.w3.org/1999/xlink" width="300" zoomAndPan="magnify" viewBox="0 0 375 374.999991" height="300" preserveAspectRatio="xMidYMid meet" version="1.0"><defs><g/><clipPath id="92b3c35fc4"><path d="M 193.847656 234.304688 L 235.539062 234.304688 L 235.539062 256.492188 L 193.847656 256.492188 Z M 193.847656 234.304688 " clip-rule="nonzero"/></clipPath><clipPath id="20e4f8460b"><path d="M 148.652344 234.304688 L 190.34375 234.304688 L 190.34375 256.492188 L 148.652344 256.492188 Z M 148.652344 234.304688 " clip-rule="nonzero"/></clipPath><clipPath id="abc656fab2"><path d="M 70.785156 62 L 281 62 L 281 212 L 70.785156 212 Z M 70.785156 62 " clip-rule="nonzero"/></clipPath><clipPath id="5dd4e8bccf"><path d="M 283.183594 94.628906 L 321.1875 94.628906 L 321.1875 121.585938 L 283.183594 121.585938 Z M 283.183594 94.628906 " clip-rule="nonzero"/></clipPath></defs><path fill="#ffb808" d="M 216.3125 121.316406 C 211.632812 105.273438 217.242188 89.535156 228.839844 86.15625 L 234.449219 84.925781 C 237.542969 84.246094 240.777344 84.394531 243.753906 85.480469 C 251.820312 88.421875 259.160156 96.765625 262.40625 107.894531 C 266.523438 122.007812 262.671875 135.886719 253.789062 141.316406 L 253.949219 141.867188 L 244.53125 144.609375 L 244.515625 144.554688 C 233.238281 146.863281 220.820312 136.773438 216.3125 121.316406 " fill-opacity="1" fill-rule="nonzero"/><path fill="#46accc" d="M 206.828125 64.746094 L 222.492188 86.933594 L 235.542969 86.933594 C 235.542969 86.933594 234.265625 78.246094 228.578125 71.714844 C 222.800781 65.074219 207.605469 64.746094 207.605469 64.746094 L 206.828125 64.746094 " fill-opacity="1" fill-rule="nonzero"/><path fill="#ffffff" d="M 229.472656 239.785156 C 227.960938 239.085938 226.300781 238.773438 224.632812 238.773438 L 216.664062 238.773438 L 216.566406 238.761719 C 217.65625 237.628906 218.476562 236.105469 218.476562 234.0625 C 218.476562 232.257812 217.488281 230.878906 216.398438 229.910156 C 215.101562 228.75 213.464844 228.058594 211.75 227.746094 C 208.109375 227.082031 203.589844 226.949219 200.421875 228.066406 C 197.929688 228.941406 195.609375 230.355469 195.527344 232.597656 C 195.457031 234.425781 197.433594 235.753906 198.613281 236.382812 L 197.140625 236.1875 L 195.746094 242.832031 C 194.65625 248.042969 197.761719 253.378906 202.9375 254.613281 C 203.640625 254.78125 204.347656 254.871094 205.023438 254.871094 L 222.1875 254.871094 C 225.242188 254.871094 228.257812 253.898438 230.609375 251.945312 C 232.328125 250.511719 233.800781 248.527344 233.800781 245.9375 C 233.800781 242.566406 231.542969 240.746094 229.472656 239.785156 " fill-opacity="1" fill-rule="nonzero"/><g clip-path="url(#92b3c35fc4)"><path fill="#5bccc5" d="M 222.1875 256.492188 L 205.023438 256.492188 C 204.230469 256.492188 203.402344 256.390625 202.5625 256.191406 C 196.644531 254.777344 192.875 248.636719 194.160156 242.5 L 195.550781 235.855469 C 195.734375 234.980469 196.589844 234.425781 197.472656 234.601562 C 198.347656 234.785156 198.910156 235.644531 198.726562 236.519531 L 197.335938 243.164062 C 196.40625 247.601562 199.089844 252.027344 203.316406 253.039062 C 203.910156 253.179688 204.484375 253.25 205.023438 253.25 L 222.1875 253.25 C 224.972656 253.25 227.59375 252.34375 229.570312 250.699219 C 231.300781 249.257812 232.179688 247.65625 232.179688 245.9375 C 232.179688 243.84375 231.070312 242.3125 228.789062 241.253906 C 227.558594 240.683594 226.160156 240.394531 224.632812 240.394531 L 216.664062 240.394531 C 215.769531 240.394531 215.042969 239.667969 215.042969 238.773438 C 215.042969 237.878906 215.769531 237.15625 216.664062 237.15625 L 224.632812 237.15625 C 226.636719 237.15625 228.496094 237.542969 230.15625 238.316406 C 233.554688 239.890625 235.425781 242.597656 235.425781 245.9375 C 235.425781 248.625 234.117188 251.132812 231.644531 253.1875 C 229.085938 255.320312 225.730469 256.492188 222.1875 256.492188 " fill-opacity="1" fill-rule="nonzero"/></g><path fill="#5bccc5" d="M 210.921875 243.371094 C 210.160156 243.371094 209.480469 242.835938 209.328125 242.058594 C 209.160156 241.183594 209.734375 240.332031 210.609375 240.160156 C 210.867188 240.109375 216.851562 238.863281 216.851562 234.0625 C 216.851562 233.019531 216.335938 232.027344 215.320312 231.117188 C 214.332031 230.234375 212.996094 229.621094 211.460938 229.339844 C 208.34375 228.773438 203.949219 228.539062 200.957031 229.59375 C 199.558594 230.085938 197.203125 231.136719 197.144531 232.65625 C 197.109375 233.671875 199.03125 234.871094 200.070312 235.285156 C 200.898438 235.617188 201.304688 236.5625 200.976562 237.390625 C 200.644531 238.21875 199.710938 238.628906 198.875 238.300781 C 198.351562 238.09375 193.769531 236.179688 193.902344 232.535156 C 193.972656 230.734375 195.0625 228.230469 199.882812 226.535156 C 202.929688 225.460938 207.476562 225.320312 212.042969 226.152344 C 214.167969 226.539062 216.046875 227.421875 217.480469 228.703125 C 219.191406 230.230469 220.097656 232.082031 220.097656 234.0625 C 220.097656 240.050781 214.296875 242.75 211.230469 243.34375 C 211.125 243.363281 211.023438 243.371094 210.921875 243.371094 " fill-opacity="1" fill-rule="nonzero"/><path fill="#653031" d="M 207 234.105469 C 205.207031 234.105469 203.757812 232.652344 203.757812 230.863281 L 203.757812 188.867188 C 203.757812 187.078125 205.207031 185.628906 207 185.628906 C 208.789062 185.628906 210.242188 187.078125 210.242188 188.867188 L 210.242188 230.863281 C 210.242188 232.652344 208.789062 234.105469 207 234.105469 " fill-opacity="1" fill-rule="nonzero"/><path fill="#ffffff" d="M 150.339844 232.597656 C 150.425781 230.355469 152.746094 228.941406 155.234375 228.066406 C 158.40625 226.949219 162.925781 227.082031 166.566406 227.746094 C 168.277344 228.058594 169.917969 228.75 171.214844 229.910156 C 172.300781 230.878906 173.289062 232.257812 173.289062 234.0625 C 173.289062 236.105469 172.472656 237.628906 171.382812 238.761719 L 171.480469 238.773438 L 179.449219 238.773438 C 181.117188 238.773438 182.777344 239.085938 184.289062 239.785156 C 186.359375 240.746094 188.617188 242.566406 188.617188 245.9375 C 188.617188 248.527344 187.144531 250.511719 185.425781 251.945312 C 183.074219 253.898438 180.058594 254.871094 177.003906 254.871094 L 159.839844 254.871094 C 159.160156 254.871094 158.457031 254.78125 157.753906 254.613281 C 152.574219 253.378906 149.472656 248.042969 150.5625 242.832031 L 151.957031 236.1875 L 153.429688 236.382812 C 152.25 235.753906 150.273438 234.425781 150.339844 232.597656 " fill-opacity="1" fill-rule="nonzero"/><g clip-path="url(#20e4f8460b)"><path fill="#5bccc5" d="M 177.003906 256.492188 L 159.839844 256.492188 C 159.046875 256.492188 158.21875 256.390625 157.378906 256.191406 C 151.460938 254.777344 147.691406 248.636719 148.972656 242.5 L 150.367188 235.855469 C 150.550781 234.980469 151.40625 234.425781 152.289062 234.601562 C 153.164062 234.785156 153.726562 235.644531 153.542969 236.519531 L 152.152344 243.164062 C 151.21875 247.601562 153.902344 252.027344 158.132812 253.039062 C 158.726562 253.179688 159.300781 253.25 159.839844 253.25 L 177.003906 253.25 C 179.785156 253.25 182.410156 252.34375 184.386719 250.699219 C 186.117188 249.257812 186.996094 247.652344 186.996094 245.9375 C 186.996094 243.84375 185.886719 242.3125 183.605469 241.253906 C 182.375 240.683594 180.976562 240.394531 179.449219 240.394531 L 171.480469 240.394531 C 170.585938 240.394531 169.859375 239.667969 169.859375 238.773438 C 169.859375 237.878906 170.585938 237.15625 171.480469 237.15625 L 179.449219 237.15625 C 181.453125 237.15625 183.308594 237.542969 184.972656 238.316406 C 188.367188 239.890625 190.238281 242.597656 190.238281 245.9375 C 190.238281 248.621094 188.933594 251.132812 186.460938 253.1875 C 183.902344 255.320312 180.542969 256.492188 177.003906 256.492188 " fill-opacity="1" fill-rule="nonzero"/></g><path fill="#5bccc5" d="M 165.738281 243.371094 C 164.976562 243.371094 164.296875 242.835938 164.144531 242.058594 C 163.976562 241.179688 164.550781 240.332031 165.429688 240.160156 C 165.703125 240.105469 171.667969 238.855469 171.667969 234.0625 C 171.667969 233.019531 171.152344 232.027344 170.136719 231.117188 C 169.148438 230.234375 167.8125 229.621094 166.277344 229.339844 C 163.160156 228.773438 158.765625 228.539062 155.773438 229.59375 C 154.375 230.085938 152.019531 231.136719 151.960938 232.65625 C 151.921875 233.671875 153.847656 234.871094 154.886719 235.285156 C 155.714844 235.617188 156.121094 236.5625 155.792969 237.390625 C 155.460938 238.21875 154.523438 238.628906 153.691406 238.300781 C 153.167969 238.09375 148.582031 236.179688 148.71875 232.535156 C 148.789062 230.734375 149.878906 228.230469 154.699219 226.535156 C 157.75 225.460938 162.292969 225.320312 166.859375 226.152344 C 168.984375 226.539062 170.863281 227.421875 172.296875 228.703125 C 174.007812 230.230469 174.914062 232.082031 174.914062 234.0625 C 174.914062 240.050781 169.113281 242.75 166.046875 243.34375 C 165.941406 243.363281 165.839844 243.371094 165.738281 243.371094 " fill-opacity="1" fill-rule="nonzero"/><path fill="#653031" d="M 161.160156 234.105469 C 159.367188 234.105469 157.917969 232.652344 157.917969 230.863281 L 157.917969 188.867188 C 157.917969 187.078125 159.367188 185.628906 161.160156 185.628906 C 162.953125 185.628906 164.402344 187.078125 164.402344 188.867188 L 164.402344 230.863281 C 164.402344 232.652344 162.953125 234.105469 161.160156 234.105469 " fill-opacity="1" fill-rule="nonzero"/><path fill="#fe98a5" d="M 263.871094 149.300781 C 268.390625 145.164062 271.226562 139.21875 271.226562 132.609375 C 271.226562 120.332031 261.4375 110.347656 249.230469 110.007812 C 249.578125 108.554688 249.769531 107.042969 249.769531 105.488281 C 249.769531 94.824219 241.117188 86.179688 230.445312 86.179688 C 227.675781 86.179688 225.042969 86.765625 222.660156 87.8125 C 220.609375 75.917969 210.242188 66.863281 197.75 66.863281 C 188.011719 66.863281 179.566406 72.363281 175.34375 80.421875 C 172.40625 71.328125 163.871094 64.746094 153.792969 64.746094 C 142.832031 64.746094 133.691406 72.53125 131.605469 82.871094 C 129.117188 81.933594 126.421875 81.414062 123.609375 81.414062 C 111.105469 81.414062 100.96875 91.542969 100.96875 104.035156 C 100.96875 105.328125 101.082031 106.59375 101.292969 107.824219 C 90.960938 108.210938 82.699219 116.695312 82.699219 127.117188 C 82.699219 132.765625 85.128906 137.847656 89 141.378906 C 79.6875 144.183594 72.902344 152.816406 72.902344 163.035156 C 72.902344 175.53125 83.039062 185.65625 95.542969 185.65625 C 98.632812 185.65625 101.582031 185.035156 104.265625 183.914062 C 106.542969 194.660156 116.085938 202.722656 127.515625 202.722656 C 134.238281 202.722656 140.308594 199.925781 144.632812 195.4375 C 152.226562 204.277344 163.484375 209.886719 176.058594 209.886719 C 188.316406 209.886719 199.328125 204.558594 206.910156 196.101562 C 211.183594 200.199219 216.980469 202.722656 223.367188 202.722656 C 235.101562 202.722656 244.839844 194.226562 246.777344 183.054688 C 250.074219 185.667969 254.242188 187.234375 258.777344 187.234375 C 269.449219 187.234375 278.101562 178.589844 278.101562 167.925781 C 278.101562 159.023438 272.070312 151.535156 263.871094 149.300781 " fill-opacity="1" fill-rule="nonzero"/><g clip-path="url(#abc656fab2)"><path fill="#f04974" d="M 144.628906 193.414062 C 144.648438 193.414062 144.667969 193.414062 144.691406 193.414062 C 145.261719 193.433594 145.796875 193.6875 146.167969 194.121094 C 153.671875 202.851562 164.566406 207.859375 176.058594 207.859375 C 187.234375 207.859375 197.933594 203.082031 205.402344 194.75 C 205.769531 194.339844 206.285156 194.097656 206.835938 194.074219 C 207.382812 194.058594 207.921875 194.257812 208.316406 194.640625 C 212.386719 198.546875 217.734375 200.695312 223.367188 200.695312 C 233.96875 200.695312 242.972656 193.132812 244.78125 182.707031 C 244.902344 182.003906 245.386719 181.417969 246.054688 181.160156 C 246.722656 180.90625 247.476562 181.023438 248.035156 181.464844 C 251.125 183.914062 254.835938 185.207031 258.777344 185.207031 C 268.3125 185.207031 276.074219 177.457031 276.074219 167.925781 C 276.074219 160.152344 270.835938 153.296875 263.335938 151.253906 C 262.625 151.058594 262.074219 150.492188 261.898438 149.777344 C 261.726562 149.058594 261.953125 148.304688 262.5 147.804688 C 266.757812 143.910156 269.199219 138.375 269.199219 132.609375 C 269.199219 121.382812 260.402344 112.34375 249.175781 112.03125 C 248.5625 112.011719 247.996094 111.722656 247.621094 111.238281 C 247.25 110.753906 247.117188 110.128906 247.257812 109.535156 C 247.578125 108.199219 247.742188 106.835938 247.742188 105.488281 C 247.742188 95.957031 239.984375 88.203125 230.445312 88.203125 C 228.027344 88.203125 225.683594 88.695312 223.480469 89.667969 C 222.90625 89.917969 222.253906 89.894531 221.703125 89.601562 C 221.152344 89.304688 220.769531 88.773438 220.664062 88.160156 C 218.738281 76.992188 209.101562 68.890625 197.75 68.890625 C 189.070312 68.890625 181.171875 73.667969 177.136719 81.363281 C 176.757812 82.085938 175.976562 82.507812 175.167969 82.441406 C 174.355469 82.371094 173.664062 81.820312 173.414062 81.046875 C 170.65625 72.507812 162.773438 66.773438 153.792969 66.773438 C 144.019531 66.773438 135.523438 73.710938 133.589844 83.273438 C 133.472656 83.855469 133.105469 84.355469 132.585938 84.644531 C 132.0625 84.929688 131.445312 84.976562 130.886719 84.765625 C 128.558594 83.886719 126.109375 83.441406 123.609375 83.441406 C 112.246094 83.441406 102.996094 92.679688 102.996094 104.035156 C 102.996094 105.171875 103.09375 106.332031 103.292969 107.488281 C 103.386719 108.0625 103.230469 108.652344 102.863281 109.101562 C 102.496094 109.554688 101.953125 109.828125 101.367188 109.851562 C 92.035156 110.199219 84.726562 117.78125 84.726562 127.117188 C 84.726562 131.960938 86.78125 136.613281 90.367188 139.882812 C 90.90625 140.375 91.136719 141.117188 90.976562 141.828125 C 90.816406 142.539062 90.28125 143.109375 89.585938 143.316406 C 80.957031 145.917969 74.929688 154.027344 74.929688 163.035156 C 74.929688 174.394531 84.175781 183.632812 95.542969 183.632812 C 98.292969 183.632812 100.964844 183.097656 103.484375 182.046875 C 104.042969 181.8125 104.675781 181.839844 105.210938 182.121094 C 105.746094 182.398438 106.125 182.902344 106.25 183.496094 C 108.359375 193.460938 117.304688 200.695312 127.515625 200.695312 C 133.472656 200.695312 139.03125 198.332031 143.171875 194.035156 C 143.554688 193.636719 144.082031 193.414062 144.628906 193.414062 Z M 176.058594 211.910156 C 164.09375 211.910156 152.722656 206.992188 144.523438 198.34375 C 139.820312 202.488281 133.855469 204.75 127.515625 204.75 C 116.179688 204.75 106.160156 197.234375 102.867188 186.574219 C 100.507812 187.3125 98.050781 187.683594 95.542969 187.683594 C 81.9375 187.683594 70.875 176.628906 70.875 163.035156 C 70.875 153.320312 76.730469 144.480469 85.441406 140.550781 C 82.382812 136.777344 80.671875 132.023438 80.671875 127.117188 C 80.671875 116.335938 88.570312 107.445312 99.023438 105.992188 C 98.96875 105.335938 98.941406 104.683594 98.941406 104.035156 C 98.941406 90.445312 110.007812 79.390625 123.609375 79.390625 C 125.839844 79.390625 128.039062 79.6875 130.167969 80.273438 C 133.257812 69.980469 142.859375 62.722656 153.792969 62.722656 C 163.152344 62.722656 171.519531 67.929688 175.699219 76.023438 C 180.800781 69.039062 188.933594 64.839844 197.75 64.839844 C 210.261719 64.839844 221.003906 73.222656 224.144531 85.101562 C 226.175781 84.46875 228.289062 84.152344 230.445312 84.152344 C 242.21875 84.152344 251.796875 93.722656 251.796875 105.488281 C 251.796875 106.375 251.738281 107.265625 251.628906 108.15625 C 263.929688 109.636719 273.253906 119.964844 273.253906 132.609375 C 273.253906 138.417969 271.183594 144.035156 267.484375 148.445312 C 275.066406 151.832031 280.128906 159.4375 280.128906 167.925781 C 280.128906 179.6875 270.550781 189.261719 258.777344 189.261719 C 254.957031 189.261719 251.308594 188.273438 248.074219 186.386719 C 244.855469 197.191406 234.90625 204.75 223.367188 204.75 C 217.367188 204.75 211.644531 202.691406 207.039062 198.921875 C 198.894531 207.199219 187.714844 211.910156 176.058594 211.910156 " fill-opacity="1" fill-rule="nonzero"/></g><path fill="#f04974" d="M 173.917969 93.65625 C 173.632812 93.65625 173.339844 93.582031 173.078125 93.421875 C 172.3125 92.957031 172.070312 91.960938 172.53125 91.199219 C 172.679688 90.949219 176.070312 85.140625 172.578125 78.988281 C 172.136719 78.210938 172.410156 77.222656 173.1875 76.78125 C 173.96875 76.339844 174.957031 76.613281 175.398438 77.390625 C 179.851562 85.230469 175.496094 92.570312 175.304688 92.878906 C 175 93.378906 174.464844 93.65625 173.917969 93.65625 " fill-opacity="1" fill-rule="nonzero"/><path fill="#f04974" d="M 218.464844 99.847656 C 217.769531 99.847656 217.125 99.394531 216.914062 98.691406 C 216.65625 97.84375 217.132812 96.949219 217.976562 96.679688 C 218.210938 96.597656 222.433594 94.984375 220.246094 86.238281 C 220.027344 85.371094 220.554688 84.492188 221.425781 84.273438 C 222.292969 84.058594 223.171875 84.585938 223.390625 85.453125 C 226.378906 97.398438 219.238281 99.6875 218.933594 99.777344 C 218.777344 99.824219 218.621094 99.847656 218.464844 99.847656 " fill-opacity="1" fill-rule="nonzero"/><path fill="#f04974" d="M 135.125 96.34375 C 135.070312 96.34375 135.019531 96.34375 134.964844 96.339844 C 134.074219 96.253906 133.421875 95.460938 133.507812 94.570312 C 134.214844 87.21875 128.867188 83.230469 128.640625 83.066406 C 127.917969 82.539062 127.753906 81.527344 128.28125 80.804688 C 128.804688 80.082031 129.8125 79.914062 130.535156 80.433594 C 130.824219 80.644531 137.625 85.628906 136.734375 94.878906 C 136.65625 95.71875 135.949219 96.34375 135.125 96.34375 " fill-opacity="1" fill-rule="nonzero"/><path fill="#f04974" d="M 190.796875 85.3125 C 190.3125 85.3125 189.835938 85.09375 189.515625 84.683594 C 188.964844 83.976562 189.09375 82.957031 189.804688 82.410156 C 194.773438 78.558594 199.542969 80.332031 201.371094 81.808594 C 202.066406 82.371094 202.175781 83.390625 201.613281 84.085938 C 201.054688 84.78125 200.039062 84.890625 199.34375 84.335938 C 198.988281 84.0625 195.855469 81.824219 191.789062 84.972656 C 191.496094 85.199219 191.144531 85.3125 190.796875 85.3125 " fill-opacity="1" fill-rule="nonzero"/><path fill="#f04974" d="M 95.382812 145.800781 C 94.914062 145.800781 94.449219 145.597656 94.128906 145.207031 C 93.300781 144.199219 89.910156 143.152344 87.875 142.765625 C 86.996094 142.597656 86.417969 141.75 86.585938 140.871094 C 86.753906 139.992188 87.597656 139.410156 88.480469 139.582031 C 89.515625 139.777344 94.769531 140.875 96.636719 143.152344 C 97.207031 143.847656 97.101562 144.867188 96.410156 145.433594 C 96.109375 145.679688 95.746094 145.800781 95.382812 145.800781 " fill-opacity="1" fill-rule="nonzero"/><path fill="#f04974" d="M 124.675781 166.925781 C 124.4375 166.925781 124.195312 166.875 123.964844 166.761719 C 123.160156 166.371094 122.824219 165.398438 123.21875 164.59375 C 123.234375 164.5625 125.101562 160.550781 123.261719 156.039062 C 121.203125 150.984375 117.816406 150.621094 117.671875 150.609375 C 116.789062 150.527344 116.121094 149.753906 116.1875 148.871094 C 116.253906 147.988281 117.023438 147.3125 117.886719 147.375 C 118.113281 147.386719 123.402344 147.78125 126.269531 154.816406 C 128.667969 160.710938 126.238281 165.804688 126.136719 166.015625 C 125.851562 166.59375 125.277344 166.925781 124.675781 166.925781 " fill-opacity="1" fill-rule="nonzero"/><path fill="#f04974" d="M 125.746094 157.910156 C 124.960938 157.910156 124.273438 157.347656 124.148438 156.550781 C 123.742188 153.984375 124.8125 148.613281 131.769531 146.625 C 132.632812 146.378906 133.527344 146.878906 133.773438 147.738281 C 134.019531 148.597656 133.519531 149.496094 132.660156 149.742188 C 126.882812 151.390625 127.289062 155.585938 127.355469 156.058594 C 127.476562 156.9375 126.867188 157.761719 125.988281 157.890625 C 125.90625 157.902344 125.824219 157.910156 125.746094 157.910156 " fill-opacity="1" fill-rule="nonzero"/><path fill="#f04974" d="M 104.859375 186.046875 C 104.140625 186.046875 103.484375 185.5625 103.292969 184.832031 C 103.210938 184.511719 101.308594 176.929688 106.484375 172.265625 C 107.148438 171.667969 108.171875 171.722656 108.773438 172.382812 C 109.371094 173.050781 109.320312 174.074219 108.65625 174.671875 C 104.957031 178.003906 106.417969 183.960938 106.433594 184.023438 C 106.65625 184.886719 106.132812 185.769531 105.265625 185.992188 C 105.132812 186.027344 104.996094 186.046875 104.859375 186.046875 " fill-opacity="1" fill-rule="nonzero"/><path fill="#f04974" d="M 143.894531 196.96875 C 143.625 196.96875 143.355469 196.902344 143.101562 196.761719 C 142.320312 196.328125 142.042969 195.339844 142.480469 194.558594 C 146.191406 187.925781 141.574219 182.25 141.527344 182.191406 C 140.953125 181.503906 141.050781 180.480469 141.738281 179.910156 C 142.429688 179.335938 143.449219 179.433594 144.023438 180.121094 C 144.273438 180.421875 150.09375 187.585938 145.3125 196.136719 C 145.015625 196.671875 144.460938 196.96875 143.894531 196.96875 " fill-opacity="1" fill-rule="nonzero"/><path fill="#f04974" d="M 145.550781 187.707031 C 145.285156 187.707031 145.015625 187.640625 144.769531 187.503906 C 143.992188 187.070312 143.703125 186.105469 144.128906 185.320312 C 144.214844 185.160156 146.359375 181.320312 151.480469 181.210938 C 151.492188 181.210938 151.503906 181.210938 151.515625 181.210938 C 152.394531 181.210938 153.117188 181.914062 153.136719 182.796875 C 153.152344 183.691406 152.441406 184.433594 151.546875 184.453125 C 148.355469 184.515625 147.023438 186.789062 146.96875 186.882812 C 146.667969 187.410156 146.117188 187.707031 145.550781 187.707031 " fill-opacity="1" fill-rule="nonzero"/><path fill="#f04974" d="M 194.527344 191.503906 C 194.074219 191.503906 193.625 191.316406 193.304688 190.945312 C 189.5 186.574219 183.957031 188.980469 183.722656 189.085938 C 182.902344 189.453125 181.945312 189.089844 181.578125 188.277344 C 181.210938 187.464844 181.566406 186.507812 182.378906 186.136719 C 185.109375 184.886719 191.417969 183.839844 195.75 188.820312 C 196.339844 189.496094 196.265625 190.519531 195.589844 191.105469 C 195.285156 191.375 194.902344 191.503906 194.527344 191.503906 " fill-opacity="1" fill-rule="nonzero"/><path fill="#f04974" d="M 246.773438 184.671875 C 246.066406 184.671875 245.414062 184.203125 245.214844 183.488281 C 245.097656 183.074219 242.472656 173.296875 249.472656 168.933594 C 250.234375 168.460938 251.234375 168.695312 251.707031 169.453125 C 252.183594 170.210938 251.949219 171.210938 251.191406 171.683594 C 246.253906 174.757812 248.320312 182.542969 248.339844 182.621094 C 248.574219 183.484375 248.070312 184.375 247.207031 184.613281 C 247.0625 184.652344 246.917969 184.671875 246.773438 184.671875 " fill-opacity="1" fill-rule="nonzero"/><path fill="#f04974" d="M 206.324219 197.621094 C 205.984375 197.621094 205.640625 197.515625 205.347656 197.292969 C 204.632812 196.753906 204.492188 195.738281 205.027344 195.027344 C 205.160156 194.847656 208.058594 190.859375 205.550781 186.960938 C 205.066406 186.210938 205.285156 185.207031 206.039062 184.722656 C 206.792969 184.238281 207.796875 184.457031 208.28125 185.210938 C 212.027344 191.035156 207.800781 196.738281 207.617188 196.976562 C 207.300781 197.398438 206.816406 197.621094 206.324219 197.621094 " fill-opacity="1" fill-rule="nonzero"/><path fill="#f04974" d="M 219.363281 179.066406 C 219.214844 179.066406 219.066406 179.046875 218.914062 179.003906 C 218.054688 178.757812 217.554688 177.859375 217.800781 177 C 217.871094 176.757812 219.570312 171.054688 225.585938 169.667969 C 230.726562 168.484375 234.804688 171.199219 234.972656 171.3125 C 235.714844 171.816406 235.910156 172.824219 235.40625 173.5625 C 234.902344 174.304688 233.894531 174.5 233.152344 173.992188 C 233.128906 173.980469 230.042969 171.964844 226.316406 172.828125 C 222.140625 173.789062 220.933594 177.851562 220.921875 177.890625 C 220.71875 178.601562 220.066406 179.066406 219.363281 179.066406 " fill-opacity="1" fill-rule="nonzero"/><path fill="#f04974" d="M 151.78125 107.984375 C 151.425781 107.984375 151.066406 107.871094 150.769531 107.632812 C 150.066406 107.074219 149.957031 106.050781 150.515625 105.355469 C 150.613281 105.230469 152.988281 102.304688 156.734375 101.101562 C 162.714844 99.179688 167.09375 101.792969 167.277344 101.90625 C 168.042969 102.371094 168.28125 103.371094 167.816406 104.132812 C 167.347656 104.898438 166.347656 105.140625 165.585938 104.671875 C 165.460938 104.597656 162.238281 102.738281 157.726562 104.1875 C 154.945312 105.082031 153.066406 107.355469 153.046875 107.378906 C 152.726562 107.777344 152.253906 107.984375 151.78125 107.984375 " fill-opacity="1" fill-rule="nonzero"/><path fill="#f04974" d="M 108.417969 138.296875 C 108.265625 138.296875 108.113281 138.273438 107.960938 138.226562 C 107.109375 137.976562 106.617188 137.09375 106.859375 136.238281 C 106.898438 136.089844 107.9375 132.589844 111.648438 131.589844 C 114.574219 130.796875 116.835938 131.894531 117.710938 132.667969 C 118.378906 133.261719 118.445312 134.285156 117.851562 134.953125 C 117.253906 135.625 116.234375 135.6875 115.5625 135.09375 C 115.539062 135.078125 114.421875 134.195312 112.496094 134.71875 C 110.582031 135.234375 109.996094 137.066406 109.972656 137.144531 C 109.757812 137.839844 109.113281 138.296875 108.417969 138.296875 " fill-opacity="1" fill-rule="nonzero"/><path fill="#f04974" d="M 107.273438 113.011719 C 107.230469 113.011719 107.1875 113.007812 107.144531 113.007812 C 106.902344 112.988281 106.65625 112.957031 106.402344 112.910156 C 102.023438 112.152344 100.578125 108.949219 100.519531 108.8125 C 100.160156 107.992188 100.535156 107.035156 101.355469 106.675781 C 102.179688 106.320312 103.136719 106.695312 103.492188 107.515625 C 103.515625 107.566406 104.355469 109.269531 106.953125 109.71875 C 107.105469 109.746094 107.253906 109.761719 107.398438 109.773438 C 108.289062 109.84375 108.957031 110.621094 108.886719 111.515625 C 108.820312 112.363281 108.109375 113.011719 107.273438 113.011719 " fill-opacity="1" fill-rule="nonzero"/><path fill="#f04974" d="M 229.546875 171.015625 C 229.507812 171.015625 229.46875 171.015625 229.429688 171.011719 C 228.539062 170.945312 227.867188 170.179688 227.925781 169.289062 C 228.113281 166.542969 229.914062 161.160156 235.410156 160.460938 C 236.292969 160.351562 237.109375 160.976562 237.222656 161.863281 C 237.335938 162.753906 236.707031 163.5625 235.820312 163.675781 C 231.609375 164.210938 231.179688 169.296875 231.164062 169.515625 C 231.097656 170.363281 230.386719 171.015625 229.546875 171.015625 " fill-opacity="1" fill-rule="nonzero"/><path fill="#ffffff" d="M 208.386719 99.0625 C 206.378906 103.175781 211.144531 109.628906 219.027344 113.472656 C 226.914062 117.316406 234.9375 117.101562 236.945312 112.988281 C 238.957031 108.871094 234.191406 102.421875 226.304688 98.574219 C 218.417969 94.730469 210.398438 94.945312 208.386719 99.0625 " fill-opacity="1" fill-rule="nonzero"/><path fill="#ffffff" d="M 240.894531 120.671875 C 239.175781 122.386719 240.191406 126.179688 243.15625 129.144531 C 246.125 132.109375 249.921875 133.125 251.636719 131.410156 C 253.355469 129.691406 252.339844 125.898438 249.375 122.933594 C 246.40625 119.96875 242.609375 118.957031 240.894531 120.671875 " fill-opacity="1" fill-rule="nonzero"/><path fill="#653031" d="M 190.046875 165.238281 C 186.039062 165.238281 182.773438 163.777344 180.347656 160.894531 C 179.914062 160.382812 179.980469 159.617188 180.496094 159.183594 C 181.007812 158.75 181.777344 158.816406 182.207031 159.332031 C 184.152344 161.636719 186.789062 162.808594 190.046875 162.808594 C 193.277344 162.808594 195.863281 161.65625 197.734375 159.382812 C 198.160156 158.863281 198.925781 158.789062 199.445312 159.214844 C 199.964844 159.640625 200.039062 160.410156 199.613281 160.925781 C 197.261719 163.789062 194.042969 165.238281 190.046875 165.238281 " fill-opacity="1" fill-rule="nonzero"/><path fill="#f45156" d="M 174.734375 152.238281 C 174.734375 154.949219 171.238281 157.148438 166.921875 157.148438 C 162.605469 157.148438 159.105469 154.949219 159.105469 152.238281 C 159.105469 149.527344 162.605469 147.332031 166.921875 147.332031 C 171.238281 147.332031 174.734375 149.527344 174.734375 152.238281 " fill-opacity="1" fill-rule="nonzero"/><path fill="#f45156" d="M 220.84375 152.238281 C 220.84375 154.949219 217.347656 157.148438 213.03125 157.148438 C 208.714844 157.148438 205.214844 154.949219 205.214844 152.238281 C 205.214844 149.527344 208.714844 147.332031 213.03125 147.332031 C 217.347656 147.332031 220.84375 149.527344 220.84375 152.238281 " fill-opacity="1" fill-rule="nonzero"/><path fill="#ffffff" d="M 215.9375 124.695312 C 205.574219 124.695312 197.144531 133.121094 197.144531 143.476562 C 197.144531 153.832031 205.574219 162.253906 215.9375 162.253906 C 226.300781 162.253906 234.734375 153.832031 234.734375 143.476562 C 234.734375 133.121094 226.300781 124.695312 215.9375 124.695312 Z M 215.9375 163.875 C 204.679688 163.875 195.523438 154.722656 195.523438 143.476562 C 195.523438 132.226562 204.679688 123.074219 215.9375 123.074219 C 227.195312 123.074219 236.355469 132.226562 236.355469 143.476562 C 236.355469 154.722656 227.195312 163.875 215.9375 163.875 " fill-opacity="1" fill-rule="nonzero"/><path fill="#ffffff" d="M 164.011719 124.695312 C 153.652344 124.695312 145.21875 133.121094 145.21875 143.476562 C 145.21875 153.832031 153.652344 162.253906 164.011719 162.253906 C 174.375 162.253906 182.804688 153.832031 182.804688 143.476562 C 182.804688 133.121094 174.375 124.695312 164.011719 124.695312 Z M 164.011719 163.875 C 152.753906 163.875 143.597656 154.722656 143.597656 143.476562 C 143.597656 132.226562 152.753906 123.074219 164.011719 123.074219 C 175.269531 123.074219 184.429688 132.226562 184.429688 143.476562 C 184.429688 154.722656 175.269531 163.875 164.011719 163.875 " fill-opacity="1" fill-rule="nonzero"/><path fill="#ffcfd7" d="M 150.339844 139.179688 C 150.246094 139.179688 150.148438 139.167969 150.058594 139.132812 C 149.636719 138.976562 149.421875 138.511719 149.578125 138.089844 C 151.554688 132.746094 156.289062 128.949219 161.933594 128.1875 C 162.378906 128.132812 162.785156 128.441406 162.847656 128.882812 C 162.90625 129.328125 162.59375 129.734375 162.152344 129.792969 C 157.105469 130.476562 152.871094 133.871094 151.101562 138.652344 C 150.980469 138.980469 150.667969 139.179688 150.339844 139.179688 " fill-opacity="1" fill-rule="nonzero"/><path fill="#ffcfd7" d="M 154.035156 138.90625 C 153.90625 138.90625 153.777344 138.875 153.65625 138.8125 C 153.257812 138.601562 153.109375 138.113281 153.316406 137.71875 C 154.964844 134.613281 157.703125 132.347656 160.640625 131.65625 C 161.070312 131.558594 161.511719 131.824219 161.617188 132.257812 C 161.71875 132.695312 161.449219 133.128906 161.011719 133.234375 C 158.558594 133.808594 156.160156 135.820312 154.75 138.476562 C 154.605469 138.75 154.324219 138.90625 154.035156 138.90625 " fill-opacity="1" fill-rule="nonzero"/><path fill="#ffcfd7" d="M 203.15625 135.933594 C 203.011719 135.933594 202.859375 135.894531 202.722656 135.808594 C 202.347656 135.566406 202.234375 135.066406 202.476562 134.6875 C 205.539062 129.878906 210.96875 127.167969 216.644531 127.617188 C 217.089844 127.652344 217.421875 128.042969 217.386719 128.488281 C 217.355469 128.933594 216.957031 129.265625 216.519531 129.234375 C 211.441406 128.839844 206.585938 131.257812 203.84375 135.558594 C 203.6875 135.800781 203.425781 135.933594 203.15625 135.933594 " fill-opacity="1" fill-rule="nonzero"/><path fill="#ffcfd7" d="M 206.828125 136.445312 C 206.644531 136.445312 206.457031 136.382812 206.308594 136.253906 C 205.964844 135.964844 205.921875 135.457031 206.210938 135.113281 C 208.476562 132.425781 211.628906 130.789062 214.648438 130.734375 C 215.097656 130.722656 215.464844 131.082031 215.472656 131.53125 C 215.480469 131.976562 215.125 132.347656 214.675781 132.355469 C 212.160156 132.402344 209.390625 133.855469 207.449219 136.15625 C 207.289062 136.347656 207.058594 136.445312 206.828125 136.445312 " fill-opacity="1" fill-rule="nonzero"/><path fill="#ffffff" d="M 195.492188 145.523438 C 193.8125 143.671875 191.984375 142.714844 190.066406 142.675781 C 190.027344 142.675781 189.988281 142.675781 189.949219 142.675781 C 186.847656 142.675781 184.460938 145.0625 184.4375 145.089844 L 183.277344 143.957031 C 183.390625 143.835938 186.152344 141.054688 189.945312 141.054688 C 189.992188 141.054688 190.035156 141.054688 190.082031 141.054688 C 192.46875 141.097656 194.695312 142.234375 196.695312 144.433594 L 195.492188 145.523438 " fill-opacity="1" fill-rule="nonzero"/><path fill="#653031" d="M 296.742188 137.152344 C 294.382812 141.234375 290.066406 143.15625 287.101562 141.449219 C 284.136719 139.734375 283.644531 135.039062 286 130.957031 C 288.359375 126.875 292.675781 124.953125 295.644531 126.664062 C 298.609375 128.375 299.101562 133.070312 296.742188 137.152344 " fill-opacity="1" fill-rule="nonzero"/><path fill="#653031" d="M 263.824219 160.777344 C 263.402344 160.777344 262.988281 160.753906 262.574219 160.710938 C 254.960938 159.90625 251.84375 152.125 251.714844 151.792969 C 251.308594 150.75 251.824219 149.578125 252.867188 149.171875 C 253.910156 148.765625 255.082031 149.277344 255.492188 150.316406 C 255.539062 150.433594 257.902344 156.160156 263.027344 156.683594 C 267.667969 157.152344 275.871094 153.667969 288.601562 134.355469 C 289.214844 133.421875 290.472656 133.160156 291.410156 133.777344 C 292.34375 134.394531 292.601562 135.648438 291.984375 136.585938 C 281.398438 152.648438 271.933594 160.777344 263.824219 160.777344 " fill-opacity="1" fill-rule="nonzero"/><path fill="#653031" d="M 120.136719 220.75 C 117.269531 217.007812 117.152344 212.289062 119.871094 210.207031 C 122.589844 208.128906 127.121094 209.480469 129.988281 213.222656 C 132.851562 216.964844 132.972656 221.683594 130.253906 223.765625 C 127.53125 225.84375 123.003906 224.496094 120.136719 220.75 " fill-opacity="1" fill-rule="nonzero"/><path fill="#653031" d="M 122.574219 217.207031 C 121.679688 217.207031 120.859375 216.609375 120.617188 215.703125 C 113.375 188.640625 130.933594 170.339844 131.683594 169.570312 C 132.46875 168.773438 133.753906 168.761719 134.554688 169.542969 C 135.351562 170.324219 135.363281 171.605469 134.582031 172.40625 C 134.414062 172.578125 117.902344 189.882812 124.535156 214.65625 C 124.824219 215.738281 124.183594 216.847656 123.101562 217.136719 C 122.925781 217.183594 122.75 217.207031 122.574219 217.207031 " fill-opacity="1" fill-rule="nonzero"/><path fill="#653031" d="M 167.59375 145.246094 C 167.425781 145.246094 167.253906 145.242188 167.082031 145.234375 C 162.820312 145.019531 159.148438 142.132812 157.941406 138.046875 C 157.75 137.40625 158.117188 136.726562 158.761719 136.539062 C 159.402344 136.347656 160.082031 136.714844 160.273438 137.359375 C 161.1875 140.457031 163.972656 142.644531 167.199219 142.804688 C 170.347656 142.953125 173.222656 141.210938 174.519531 138.34375 C 174.800781 137.730469 175.519531 137.460938 176.128906 137.738281 C 176.742188 138.015625 177.015625 138.734375 176.738281 139.347656 C 175.09375 142.972656 171.542969 145.246094 167.59375 145.246094 " fill-opacity="1" fill-rule="nonzero"/><path fill="#653031" d="M 214.148438 145.324219 C 210.304688 145.324219 206.746094 143.117188 205.070312 139.597656 C 204.78125 138.992188 205.039062 138.265625 205.648438 137.976562 C 206.253906 137.691406 206.980469 137.945312 207.269531 138.554688 C 208.65625 141.46875 211.75 143.195312 214.964844 142.851562 C 218.09375 142.511719 220.660156 140.335938 221.496094 137.300781 C 221.675781 136.65625 222.34375 136.277344 222.992188 136.453125 C 223.636719 136.628906 224.019531 137.300781 223.839844 137.945312 C 222.738281 141.949219 219.355469 144.820312 215.222656 145.265625 C 214.863281 145.304688 214.503906 145.324219 214.148438 145.324219 " fill-opacity="1" fill-rule="nonzero"/><path fill="#46accc" d="M 234.5 84.140625 C 229.945312 64.589844 204.324219 47.902344 178.484375 49.6875 C 125.710938 53.332031 102.175781 100.113281 102.175781 100.113281 L 121.746094 113.898438 C 121.746094 113.898438 150.339844 70.144531 181.277344 64.746094 C 203.792969 60.820312 210.269531 67.359375 220.84375 75.839844 C 221.453125 74.992188 234.5 84.140625 234.5 84.140625 " fill-opacity="1" fill-rule="nonzero"/><path fill="#219bb7" d="M 123.15625 114.699219 L 120.335938 113.097656 C 120.632812 112.578125 127.734375 100.1875 140.207031 87.601562 C 156.828125 70.832031 175.042969 61.964844 192.875 61.964844 C 192.878906 61.964844 192.875 61.964844 192.878906 61.964844 C 218.113281 61.964844 225.824219 83.644531 226.257812 84.5625 L 223.667969 85.339844 C 223.628906 83.546875 216.511719 64.335938 195.105469 64.746094 C 153.996094 65.539062 123.4375 114.203125 123.15625 114.699219 " fill-opacity="1" fill-rule="nonzero"/><path fill="#ffb808" d="M 124.613281 132.6875 C 126.980469 117.070312 119.746094 103.023438 108.457031 101.316406 L 100.507812 100.113281 L 100.425781 100.648438 C 90.644531 101.777344 81.820312 112.152344 79.734375 125.894531 C 77.652344 139.636719 83.007812 152.160156 92.015625 156.132812 L 91.933594 156.667969 L 101.101562 158.054688 L 101.109375 158 C 111.964844 158.75 122.332031 147.738281 124.613281 132.6875 " fill-opacity="1" fill-rule="nonzero"/><path fill="#ffdc48" d="M 116.664062 131.484375 C 114.296875 147.101562 103.226562 158.375 91.933594 156.667969 C 80.644531 154.960938 73.410156 140.914062 75.777344 125.296875 C 78.144531 109.679688 89.21875 98.40625 100.507812 100.113281 C 111.796875 101.820312 119.035156 115.867188 116.664062 131.484375 " fill-opacity="1" fill-rule="nonzero"/><path fill="#ffffff" d="M 98.511719 149.800781 C 98.175781 149.800781 97.859375 149.585938 97.746094 149.25 C 97.601562 148.824219 97.832031 148.367188 98.257812 148.222656 C 104.398438 146.171875 109.390625 139.082031 110.679688 130.578125 C 110.746094 130.136719 111.15625 129.832031 111.601562 129.898438 C 112.046875 129.964844 112.347656 130.378906 112.28125 130.820312 C 110.90625 139.90625 105.476562 147.519531 98.769531 149.761719 C 98.683594 149.789062 98.597656 149.800781 98.511719 149.800781 " fill-opacity="1" fill-rule="nonzero"/><path fill="#ffffff" d="M 111.597656 123.648438 C 111.195312 123.648438 110.847656 123.347656 110.796875 122.9375 C 110.390625 119.730469 109.390625 116.75 107.90625 114.316406 C 107.671875 113.9375 107.792969 113.4375 108.175781 113.203125 C 108.558594 112.96875 109.058594 113.089844 109.289062 113.472656 C 110.894531 116.097656 111.96875 119.304688 112.40625 122.738281 C 112.460938 123.179688 112.148438 123.585938 111.703125 123.640625 C 111.667969 123.644531 111.632812 123.648438 111.597656 123.648438 " fill-opacity="1" fill-rule="nonzero"/><path fill="#e2f7f6" d="M 252.851562 68.132812 C 252.851562 67.910156 252.851562 67.691406 252.851562 67.472656 C 252.851562 62.375 252.851562 57.277344 252.851562 52.179688 C 252.851562 50.085938 253.882812 48.652344 255.878906 47.988281 C 260.484375 46.445312 265.097656 44.914062 269.707031 43.375 C 271.902344 42.644531 273.644531 43.882812 273.648438 46.203125 C 273.660156 52.421875 273.652344 58.636719 273.652344 64.851562 C 274.214844 68.492188 270.042969 70.542969 267.101562 69.671875 C 264.425781 68.875 263.671875 66.09375 265.605469 64.085938 C 266.710938 62.941406 268.09375 62.425781 269.679688 62.425781 C 269.84375 62.425781 270.011719 62.425781 270.226562 62.425781 C 270.226562 58.378906 270.226562 54.359375 270.226562 50.269531 C 269.585938 50.488281 268.964844 50.695312 268.351562 50.914062 C 264.503906 52.269531 260.65625 53.632812 256.804688 54.972656 C 256.363281 55.125 256.214844 55.332031 256.21875 55.804688 C 256.238281 61.023438 256.234375 66.238281 256.242188 71.453125 C 256.242188 72.210938 256.015625 72.886719 255.585938 73.5 C 254.191406 75.488281 251.167969 76.261719 248.984375 75.199219 C 247.105469 74.277344 246.523438 72.222656 247.699219 70.496094 C 248.78125 68.914062 250.371094 68.277344 252.234375 68.210938 C 252.386719 68.207031 252.539062 68.210938 252.691406 68.207031 C 252.722656 68.207031 252.75 68.179688 252.851562 68.132812 " fill-opacity="1" fill-rule="nonzero"/><g clip-path="url(#5dd4e8bccf)"><path fill="#d1f2f2" d="M 291.074219 110.226562 C 291.195312 110.042969 291.316406 109.859375 291.441406 109.675781 C 294.273438 105.441406 297.109375 101.199219 299.945312 96.964844 C 301.109375 95.222656 302.761719 94.601562 304.792969 95.15625 C 309.480469 96.433594 314.164062 97.71875 318.851562 99 C 321.085938 99.609375 321.847656 101.609375 320.558594 103.539062 C 317.109375 108.714844 313.648438 113.878906 310.195312 119.046875 C 308.636719 122.382812 304.023438 121.777344 302.066406 119.417969 C 300.285156 117.269531 301.203125 114.539062 303.929688 113.941406 C 305.484375 113.605469 306.921875 113.941406 308.238281 114.820312 C 308.378906 114.914062 308.515625 115.007812 308.691406 115.125 C 310.941406 111.761719 313.175781 108.421875 315.453125 105.019531 C 314.796875 104.847656 314.167969 104.675781 313.535156 104.515625 C 309.582031 103.503906 305.628906 102.503906 301.675781 101.480469 C 301.226562 101.363281 300.988281 101.449219 300.726562 101.84375 C 297.84375 106.195312 294.9375 110.527344 292.042969 114.871094 C 291.625 115.5 291.0625 115.9375 290.363281 116.207031 C 288.097656 117.082031 285.152344 116.050781 283.929688 113.953125 C 282.878906 112.144531 283.539062 110.113281 285.476562 109.332031 C 287.253906 108.617188 288.929688 108.972656 290.519531 109.949219 C 290.648438 110.027344 290.769531 110.121094 290.898438 110.199219 C 290.925781 110.214844 290.964844 110.210938 291.074219 110.226562 " fill-opacity="1" fill-rule="nonzero"/></g><path fill="#e2f7f6" d="M 294.453125 74.507812 C 294.285156 74.363281 294.171875 74.273438 294.066406 74.175781 C 292.90625 73.109375 291.539062 72.554688 289.960938 72.484375 C 286.464844 72.328125 283.535156 75.125 283.433594 78.722656 C 283.339844 82.09375 286.183594 85.054688 289.570312 85.113281 C 292.554688 85.164062 295.058594 83.308594 295.875 80.410156 C 297.539062 74.511719 299.1875 68.605469 300.84375 62.699219 C 300.894531 62.523438 300.945312 62.34375 300.992188 62.167969 C 301.078125 62.148438 301.164062 62.125 301.246094 62.101562 C 301.292969 62.28125 301.308594 62.476562 301.390625 62.632812 C 301.742188 63.28125 302.09375 63.9375 302.488281 64.558594 C 302.929688 65.257812 303.785156 65.445312 304.480469 65.039062 C 305.148438 64.648438 305.421875 63.804688 305.039062 63.109375 C 303.984375 61.195312 302.921875 59.285156 301.816406 57.394531 C 301.261719 56.445312 299.941406 56.441406 299.347656 57.355469 C 299.199219 57.582031 299.125 57.863281 299.050781 58.128906 C 297.574219 63.382812 296.101562 68.640625 294.628906 73.894531 C 294.574219 74.078125 294.523438 74.261719 294.453125 74.507812 " fill-opacity="1" fill-rule="nonzero"/><path fill="#e2f7f6" d="M 294.453125 74.507812 C 294.523438 74.261719 294.574219 74.078125 294.628906 73.894531 C 296.101562 68.640625 297.574219 63.382812 299.050781 58.128906 C 299.125 57.863281 299.199219 57.582031 299.347656 57.355469 C 299.941406 56.441406 301.261719 56.445312 301.816406 57.394531 C 302.921875 59.285156 303.984375 61.195312 305.039062 63.109375 C 305.421875 63.804688 305.148438 64.648438 304.480469 65.039062 C 303.785156 65.445312 302.929688 65.257812 302.488281 64.558594 C 302.09375 63.9375 301.742188 63.28125 301.390625 62.632812 C 301.308594 62.476562 301.292969 62.28125 301.246094 62.101562 C 301.164062 62.125 301.078125 62.148438 300.992188 62.167969 C 300.945312 62.34375 300.894531 62.523438 300.84375 62.699219 C 299.1875 68.605469 297.539062 74.511719 295.875 80.410156 C 295.058594 83.308594 292.554688 85.164062 289.570312 85.113281 C 286.183594 85.054688 283.339844 82.09375 283.433594 78.722656 C 283.535156 75.125 286.464844 72.328125 289.960938 72.484375 C 291.539062 72.554688 292.90625 73.109375 294.066406 74.175781 C 294.171875 74.273438 294.285156 74.363281 294.453125 74.507812 " fill-opacity="1" fill-rule="nonzero"/><path fill="#d1f2f2" d="M 103.636719 49.804688 C 103.636719 49.804688 105.363281 37.492188 114.941406 42.101562 C 124.992188 46.941406 111.089844 63.09375 111.089844 63.09375 C 111.089844 63.09375 87.667969 64.957031 91.917969 52.480469 C 94.773438 44.109375 103.636719 49.804688 103.636719 49.804688 " fill-opacity="1" fill-rule="nonzero"/><g fill="#0097b2" fill-opacity="1"><g transform="translate(79.07761, 300.436246)"><g><path d="M 32.261719 -21.976562 C 31.777344 -23.050781 31.4375 -24.332031 31.121094 -25.9375 C 30.78125 -27.46875 30.46875 -29.074219 30.175781 -30.753906 C 29.785156 -32.386719 29.316406 -34.042969 28.851562 -35.695312 C 28.382812 -37.351562 27.691406 -38.828125 26.953125 -40.15625 C 26.210938 -41.480469 25.246094 -42.628906 24.183594 -43.472656 C 23.042969 -44.34375 21.683594 -44.785156 20.125 -44.871094 C 19.773438 -44.816406 19.621094 -44.867188 19.570312 -44.96875 C 19.011719 -45.3125 18.535156 -45.386719 18.007812 -45.304688 C 17.457031 -45.148438 16.980469 -44.96875 16.503906 -44.789062 C 16.101562 -44.585938 15.730469 -44.203125 15.582031 -43.75 C 15.4375 -43.296875 15.265625 -42.769531 15.167969 -42.214844 C 14.996094 -41.683594 14.902344 -41.128906 14.804688 -40.578125 C 14.710938 -40.023438 14.640625 -39.542969 14.542969 -39.242188 C 13.949219 -37.929688 13.40625 -36.769531 12.789062 -35.632812 C 12.09375 -34.519531 11.527344 -33.285156 11.035156 -32.023438 C 10.246094 -30.105469 9.632812 -28.214844 9.046875 -26.398438 L 7.210938 -20.726562 C 6.964844 -19.96875 6.570312 -19.011719 6.132812 -17.648438 C 5.613281 -16.3125 5.074219 -14.902344 4.585938 -13.386719 C 4.09375 -11.875 3.652344 -10.515625 3.214844 -9.152344 C 2.773438 -7.792969 2.605469 -6.761719 2.636719 -6.082031 C 2.539062 -2.9375 3.117188 -0.078125 4.445312 2.527344 C 5.699219 5.105469 7.703125 7.171875 10.535156 8.757812 C 10.9375 9.054688 11.46875 9.226562 12.121094 9.269531 C 12.75 9.390625 13.328125 9.410156 13.957031 9.28125 C 14.585938 9.148438 15.136719 8.992188 15.660156 8.664062 C 16.1875 8.332031 16.558594 7.949219 16.757812 7.347656 C 17.144531 5.882812 17.359375 4.449219 17.421875 2.964844 C 17.484375 1.480469 17.699219 0.046875 18.011719 -1.4375 C 18.253906 -2.699219 18.640625 -4.160156 19.179688 -5.824219 C 19.71875 -7.488281 20.304688 -9.300781 20.894531 -11.117188 C 21.480469 -12.933594 22.121094 -14.648438 22.683594 -16.386719 C 23.222656 -18.050781 23.710938 -19.5625 24.027344 -20.796875 C 24.023438 -21.300781 24.195312 -21.828125 24.492188 -22.234375 C 24.792969 -22.640625 25.039062 -23.144531 25.285156 -23.648438 C 25.285156 -23.648438 25.410156 -23.777344 25.660156 -24.03125 C 25.738281 -23.753906 25.914062 -23.527344 26.015625 -23.328125 C 26.121094 -23.128906 26.296875 -22.902344 26.398438 -22.703125 C 26.835938 -21.726562 27.269531 -20.75 27.632812 -19.796875 C 27.992188 -18.847656 28.351562 -17.894531 28.6875 -16.867188 C 28.816406 -16.488281 28.945312 -16.113281 29.175781 -15.789062 C 29.402344 -15.464844 29.679688 -15.289062 30.183594 -15.296875 C 30.261719 -15.269531 30.335938 -15.246094 30.410156 -15.222656 C 30.460938 -15.121094 30.511719 -15.023438 30.664062 -14.972656 C 31.296875 -14.351562 31.902344 -14.152344 32.632812 -14.335938 C 33.257812 -14.46875 33.882812 -14.851562 34.480469 -15.40625 C 35.003906 -15.992188 35.550781 -16.648438 36.023438 -17.332031 L 37.242188 -19.027344 C 38.507812 -20.871094 39.898438 -22.59375 41.445312 -24.265625 C 42.988281 -25.941406 44.457031 -27.636719 45.847656 -29.359375 C 45.636719 -27.921875 45.195312 -26.5625 44.601562 -25.25 C 43.933594 -23.960938 43.417969 -22.625 43.128906 -21.214844 C 42.8125 -19.980469 42.523438 -18.820312 42.304688 -17.636719 C 42.089844 -16.453125 41.796875 -15.296875 41.582031 -14.113281 C 41.042969 -12.449219 40.457031 -10.382812 39.75 -7.9375 C 38.96875 -5.515625 38.210938 -2.921875 37.378906 -0.351562 C 36.546875 2.222656 35.714844 4.792969 34.929688 7.214844 C 34.148438 9.632812 33.5625 11.699219 33.121094 13.3125 C 32.878906 14.070312 32.484375 15.277344 31.996094 16.792969 C 31.507812 18.304688 31.070312 19.917969 30.707031 21.554688 C 30.316406 23.265625 30.082031 24.777344 30.117188 26.210938 C 30.128906 27.71875 30.566406 28.695312 31.453125 29.316406 C 31.554688 29.515625 31.757812 29.664062 31.984375 29.738281 C 32.109375 29.863281 32.3125 30.011719 32.589844 30.183594 C 32.894531 30.28125 33.121094 30.355469 33.320312 30.253906 C 34.800781 29.8125 35.621094 28.824219 35.808594 27.214844 C 35.824219 26.132812 35.9375 25.003906 36.15625 23.820312 C 36.371094 22.636719 36.636719 21.550781 37.058594 20.519531 C 37.71875 18.726562 38.53125 16.484375 39.386719 13.835938 C 40.242188 11.1875 41.125 8.464844 42.054688 5.59375 C 42.886719 2.769531 43.691406 0.0234375 44.472656 -2.648438 C 45.179688 -5.34375 45.761719 -7.664062 46.222656 -9.601562 C 46.992188 -13.53125 47.9375 -17.484375 48.960938 -21.417969 C 49.90625 -25.371094 51.457031 -29.128906 53.460938 -32.742188 C 53.609375 -32.945312 53.683594 -33.171875 53.757812 -33.398438 C 53.832031 -33.625 53.90625 -33.851562 54.003906 -34.15625 C 54.003906 -34.15625 54.226562 -34.585938 54.746094 -35.417969 C 55.191406 -36.277344 55.710938 -37.109375 56.355469 -38.070312 C 57.003906 -39.03125 57.523438 -39.867188 58.042969 -40.703125 C 58.539062 -41.460938 58.835938 -41.863281 58.886719 -42.015625 C 59.035156 -42.46875 59.027344 -42.972656 58.746094 -43.648438 C 58.441406 -44.25 57.980469 -44.898438 57.476562 -45.398438 C 56.890625 -45.921875 56.335938 -46.265625 55.730469 -46.464844 C 55.125 -46.660156 54.574219 -46.503906 54.277344 -46.097656 C 54.027344 -45.84375 53.828125 -45.492188 53.65625 -45.214844 C 53.480469 -44.933594 53.308594 -44.65625 53.132812 -44.378906 C 53.085938 -44.226562 52.8125 -43.898438 52.441406 -43.265625 C 52.042969 -42.558594 51.546875 -41.800781 51.027344 -40.96875 C 50.507812 -40.132812 49.984375 -39.296875 49.464844 -38.464844 C 48.871094 -37.65625 48.398438 -36.972656 48.097656 -36.566406 C 46.753906 -34.996094 45.410156 -33.679688 43.859375 -32.507812 C 42.3125 -31.339844 40.765625 -30.167969 39.34375 -28.875 C 38.769531 -28.390625 38.292969 -27.960938 37.796875 -27.453125 C 37.296875 -26.945312 36.824219 -26.515625 36.402344 -25.984375 C 35.703125 -25.375 35.03125 -24.589844 34.433594 -23.777344 C 33.839844 -22.96875 33.0625 -22.382812 32.261719 -21.976562 Z M 32.261719 -21.976562 "/></g></g></g><g fill="#0097b2" fill-opacity="1"><g transform="translate(123.49228, 313.817083)"><g><path d="M 15.90625 -10.496094 C 15.980469 -10.882812 15.902344 -11.304688 15.761719 -11.820312 C 15.664062 -12.160156 15.632812 -12.410156 15.679688 -12.644531 C 15.628906 -13.222656 15.472656 -13.65625 15.222656 -14.03125 C 14.6875 -14.621094 14.125 -15.054688 13.4375 -15.269531 C 12.984375 -15.441406 12.53125 -15.609375 12.066406 -15.703125 C 11.597656 -15.792969 11.082031 -15.652344 10.632812 -15.414062 C 10.445312 -15.289062 10.195312 -15.257812 10.023438 -15.210938 C 9.761719 -15.101562 9.589844 -15.050781 9.480469 -14.910156 C 9.292969 -14.785156 9.214844 -14.800781 9.214844 -14.800781 C 8.5 -14.457031 7.957031 -14.15625 7.472656 -13.765625 C 6.914062 -13.390625 6.433594 -12.996094 5.871094 -12.621094 C 5.390625 -12.230469 4.988281 -11.820312 4.644531 -11.320312 C 4.226562 -10.835938 3.886719 -10.335938 3.640625 -9.898438 C 3.53125 -9.757812 3.40625 -9.539062 3.375 -9.382812 C 3.265625 -9.242188 3.160156 -9.101562 3.128906 -8.945312 C 1.980469 -7.226562 1.304688 -5.414062 1.0625 -3.355469 C 0.742188 -1.3125 1.015625 0.605469 1.789062 2.457031 C 2.210938 3.59375 2.824219 4.601562 3.640625 5.410156 C 4.453125 6.21875 5.296875 6.867188 6.359375 7.238281 C 7.40625 7.6875 8.417969 7.886719 9.574219 7.785156 C 10.726562 7.6875 11.769531 7.324219 12.886719 6.574219 C 14.007812 5.820312 14.832031 4.929688 15.449219 3.835938 C 15.976562 2.804688 16.734375 1.816406 17.730469 0.878906 C 18.210938 0.488281 18.566406 -0.0898438 18.875 -0.839844 C 19.183594 -1.589844 19.320312 -2.292969 19.304688 -3.023438 C 19.285156 -3.757812 19.171875 -4.425781 18.8125 -5.066406 C 18.449219 -5.703125 17.980469 -6.199219 17.308594 -6.492188 C 17.074219 -6.539062 16.855469 -6.664062 16.746094 -6.929688 C 16.339844 -7.332031 16.011719 -7.316406 15.78125 -6.953125 C 15.53125 -6.515625 15.472656 -6.207031 15.738281 -5.910156 C 16.679688 -4.105469 16.734375 -2.71875 15.863281 -1.59375 C 14.996094 -0.464844 13.691406 0.410156 12.101562 1.074219 C 11.199219 1.542969 10.140625 1.578125 8.96875 1.351562 C 8.5 1.257812 8.328125 0.902344 8.527344 0.292969 C 8.730469 -0.316406 9.039062 -1.066406 9.519531 -1.863281 C 9.996094 -2.660156 10.476562 -3.457031 10.941406 -4.175781 C 11.40625 -4.894531 11.734375 -5.316406 11.933594 -5.519531 C 11.933594 -5.519531 11.949219 -5.597656 12.136719 -5.722656 C 12.339844 -5.925781 12.539062 -6.132812 12.742188 -6.335938 C 12.929688 -6.460938 13.207031 -6.648438 13.566406 -6.820312 C 13.660156 -6.882812 13.753906 -6.945312 13.863281 -7.085938 C 13.890625 -7.242188 13.984375 -7.304688 14.171875 -7.433594 C 14.28125 -7.574219 14.390625 -7.714844 14.496094 -7.855469 C 14.527344 -8.011719 14.621094 -8.074219 14.808594 -8.199219 C 15.117188 -8.542969 15.351562 -8.902344 15.425781 -9.292969 C 15.503906 -9.683594 15.65625 -10.058594 15.90625 -10.496094 Z M 15.90625 -10.496094 "/></g></g></g><g fill="#0097b2" fill-opacity="1"><g transform="translate(145.113147, 317.907372)"><g><path d="M 19.628906 -11.695312 C 19.558594 -11.78125 19.566406 -11.859375 19.578125 -11.941406 C 19.578125 -11.941406 19.507812 -12.027344 19.527344 -12.1875 C 19.378906 -12.285156 19.308594 -12.371094 19.167969 -12.546875 C 19.027344 -12.726562 18.890625 -12.902344 18.828125 -13.070312 C 18.542969 -13.34375 18.3125 -13.449219 17.980469 -13.328125 C 16.917969 -13.132812 15.84375 -12.859375 14.78125 -12.664062 C 13.707031 -12.390625 12.84375 -11.851562 12.109375 -11.058594 L 11.550781 -10.40625 C 11.199219 -10.125 10.960938 -10.152344 10.9375 -10.636719 C 10.878906 -10.804688 10.898438 -10.960938 10.914062 -11.121094 C 10.933594 -11.277344 10.882812 -11.523438 10.902344 -11.683594 C 10.929688 -11.917969 10.957031 -12.15625 10.984375 -12.390625 C 11.015625 -12.628906 11.042969 -12.867188 11 -13.191406 C 10.757812 -13.859375 10.367188 -14.625 9.839844 -15.570312 C 9.300781 -16.433594 8.675781 -17.226562 7.960938 -17.953125 C 7.234375 -18.597656 6.414062 -19.09375 5.574219 -19.433594 C 4.722656 -19.695312 3.914062 -19.628906 3.050781 -19.089844 C 2.1875 -18.550781 1.953125 -17.9375 2.265625 -17.183594 C 2.375 -16.769531 2.332031 -16.375 2.292969 -16.058594 C 2.246094 -15.664062 2.199219 -15.269531 2.320312 -14.933594 C 2.273438 -14.539062 2.238281 -14.222656 2.199219 -13.910156 C 2.164062 -13.59375 2.117188 -13.199219 2.078125 -12.882812 C 1.984375 -12.09375 1.933594 -10.976562 1.785156 -9.714844 C 1.636719 -8.453125 1.558594 -7.101562 1.390625 -5.679688 C 1.222656 -4.257812 1.054688 -2.835938 0.90625 -1.574219 C 0.757812 -0.3125 0.558594 0.707031 0.386719 1.484375 C -0.0664062 3.273438 -0.121094 5.109375 0.304688 6.917969 C 0.652344 8.722656 1.679688 10.203125 3.480469 11.214844 L 4.984375 12.035156 C 5.429688 12.328125 5.984375 12.390625 6.652344 12.148438 C 6.652344 12.148438 6.730469 12.160156 6.808594 12.167969 C 7.039062 12.277344 7.285156 12.222656 7.539062 12.09375 C 7.792969 11.964844 8.050781 11.835938 8.304688 11.703125 C 8.480469 11.566406 8.738281 11.433594 8.921875 11.21875 C 9.101562 11.078125 9.207031 10.851562 9.3125 10.621094 C 9.449219 10.160156 9.503906 9.683594 9.480469 9.203125 C 9.457031 8.71875 9.355469 8.226562 9.097656 7.714844 C 8.828125 7.285156 8.722656 6.792969 8.867188 6.25 C 8.941406 5.617188 9.132812 4.679688 9.273438 3.496094 L 9.710938 -0.214844 C 9.859375 -1.480469 10 -2.664062 10.21875 -3.839844 C 10.4375 -5.011719 10.707031 -5.941406 11.097656 -6.535156 C 11.710938 -7.664062 12.472656 -8.695312 13.539062 -9.609375 C 14.609375 -10.523438 15.738281 -11.273438 16.925781 -11.851562 C 17.179688 -11.980469 17.417969 -11.953125 17.734375 -11.917969 C 18.335938 -11.605469 18.96875 -11.53125 19.628906 -11.695312 Z M 19.628906 -11.695312 "/></g></g></g><g fill="#0097b2" fill-opacity="1"><g transform="translate(166.561607, 320.279331)"><g><path d="M 8.492188 4.042969 C 9.429688 4.402344 10.378906 4.527344 11.335938 4.488281 C 12.292969 4.453125 13.101562 4.171875 13.921875 3.570312 C 14.089844 3.417969 14.332031 3.351562 14.488281 3.359375 L 15.714844 2.699219 C 16.203125 2.402344 16.773438 2.109375 17.34375 1.816406 C 17.914062 1.523438 18.484375 1.230469 18.976562 0.933594 C 19.464844 0.636719 19.875 0.417969 20.121094 0.269531 C 20.449219 0.046875 20.695312 -0.179688 20.949219 -0.488281 C 21.121094 -0.71875 21.378906 -1.183594 21.644531 -1.808594 C 21.652344 -1.96875 21.738281 -2.125 21.75 -2.363281 L 21.773438 -2.839844 C 21.804688 -3.554688 21.429688 -4.046875 20.808594 -4.394531 C 20.496094 -4.566406 20.183594 -4.660156 20.015625 -4.507812 C 19.773438 -4.359375 19.53125 -4.292969 19.285156 -4.144531 C 18.953125 -3.839844 18.703125 -3.613281 18.371094 -3.308594 C 18.039062 -3.007812 17.785156 -2.699219 17.539062 -2.472656 C 15.726562 -1.121094 14.015625 -0.242188 12.242188 0.234375 C 10.472656 0.710938 8.8125 0.476562 7.34375 -0.542969 C 6.410156 -0.984375 5.8125 -1.886719 5.472656 -3.175781 C 5.328125 -3.5 5.265625 -3.820312 5.277344 -4.058594 C 5.28125 -4.21875 5.289062 -4.375 5.375 -4.53125 C 5.464844 -4.6875 5.625 -4.757812 5.789062 -4.832031 C 5.949219 -4.902344 6.269531 -4.96875 6.675781 -5.109375 C 7.484375 -5.390625 8.296875 -5.753906 8.960938 -6.359375 C 9.625 -6.964844 10.207031 -7.578125 10.722656 -8.347656 C 11.230469 -9.042969 11.742188 -9.816406 12.253906 -10.589844 C 12.765625 -11.359375 13.277344 -12.132812 13.785156 -12.746094 C 14.207031 -13.285156 14.550781 -13.90625 14.742188 -14.613281 C 14.929688 -15.242188 15.199219 -15.945312 15.390625 -16.652344 C 15.492188 -17.125 15.519531 -17.683594 15.386719 -18.324219 C 15.257812 -18.96875 15.125 -19.53125 14.832031 -20.101562 C 14.535156 -20.589844 14.160156 -21.085938 13.695312 -21.425781 C 13.234375 -21.765625 12.691406 -22.027344 12.132812 -22.050781 L 11.339844 -22.085938 C 11.425781 -22.242188 11.511719 -22.398438 11.597656 -22.554688 C 11.605469 -22.710938 11.695312 -22.945312 11.867188 -23.179688 C 11.949219 -23.253906 11.875 -23.335938 11.722656 -23.503906 C 11.566406 -23.589844 11.488281 -23.59375 11.402344 -23.515625 C 11.164062 -23.527344 11.003906 -23.457031 10.921875 -23.378906 C 9.9375 -22.789062 9.035156 -22.113281 8.046875 -21.441406 C 7.558594 -21.144531 7.304688 -20.835938 7.214844 -20.601562 C 6.875 -20.140625 6.621094 -19.753906 6.363281 -19.367188 C 6.105469 -18.902344 5.847656 -18.515625 5.589844 -18.128906 C 5.339844 -17.824219 5.164062 -17.511719 4.988281 -17.121094 C 4.644531 -16.5 4.371094 -15.796875 4.027344 -15.175781 C 3.679688 -14.554688 3.328125 -13.855469 3.0625 -13.230469 C 2.695312 -12.132812 2.402344 -10.953125 2.027344 -9.695312 C 1.652344 -8.441406 1.519531 -7.253906 1.785156 -6.046875 C 1.894531 -4.929688 2.085938 -3.882812 2.355469 -2.839844 C 2.542969 -1.714844 2.898438 -0.746094 3.492188 0.238281 C 3.929688 1.050781 4.613281 1.800781 5.539062 2.476562 C 6.460938 3.15625 7.394531 3.675781 8.492188 4.042969 Z M 6.582031 -13.628906 L 6.933594 -14.410156 C 7.027344 -14.644531 7.195312 -14.875 7.363281 -15.105469 C 7.453125 -15.261719 7.535156 -15.335938 7.621094 -15.492188 C 7.628906 -15.652344 7.710938 -15.726562 7.796875 -15.882812 C 8.140625 -16.421875 8.5625 -16.960938 8.910156 -17.582031 C 9.25 -18.125 9.59375 -18.664062 10.019531 -19.28125 C 10.28125 -19.75 10.527344 -19.976562 10.6875 -19.96875 C 10.847656 -19.960938 11.078125 -19.792969 11.457031 -19.378906 C 11.753906 -18.886719 11.882812 -18.242188 11.695312 -17.617188 C 11.429688 -16.992188 11.082031 -16.371094 10.578125 -15.757812 C 10.066406 -14.984375 9.554688 -14.289062 8.972656 -13.679688 C 8.304688 -12.992188 7.71875 -12.382812 7.136719 -11.773438 C 6.96875 -11.621094 6.886719 -11.546875 6.804688 -11.46875 C 6.640625 -11.398438 6.558594 -11.320312 6.472656 -11.167969 C 6.476562 -11.324219 6.402344 -11.410156 6.242188 -11.414062 C 6.199219 -12.214844 6.3125 -12.925781 6.582031 -13.628906 Z M 6.582031 -13.628906 "/></g></g></g><g fill="#0097b2" fill-opacity="1"><g transform="translate(186.346809, 320.977185)"><g/></g></g><g fill="#0097b2" fill-opacity="1"><g transform="translate(199.226161, 320.820305)"><g><path d="M 11.132812 -28.40625 L 11.289062 -28.417969 C 10.820312 -30.617188 10.269531 -32.890625 9.628906 -35.234375 C 8.996094 -37.503906 8.292969 -39.6875 7.515625 -41.707031 C 7.042969 -42.789062 6.503906 -43.707031 5.804688 -44.617188 C 5.105469 -45.523438 4.484375 -46.4375 3.785156 -47.347656 C 3.097656 -48.097656 2.261719 -48.675781 1.128906 -48.917969 C 0.804688 -48.976562 0.402344 -49.027344 0.0820312 -49.085938 C -0.234375 -49.066406 -0.558594 -49.121094 -0.886719 -49.257812 C -1.9375 -49.507812 -2.558594 -49.226562 -2.808594 -48.253906 C -2.945312 -47.925781 -3.011719 -47.679688 -2.992188 -47.441406 C -3.058594 -47.199219 -3.039062 -46.960938 -3.023438 -46.722656 C -2.828125 -43.867188 -2.628906 -40.933594 -2.417969 -37.839844 C -2.28125 -34.664062 -2.152344 -31.566406 -1.933594 -28.390625 C -1.71875 -25.21875 -1.503906 -22.046875 -1.210938 -18.960938 C -0.996094 -15.789062 -0.558594 -12.871094 -0.0507812 -10.117188 C -0.0078125 -9.480469 0.0273438 -8.925781 0.0664062 -8.371094 C 0.105469 -7.816406 -0.015625 -7.25 -0.222656 -6.757812 C -0.371094 -6.589844 -0.351562 -6.351562 -0.34375 -6.191406 C -0.324219 -5.953125 -0.234375 -5.800781 -0.144531 -5.648438 C -0.117188 -5.25 -0.0117188 -4.859375 0.167969 -4.554688 C 0.347656 -4.246094 0.453125 -3.855469 0.476562 -3.539062 C 0.5625 -2.269531 0.964844 -1.023438 1.847656 0.191406 C 2.726562 1.40625 3.757812 2.53125 4.945312 3.566406 C 6.128906 4.601562 7.457031 5.386719 8.855469 6.007812 C 10.171875 6.636719 11.46875 6.945312 12.585938 6.949219 C 13.699219 6.953125 14.550781 6.578125 15.214844 5.816406 C 15.886719 5.132812 16.195312 3.835938 16.074219 2.011719 C 16.046875 1.617188 16.019531 1.21875 15.984375 0.742188 C 15.960938 0.347656 15.773438 -0.0390625 15.355469 -0.328125 C 15.277344 -0.324219 15.269531 -0.402344 15.257812 -0.5625 C 15.0625 -1.105469 14.945312 -1.65625 14.828125 -2.207031 C 14.636719 -2.671875 14.519531 -3.21875 14.476562 -3.855469 C 14.121094 -5.582031 13.832031 -7.476562 13.527344 -9.605469 C 13.222656 -11.738281 12.917969 -13.867188 12.6875 -16.082031 C 12.378906 -18.292969 12.152344 -20.429688 11.929688 -22.566406 C 11.628906 -24.617188 11.414062 -26.59375 11.132812 -28.40625 Z M 11.132812 -28.40625 "/></g></g></g><g fill="#0097b2" fill-opacity="1"><g transform="translate(218.649394, 319.462058)"><g><path d="M 10.152344 -7.507812 L 10.320312 -7.449219 C 10.421875 -7.304688 10.535156 -7.082031 10.582031 -6.765625 C 10.769531 -4.382812 11.035156 -2.011719 11.378906 0.347656 C 11.644531 2.71875 11.820312 5.023438 12.007812 7.40625 C 12.007812 8.53125 12.101562 9.722656 12.285156 10.980469 C 12.390625 12.25 12.878906 13.382812 13.65625 14.316406 C 14.039062 14.742188 14.503906 15.15625 15.121094 15.546875 C 15.742188 15.9375 16.429688 16.242188 17.183594 16.453125 C 17.855469 16.675781 18.609375 16.886719 19.34375 16.941406 C 19.992188 17.003906 20.636719 16.992188 21.265625 16.902344 C 22.027344 16.628906 22.609375 16.222656 22.992188 15.523438 C 23.359375 14.746094 23.324219 13.949219 23.039062 13.105469 C 22.691406 12.355469 22.40625 11.511719 22.132812 10.75 C 21.851562 9.90625 21.710938 8.960938 21.574219 8.019531 C 21.4375 7.074219 21.390625 6.199219 21.332031 5.242188 C 21 3.523438 20.65625 1.726562 20.402344 -0.00390625 C 20.074219 -1.722656 19.742188 -3.441406 19.410156 -5.160156 C 18.402344 -10.960938 17.789062 -16.816406 17.515625 -22.558594 C 17.238281 -28.300781 16.875 -34.113281 16.417969 -39.992188 C 16.28125 -40.9375 16.152344 -41.800781 15.882812 -42.566406 C 15.609375 -43.328125 15.191406 -43.992188 14.707031 -44.5625 C 14.234375 -45.054688 13.625 -45.367188 12.949219 -45.589844 C 12.195312 -45.800781 11.320312 -45.753906 10.320312 -45.449219 C 9.871094 -45.222656 9.523438 -44.851562 9.421875 -44.433594 C 9.457031 -44.199219 9.414062 -43.949219 9.4375 -43.792969 C 9.378906 -43.625 9.324219 -43.457031 9.347656 -43.296875 C 9.214844 -41.992188 9.097656 -40.609375 9.125 -39.328125 C 9.148438 -38.046875 9.019531 -36.742188 8.875 -35.515625 C 8.703125 -32.839844 8.691406 -30.1875 8.753906 -27.546875 C 8.828125 -24.828125 9.050781 -22.207031 9.363281 -19.523438 C 9.296875 -18.871094 8.9375 -18.574219 8.273438 -18.71875 C 6.867188 -18.996094 5.351562 -18.9375 3.722656 -18.539062 C 2.09375 -18.140625 0.847656 -17.316406 -0.0390625 -16.222656 C -0.84375 -15.140625 -1.324219 -14.027344 -1.554688 -12.867188 C -1.855469 -11.617188 -1.917969 -10.40625 -1.816406 -9.132812 C -1.609375 -7.71875 -1.109375 -6.503906 -0.265625 -5.664062 C 0.59375 -4.746094 1.597656 -3.929688 2.746094 -3.210938 C 3.464844 -2.675781 4.21875 -2.464844 5.007812 -2.578125 C 5.804688 -2.613281 6.578125 -2.808594 7.320312 -3.238281 C 7.980469 -3.65625 8.554688 -4.140625 9.089844 -4.859375 C 9.550781 -5.570312 9.851562 -6.257812 9.972656 -7.078125 C 9.972656 -7.078125 10.039062 -7.167969 10.027344 -7.246094 C 10.027344 -7.246094 10.015625 -7.324219 10.152344 -7.507812 Z M 4.089844 -7.746094 C 3.800781 -7.542969 3.609375 -7.757812 3.492188 -8.542969 C 3.414062 -9.09375 3.332031 -9.644531 3.398438 -10.296875 C 3.394531 -10.859375 3.394531 -11.421875 3.472656 -11.996094 C 3.492188 -12.398438 3.59375 -12.816406 3.679688 -13.308594 C 3.78125 -13.726562 3.882812 -14.144531 4.136719 -14.582031 C 4.136719 -14.582031 4.207031 -14.671875 4.273438 -14.761719 C 4.351562 -14.773438 4.417969 -14.863281 4.472656 -15.03125 C 5.070312 -15.359375 5.484375 -15.261719 5.710938 -14.8125 C 5.929688 -13.878906 6.054688 -13.015625 6.011719 -12.203125 C 5.96875 -11.394531 5.847656 -10.574219 5.558594 -9.808594 C 5.445312 -9.472656 5.257812 -9.121094 5 -8.683594 C 4.675781 -8.152344 4.394531 -7.871094 4.089844 -7.746094 Z M 4.089844 -7.746094 "/></g></g></g><g fill="#0097b2" fill-opacity="1"><g transform="translate(242.994927, 315.681264)"><g><path d="M 9.257812 1.652344 C 10.257812 1.753906 11.207031 1.621094 12.121094 1.332031 C 13.03125 1.042969 13.738281 0.558594 14.371094 -0.238281 C 14.492188 -0.425781 14.707031 -0.558594 14.863281 -0.59375 L 15.867188 -1.554688 C 16.261719 -1.96875 16.734375 -2.402344 17.207031 -2.835938 C 17.679688 -3.269531 18.152344 -3.699219 18.546875 -4.117188 C 18.941406 -4.53125 19.277344 -4.851562 19.476562 -5.058594 C 19.734375 -5.363281 19.914062 -5.648438 20.074219 -6.011719 C 20.175781 -6.277344 20.304688 -6.796875 20.398438 -7.46875 C 20.363281 -7.625 20.402344 -7.796875 20.351562 -8.027344 L 20.246094 -8.496094 C 20.089844 -9.191406 19.59375 -9.570312 18.90625 -9.738281 C 18.558594 -9.824219 18.230469 -9.832031 18.113281 -9.640625 C 17.914062 -9.433594 17.699219 -9.304688 17.503906 -9.097656 C 17.261719 -8.714844 17.082031 -8.429688 16.84375 -8.050781 C 16.601562 -7.667969 16.441406 -7.308594 16.261719 -7.023438 C 14.871094 -5.238281 13.453125 -3.941406 11.871094 -3.011719 C 10.285156 -2.082031 8.625 -1.871094 6.941406 -2.46875 C 5.921875 -2.644531 5.109375 -3.355469 4.441406 -4.507812 C 4.214844 -4.785156 4.066406 -5.078125 4.015625 -5.308594 C 3.980469 -5.464844 3.945312 -5.621094 3.988281 -5.792969 C 4.027344 -5.964844 4.167969 -6.078125 4.304688 -6.191406 C 4.441406 -6.304688 4.734375 -6.449219 5.085938 -6.695312 C 5.792969 -7.179688 6.480469 -7.742188 6.960938 -8.503906 C 7.4375 -9.261719 7.839844 -10.007812 8.132812 -10.886719 C 8.4375 -11.691406 8.726562 -12.570312 9.019531 -13.453125 C 9.308594 -14.332031 9.597656 -15.210938 9.921875 -15.9375 C 10.1875 -16.570312 10.355469 -17.257812 10.355469 -17.992188 C 10.367188 -18.648438 10.441406 -19.398438 10.441406 -20.128906 C 10.414062 -20.613281 10.289062 -21.15625 9.996094 -21.742188 C 9.699219 -22.328125 9.421875 -22.835938 8.988281 -23.304688 C 8.574219 -23.703125 8.078125 -24.078125 7.542969 -24.285156 C 7.007812 -24.488281 6.414062 -24.597656 5.871094 -24.476562 L 5.09375 -24.300781 C 5.136719 -24.472656 5.179688 -24.644531 5.222656 -24.816406 C 5.1875 -24.972656 5.210938 -25.222656 5.316406 -25.492188 C 5.375 -25.585938 5.28125 -25.644531 5.089844 -25.765625 C 4.917969 -25.808594 4.839844 -25.789062 4.78125 -25.695312 C 4.546875 -25.644531 4.410156 -25.53125 4.351562 -25.433594 C 3.558594 -24.605469 2.863281 -23.714844 2.09375 -22.804688 C 1.699219 -22.390625 1.535156 -22.027344 1.511719 -21.777344 C 1.304688 -21.242188 1.160156 -20.800781 1.015625 -20.359375 C 0.886719 -19.84375 0.742188 -19.402344 0.597656 -18.960938 C 0.4375 -18.601562 0.351562 -18.253906 0.285156 -17.832031 C 0.113281 -17.140625 0.0390625 -16.390625 -0.128906 -15.699219 C -0.300781 -15.011719 -0.453125 -14.242188 -0.542969 -13.570312 C -0.609375 -12.414062 -0.578125 -11.199219 -0.609375 -9.886719 C -0.636719 -8.578125 -0.453125 -7.394531 0.121094 -6.304688 C 0.523438 -5.253906 0.984375 -4.296875 1.523438 -3.359375 C 2 -2.328125 2.597656 -1.484375 3.429688 -0.695312 C 4.070312 -0.0234375 4.925781 0.515625 5.996094 0.925781 C 7.066406 1.335938 8.101562 1.589844 9.257812 1.652344 Z M 2.742188 -14.882812 L 2.878906 -15.730469 C 2.902344 -15.980469 3.007812 -16.246094 3.109375 -16.515625 C 3.152344 -16.6875 3.210938 -16.78125 3.253906 -16.957031 C 3.21875 -17.109375 3.277344 -17.207031 3.320312 -17.378906 C 3.507812 -17.992188 3.773438 -18.621094 3.941406 -19.3125 C 4.128906 -19.925781 4.316406 -20.539062 4.5625 -21.246094 C 4.691406 -21.761719 4.871094 -22.050781 5.027344 -22.082031 C 5.183594 -22.117188 5.449219 -22.015625 5.925781 -21.714844 C 6.339844 -21.320312 6.636719 -20.738281 6.621094 -20.082031 C 6.527344 -19.410156 6.359375 -18.71875 6.035156 -17.992188 C 5.746094 -17.113281 5.4375 -16.308594 5.035156 -15.566406 C 4.574219 -14.726562 4.171875 -13.984375 3.769531 -13.242188 C 3.648438 -13.050781 3.589844 -12.957031 3.527344 -12.859375 C 3.390625 -12.75 3.332031 -12.652344 3.289062 -12.480469 C 3.253906 -12.636719 3.15625 -12.695312 3.003906 -12.660156 C 2.75 -13.417969 2.667969 -14.132812 2.742188 -14.882812 Z M 2.742188 -14.882812 "/></g></g></g><g fill="#0097b2" fill-opacity="1"><g transform="translate(262.351259, 311.164501)"><g><path d="M 5.949219 -6.753906 C 5.992188 -6.601562 6.113281 -6.472656 6.160156 -6.320312 C 6.207031 -6.167969 6.226562 -6.089844 6.328125 -6.039062 L 6.988281 -3.828125 L 7.078125 -3.523438 C 7.0625 -3.019531 7.144531 -2.464844 7.359375 -2.03125 C 7.570312 -1.597656 7.78125 -1.164062 8.070312 -0.75 C 8.453125 -0.0351562 8.992188 0.382812 9.84375 0.460938 C 10.117188 0.546875 10.492188 0.683594 10.839844 0.746094 C 11.402344 1.242188 12.003906 1.308594 12.722656 0.929688 C 12.949219 0.863281 13.15625 0.71875 13.382812 0.648438 L 14.144531 0.421875 C 14.375 0.351562 14.582031 0.207031 14.839844 -0.0351562 C 15.097656 -0.277344 15.183594 -0.550781 15.246094 -0.902344 C 15.246094 -0.902344 15.273438 -1.078125 15.207031 -1.304688 C 14.964844 -1.566406 14.773438 -1.921875 14.582031 -2.28125 C 14.417969 -2.5625 14.226562 -2.921875 14.058594 -3.203125 C 13.769531 -3.613281 13.535156 -4.125 13.398438 -4.582031 C 13.261719 -5.039062 13.101562 -5.570312 12.945312 -6.105469 C 12.824219 -6.234375 12.777344 -6.386719 12.730469 -6.539062 C 12.6875 -6.691406 12.695312 -6.941406 12.648438 -7.09375 C 12.65625 -7.347656 12.511719 -7.550781 12.292969 -7.734375 C 12.046875 -7.996094 11.859375 -8.351562 11.820312 -8.757812 L 11.683594 -9.214844 L 10.980469 -11.574219 C 10.910156 -11.804688 10.765625 -12.007812 10.71875 -12.160156 C 10.476562 -12.421875 10.410156 -12.648438 10.394531 -12.976562 C 10.324219 -13.203125 10.3125 -13.53125 10.371094 -13.882812 C 10.359375 -14.210938 10.320312 -14.613281 10.230469 -14.917969 C 10.136719 -15.222656 10.125 -15.550781 10.160156 -15.976562 L 10.09375 -16.203125 C 9.730469 -16.59375 9.546875 -17.203125 9.667969 -17.902344 C 9.707031 -18.328125 9.59375 -18.710938 9.480469 -19.089844 C 9.289062 -19.449219 9.101562 -19.808594 8.886719 -20.242188 C 8.523438 -20.628906 8.226562 -20.792969 8.027344 -20.898438 C 7.703125 -20.882812 7.503906 -20.988281 7.457031 -21.140625 C 6.621094 -21.722656 5.851562 -22.074219 5.199219 -22.042969 C 4.46875 -21.992188 3.683594 -21.839844 2.84375 -21.589844 C 2.617188 -21.519531 2.355469 -21.277344 2.019531 -21.011719 C 1.65625 -20.570312 1.34375 -20.230469 1.007812 -19.960938 C 0.617188 -19.597656 0.304688 -19.253906 -0.0078125 -18.914062 C -0.394531 -18.546875 -0.835938 -18.085938 -1.179688 -17.566406 C -1.578125 -16.949219 -1.953125 -16.257812 -2.28125 -15.414062 C -2.738281 -14.445312 -2.867188 -13.496094 -2.792969 -12.6875 C -2.734375 -12.207031 -2.703125 -11.554688 -2.675781 -10.898438 L -2.789062 -9.621094 C -2.820312 -9.445312 -2.753906 -9.214844 -2.660156 -8.910156 C -2.34375 -7.84375 -1.796875 -6.847656 -0.96875 -6.015625 C -0.410156 -5.269531 0.355469 -4.917969 1.285156 -4.863281 C 1.460938 -4.832031 1.558594 -4.78125 1.710938 -4.824219 C 1.886719 -4.792969 1.984375 -4.742188 2.136719 -4.785156 C 2.714844 -4.792969 3.25 -4.953125 3.859375 -5.132812 C 4.390625 -5.292969 4.855469 -5.679688 5.351562 -6.246094 C 5.636719 -6.410156 5.839844 -6.554688 5.949219 -6.753906 Z M 4.226562 -18.351562 C 4.273438 -18.199219 4.242188 -18.023438 4.242188 -18.023438 L 4.421875 -16.585938 C 4.390625 -16.410156 4.4375 -16.257812 4.480469 -16.105469 C 4.527344 -15.953125 4.472656 -15.855469 4.445312 -15.679688 C 4.351562 -15.152344 4.359375 -14.574219 4.34375 -14.074219 C 4.347656 -13.492188 4.257812 -12.96875 4.164062 -12.445312 C 3.910156 -10.792969 3.414062 -9.398438 2.675781 -8.265625 L 2.285156 -7.902344 C 1.898438 -7.535156 1.496094 -7.496094 1.128906 -7.886719 C 0.308594 -8.96875 -0.109375 -10.089844 -0.015625 -11.445312 C 0.015625 -11.617188 0.0234375 -11.871094 -0.0234375 -12.023438 C -0.0664062 -12.175781 -0.113281 -12.328125 -0.03125 -12.601562 C 0.15625 -13.652344 0.4375 -14.648438 1.015625 -15.484375 C 1.382812 -15.925781 1.671875 -16.34375 2.039062 -16.785156 C 2.40625 -17.226562 2.792969 -17.59375 3.257812 -17.980469 C 3.519531 -18.222656 3.898438 -18.335938 4.226562 -18.351562 Z M 4.226562 -18.351562 "/></g></g></g><g fill="#0097b2" fill-opacity="1"><g transform="translate(280.46418, 305.660221)"><g><path d="M -2.085938 -13.480469 C -1.378906 -12.046875 -0.398438 -10.800781 0.726562 -9.609375 C 1.851562 -8.421875 2.761719 -7.574219 3.488281 -6.996094 C 3.878906 -6.632812 4.296875 -6.195312 4.6875 -5.832031 C 5.035156 -5.367188 5.304688 -4.875 5.5 -4.355469 C 5.554688 -4.207031 5.582031 -4.132812 5.609375 -4.058594 C 5.636719 -3.980469 5.742188 -3.9375 5.769531 -3.859375 L 6.019531 -3.191406 C 6.101562 -2.96875 6.113281 -2.71875 6.195312 -2.492188 C 6.179688 -1.636719 6.058594 -0.828125 5.742188 0.140625 C 5.425781 1.105469 4.976562 1.953125 4.417969 2.503906 C 4.027344 2.820312 3.742188 3.183594 3.5 3.441406 C 3.257812 3.703125 2.96875 4.066406 2.726562 4.328125 C 2.511719 4.660156 2.296875 4.996094 2.234375 5.273438 C 2.121094 5.65625 2.160156 5.980469 2.445312 6.296875 L 2.503906 6.449219 C 2.625 6.996094 2.941406 7.386719 3.453125 7.621094 C 3.964844 7.851562 4.523438 7.984375 5.199219 7.984375 C 5.90625 8.058594 6.511719 8.085938 7.164062 8.011719 C 7.816406 7.9375 8.316406 7.917969 8.71875 7.851562 C 8.867188 7.796875 8.96875 7.84375 8.996094 7.917969 C 9.109375 8.214844 9.285156 8.234375 9.433594 8.179688 C 9.582031 8.121094 9.703125 7.992188 9.851562 7.9375 C 10.449219 7.710938 11.070312 7.5625 11.667969 7.339844 C 12.261719 7.117188 12.933594 6.867188 13.5 6.566406 C 14.066406 6.269531 14.53125 5.925781 15.015625 5.40625 C 15.453125 4.988281 15.835938 4.417969 16.058594 3.65625 C 16.214844 3.171875 16.300781 2.714844 16.429688 2.15625 C 16.515625 1.703125 16.671875 1.21875 16.90625 0.707031 C 17.464844 -0.519531 17.472656 -1.628906 17.054688 -2.746094 C 16.636719 -3.863281 15.917969 -4.867188 15.054688 -5.816406 C 14.214844 -6.691406 13.230469 -7.507812 12.09375 -8.269531 C 10.988281 -8.960938 10.085938 -9.554688 9.210938 -10.078125 C 9.210938 -10.078125 9.109375 -10.121094 9.109375 -10.121094 C 9.109375 -10.121094 9.109375 -10.121094 9.082031 -10.199219 C 8.644531 -10.457031 8.207031 -10.71875 7.742188 -11.054688 C 7.273438 -11.386719 6.808594 -11.722656 6.34375 -12.058594 C 5.265625 -12.671875 4.578125 -13.601562 4.128906 -14.792969 C 3.683594 -15.984375 3.84375 -17.148438 4.605469 -18.28125 C 4.792969 -18.691406 4.902344 -19.074219 4.808594 -19.546875 C 4.671875 -19.917969 4.457031 -20.265625 4.019531 -20.523438 C 3.609375 -20.710938 3.253906 -20.746094 3.050781 -20.839844 C 2.214844 -21.035156 1.460938 -21.007812 0.847656 -20.609375 C -0.0664062 -20.097656 -0.875 -19.539062 -1.65625 -18.90625 C -2.53125 -18.066406 -2.902344 -17.25 -2.894531 -16.320312 C -2.855469 -15.3125 -2.597656 -14.394531 -2.085938 -13.480469 Z M -2.085938 -13.480469 "/></g></g></g></svg>