<svg xmlns="http://www.w3.org/2000/svg" xmlns:xlink="http://www.w3.org/1999/xlink" width="250" zoomAndPan="magnify" viewBox="0 0 375 374.999991" height="250" preserveAspectRatio="xMidYMid meet" version="1.0"><defs><g/><clipPath id="52f099e15f"><path d="M 83.636719 37.5 L 291.386719 37.5 L 291.386719 245.25 L 83.636719 245.25 Z M 83.636719 37.5 " clip-rule="nonzero"/></clipPath><clipPath id="5134924d21"><path d="M 260.226562 182.925781 C 254.710938 182.925781 249.527344 184.371094 245.027344 186.898438 L 235.945312 174.789062 C 242.519531 165.289062 246.375 153.773438 246.375 141.375 C 246.375 129.042969 242.5625 117.585938 236.054688 108.117188 L 247.207031 96.964844 C 251.171875 98.796875 255.582031 99.824219 260.226562 99.824219 C 277.410156 99.824219 291.386719 85.84375 291.386719 68.664062 C 291.386719 51.480469 277.410156 37.5 260.226562 37.5 C 243.042969 37.5 229.0625 51.480469 229.0625 68.664062 C 229.0625 78.652344 233.792969 87.550781 241.121094 93.257812 L 231.769531 102.609375 C 220.972656 90.300781 205.136719 82.511719 187.511719 82.511719 C 169.890625 82.511719 154.054688 90.300781 143.257812 102.609375 L 133.902344 93.257812 C 141.234375 87.550781 145.964844 78.652344 145.964844 68.664062 C 145.964844 51.480469 131.984375 37.5 114.800781 37.5 C 97.617188 37.5 83.636719 51.480469 83.636719 68.664062 C 83.636719 85.84375 97.617188 99.824219 114.800781 99.824219 C 119.445312 99.824219 123.855469 98.796875 127.820312 96.964844 L 138.972656 108.117188 C 132.464844 117.585938 128.652344 129.042969 128.652344 141.375 C 128.652344 153.773438 132.507812 165.289062 139.082031 174.789062 L 130 186.898438 C 125.5 184.371094 120.316406 182.925781 114.800781 182.925781 C 97.617188 182.925781 83.636719 196.90625 83.636719 214.085938 C 83.636719 231.269531 97.617188 245.25 114.800781 245.25 C 131.984375 245.25 145.964844 231.269531 145.964844 214.085938 C 145.964844 204.90625 141.96875 196.640625 135.628906 190.933594 L 143.511719 180.425781 C 154.300781 192.570312 170.027344 200.238281 187.511719 200.238281 C 205 200.238281 220.726562 192.570312 231.515625 180.425781 L 239.398438 190.933594 C 233.058594 196.640625 229.0625 204.90625 229.0625 214.085938 C 229.0625 231.269531 243.042969 245.25 260.226562 245.25 C 277.410156 245.25 291.386719 231.269531 291.386719 214.085938 C 291.386719 196.90625 277.410156 182.925781 260.226562 182.925781 Z M 249.839844 90.558594 L 249.839844 85.976562 C 249.839844 80.246094 254.5 75.585938 260.226562 75.585938 C 265.953125 75.585938 270.613281 80.246094 270.613281 85.976562 L 270.613281 90.558594 C 267.464844 92.058594 263.941406 92.898438 260.226562 92.898438 C 256.511719 92.898438 252.988281 92.058594 249.839844 90.558594 Z M 253.300781 61.738281 C 253.300781 57.917969 256.40625 54.8125 260.226562 54.8125 C 264.042969 54.8125 267.152344 57.917969 267.152344 61.738281 C 267.152344 65.554688 264.042969 68.664062 260.226562 68.664062 C 256.40625 68.664062 253.300781 65.554688 253.300781 61.738281 Z M 235.988281 68.664062 C 235.988281 55.296875 246.863281 44.425781 260.226562 44.425781 C 273.589844 44.425781 284.464844 55.296875 284.464844 68.664062 C 284.464844 75.253906 281.816406 81.238281 277.53125 85.613281 C 277.410156 79.800781 274.414062 74.679688 269.90625 71.628906 C 272.476562 69.113281 274.074219 65.609375 274.074219 61.738281 C 274.074219 54.101562 267.863281 47.886719 260.226562 47.886719 C 252.589844 47.886719 246.375 54.101562 246.375 61.738281 C 246.375 65.609375 247.976562 69.113281 250.542969 71.628906 C 246.039062 74.679688 243.042969 79.800781 242.921875 85.613281 C 238.636719 81.238281 235.988281 75.253906 235.988281 68.664062 Z M 90.5625 68.664062 C 90.5625 55.296875 101.4375 44.425781 114.800781 44.425781 C 128.164062 44.425781 139.039062 55.296875 139.039062 68.664062 C 139.039062 75.253906 136.390625 81.238281 132.105469 85.613281 C 131.984375 79.800781 128.988281 74.679688 124.480469 71.628906 C 127.050781 69.113281 128.652344 65.609375 128.652344 61.738281 C 128.652344 54.101562 122.4375 47.886719 114.800781 47.886719 C 107.164062 47.886719 100.949219 54.101562 100.949219 61.738281 C 100.949219 65.609375 102.550781 69.113281 105.121094 71.628906 C 100.613281 74.679688 97.617188 79.800781 97.496094 85.613281 C 93.210938 81.238281 90.5625 75.253906 90.5625 68.664062 Z M 107.875 61.738281 C 107.875 57.917969 110.984375 54.8125 114.800781 54.8125 C 118.621094 54.8125 121.726562 57.917969 121.726562 61.738281 C 121.726562 65.554688 118.621094 68.664062 114.800781 68.664062 C 110.984375 68.664062 107.875 65.554688 107.875 61.738281 Z M 104.414062 90.558594 L 104.414062 85.976562 C 104.414062 80.246094 109.074219 75.585938 114.800781 75.585938 C 120.527344 75.585938 125.1875 80.246094 125.1875 85.976562 L 125.1875 90.558594 C 122.039062 92.058594 118.515625 92.898438 114.800781 92.898438 C 111.085938 92.898438 107.5625 92.058594 104.414062 90.558594 Z M 104.414062 235.980469 L 104.414062 231.398438 C 104.414062 225.671875 109.074219 221.011719 114.800781 221.011719 C 120.527344 221.011719 125.1875 225.671875 125.1875 231.398438 L 125.1875 235.980469 C 122.039062 237.480469 118.515625 238.324219 114.800781 238.324219 C 111.085938 238.324219 107.5625 237.480469 104.414062 235.980469 Z M 107.875 207.164062 C 107.875 203.34375 110.984375 200.238281 114.800781 200.238281 C 118.621094 200.238281 121.726562 203.34375 121.726562 207.164062 C 121.726562 210.980469 118.621094 214.085938 114.800781 214.085938 C 110.984375 214.085938 107.875 210.980469 107.875 207.164062 Z M 139.039062 214.085938 C 139.039062 220.679688 136.390625 226.664062 132.105469 231.035156 C 131.984375 225.226562 128.988281 220.105469 124.480469 217.054688 C 127.050781 214.539062 128.652344 211.035156 128.652344 207.164062 C 128.652344 199.527344 122.4375 193.3125 114.800781 193.3125 C 107.164062 193.3125 100.949219 199.527344 100.949219 207.164062 C 100.949219 211.035156 102.550781 214.539062 105.121094 217.054688 C 100.613281 220.105469 97.617188 225.222656 97.496094 231.035156 C 93.210938 226.664062 90.5625 220.679688 90.5625 214.085938 C 90.5625 200.722656 101.4375 189.851562 114.800781 189.851562 C 128.164062 189.851562 139.039062 200.722656 139.039062 214.085938 Z M 135.695312 144.835938 L 146.039062 144.835938 C 146.371094 153.019531 147.875 160.890625 150.433594 168.046875 C 148.375 168.777344 146.382812 169.570312 144.480469 170.425781 C 139.46875 163.023438 136.316406 154.269531 135.695312 144.835938 Z M 144.480469 112.324219 C 146.382812 113.179688 148.375 113.96875 150.433594 114.699219 C 147.878906 121.859375 146.371094 129.730469 146.039062 137.914062 L 135.695312 137.914062 C 136.316406 128.476562 139.46875 119.722656 144.480469 112.324219 Z M 239.332031 137.914062 L 228.984375 137.914062 C 228.65625 129.730469 227.152344 121.859375 224.59375 114.703125 C 226.652344 113.972656 228.644531 113.183594 230.546875 112.324219 C 235.558594 119.722656 238.707031 128.480469 239.332031 137.914062 Z M 222.054688 137.914062 L 204.796875 137.914062 C 204.699219 131.535156 204.339844 125.351562 203.730469 119.5625 C 208.691406 118.917969 213.472656 117.984375 217.984375 116.765625 C 220.335938 123.246094 221.722656 130.421875 222.054688 137.914062 Z M 187.511719 193.3125 C 187.484375 193.3125 184.226562 192.300781 181.078125 179.707031 C 180.292969 176.5625 179.617188 173.089844 179.054688 169.371094 C 181.832031 169.175781 184.65625 169.074219 187.511719 169.074219 C 190.371094 169.074219 193.195312 169.175781 195.972656 169.371094 C 195.410156 173.089844 194.734375 176.5625 193.949219 179.707031 C 190.800781 192.300781 187.542969 193.3125 187.511719 193.3125 Z M 187.511719 162.148438 C 184.363281 162.148438 181.246094 162.265625 178.183594 162.488281 C 177.597656 156.941406 177.25 150.992188 177.15625 144.835938 L 197.871094 144.835938 C 197.777344 150.992188 197.429688 156.941406 196.84375 162.488281 C 193.78125 162.265625 190.664062 162.148438 187.511719 162.148438 Z M 177.15625 137.914062 C 177.25 131.757812 177.597656 125.808594 178.183594 120.261719 C 181.246094 120.484375 184.363281 120.601562 187.511719 120.601562 C 190.664062 120.601562 193.78125 120.484375 196.84375 120.261719 C 197.425781 125.808594 197.777344 131.757812 197.871094 137.914062 Z M 187.511719 89.4375 C 187.542969 89.4375 190.800781 90.449219 193.949219 103.042969 C 194.734375 106.1875 195.410156 109.660156 195.972656 113.382812 C 193.195312 113.574219 190.371094 113.675781 187.511719 113.675781 C 184.65625 113.675781 181.832031 113.574219 179.054688 113.378906 C 179.617188 109.660156 180.292969 106.1875 181.078125 103.039062 C 184.226562 90.449219 187.484375 89.4375 187.511719 89.4375 Z M 202.867188 112.691406 C 202.261719 108.617188 201.527344 104.808594 200.667969 101.363281 C 199.710938 97.535156 198.632812 94.292969 197.4375 91.625 C 202.683594 94 207.53125 98.253906 211.59375 104.164062 C 212.921875 106.097656 214.128906 108.160156 215.21875 110.328125 C 211.300781 111.34375 207.160156 112.132812 202.867188 112.691406 Z M 177.59375 91.625 C 176.394531 94.292969 175.316406 97.535156 174.359375 101.359375 C 173.5 104.808594 172.765625 108.617188 172.160156 112.695312 C 167.867188 112.136719 163.726562 111.34375 159.804688 110.328125 C 160.898438 108.160156 162.105469 106.097656 163.433594 104.164062 C 167.496094 98.253906 172.34375 94 177.59375 91.625 Z M 171.292969 119.5625 C 170.6875 125.347656 170.328125 131.535156 170.230469 137.914062 L 152.972656 137.914062 C 153.300781 130.421875 154.691406 123.246094 157.042969 116.761719 C 161.554688 117.980469 166.332031 118.917969 171.292969 119.5625 Z M 152.972656 144.835938 L 170.230469 144.835938 C 170.328125 151.214844 170.6875 157.398438 171.292969 163.1875 C 166.335938 163.832031 161.554688 164.765625 157.039062 165.984375 C 154.691406 159.503906 153.304688 152.328125 152.972656 144.835938 Z M 172.160156 170.054688 C 172.765625 174.132812 173.5 177.941406 174.359375 181.386719 C 175.320312 185.21875 176.398438 188.457031 177.597656 191.125 C 172.347656 188.753906 167.5 184.496094 163.433594 178.585938 C 162.105469 176.652344 160.898438 174.589844 159.804688 172.417969 C 163.726562 171.40625 167.863281 170.609375 172.160156 170.054688 Z M 197.433594 191.125 C 198.628906 188.457031 199.710938 185.214844 200.667969 181.386719 C 201.527344 177.941406 202.261719 174.132812 202.867188 170.054688 C 207.164062 170.613281 211.300781 171.40625 215.222656 172.417969 C 214.128906 174.589844 212.921875 176.652344 211.59375 178.585938 C 207.53125 184.496094 202.683594 188.753906 197.433594 191.125 Z M 203.730469 163.1875 C 204.339844 157.402344 204.699219 151.214844 204.796875 144.835938 L 222.054688 144.835938 C 221.722656 152.328125 220.335938 159.503906 217.984375 165.984375 C 213.472656 164.765625 208.691406 163.832031 203.730469 163.1875 Z M 228.984375 144.835938 L 239.332031 144.835938 C 238.707031 154.269531 235.558594 163.023438 230.546875 170.425781 C 228.644531 169.566406 226.652344 168.777344 224.59375 168.046875 C 227.152344 160.890625 228.65625 153.019531 228.984375 144.835938 Z M 226.132812 106.683594 C 224.773438 107.257812 223.371094 107.796875 221.929688 108.300781 C 220.5625 105.453125 219.023438 102.75 217.296875 100.238281 C 216.648438 99.292969 215.980469 98.386719 215.292969 97.511719 C 219.3125 100.066406 222.960938 103.15625 226.132812 106.683594 Z M 159.742188 97.503906 C 159.054688 98.382812 158.378906 99.292969 157.730469 100.238281 C 156.003906 102.75 154.464844 105.449219 153.101562 108.296875 C 151.660156 107.792969 150.253906 107.253906 148.898438 106.683594 C 152.070312 103.15625 155.71875 100.0625 159.742188 97.503906 Z M 148.890625 176.058594 C 150.25 175.488281 151.65625 174.953125 153.097656 174.449219 C 154.460938 177.296875 156.003906 180 157.726562 182.511719 C 158.378906 183.457031 159.050781 184.367188 159.738281 185.242188 C 155.714844 182.6875 152.0625 179.589844 148.890625 176.058594 Z M 215.292969 185.242188 C 215.976562 184.367188 216.648438 183.457031 217.296875 182.511719 C 219.023438 180 220.566406 177.296875 221.929688 174.449219 C 223.371094 174.953125 224.777344 175.488281 226.136719 176.058594 C 222.964844 179.589844 219.316406 182.683594 215.292969 185.242188 Z M 249.839844 235.980469 L 249.839844 231.398438 C 249.839844 225.671875 254.5 221.011719 260.226562 221.011719 C 265.953125 221.011719 270.613281 225.671875 270.613281 231.398438 L 270.613281 235.980469 C 267.464844 237.480469 263.941406 238.324219 260.226562 238.324219 C 256.511719 238.324219 252.988281 237.480469 249.839844 235.980469 Z M 253.300781 207.164062 C 253.300781 203.34375 256.40625 200.238281 260.226562 200.238281 C 264.042969 200.238281 267.152344 203.34375 267.152344 207.164062 C 267.152344 210.980469 264.042969 214.085938 260.226562 214.085938 C 256.40625 214.085938 253.300781 210.980469 253.300781 207.164062 Z M 277.53125 231.035156 C 277.410156 225.226562 274.414062 220.105469 269.90625 217.054688 C 272.476562 214.539062 274.074219 211.035156 274.074219 207.164062 C 274.074219 199.527344 267.863281 193.3125 260.226562 193.3125 C 252.589844 193.3125 246.375 199.527344 246.375 207.164062 C 246.375 211.035156 247.976562 214.539062 250.542969 217.054688 C 246.039062 220.105469 243.042969 225.222656 242.921875 231.035156 C 238.636719 226.664062 235.988281 220.679688 235.988281 214.085938 C 235.988281 200.722656 246.863281 189.851562 260.226562 189.851562 C 273.589844 189.851562 284.464844 200.722656 284.464844 214.085938 C 284.464844 220.679688 281.816406 226.664062 277.53125 231.035156 Z M 149.792969 60.1875 L 156.714844 46.339844 C 157.570312 44.628906 159.652344 43.933594 161.363281 44.789062 C 163.074219 45.644531 163.765625 47.726562 162.910156 49.4375 L 159.773438 55.710938 C 168.703125 52.820312 178.011719 51.351562 187.511719 51.351562 C 198.683594 51.351562 209.589844 53.371094 219.921875 57.363281 C 221.707031 58.050781 222.59375 60.054688 221.90625 61.839844 C 221.375 63.210938 220.066406 64.054688 218.675781 64.054688 C 218.261719 64.054688 217.839844 63.980469 217.429688 63.820312 C 207.894531 60.140625 197.828125 58.273438 187.511719 58.273438 C 178.707031 58.273438 170.082031 59.640625 161.8125 62.328125 L 168.289062 65.566406 C 169.996094 66.421875 170.691406 68.5 169.835938 70.210938 C 169.230469 71.425781 168.007812 72.125 166.734375 72.125 C 166.214844 72.125 165.6875 72.007812 165.191406 71.757812 L 151.339844 64.835938 C 149.628906 63.980469 148.9375 61.898438 149.792969 60.1875 Z M 225.234375 222.5625 L 218.308594 236.410156 C 217.703125 237.625 216.480469 238.324219 215.210938 238.324219 C 214.691406 238.324219 214.160156 238.207031 213.664062 237.960938 C 211.953125 237.105469 211.261719 235.023438 212.117188 233.3125 L 215.253906 227.039062 C 206.324219 229.929688 197.015625 231.398438 187.511719 231.398438 C 176.339844 231.398438 165.4375 229.378906 155.105469 225.386719 C 153.320312 224.699219 152.433594 222.695312 153.121094 220.910156 C 153.808594 219.128906 155.8125 218.238281 157.597656 218.929688 C 167.132812 222.609375 177.199219 224.476562 187.511719 224.476562 C 196.320312 224.476562 204.945312 223.109375 213.214844 220.421875 L 206.738281 217.183594 C 205.03125 216.328125 204.335938 214.25 205.191406 212.539062 C 206.046875 210.828125 208.125 210.136719 209.835938 210.992188 L 223.6875 217.914062 C 225.398438 218.769531 226.089844 220.851562 225.234375 222.5625 Z M 279.453125 116.773438 L 273.175781 113.632812 C 276.070312 122.5625 277.539062 131.871094 277.539062 141.375 C 277.539062 152.546875 275.515625 163.453125 271.527344 173.785156 C 270.996094 175.160156 269.6875 176 268.296875 176 C 267.882812 176 267.460938 175.925781 267.050781 175.765625 C 265.265625 175.078125 264.378906 173.074219 265.066406 171.289062 C 268.746094 161.757812 270.613281 151.691406 270.613281 141.375 C 270.613281 132.566406 269.25 123.941406 266.558594 115.675781 L 263.324219 122.148438 C 262.71875 123.363281 261.492188 124.0625 260.222656 124.0625 C 259.703125 124.0625 259.175781 123.945312 258.679688 123.695312 C 256.96875 122.839844 256.273438 120.761719 257.128906 119.050781 L 264.054688 105.203125 C 264.910156 103.492188 266.988281 102.796875 268.699219 103.652344 L 282.550781 110.578125 C 284.261719 111.433594 284.953125 113.511719 284.097656 115.222656 C 283.242188 116.933594 281.164062 117.628906 279.453125 116.773438 Z M 95.574219 165.976562 L 101.851562 169.117188 C 98.957031 160.1875 97.488281 150.878906 97.488281 141.375 C 97.488281 130.203125 99.511719 119.296875 103.5 108.964844 C 104.1875 107.179688 106.191406 106.292969 107.976562 106.980469 C 109.761719 107.671875 110.648438 109.675781 109.960938 111.460938 C 106.28125 120.992188 104.414062 131.058594 104.414062 141.375 C 104.414062 150.183594 105.777344 158.804688 108.46875 167.074219 L 111.703125 160.601562 C 112.558594 158.890625 114.640625 158.199219 116.347656 159.054688 C 118.058594 159.910156 118.753906 161.988281 117.898438 163.699219 L 110.972656 177.546875 C 110.367188 178.761719 109.144531 179.464844 107.871094 179.464844 C 107.351562 179.464844 106.824219 179.34375 106.328125 179.097656 L 92.476562 172.171875 C 90.765625 171.316406 90.074219 169.238281 90.929688 167.527344 C 91.785156 165.816406 93.863281 165.121094 95.574219 165.976562 Z M 95.574219 165.976562 " clip-rule="nonzero"/></clipPath><linearGradient x1="16.000024" gradientTransform="matrix(0.432812, 0, 0, 0.432812, 76.713542, 30.575009)" y1="495.999976" x2="495.99999" gradientUnits="userSpaceOnUse" y2="16.00001" id="1d0c844d4c"><stop stop-opacity="1" stop-color="rgb(97.299194%, 56.498718%, 42.698669%)" offset="0"/><stop stop-opacity="1" stop-color="rgb(97.299194%, 56.498718%, 42.698669%)" offset="0.03125"/><stop stop-opacity="1" stop-color="rgb(97.28241%, 56.62384%, 42.642212%)" offset="0.046875"/><stop stop-opacity="1" stop-color="rgb(97.218323%, 57.086182%, 42.431641%)" offset="0.0507812"/><stop stop-opacity="1" stop-color="rgb(97.172546%, 57.424927%, 42.277527%)" offset="0.0546875"/><stop stop-opacity="1" stop-color="rgb(97.12677%, 57.762146%, 42.123413%)" offset="0.0585937"/><stop stop-opacity="1" stop-color="rgb(97.080994%, 58.100891%, 41.969299%)" offset="0.0625"/><stop stop-opacity="1" stop-color="rgb(97.035217%, 58.43811%, 41.815186%)" offset="0.0664062"/><stop stop-opacity="1" stop-color="rgb(96.989441%, 58.776855%, 41.661072%)" offset="0.0703125"/><stop stop-opacity="1" stop-color="rgb(96.942139%, 59.114075%, 41.506958%)" offset="0.0742188"/><stop stop-opacity="1" stop-color="rgb(96.896362%, 59.45282%, 41.35437%)" offset="0.078125"/><stop stop-opacity="1" stop-color="rgb(96.850586%, 59.790039%, 41.200256%)" offset="0.0820312"/><stop stop-opacity="1" stop-color="rgb(96.80481%, 60.128784%, 41.046143%)" offset="0.0859375"/><stop stop-opacity="1" stop-color="rgb(96.759033%, 60.466003%, 40.892029%)" offset="0.0898438"/><stop stop-opacity="1" stop-color="rgb(96.713257%, 60.804749%, 40.737915%)" offset="0.09375"/><stop stop-opacity="1" stop-color="rgb(96.66748%, 61.141968%, 40.583801%)" offset="0.0976562"/><stop stop-opacity="1" stop-color="rgb(96.621704%, 61.480713%, 40.429688%)" offset="0.101562"/><stop stop-opacity="1" stop-color="rgb(96.574402%, 61.817932%, 40.275574%)" offset="0.105469"/><stop stop-opacity="1" stop-color="rgb(96.528625%, 62.156677%, 40.122986%)" offset="0.109375"/><stop stop-opacity="1" stop-color="rgb(96.482849%, 62.493896%, 39.968872%)" offset="0.113281"/><stop stop-opacity="1" stop-color="rgb(96.437073%, 62.832642%, 39.814758%)" offset="0.117187"/><stop stop-opacity="1" stop-color="rgb(96.391296%, 63.169861%, 39.660645%)" offset="0.121094"/><stop stop-opacity="1" stop-color="rgb(96.34552%, 63.508606%, 39.506531%)" offset="0.125"/><stop stop-opacity="1" stop-color="rgb(96.298218%, 63.845825%, 39.352417%)" offset="0.128906"/><stop stop-opacity="1" stop-color="rgb(96.252441%, 64.18457%, 39.198303%)" offset="0.132812"/><stop stop-opacity="1" stop-color="rgb(96.206665%, 64.52179%, 39.044189%)" offset="0.136719"/><stop stop-opacity="1" stop-color="rgb(96.160889%, 64.860535%, 38.891602%)" offset="0.140625"/><stop stop-opacity="1" stop-color="rgb(96.115112%, 65.197754%, 38.737488%)" offset="0.144531"/><stop stop-opacity="1" stop-color="rgb(96.069336%, 65.536499%, 38.583374%)" offset="0.148438"/><stop stop-opacity="1" stop-color="rgb(96.022034%, 65.873718%, 38.42926%)" offset="0.152344"/><stop stop-opacity="1" stop-color="rgb(95.976257%, 66.212463%, 38.275146%)" offset="0.15625"/><stop stop-opacity="1" stop-color="rgb(95.930481%, 66.549683%, 38.121033%)" offset="0.160156"/><stop stop-opacity="1" stop-color="rgb(95.884705%, 66.888428%, 37.966919%)" offset="0.164062"/><stop stop-opacity="1" stop-color="rgb(95.838928%, 67.225647%, 37.812805%)" offset="0.167969"/><stop stop-opacity="1" stop-color="rgb(95.793152%, 67.564392%, 37.660217%)" offset="0.171875"/><stop stop-opacity="1" stop-color="rgb(95.747375%, 67.901611%, 37.506104%)" offset="0.175781"/><stop stop-opacity="1" stop-color="rgb(95.701599%, 68.240356%, 37.35199%)" offset="0.179687"/><stop stop-opacity="1" stop-color="rgb(95.654297%, 68.577576%, 37.197876%)" offset="0.183594"/><stop stop-opacity="1" stop-color="rgb(95.608521%, 68.916321%, 37.043762%)" offset="0.1875"/><stop stop-opacity="1" stop-color="rgb(95.562744%, 69.25354%, 36.889648%)" offset="0.191406"/><stop stop-opacity="1" stop-color="rgb(95.516968%, 69.592285%, 36.737061%)" offset="0.195312"/><stop stop-opacity="1" stop-color="rgb(95.471191%, 69.929504%, 36.582947%)" offset="0.199219"/><stop stop-opacity="1" stop-color="rgb(95.425415%, 70.26825%, 36.428833%)" offset="0.203125"/><stop stop-opacity="1" stop-color="rgb(95.378113%, 70.605469%, 36.274719%)" offset="0.207031"/><stop stop-opacity="1" stop-color="rgb(95.332336%, 70.944214%, 36.120605%)" offset="0.210937"/><stop stop-opacity="1" stop-color="rgb(95.28656%, 71.281433%, 35.966492%)" offset="0.214844"/><stop stop-opacity="1" stop-color="rgb(95.240784%, 71.620178%, 35.812378%)" offset="0.21875"/><stop stop-opacity="1" stop-color="rgb(95.195007%, 71.957397%, 35.658264%)" offset="0.222656"/><stop stop-opacity="1" stop-color="rgb(95.149231%, 72.296143%, 35.505676%)" offset="0.226562"/><stop stop-opacity="1" stop-color="rgb(95.101929%, 72.633362%, 35.351562%)" offset="0.230469"/><stop stop-opacity="1" stop-color="rgb(95.056152%, 72.970581%, 35.197449%)" offset="0.234375"/><stop stop-opacity="1" stop-color="rgb(95.010376%, 73.3078%, 35.043335%)" offset="0.238281"/><stop stop-opacity="1" stop-color="rgb(94.9646%, 73.646545%, 34.889221%)" offset="0.242187"/><stop stop-opacity="1" stop-color="rgb(94.918823%, 73.983765%, 34.735107%)" offset="0.246094"/><stop stop-opacity="1" stop-color="rgb(94.873047%, 74.32251%, 34.580994%)" offset="0.25"/><stop stop-opacity="1" stop-color="rgb(94.825745%, 74.659729%, 34.42688%)" offset="0.253906"/><stop stop-opacity="1" stop-color="rgb(94.779968%, 74.998474%, 34.274292%)" offset="0.257812"/><stop stop-opacity="1" stop-color="rgb(94.734192%, 75.335693%, 34.120178%)" offset="0.261719"/><stop stop-opacity="1" stop-color="rgb(94.688416%, 75.674438%, 33.966064%)" offset="0.265625"/><stop stop-opacity="1" stop-color="rgb(94.642639%, 76.011658%, 33.811951%)" offset="0.269531"/><stop stop-opacity="1" stop-color="rgb(94.596863%, 76.350403%, 33.657837%)" offset="0.273437"/><stop stop-opacity="1" stop-color="rgb(94.551086%, 76.687622%, 33.503723%)" offset="0.277344"/><stop stop-opacity="1" stop-color="rgb(94.50531%, 77.026367%, 33.349609%)" offset="0.28125"/><stop stop-opacity="1" stop-color="rgb(94.458008%, 77.363586%, 33.195496%)" offset="0.285156"/><stop stop-opacity="1" stop-color="rgb(94.412231%, 77.702332%, 33.042908%)" offset="0.289062"/><stop stop-opacity="1" stop-color="rgb(94.366455%, 78.039551%, 32.888794%)" offset="0.292969"/><stop stop-opacity="1" stop-color="rgb(94.320679%, 78.378296%, 32.73468%)" offset="0.296875"/><stop stop-opacity="1" stop-color="rgb(94.274902%, 78.715515%, 32.580566%)" offset="0.300781"/><stop stop-opacity="1" stop-color="rgb(94.229126%, 79.05426%, 32.426453%)" offset="0.304688"/><stop stop-opacity="1" stop-color="rgb(94.181824%, 79.391479%, 32.272339%)" offset="0.308594"/><stop stop-opacity="1" stop-color="rgb(94.136047%, 79.730225%, 32.118225%)" offset="0.3125"/><stop stop-opacity="1" stop-color="rgb(94.090271%, 80.067444%, 31.964111%)" offset="0.316406"/><stop stop-opacity="1" stop-color="rgb(94.044495%, 80.406189%, 31.811523%)" offset="0.320312"/><stop stop-opacity="1" stop-color="rgb(93.998718%, 80.743408%, 31.65741%)" offset="0.324219"/><stop stop-opacity="1" stop-color="rgb(93.952942%, 81.082153%, 31.503296%)" offset="0.328125"/><stop stop-opacity="1" stop-color="rgb(93.90564%, 81.419373%, 31.349182%)" offset="0.332031"/><stop stop-opacity="1" stop-color="rgb(93.859863%, 81.758118%, 31.195068%)" offset="0.335937"/><stop stop-opacity="1" stop-color="rgb(93.814087%, 82.095337%, 31.040955%)" offset="0.339844"/><stop stop-opacity="1" stop-color="rgb(93.768311%, 82.434082%, 30.886841%)" offset="0.34375"/><stop stop-opacity="1" stop-color="rgb(93.722534%, 82.771301%, 30.732727%)" offset="0.347656"/><stop stop-opacity="1" stop-color="rgb(93.676758%, 83.110046%, 30.580139%)" offset="0.351562"/><stop stop-opacity="1" stop-color="rgb(93.630981%, 83.447266%, 30.426025%)" offset="0.355469"/><stop stop-opacity="1" stop-color="rgb(93.585205%, 83.786011%, 30.271912%)" offset="0.359375"/><stop stop-opacity="1" stop-color="rgb(93.537903%, 84.12323%, 30.117798%)" offset="0.363281"/><stop stop-opacity="1" stop-color="rgb(93.492126%, 84.461975%, 29.963684%)" offset="0.367187"/><stop stop-opacity="1" stop-color="rgb(93.44635%, 84.799194%, 29.80957%)" offset="0.371094"/><stop stop-opacity="1" stop-color="rgb(93.400574%, 85.137939%, 29.655457%)" offset="0.375"/><stop stop-opacity="1" stop-color="rgb(93.354797%, 85.475159%, 29.501343%)" offset="0.378906"/><stop stop-opacity="1" stop-color="rgb(93.309021%, 85.813904%, 29.348755%)" offset="0.382812"/><stop stop-opacity="1" stop-color="rgb(93.261719%, 86.151123%, 29.194641%)" offset="0.386719"/><stop stop-opacity="1" stop-color="rgb(93.215942%, 86.489868%, 29.040527%)" offset="0.390625"/><stop stop-opacity="1" stop-color="rgb(93.170166%, 86.827087%, 28.886414%)" offset="0.394531"/><stop stop-opacity="1" stop-color="rgb(93.12439%, 87.165833%, 28.7323%)" offset="0.398437"/><stop stop-opacity="1" stop-color="rgb(93.078613%, 87.503052%, 28.578186%)" offset="0.402344"/><stop stop-opacity="1" stop-color="rgb(93.032837%, 87.841797%, 28.424072%)" offset="0.40625"/><stop stop-opacity="1" stop-color="rgb(92.985535%, 88.179016%, 28.269958%)" offset="0.410156"/><stop stop-opacity="1" stop-color="rgb(92.939758%, 88.517761%, 28.117371%)" offset="0.414062"/><stop stop-opacity="1" stop-color="rgb(92.893982%, 88.85498%, 27.963257%)" offset="0.417969"/><stop stop-opacity="1" stop-color="rgb(92.848206%, 89.193726%, 27.809143%)" offset="0.421875"/><stop stop-opacity="1" stop-color="rgb(92.802429%, 89.530945%, 27.655029%)" offset="0.425781"/><stop stop-opacity="1" stop-color="rgb(92.756653%, 89.86969%, 27.500916%)" offset="0.429687"/><stop stop-opacity="1" stop-color="rgb(92.709351%, 90.206909%, 27.346802%)" offset="0.433594"/><stop stop-opacity="1" stop-color="rgb(92.663574%, 90.545654%, 27.192688%)" offset="0.4375"/><stop stop-opacity="1" stop-color="rgb(92.617798%, 90.882874%, 27.038574%)" offset="0.441406"/><stop stop-opacity="1" stop-color="rgb(92.572021%, 91.221619%, 26.885986%)" offset="0.445312"/><stop stop-opacity="1" stop-color="rgb(92.526245%, 91.558838%, 26.731873%)" offset="0.449219"/><stop stop-opacity="1" stop-color="rgb(92.480469%, 91.897583%, 26.577759%)" offset="0.453125"/><stop stop-opacity="1" stop-color="rgb(92.434692%, 92.234802%, 26.423645%)" offset="0.457031"/><stop stop-opacity="1" stop-color="rgb(92.388916%, 92.573547%, 26.269531%)" offset="0.460937"/><stop stop-opacity="1" stop-color="rgb(92.341614%, 92.910767%, 26.115417%)" offset="0.464844"/><stop stop-opacity="1" stop-color="rgb(92.295837%, 93.247986%, 25.961304%)" offset="0.46875"/><stop stop-opacity="1" stop-color="rgb(92.250061%, 93.585205%, 25.80719%)" offset="0.472656"/><stop stop-opacity="1" stop-color="rgb(92.204285%, 93.92395%, 25.654602%)" offset="0.476562"/><stop stop-opacity="1" stop-color="rgb(92.158508%, 94.261169%, 25.500488%)" offset="0.480469"/><stop stop-opacity="1" stop-color="rgb(92.112732%, 94.599915%, 25.346375%)" offset="0.484375"/><stop stop-opacity="1" stop-color="rgb(92.06543%, 94.937134%, 25.192261%)" offset="0.488281"/><stop stop-opacity="1" stop-color="rgb(92.019653%, 95.275879%, 25.038147%)" offset="0.492187"/><stop stop-opacity="1" stop-color="rgb(91.973877%, 95.613098%, 24.884033%)" offset="0.496094"/><stop stop-opacity="1" stop-color="rgb(91.928101%, 95.951843%, 24.729919%)" offset="0.5"/><stop stop-opacity="1" stop-color="rgb(91.882324%, 96.289062%, 24.575806%)" offset="0.503906"/><stop stop-opacity="1" stop-color="rgb(91.836548%, 96.627808%, 24.423218%)" offset="0.507812"/><stop stop-opacity="1" stop-color="rgb(91.38031%, 96.673584%, 24.719238%)" offset="0.511719"/><stop stop-opacity="1" stop-color="rgb(90.924072%, 96.720886%, 25.016785%)" offset="0.515625"/><stop stop-opacity="1" stop-color="rgb(90.193176%, 96.572876%, 25.614929%)" offset="0.519531"/><stop stop-opacity="1" stop-color="rgb(89.463806%, 96.424866%, 26.213074%)" offset="0.523437"/><stop stop-opacity="1" stop-color="rgb(88.73291%, 96.276855%, 26.811218%)" offset="0.527344"/><stop stop-opacity="1" stop-color="rgb(88.00354%, 96.128845%, 27.410889%)" offset="0.53125"/><stop stop-opacity="1" stop-color="rgb(87.272644%, 95.979309%, 28.009033%)" offset="0.535156"/><stop stop-opacity="1" stop-color="rgb(86.543274%, 95.831299%, 28.607178%)" offset="0.539062"/><stop stop-opacity="1" stop-color="rgb(85.812378%, 95.683289%, 29.205322%)" offset="0.542969"/><stop stop-opacity="1" stop-color="rgb(85.083008%, 95.535278%, 29.804993%)" offset="0.546875"/><stop stop-opacity="1" stop-color="rgb(84.352112%, 95.385742%, 30.403137%)" offset="0.550781"/><stop stop-opacity="1" stop-color="rgb(83.622742%, 95.237732%, 31.002808%)" offset="0.554687"/><stop stop-opacity="1" stop-color="rgb(82.891846%, 95.089722%, 31.600952%)" offset="0.558594"/><stop stop-opacity="1" stop-color="rgb(82.16095%, 94.941711%, 32.199097%)" offset="0.5625"/><stop stop-opacity="1" stop-color="rgb(81.430054%, 94.793701%, 32.797241%)" offset="0.566406"/><stop stop-opacity="1" stop-color="rgb(80.700684%, 94.645691%, 33.396912%)" offset="0.570312"/><stop stop-opacity="1" stop-color="rgb(79.969788%, 94.496155%, 33.995056%)" offset="0.574219"/><stop stop-opacity="1" stop-color="rgb(79.240417%, 94.348145%, 34.593201%)" offset="0.578125"/><stop stop-opacity="1" stop-color="rgb(78.509521%, 94.200134%, 35.191345%)" offset="0.582031"/><stop stop-opacity="1" stop-color="rgb(77.780151%, 94.052124%, 35.791016%)" offset="0.585937"/><stop stop-opacity="1" stop-color="rgb(77.049255%, 93.902588%, 36.38916%)" offset="0.589844"/><stop stop-opacity="1" stop-color="rgb(76.319885%, 93.754578%, 36.987305%)" offset="0.59375"/><stop stop-opacity="1" stop-color="rgb(75.588989%, 93.606567%, 37.585449%)" offset="0.597656"/><stop stop-opacity="1" stop-color="rgb(74.859619%, 93.458557%, 38.18512%)" offset="0.601562"/><stop stop-opacity="1" stop-color="rgb(74.128723%, 93.309021%, 38.783264%)" offset="0.605469"/><stop stop-opacity="1" stop-color="rgb(73.399353%, 93.161011%, 39.381409%)" offset="0.609375"/><stop stop-opacity="1" stop-color="rgb(72.668457%, 93.013%, 39.979553%)" offset="0.613281"/><stop stop-opacity="1" stop-color="rgb(71.939087%, 92.86499%, 40.579224%)" offset="0.617187"/><stop stop-opacity="1" stop-color="rgb(71.208191%, 92.71698%, 41.177368%)" offset="0.621094"/><stop stop-opacity="1" stop-color="rgb(70.478821%, 92.56897%, 41.777039%)" offset="0.625"/><stop stop-opacity="1" stop-color="rgb(69.747925%, 92.419434%, 42.375183%)" offset="0.628906"/><stop stop-opacity="1" stop-color="rgb(69.017029%, 92.271423%, 42.973328%)" offset="0.632812"/><stop stop-opacity="1" stop-color="rgb(68.286133%, 92.123413%, 43.571472%)" offset="0.636719"/><stop stop-opacity="1" stop-color="rgb(67.556763%, 91.975403%, 44.171143%)" offset="0.640625"/><stop stop-opacity="1" stop-color="rgb(66.825867%, 91.825867%, 44.769287%)" offset="0.644531"/><stop stop-opacity="1" stop-color="rgb(66.096497%, 91.677856%, 45.367432%)" offset="0.648437"/><stop stop-opacity="1" stop-color="rgb(65.365601%, 91.529846%, 45.965576%)" offset="0.652344"/><stop stop-opacity="1" stop-color="rgb(64.63623%, 91.381836%, 46.565247%)" offset="0.65625"/><stop stop-opacity="1" stop-color="rgb(63.905334%, 91.233826%, 47.163391%)" offset="0.660156"/><stop stop-opacity="1" stop-color="rgb(63.175964%, 91.085815%, 47.761536%)" offset="0.664062"/><stop stop-opacity="1" stop-color="rgb(62.445068%, 90.936279%, 48.35968%)" offset="0.667969"/><stop stop-opacity="1" stop-color="rgb(61.715698%, 90.788269%, 48.959351%)" offset="0.671875"/><stop stop-opacity="1" stop-color="rgb(60.984802%, 90.640259%, 49.557495%)" offset="0.675781"/><stop stop-opacity="1" stop-color="rgb(60.255432%, 90.492249%, 50.15564%)" offset="0.679687"/><stop stop-opacity="1" stop-color="rgb(59.524536%, 90.342712%, 50.753784%)" offset="0.683594"/><stop stop-opacity="1" stop-color="rgb(58.795166%, 90.194702%, 51.353455%)" offset="0.6875"/><stop stop-opacity="1" stop-color="rgb(58.06427%, 90.046692%, 51.951599%)" offset="0.691406"/><stop stop-opacity="1" stop-color="rgb(57.3349%, 89.898682%, 52.55127%)" offset="0.695312"/><stop stop-opacity="1" stop-color="rgb(56.604004%, 89.749146%, 53.149414%)" offset="0.699219"/><stop stop-opacity="1" stop-color="rgb(55.873108%, 89.601135%, 53.747559%)" offset="0.703125"/><stop stop-opacity="1" stop-color="rgb(55.142212%, 89.453125%, 54.345703%)" offset="0.707031"/><stop stop-opacity="1" stop-color="rgb(54.412842%, 89.305115%, 54.945374%)" offset="0.710937"/><stop stop-opacity="1" stop-color="rgb(53.681946%, 89.157104%, 55.543518%)" offset="0.714844"/><stop stop-opacity="1" stop-color="rgb(52.952576%, 89.009094%, 56.141663%)" offset="0.71875"/><stop stop-opacity="1" stop-color="rgb(52.22168%, 88.859558%, 56.739807%)" offset="0.722656"/><stop stop-opacity="1" stop-color="rgb(51.49231%, 88.711548%, 57.339478%)" offset="0.726562"/><stop stop-opacity="1" stop-color="rgb(50.761414%, 88.563538%, 57.937622%)" offset="0.730469"/><stop stop-opacity="1" stop-color="rgb(50.032043%, 88.415527%, 58.535767%)" offset="0.734375"/><stop stop-opacity="1" stop-color="rgb(49.301147%, 88.265991%, 59.133911%)" offset="0.738281"/><stop stop-opacity="1" stop-color="rgb(48.571777%, 88.117981%, 59.733582%)" offset="0.742187"/><stop stop-opacity="1" stop-color="rgb(47.840881%, 87.969971%, 60.331726%)" offset="0.746094"/><stop stop-opacity="1" stop-color="rgb(47.111511%, 87.82196%, 60.929871%)" offset="0.75"/><stop stop-opacity="1" stop-color="rgb(46.380615%, 87.67395%, 61.528015%)" offset="0.753906"/><stop stop-opacity="1" stop-color="rgb(45.651245%, 87.52594%, 62.127686%)" offset="0.757812"/><stop stop-opacity="1" stop-color="rgb(44.920349%, 87.376404%, 62.72583%)" offset="0.761719"/><stop stop-opacity="1" stop-color="rgb(44.190979%, 87.228394%, 63.3255%)" offset="0.765625"/><stop stop-opacity="1" stop-color="rgb(43.460083%, 87.080383%, 63.923645%)" offset="0.769531"/><stop stop-opacity="1" stop-color="rgb(42.729187%, 86.932373%, 64.52179%)" offset="0.773437"/><stop stop-opacity="1" stop-color="rgb(41.998291%, 86.782837%, 65.119934%)" offset="0.777344"/><stop stop-opacity="1" stop-color="rgb(41.268921%, 86.634827%, 65.719604%)" offset="0.78125"/><stop stop-opacity="1" stop-color="rgb(40.538025%, 86.486816%, 66.317749%)" offset="0.785156"/><stop stop-opacity="1" stop-color="rgb(39.808655%, 86.338806%, 66.915894%)" offset="0.789062"/><stop stop-opacity="1" stop-color="rgb(39.077759%, 86.190796%, 67.514038%)" offset="0.792969"/><stop stop-opacity="1" stop-color="rgb(38.348389%, 86.042786%, 68.113708%)" offset="0.796875"/><stop stop-opacity="1" stop-color="rgb(37.617493%, 85.89325%, 68.711853%)" offset="0.800781"/><stop stop-opacity="1" stop-color="rgb(36.888123%, 85.745239%, 69.309998%)" offset="0.804687"/><stop stop-opacity="1" stop-color="rgb(36.157227%, 85.597229%, 69.908142%)" offset="0.808594"/><stop stop-opacity="1" stop-color="rgb(35.427856%, 85.449219%, 70.507812%)" offset="0.8125"/><stop stop-opacity="1" stop-color="rgb(34.69696%, 85.299683%, 71.105957%)" offset="0.816406"/><stop stop-opacity="1" stop-color="rgb(33.96759%, 85.151672%, 71.704102%)" offset="0.820312"/><stop stop-opacity="1" stop-color="rgb(33.236694%, 85.003662%, 72.302246%)" offset="0.824219"/><stop stop-opacity="1" stop-color="rgb(32.507324%, 84.855652%, 72.901917%)" offset="0.828125"/><stop stop-opacity="1" stop-color="rgb(31.776428%, 84.706116%, 73.500061%)" offset="0.832031"/><stop stop-opacity="1" stop-color="rgb(31.047058%, 84.558105%, 74.099731%)" offset="0.835937"/><stop stop-opacity="1" stop-color="rgb(30.316162%, 84.410095%, 74.697876%)" offset="0.839844"/><stop stop-opacity="1" stop-color="rgb(29.585266%, 84.262085%, 75.296021%)" offset="0.84375"/><stop stop-opacity="1" stop-color="rgb(28.85437%, 84.114075%, 75.894165%)" offset="0.847656"/><stop stop-opacity="1" stop-color="rgb(28.125%, 83.966064%, 76.493835%)" offset="0.851562"/><stop stop-opacity="1" stop-color="rgb(27.394104%, 83.816528%, 77.09198%)" offset="0.855469"/><stop stop-opacity="1" stop-color="rgb(26.664734%, 83.668518%, 77.690125%)" offset="0.859375"/><stop stop-opacity="1" stop-color="rgb(25.933838%, 83.520508%, 78.288269%)" offset="0.863281"/><stop stop-opacity="1" stop-color="rgb(25.204468%, 83.372498%, 78.887939%)" offset="0.867187"/><stop stop-opacity="1" stop-color="rgb(24.473572%, 83.222961%, 79.486084%)" offset="0.871094"/><stop stop-opacity="1" stop-color="rgb(23.744202%, 83.074951%, 80.084229%)" offset="0.875"/><stop stop-opacity="1" stop-color="rgb(23.013306%, 82.926941%, 80.682373%)" offset="0.878906"/><stop stop-opacity="1" stop-color="rgb(22.283936%, 82.778931%, 81.282043%)" offset="0.882812"/><stop stop-opacity="1" stop-color="rgb(21.55304%, 82.63092%, 81.880188%)" offset="0.886719"/><stop stop-opacity="1" stop-color="rgb(20.823669%, 82.48291%, 82.478333%)" offset="0.890625"/><stop stop-opacity="1" stop-color="rgb(20.092773%, 82.333374%, 83.076477%)" offset="0.894531"/><stop stop-opacity="1" stop-color="rgb(19.363403%, 82.185364%, 83.676147%)" offset="0.898437"/><stop stop-opacity="1" stop-color="rgb(18.632507%, 82.037354%, 84.274292%)" offset="0.902344"/><stop stop-opacity="1" stop-color="rgb(17.903137%, 81.889343%, 84.873962%)" offset="0.90625"/><stop stop-opacity="1" stop-color="rgb(17.172241%, 81.739807%, 85.472107%)" offset="0.910156"/><stop stop-opacity="1" stop-color="rgb(16.441345%, 81.591797%, 86.070251%)" offset="0.914062"/><stop stop-opacity="1" stop-color="rgb(15.710449%, 81.443787%, 86.668396%)" offset="0.917969"/><stop stop-opacity="1" stop-color="rgb(14.981079%, 81.295776%, 87.268066%)" offset="0.921875"/><stop stop-opacity="1" stop-color="rgb(14.250183%, 81.14624%, 87.866211%)" offset="0.925781"/><stop stop-opacity="1" stop-color="rgb(13.520813%, 80.99823%, 88.464355%)" offset="0.929688"/><stop stop-opacity="1" stop-color="rgb(12.789917%, 80.85022%, 89.0625%)" offset="0.933594"/><stop stop-opacity="1" stop-color="rgb(12.060547%, 80.702209%, 89.66217%)" offset="0.9375"/><stop stop-opacity="1" stop-color="rgb(11.329651%, 80.554199%, 90.260315%)" offset="0.941406"/><stop stop-opacity="1" stop-color="rgb(10.600281%, 80.406189%, 90.858459%)" offset="0.945312"/><stop stop-opacity="1" stop-color="rgb(9.869385%, 80.256653%, 91.456604%)" offset="0.949219"/><stop stop-opacity="1" stop-color="rgb(9.140015%, 80.108643%, 92.056274%)" offset="0.953125"/><stop stop-opacity="1" stop-color="rgb(8.869934%, 80.053711%, 92.277527%)" offset="0.957031"/><stop stop-opacity="1" stop-color="rgb(8.599854%, 79.998779%, 92.498779%)" offset="0.960938"/><stop stop-opacity="1" stop-color="rgb(8.599854%, 79.998779%, 92.498779%)" offset="0.96875"/><stop stop-opacity="1" stop-color="rgb(8.599854%, 79.998779%, 92.498779%)" offset="1"/></linearGradient></defs><g clip-path="url(#52f099e15f)"><g clip-path="url(#5134924d21)"><path fill="url(#1d0c844d4c)" d="M 83.636719 37.5 L 83.636719 245.25 L 291.386719 245.25 L 291.386719 37.5 Z M 83.636719 37.5 " fill-rule="nonzero"/></g></g><g fill="#0097b2" fill-opacity="1"><g transform="translate(62.110339, 292.443322)"><g><path d="M 39.195312 3.390625 C 38.964844 3.117188 38.925781 3.011719 38.988281 2.867188 C 38.753906 1.8125 38.523438 0.753906 38.183594 -0.257812 C 37.773438 -1.304688 37.433594 -2.320312 37.023438 -3.367188 C 36.613281 -4.414062 36.277344 -5.425781 35.9375 -6.441406 C 35.527344 -7.488281 35.261719 -8.472656 35.058594 -9.601562 C 34.5625 -11.640625 34.273438 -13.757812 34.160156 -15.890625 C 34.046875 -18.019531 33.800781 -20.035156 33.449219 -22.011719 C 33.125 -24.058594 32.710938 -25.886719 32.117188 -27.707031 C 31.492188 -29.457031 30.476562 -31.109375 29.078125 -32.675781 C 28.589844 -33.148438 28.039062 -33.476562 27.457031 -33.730469 C 26.875 -33.984375 26.292969 -34.238281 25.707031 -34.492188 C 24.792969 -34.976562 24.132812 -34.65625 23.835938 -33.574219 C 23.335938 -32.230469 22.722656 -31.023438 21.929688 -29.808594 C 21.140625 -28.589844 20.246094 -27.335938 19.382812 -26.148438 C 18.488281 -24.890625 17.519531 -23.667969 16.65625 -22.484375 C 15.792969 -21.296875 15 -20.082031 14.386719 -18.875 C 13.480469 -17.191406 12.75 -15.515625 12.121094 -13.878906 C 11.464844 -12.171875 10.660156 -10.527344 9.785156 -8.914062 C 9.511719 -8.6875 9.351562 -8.324219 9.226562 -8.03125 C 9.066406 -7.667969 8.835938 -7.335938 8.605469 -7 C 7.804688 -5.964844 7.148438 -4.859375 6.503906 -3.582031 C 5.859375 -2.300781 5.257812 -0.917969 4.652344 0.46875 C 4.046875 1.851562 3.519531 3.269531 3.019531 4.613281 C 2.488281 6.027344 2.019531 7.296875 1.65625 8.527344 C 1.160156 9.871094 0.804688 11.277344 0.523438 12.71875 C 0.246094 14.15625 0.101562 15.480469 0.175781 16.898438 C 0.175781 18.289062 0.355469 19.667969 0.816406 20.996094 C 1.171875 22.367188 1.84375 23.613281 2.828125 24.734375 C 3.40625 25.59375 4.125 26.339844 4.976562 26.972656 C 5.828125 27.605469 6.679688 28.234375 7.425781 28.910156 C 7.46875 29.011719 7.539062 29.042969 7.613281 29.078125 C 7.613281 29.078125 7.71875 29.035156 7.863281 29.097656 C 9.730469 29.394531 11.367188 29.414062 12.707031 29.128906 C 14.011719 28.917969 15.089844 28.433594 15.972656 27.605469 C 16.855469 26.777344 17.582031 25.707031 18.152344 24.394531 C 18.652344 23.050781 19.132812 21.351562 19.457031 19.414062 C 19.65625 17.765625 20.074219 16.210938 20.742188 14.683594 C 21.410156 13.152344 22.074219 11.621094 22.847656 10.050781 C 23.589844 8.550781 24.328125 7.054688 25.171875 5.515625 C 25.945312 3.941406 26.613281 2.414062 27.175781 0.921875 C 27.410156 -0.015625 27.761719 -0.816406 28.285156 -1.625 C 28.742188 -2.46875 29.195312 -3.3125 29.753906 -4.195312 C 29.628906 -3.902344 29.695312 -3.265625 30.097656 -2.398438 C 30.425781 -1.5625 30.867188 -0.585938 31.417969 0.34375 C 31.933594 1.351562 32.480469 2.28125 32.984375 3.109375 C 33.460938 4.011719 33.738281 4.566406 33.964844 4.839844 C 34.179688 5.539062 34.324219 6.207031 34.351562 6.742188 C 34.316406 7.417969 34.382812 8.058594 34.527344 8.726562 C 34.59375 9.363281 34.488281 10.007812 34.054688 10.601562 C 34.023438 10.675781 33.992188 10.746094 34.03125 10.851562 C 34 10.925781 34.042969 11.03125 34.011719 11.101562 C 34.023438 12.0625 34.25 12.941406 34.714844 13.664062 C 35.105469 14.355469 35.675781 15.039062 36.308594 15.574219 C 37.097656 16.351562 37.972656 16.734375 39.003906 16.75 C 39.964844 16.734375 40.824219 16.15625 41.480469 15.054688 C 42.566406 13.359375 43.652344 11.664062 44.558594 9.980469 C 45.46875 8.292969 46.449219 6.640625 47.503906 5.019531 C 49.019531 2.730469 50.539062 0.445312 52.160156 -1.882812 C 53.679688 -4.167969 55.226562 -6.527344 56.703125 -8.921875 C 58.179688 -11.3125 59.585938 -13.734375 60.914062 -16.191406 C 62.171875 -18.675781 63.359375 -21.195312 64.324219 -23.808594 C 64.570312 -24.570312 64.847656 -25.402344 65.089844 -26.164062 C 65.335938 -26.921875 65.757812 -27.691406 66.429688 -28.441406 C 66.496094 -28.585938 66.558594 -28.730469 66.539062 -29.085938 C 66.488281 -29.371094 66.511719 -29.621094 66.5 -29.796875 C 66.304688 -30.144531 66.183594 -30.457031 65.988281 -30.800781 C 65.757812 -31.074219 65.636719 -31.390625 65.511719 -31.703125 C 65.160156 -32.289062 64.683594 -32.585938 64.148438 -32.558594 C 63.617188 -32.527344 63.167969 -32.292969 62.945312 -31.78125 C 62.746094 -31.523438 62.617188 -31.230469 62.492188 -30.9375 C 62.363281 -30.648438 62.339844 -30.398438 62.246094 -30.179688 C 62 -29.417969 61.722656 -28.585938 61.550781 -27.792969 C 61.308594 -27.03125 60.988281 -26.304688 60.558594 -25.710938 C 59.96875 -24.753906 59.375 -23.796875 58.785156 -22.84375 C 58.195312 -21.886719 57.5625 -21.035156 56.972656 -20.078125 C 56.773438 -19.816406 56.574219 -19.558594 56.375 -19.296875 C 56.171875 -19.039062 55.972656 -18.777344 55.847656 -18.488281 C 55.382812 -17.820312 54.992188 -17.125 54.601562 -16.429688 C 54.210938 -15.730469 53.851562 -15.105469 53.492188 -14.484375 L 53.21875 -14.253906 C 51.875 -12.761719 50.570312 -11.160156 49.226562 -9.667969 C 47.878906 -8.171875 46.648438 -6.542969 45.488281 -4.878906 C 44.488281 -3.582031 43.488281 -2.28125 42.5625 -0.953125 C 41.636719 0.378906 40.636719 1.675781 39.667969 2.902344 C 39.570312 3.121094 39.402344 3.308594 39.195312 3.390625 Z M 39.195312 3.390625 "/></g></g></g><g fill="#0097b2" fill-opacity="1"><g transform="translate(111.968076, 312.593533)"><g><path d="M 7.390625 5.8125 C 8.226562 6.371094 9.128906 6.703125 10.066406 6.875 C 11.007812 7.050781 11.859375 6.953125 12.792969 6.550781 C 12.988281 6.441406 13.242188 6.425781 13.394531 6.46875 L 14.734375 6.09375 C 15.277344 5.910156 15.898438 5.753906 16.519531 5.59375 C 17.140625 5.433594 17.761719 5.273438 18.304688 5.09375 C 18.847656 4.910156 19.292969 4.785156 19.566406 4.695312 C 19.9375 4.550781 20.230469 4.382812 20.542969 4.140625 C 20.757812 3.949219 21.113281 3.554688 21.511719 3.003906 C 21.554688 2.851562 21.671875 2.71875 21.738281 2.488281 L 21.863281 2.027344 C 22.050781 1.335938 21.792969 0.773438 21.265625 0.296875 C 21 0.0625 20.714844 -0.101562 20.519531 0.0117188 C 20.246094 0.101562 19.996094 0.117188 19.722656 0.207031 C 19.332031 0.429688 19.039062 0.59375 18.648438 0.820312 C 18.257812 1.042969 17.945312 1.285156 17.652344 1.453125 C 15.585938 2.371094 13.726562 2.851562 11.890625 2.925781 C 10.058594 3 8.488281 2.40625 7.285156 1.085938 C 6.46875 0.453125 6.085938 -0.558594 6.039062 -1.890625 C 5.96875 -2.238281 5.976562 -2.566406 6.039062 -2.796875 C 6.082031 -2.949219 6.125 -3.105469 6.242188 -3.238281 C 6.363281 -3.367188 6.535156 -3.402344 6.710938 -3.4375 C 6.882812 -3.472656 7.210938 -3.464844 7.636719 -3.515625 C 8.488281 -3.609375 9.359375 -3.785156 10.140625 -4.230469 C 10.921875 -4.675781 11.625 -5.140625 12.296875 -5.78125 C 12.945312 -6.347656 13.617188 -6.988281 14.285156 -7.628906 C 14.957031 -8.269531 15.625 -8.910156 16.253906 -9.398438 C 16.785156 -9.828125 17.257812 -10.359375 17.601562 -11.007812 C 17.921875 -11.578125 18.339844 -12.207031 18.683594 -12.855469 C 18.886719 -13.292969 19.03125 -13.828125 19.046875 -14.484375 C 19.0625 -15.140625 19.054688 -15.71875 18.894531 -16.339844 C 18.714844 -16.882812 18.457031 -17.449219 18.082031 -17.882812 C 17.703125 -18.3125 17.230469 -18.691406 16.695312 -18.835938 L 15.925781 -19.046875 C 16.046875 -19.179688 16.164062 -19.3125 16.28125 -19.445312 C 16.324219 -19.597656 16.464844 -19.804688 16.679688 -19.996094 C 16.777344 -20.050781 16.722656 -20.148438 16.613281 -20.34375 C 16.480469 -20.460938 16.402344 -20.484375 16.304688 -20.425781 C 16.074219 -20.488281 15.898438 -20.457031 15.800781 -20.398438 C 14.714844 -20.039062 13.683594 -19.578125 12.574219 -19.140625 C 12.03125 -18.960938 11.714844 -18.714844 11.574219 -18.507812 C 11.144531 -18.132812 10.808594 -17.8125 10.472656 -17.492188 C 10.117188 -17.09375 9.78125 -16.773438 9.449219 -16.453125 C 9.132812 -16.207031 8.898438 -15.945312 8.636719 -15.601562 C 8.164062 -15.074219 7.746094 -14.445312 7.269531 -13.917969 C 6.796875 -13.386719 6.300781 -12.78125 5.902344 -12.230469 C 5.300781 -11.242188 4.757812 -10.152344 4.113281 -9.011719 C 3.472656 -7.867188 3.082031 -6.738281 3.074219 -5.503906 C 2.933594 -4.390625 2.890625 -3.328125 2.921875 -2.25 C 2.859375 -1.113281 2.992188 -0.0898438 3.351562 1 C 3.601562 1.894531 4.105469 2.773438 4.855469 3.636719 C 5.609375 4.5 6.402344 5.214844 7.390625 5.8125 Z M 9.421875 -11.84375 L 9.9375 -12.527344 C 10.078125 -12.734375 10.296875 -12.921875 10.511719 -13.113281 C 10.628906 -13.246094 10.726562 -13.300781 10.847656 -13.433594 C 10.886719 -13.585938 10.984375 -13.640625 11.105469 -13.773438 C 11.558594 -14.226562 12.089844 -14.660156 12.5625 -15.1875 C 13.015625 -15.640625 13.46875 -16.09375 14.019531 -16.601562 C 14.378906 -17 14.671875 -17.164062 14.824219 -17.125 C 14.976562 -17.082031 15.164062 -16.867188 15.445312 -16.378906 C 15.625 -15.832031 15.609375 -15.179688 15.289062 -14.605469 C 14.890625 -14.054688 14.417969 -13.527344 13.789062 -13.039062 C 13.117188 -12.398438 12.46875 -11.835938 11.765625 -11.367188 C 10.960938 -10.84375 10.257812 -10.378906 9.554688 -9.914062 C 9.359375 -9.800781 9.261719 -9.746094 9.164062 -9.691406 C 8.988281 -9.65625 8.890625 -9.597656 8.773438 -9.46875 C 8.8125 -9.621094 8.757812 -9.71875 8.605469 -9.761719 C 8.738281 -10.546875 9.003906 -11.21875 9.421875 -11.84375 Z M 9.421875 -11.84375 "/></g></g></g><g fill="#0097b2" fill-opacity="1"><g transform="translate(130.451705, 317.548256)"><g><path d="M 14.824219 -12.097656 C 14.835938 -12.582031 14.941406 -13.128906 15.035156 -13.597656 C 15.125 -14.066406 15.308594 -14.597656 15.402344 -15.0625 C 15.582031 -16 15.859375 -17 16.054688 -18.015625 C 16.238281 -18.949219 16.433594 -19.964844 16.460938 -20.933594 C 16.378906 -21.757812 16.21875 -22.597656 15.949219 -23.296875 C 15.601562 -24.015625 15.253906 -24.730469 14.832031 -25.460938 C 14.3125 -26.128906 13.75 -26.5625 13.140625 -26.761719 C 12.515625 -26.882812 11.796875 -26.941406 11.050781 -26.84375 C 10.628906 -26.761719 10.429688 -26.558594 10.367188 -26.246094 C 10.230469 -25.949219 10.089844 -25.652344 10.03125 -25.339844 C 9.890625 -25.042969 9.765625 -24.824219 9.707031 -24.511719 C 9.261719 -23.464844 8.875 -22.324219 8.507812 -21.261719 C 8.140625 -20.203125 7.753906 -19.0625 7.464844 -17.984375 C 7.1875 -17.390625 7.082031 -16.84375 6.960938 -16.21875 C 6.839844 -15.59375 6.578125 -15.078125 6.234375 -14.578125 C 6.128906 -14.4375 6.113281 -14.359375 6.113281 -14.359375 C 6.113281 -14.359375 6.097656 -14.28125 6.082031 -14.203125 C 6.007812 -13.8125 5.882812 -13.59375 5.789062 -13.53125 C 5.617188 -13.484375 5.367188 -13.453125 5.058594 -13.511719 C 4.746094 -13.574219 4.496094 -13.539062 4.339844 -13.570312 C 4.105469 -13.617188 3.855469 -13.582031 3.621094 -13.628906 C 3.308594 -13.691406 3.046875 -13.578125 3 -13.34375 C 2.925781 -12.957031 3.035156 -12.691406 3.347656 -12.628906 C 3.628906 -12.414062 3.832031 -12.210938 4.035156 -12.011719 C 4.148438 -11.746094 4.335938 -11.464844 4.617188 -11.25 C 4.882812 -10.953125 4.980469 -10.613281 4.824219 -10.238281 C 4.160156 -8.910156 3.734375 -7.535156 3.460938 -6.128906 L 2.640625 -1.917969 L 2.15625 0.582031 C 1.972656 1.515625 1.882812 2.390625 1.871094 3.28125 C 1.863281 4.167969 1.945312 4.992188 2.183594 5.851562 C 2.34375 6.691406 2.753906 7.5 3.363281 8.105469 C 3.867188 8.851562 4.570312 9.390625 5.398438 9.714844 C 6.148438 10.023438 7.007812 10.191406 7.988281 10.136719 C 9.296875 10.066406 10 9.800781 10.183594 9.269531 C 10.367188 8.738281 10.363281 7.925781 10.15625 6.914062 C 10.011719 6.402344 9.996094 6.074219 10.054688 5.761719 C 10.101562 5.527344 10.175781 5.136719 10.265625 4.667969 C 10.371094 3.71875 10.554688 2.78125 10.734375 1.84375 C 10.917969 0.910156 11.101562 -0.0273438 11.4375 -0.933594 C 11.730469 -2.011719 12.019531 -3.089844 12.308594 -4.164062 C 12.523438 -5.257812 12.90625 -6.398438 13.351562 -7.445312 C 13.566406 -8.132812 13.71875 -8.507812 13.828125 -8.648438 C 13.921875 -8.710938 14.390625 -8.621094 15.3125 -8.359375 C 15.53125 -8.238281 15.84375 -8.175781 16.15625 -8.113281 C 16.464844 -8.054688 16.792969 -8.070312 17.121094 -8.089844 C 17.292969 -8.136719 17.542969 -8.167969 17.726562 -8.296875 C 17.898438 -8.34375 18.148438 -8.375 18.414062 -8.484375 C 18.675781 -8.597656 18.800781 -8.816406 18.785156 -9.140625 C 18.671875 -9.40625 18.578125 -9.75 18.511719 -10.246094 C 18.074219 -10.898438 17.507812 -11.332031 16.886719 -11.457031 C 16.183594 -11.59375 15.496094 -11.804688 14.824219 -12.097656 Z M 14.824219 -12.097656 "/></g></g></g><g fill="#0097b2" fill-opacity="1"><g transform="translate(149.35999, 321.30128)"><g><path d="M 10.714844 -4.125 C 10.652344 -4.292969 10.660156 -4.371094 10.675781 -4.53125 L 10.753906 -5.320312 C 10.816406 -5.953125 10.808594 -6.671875 10.878906 -7.386719 C 10.941406 -8.019531 10.933594 -8.738281 10.925781 -9.457031 C 10.832031 -10.105469 10.734375 -10.753906 10.484375 -11.417969 C 10.230469 -12.082031 9.886719 -12.675781 9.304688 -13.214844 C 8.789062 -13.664062 8.195312 -14.125 7.453125 -14.675781 C 6.699219 -15.152344 5.941406 -15.546875 5.324219 -15.765625 C 5.242188 -15.773438 5.164062 -15.78125 5.171875 -15.863281 C 4.390625 -16.019531 3.765625 -16.160156 3.210938 -16.214844 C 2.578125 -16.28125 2.0625 -15.929688 1.597656 -15.257812 L 1.511719 -15.1875 L 1.503906 -15.109375 C 1.699219 -14.6875 1.890625 -14.191406 1.996094 -13.621094 C 2.089844 -12.972656 2.121094 -12.492188 2.082031 -12.09375 C 1.710938 -9.976562 1.65625 -7.824219 1.910156 -5.5625 C 2.164062 -3.300781 2.847656 -1.316406 4.105469 0.488281 C 4.375 0.996094 4.652344 1.421875 5.078125 1.941406 C 5.425781 2.457031 5.871094 2.820312 6.410156 3.035156 C 6.710938 3.222656 7.089844 3.421875 7.476562 3.539062 C 7.785156 3.648438 8.171875 3.769531 8.640625 3.894531 C 9.097656 4.101562 9.738281 4.085938 10.472656 3.917969 C 11.210938 3.75 11.796875 3.488281 12.308594 3.140625 C 12.648438 2.9375 12.917969 2.644531 13.203125 2.191406 C 13.480469 1.820312 13.675781 1.441406 13.722656 0.964844 C 13.761719 0.570312 13.976562 0.03125 14.433594 -0.5625 C 14.894531 -1.15625 15.257812 -1.597656 15.527344 -1.890625 C 15.542969 -2.046875 15.707031 -2.113281 15.867188 -2.097656 C 15.9375 -2.007812 16.007812 -1.921875 16.007812 -1.921875 C 16 -1.84375 16.070312 -1.757812 16.152344 -1.75 C 16.199219 -1.425781 16.253906 -1.179688 16.324219 -1.09375 C 16.421875 -0.445312 16.609375 0.0546875 16.808594 0.472656 C 17.007812 0.894531 17.285156 1.320312 17.640625 1.753906 C 17.84375 2.09375 18.226562 2.292969 18.683594 2.496094 C 19.144531 2.703125 19.617188 2.75 20.027344 2.632812 C 20.1875 2.648438 20.273438 2.574219 20.449219 2.433594 C 20.613281 2.371094 20.699219 2.300781 20.875 2.15625 C 21.128906 2.023438 21.300781 1.878906 21.40625 1.648438 C 21.609375 1.191406 21.824219 0.652344 22.125 0.0429688 C 22.335938 -0.492188 22.628906 -1.023438 22.992188 -1.46875 C 23.625 -2.203125 24.1875 -3.027344 24.675781 -3.9375 C 25.078125 -4.773438 25.410156 -5.699219 25.601562 -6.800781 C 25.609375 -6.878906 25.617188 -6.957031 25.625 -7.035156 C 25.625 -7.035156 25.710938 -7.109375 25.726562 -7.265625 C 25.867188 -7.890625 26.011719 -8.515625 26.230469 -9.132812 C 26.453125 -9.75 26.4375 -10.390625 26.261719 -11.046875 C 26.199219 -11.214844 26.144531 -11.457031 26.113281 -11.941406 C 25.96875 -12.117188 25.820312 -12.210938 25.675781 -12.382812 C 25.535156 -12.558594 25.296875 -12.582031 25.140625 -12.597656 C 24.808594 -12.46875 24.625 -12.25 24.585938 -11.855469 C 24.539062 -11.378906 24.417969 -10.992188 24.300781 -10.605469 C 24.183594 -10.214844 24.066406 -9.828125 23.945312 -9.441406 C 23.734375 -8.902344 23.605469 -8.4375 23.480469 -7.96875 C 23.355469 -7.503906 23.226562 -7.035156 23.101562 -6.570312 C 22.863281 -5.792969 22.484375 -5.191406 22.105469 -4.589844 C 21.726562 -3.988281 21.277344 -3.476562 20.746094 -2.96875 L 20.382812 -2.527344 C 20.207031 -2.382812 20.113281 -2.234375 20.027344 -2.160156 C 19.679688 -1.875 19.519531 -1.890625 19.402344 -2.304688 C 19.339844 -2.46875 19.28125 -2.714844 19.25 -3.199219 C 18.996094 -3.863281 18.980469 -4.503906 19.058594 -5.292969 C 19.136719 -6.085938 18.964844 -6.742188 18.632812 -7.414062 C 18.21875 -8.09375 17.625 -8.550781 16.789062 -8.953125 C 15.863281 -9.285156 15.0625 -9.285156 14.390625 -8.953125 C 13.980469 -8.835938 13.789062 -8.535156 13.757812 -8.21875 C 13.742188 -8.058594 13.648438 -7.910156 13.640625 -7.828125 C 13.363281 -7.457031 13.078125 -7.007812 12.777344 -6.398438 C 12.480469 -5.789062 12.195312 -5.335938 11.933594 -5.125 C 11.507812 -4.847656 11.070312 -4.492188 10.714844 -4.125 Z M 10.714844 -4.125 "/></g></g></g><g fill="#0097b2" fill-opacity="1"><g transform="translate(177.365649, 323.783999)"><g><path d="M 13.621094 -13.328125 C 13.621094 -13.722656 13.464844 -14.121094 13.226562 -14.597656 C 13.066406 -14.917969 12.988281 -15.15625 12.988281 -15.394531 C 12.832031 -15.953125 12.59375 -16.347656 12.277344 -16.667969 C 11.640625 -17.144531 11.007812 -17.464844 10.292969 -17.546875 C 9.8125 -17.625 9.335938 -17.707031 8.859375 -17.707031 C 8.382812 -17.710938 7.90625 -17.472656 7.507812 -17.15625 C 7.347656 -16.996094 7.109375 -16.917969 6.949219 -16.839844 C 6.710938 -16.679688 6.554688 -16.601562 6.472656 -16.441406 C 6.3125 -16.28125 6.234375 -16.28125 6.234375 -16.28125 C 5.597656 -15.808594 5.121094 -15.410156 4.722656 -14.933594 C 4.242188 -14.457031 3.84375 -13.984375 3.367188 -13.507812 C 2.96875 -13.03125 2.648438 -12.554688 2.410156 -12 C 2.089844 -11.441406 1.851562 -10.886719 1.691406 -10.410156 C 1.609375 -10.25 1.53125 -10.011719 1.53125 -9.855469 C 1.449219 -9.695312 1.371094 -9.535156 1.371094 -9.378906 C 0.570312 -7.472656 0.25 -5.5625 0.40625 -3.496094 C 0.480469 -1.429688 1.113281 0.398438 2.222656 2.070312 C 2.855469 3.105469 3.648438 3.980469 4.601562 4.621094 C 5.554688 5.257812 6.507812 5.738281 7.617188 5.898438 C 8.730469 6.140625 9.765625 6.140625 10.878906 5.824219 C 11.992188 5.511719 12.945312 4.957031 13.902344 4.003906 C 14.859375 3.050781 15.496094 2.019531 15.898438 0.828125 C 16.21875 -0.285156 16.777344 -1.394531 17.574219 -2.507812 C 17.972656 -2.984375 18.210938 -3.617188 18.371094 -4.414062 C 18.53125 -5.207031 18.535156 -5.921875 18.375 -6.640625 C 18.21875 -7.355469 17.980469 -7.992188 17.507812 -8.546875 C 17.03125 -9.105469 16.476562 -9.503906 15.757812 -9.664062 C 15.519531 -9.664062 15.28125 -9.746094 15.125 -9.984375 C 14.648438 -10.304688 14.328125 -10.226562 14.171875 -9.828125 C 14.011719 -9.351562 14.007812 -9.03125 14.328125 -8.792969 C 15.59375 -7.203125 15.910156 -5.847656 15.273438 -4.578125 C 14.632812 -3.308594 13.519531 -2.199219 12.085938 -1.246094 C 11.289062 -0.613281 10.253906 -0.375 9.0625 -0.378906 C 8.585938 -0.378906 8.347656 -0.699219 8.429688 -1.332031 C 8.511719 -1.96875 8.671875 -2.765625 8.992188 -3.636719 C 9.308594 -4.511719 9.628906 -5.386719 9.949219 -6.179688 C 10.269531 -6.972656 10.507812 -7.449219 10.667969 -7.6875 C 10.667969 -7.6875 10.667969 -7.769531 10.828125 -7.925781 C 10.988281 -8.164062 11.148438 -8.402344 11.304688 -8.640625 C 11.464844 -8.800781 11.703125 -9.039062 12.023438 -9.277344 C 12.101562 -9.355469 12.183594 -9.433594 12.261719 -9.59375 C 12.261719 -9.753906 12.34375 -9.832031 12.5 -9.988281 C 12.582031 -10.148438 12.660156 -10.308594 12.742188 -10.464844 C 12.742188 -10.625 12.820312 -10.703125 12.980469 -10.863281 C 13.21875 -11.261719 13.378906 -11.65625 13.378906 -12.054688 C 13.378906 -12.453125 13.460938 -12.851562 13.621094 -13.328125 Z M 13.621094 -13.328125 "/></g></g></g><g fill="#0097b2" fill-opacity="1"><g transform="translate(198.623469, 323.707233)"><g><path d="M 16.945312 -15.324219 C 16.859375 -15.398438 16.855469 -15.476562 16.847656 -15.554688 C 16.847656 -15.554688 16.761719 -15.628906 16.75 -15.785156 C 16.585938 -15.851562 16.5 -15.925781 16.328125 -16.070312 C 16.15625 -16.21875 15.984375 -16.363281 15.894531 -16.515625 C 15.558594 -16.726562 15.3125 -16.789062 15.007812 -16.601562 C 14.003906 -16.203125 13.007812 -15.722656 12 -15.324219 C 11.003906 -14.84375 10.261719 -14.148438 9.699219 -13.222656 L 9.28125 -12.472656 C 8.988281 -12.128906 8.753906 -12.109375 8.632812 -12.578125 C 8.542969 -12.730469 8.53125 -12.890625 8.515625 -13.050781 C 8.503906 -13.207031 8.40625 -13.4375 8.394531 -13.597656 C 8.375 -13.835938 8.355469 -14.074219 8.335938 -14.308594 C 8.316406 -14.546875 8.296875 -14.785156 8.191406 -15.097656 C 7.824219 -15.703125 7.289062 -16.378906 6.585938 -17.199219 C 5.890625 -17.941406 5.117188 -18.597656 4.273438 -19.167969 C 3.4375 -19.65625 2.535156 -19.984375 1.644531 -20.148438 C 0.757812 -20.238281 -0.0195312 -20.015625 -0.761719 -19.316406 C -1.503906 -18.621094 -1.609375 -17.972656 -1.15625 -17.292969 C -0.964844 -16.910156 -0.933594 -16.511719 -0.910156 -16.195312 C -0.875 -15.800781 -0.84375 -15.402344 -0.660156 -15.097656 C -0.628906 -14.703125 -0.601562 -14.386719 -0.578125 -14.070312 C -0.550781 -13.753906 -0.519531 -13.355469 -0.496094 -13.039062 C -0.429688 -12.246094 -0.261719 -11.144531 -0.160156 -9.875 C -0.0585938 -8.609375 0.132812 -7.269531 0.246094 -5.839844 C 0.363281 -4.414062 0.476562 -2.988281 0.578125 -1.722656 C 0.679688 -0.453125 0.683594 0.582031 0.667969 1.382812 C 0.578125 3.222656 0.882812 5.03125 1.660156 6.726562 C 2.355469 8.421875 3.652344 9.675781 5.617188 10.3125 L 7.253906 10.820312 C 7.746094 11.019531 8.300781 10.972656 8.910156 10.605469 C 8.910156 10.605469 8.988281 10.597656 9.070312 10.59375 C 9.3125 10.652344 9.542969 10.554688 9.769531 10.375 C 9.996094 10.199219 10.21875 10.019531 10.445312 9.84375 C 10.589844 9.671875 10.816406 9.496094 10.953125 9.246094 C 11.101562 9.074219 11.160156 8.828125 11.21875 8.585938 C 11.261719 8.101562 11.222656 7.628906 11.105469 7.160156 C 10.988281 6.691406 10.789062 6.226562 10.433594 5.777344 C 10.085938 5.40625 9.890625 4.945312 9.925781 4.382812 C 9.871094 3.75 9.875 2.792969 9.777344 1.601562 L 9.480469 -2.121094 C 9.375 -3.386719 9.28125 -4.578125 9.265625 -5.773438 C 9.246094 -6.96875 9.328125 -7.929688 9.59375 -8.589844 C 9.972656 -9.816406 10.519531 -10.976562 11.386719 -12.085938 C 12.253906 -13.191406 13.214844 -14.144531 14.265625 -14.949219 C 14.488281 -15.125 14.726562 -15.144531 15.042969 -15.171875 C 15.699219 -14.984375 16.332031 -15.035156 16.945312 -15.324219 Z M 16.945312 -15.324219 "/></g></g></g><g fill="#0097b2" fill-opacity="1"><g transform="translate(219.541856, 322.072268)"><g><path d="M 16.019531 -19.121094 C 16.277344 -19.492188 16.535156 -19.859375 16.777344 -20.308594 C 17.03125 -20.675781 17.289062 -21.046875 17.714844 -21.367188 C 18.351562 -21.882812 18.890625 -22.464844 19.417969 -23.125 C 19.960938 -23.707031 20.410156 -24.355469 20.921875 -25.09375 C 21.113281 -25.371094 21.214844 -25.710938 21.300781 -26.132812 C 21.324219 -26.457031 21.332031 -26.863281 21.402344 -27.359375 C 21.464844 -27.453125 21.4375 -27.609375 21.316406 -27.832031 C 21.195312 -28.050781 21.089844 -28.191406 20.984375 -28.335938 C 20.0625 -28.976562 19.179688 -29.382812 18.261719 -29.542969 C 17.347656 -29.699219 16.363281 -29.765625 15.347656 -29.582031 C 15.269531 -29.566406 15.128906 -29.460938 14.828125 -29.328125 C 13.363281 -28.496094 12.03125 -27.367188 10.820312 -26.019531 C 10.550781 -25.730469 10.355469 -25.453125 10.152344 -25.253906 C 9.945312 -25.054688 9.738281 -24.855469 9.53125 -24.65625 C 9.402344 -24.472656 9.339844 -24.378906 9.261719 -24.367188 C 9.117188 -24.257812 9.039062 -24.246094 8.949219 -24.308594 C 8.792969 -24.28125 8.699219 -24.34375 8.671875 -24.5 C 8.5625 -24.644531 8.550781 -24.722656 8.523438 -24.878906 C 8.289062 -25.726562 8.054688 -26.570312 7.820312 -27.417969 C 7.589844 -28.265625 7.433594 -29.125 7.421875 -30.09375 C 7.410156 -31.949219 7.226562 -33.855469 6.890625 -35.730469 C 6.550781 -37.609375 6.433594 -39.605469 6.410156 -41.539062 C 6.324219 -42.011719 6.273438 -42.726562 6.277344 -43.617188 C 6.292969 -44.425781 6.136719 -45.289062 5.996094 -46.070312 C 5.855469 -46.851562 5.558594 -47.605469 5.132812 -48.175781 C 4.707031 -48.746094 4.167969 -49.050781 3.34375 -49.144531 C 2.859375 -49.140625 2.515625 -49.238281 2.148438 -49.496094 C 1.792969 -49.675781 1.375 -49.761719 0.953125 -49.847656 C 0.484375 -49.761719 -0.046875 -49.585938 -0.488281 -49.34375 C -0.929688 -49.101562 -1.371094 -48.863281 -1.828125 -48.699219 C -2.347656 -48.445312 -2.589844 -47.996094 -2.648438 -47.421875 C -2.71875 -46.921875 -2.714844 -46.441406 -2.785156 -45.941406 C -2.855469 -45.445312 -2.914062 -44.867188 -2.910156 -44.386719 C -3.199219 -40.617188 -3.160156 -36.828125 -2.953125 -32.988281 C -2.734375 -29.070312 -2.371094 -25.257812 -1.773438 -21.488281 C -1.179688 -17.316406 -0.589844 -13.140625 -0.015625 -9.042969 C 0.5 -4.855469 1.011719 -0.667969 1.523438 3.523438 C 2.035156 7.710938 2.625 11.886719 3.203125 15.980469 C 3.792969 20.15625 4.460938 24.316406 5.195312 28.382812 C 5.390625 29.480469 5.5625 30.417969 5.78125 31.1875 C 6 31.953125 6.296875 32.710938 6.722656 33.277344 C 7.070312 33.863281 7.574219 34.417969 8.21875 34.867188 C 8.789062 35.328125 9.667969 35.734375 10.769531 36.023438 C 11.46875 36.300781 12.214844 36.410156 12.839844 36.296875 C 13.464844 36.183594 14.183594 36.132812 14.902344 36.085938 C 16.105469 36.03125 16.90625 35.5625 17.394531 34.667969 C 17.800781 33.785156 18.035156 32.855469 18.074219 31.71875 C 18.046875 30.671875 18.003906 29.550781 17.792969 28.375 L 17.300781 25.636719 C 16.886719 22.886719 16.390625 20.148438 15.820312 17.421875 C 15.261719 14.777344 14.769531 12.039062 14.355469 9.289062 C 14.074219 7.722656 13.789062 6.15625 13.652344 4.488281 C 13.449219 2.90625 13.230469 1.25 12.933594 -0.390625 C 12.652344 -1.957031 12.382812 -3.441406 11.960938 -4.902344 C 11.550781 -6.28125 11.359375 -7.78125 11.390625 -9.402344 C 11.496094 -9.261719 11.589844 -9.195312 11.667969 -9.210938 C 11.761719 -9.144531 11.851562 -9.082031 11.929688 -9.097656 C 13.179688 -7.542969 14.492188 -6.085938 15.804688 -4.625 C 17.039062 -3.152344 18.480469 -1.875 20.128906 -0.800781 C 20.511719 -0.464844 21.117188 -0.25 21.863281 -0.144531 C 22.609375 -0.0351562 23.328125 -0.0820312 23.953125 -0.195312 C 24.578125 -0.308594 25.085938 -0.640625 25.484375 -1.117188 C 25.898438 -1.515625 25.941406 -2.167969 25.695312 -3.09375 C 25.503906 -3.707031 25.078125 -4.277344 24.417969 -4.804688 C 23.480469 -5.523438 22.761719 -6.363281 22.125 -7.21875 C 21.484375 -8.070312 20.753906 -8.988281 20.101562 -9.921875 C 19.386719 -10.761719 18.730469 -11.695312 18.078125 -12.628906 C 17.441406 -13.480469 16.644531 -14.308594 15.707031 -15.027344 C 14.769531 -15.746094 14.601562 -16.683594 15.34375 -17.949219 C 15.585938 -18.398438 15.765625 -18.753906 16.019531 -19.121094 Z M 16.019531 -19.121094 "/></g></g></g><g fill="#0097b2" fill-opacity="1"><g transform="translate(247.747277, 316.565686)"><g><path d="M 8.402344 -11.898438 C 8 -12.777344 7.3125 -13.496094 6.492188 -14.097656 C 6.101562 -14.324219 5.632812 -14.527344 5.070312 -14.785156 C 4.527344 -14.96875 3.984375 -15.152344 3.441406 -15.335938 C 2.917969 -15.441406 2.339844 -15.449219 1.78125 -15.382812 C 1.222656 -15.3125 0.761719 -15.191406 0.34375 -14.910156 C 0.078125 -14.675781 -0.152344 -14.613281 -0.460938 -14.53125 C -0.765625 -14.449219 -0.976562 -14.308594 -1.183594 -14.171875 C -1.738281 -13.773438 -2.039062 -13.363281 -2.261719 -12.972656 C -2.488281 -12.585938 -2.285156 -12.144531 -1.8125 -11.613281 C -1.695312 -11.480469 -1.597656 -11.425781 -1.554688 -11.269531 L -1.289062 -10.273438 C -1.203125 -9.964844 -1.199219 -9.640625 -1.117188 -9.332031 C -0.945312 -8.390625 -0.792969 -7.523438 -0.644531 -6.660156 C -0.472656 -5.71875 -0.398438 -4.832031 -0.398438 -3.925781 C -0.445312 -3.171875 -0.238281 -2.40625 0.125 -1.679688 C 0.503906 -0.878906 0.941406 -0.171875 1.53125 0.492188 C 2.046875 1.175781 2.691406 1.742188 3.472656 2.191406 C 4.175781 2.660156 4.914062 2.957031 5.667969 3 C 6.285156 3.164062 6.960938 3.226562 7.792969 3.25 C 8.640625 3.351562 9.332031 3.164062 9.863281 2.691406 C 10.703125 2.136719 11.128906 1.28125 11.148438 0.125 C 11.136719 -0.53125 11.046875 -1.167969 10.882812 -1.78125 C 10.714844 -2.394531 10.53125 -3.085938 10.363281 -3.699219 C 10.324219 -3.851562 10.261719 -4.082031 10.21875 -4.238281 C 10.179688 -4.390625 10.191406 -4.640625 10.152344 -4.792969 C 10.046875 -5.179688 9.945312 -5.5625 9.863281 -5.867188 C 9.777344 -6.175781 9.675781 -6.558594 9.648438 -6.964844 L 9.386719 -8.539062 C 9.265625 -9 9.175781 -9.636719 9.085938 -10.269531 C 8.925781 -10.558594 8.707031 -11.074219 8.402344 -11.898438 Z M 0.714844 -19.953125 C 0.886719 -19.917969 1.140625 -19.902344 1.3125 -19.867188 C 1.488281 -19.832031 1.71875 -19.894531 1.984375 -20.128906 C 2.214844 -20.191406 2.402344 -20.40625 2.515625 -20.601562 C 2.628906 -20.796875 2.761719 -20.914062 2.949219 -21.128906 C 3.0625 -21.324219 3.109375 -21.75 2.964844 -22.289062 C 2.820312 -22.824219 2.640625 -23.1875 2.425781 -23.375 C 2.25 -23.414062 2.152344 -23.46875 2.152344 -23.46875 C 1.652344 -23.496094 1.226562 -23.546875 0.878906 -23.617188 C 0.53125 -23.6875 0.140625 -23.914062 -0.214844 -24.3125 C -0.667969 -23.859375 -1.085938 -23.582031 -1.4375 -23.652344 C -1.785156 -23.722656 -2.015625 -23.660156 -2.167969 -23.621094 C -2.300781 -23.503906 -2.335938 -23.328125 -2.429688 -23.054688 C -2.5 -22.707031 -2.511719 -22.457031 -2.472656 -22.304688 C -2.410156 -22.074219 -2.425781 -21.824219 -2.4375 -21.570312 C -2.222656 -21.382812 -2.027344 -21.269531 -1.832031 -21.160156 C -1.640625 -21.046875 -1.519531 -20.914062 -1.324219 -20.800781 C -1.046875 -20.382812 -0.734375 -20.136719 -0.386719 -20.066406 C -0.0390625 -19.996094 0.308594 -19.925781 0.714844 -19.953125 Z M 0.714844 -19.953125 "/></g></g></g><g fill="#0097b2" fill-opacity="1"><g transform="translate(261.848989, 312.89372)"><g><path d="M 11.007812 -10.773438 C 11.195312 -10.25 11.332031 -9.625 11.472656 -8.996094 C 11.5625 -8.269531 11.730469 -7.570312 11.820312 -6.84375 C 11.910156 -6.117188 12.078125 -5.414062 12.140625 -4.761719 C 12.207031 -4.109375 12.320312 -3.558594 12.453125 -3.1875 C 12.570312 -2.382812 12.8125 -1.710938 13.152344 -0.988281 C 13.496094 -0.265625 13.933594 0.253906 14.421875 0.667969 C 14.933594 1.160156 15.542969 1.449219 16.25 1.535156 C 16.984375 1.695312 17.785156 1.578125 18.730469 1.152344 C 19.03125 1.046875 19.355469 1.015625 19.683594 0.984375 C 20.007812 0.949219 20.261719 0.945312 20.484375 0.863281 C 20.738281 0.859375 20.960938 0.777344 21.234375 0.597656 C 21.457031 0.515625 21.601562 0.210938 21.796875 -0.195312 C 22.105469 -0.980469 22.117188 -1.660156 21.699219 -2.355469 C 21.570312 -2.476562 21.515625 -2.628906 21.511719 -2.878906 C 21.429688 -3.101562 21.425781 -3.355469 21.371094 -3.503906 C 20.980469 -5.304688 20.515625 -7.082031 20.023438 -8.929688 C 19.558594 -10.707031 18.941406 -12.429688 18.222656 -14.199219 C 17.644531 -15.339844 16.863281 -16.582031 15.957031 -17.945312 C 14.972656 -19.28125 13.890625 -20.414062 12.714844 -21.34375 C 11.5625 -22.199219 10.296875 -22.675781 8.9375 -22.695312 C 7.582031 -22.71875 6.285156 -22.085938 4.960938 -20.597656 C 4.863281 -20.394531 4.632812 -20.566406 4.398438 -20.988281 C 4.164062 -21.410156 3.875 -21.984375 3.660156 -22.582031 C 3.371094 -23.15625 3.082031 -23.726562 2.867188 -24.324219 C 2.65625 -24.925781 2.472656 -25.195312 2.417969 -25.347656 C 1.90625 -25.839844 1.390625 -26.332031 0.878906 -26.820312 C 0.316406 -27.210938 -0.292969 -27.5 -1.050781 -27.734375 C -1.328125 -27.804688 -1.832031 -27.792969 -2.539062 -27.878906 C -3.292969 -27.863281 -4.019531 -27.773438 -4.746094 -27.679688 C -5.472656 -27.589844 -6.074219 -27.375 -6.46875 -27.066406 C -6.863281 -26.753906 -6.929688 -26.226562 -6.5625 -25.679688 C -6.457031 -25.382812 -6.25 -25.035156 -6.066406 -24.761719 C -5.960938 -24.460938 -5.824219 -24.085938 -5.71875 -23.789062 C -5.503906 -23.1875 -5.3125 -22.414062 -5.011719 -21.339844 C -4.710938 -20.265625 -4.414062 -19.191406 -4.160156 -18.011719 C -3.882812 -16.761719 -3.582031 -15.6875 -3.359375 -14.585938 C -3.132812 -13.484375 -2.941406 -12.710938 -2.828125 -12.160156 C -2.628906 -11.132812 -2.429688 -10.105469 -2.183594 -9.179688 C -1.988281 -8.152344 -1.488281 -7.234375 -0.71875 -6.496094 C -0.382812 -6.027344 0.308594 -5.511719 1.277344 -4.929688 C 2.269531 -4.273438 3.261719 -3.867188 4.296875 -3.5625 C 5.335938 -3.257812 6.292969 -3.179688 7.144531 -3.398438 C 7.992188 -3.617188 8.507812 -4.308594 8.582031 -5.515625 C 8.617188 -6.121094 8.554688 -6.773438 8.285156 -7.519531 C 8.042969 -8.195312 7.878906 -8.894531 7.636719 -9.570312 L 7.398438 -10.242188 C 7.261719 -10.617188 7.175781 -11.09375 7.015625 -11.542969 C 6.855469 -11.992188 6.769531 -12.464844 6.609375 -12.914062 C 6.476562 -13.289062 6.445312 -13.617188 6.636719 -14.023438 C 6.96875 -14.984375 7.476562 -15.925781 8.011719 -16.792969 C 8.359375 -17 8.636719 -16.933594 8.816406 -16.660156 C 9.609375 -14.917969 10.378906 -12.996094 11.007812 -10.773438 Z M 11.007812 -10.773438 "/></g></g></g><g fill="#0097b2" fill-opacity="1"><g transform="translate(286.792393, 303.937837)"><g><path d="M 11.640625 -11.824219 C 11.992188 -11.46875 12.203125 -11.21875 12.273438 -11.074219 L 12.972656 -9.292969 C 13.179688 -8.6875 13.460938 -8.117188 13.742188 -7.542969 L 15.632812 -3.691406 C 17.03125 -0.480469 18.359375 2.761719 19.757812 5.972656 C 21.15625 9.183594 22.523438 12.320312 23.957031 15.421875 C 24.449219 16.421875 24.902344 17.527344 25.390625 18.703125 C 25.84375 19.988281 26.261719 21.199219 26.539062 22.480469 C 26.8125 23.761719 26.804688 25.007812 26.6875 26.214844 C 26.574219 27.421875 26.03125 28.484375 25.242188 29.402344 C 24.742188 29.828125 24.277344 30.144531 23.742188 30.316406 C 23.136719 30.527344 22.78125 30.878906 22.632812 31.304688 C 22.34375 32.15625 22.515625 32.867188 22.941406 33.371094 C 23.398438 33.941406 24.035156 34.335938 24.886719 34.628906 C 25.664062 34.953125 26.445312 35.101562 27.371094 35.179688 C 28.222656 35.292969 28.933594 35.296875 29.574219 35.160156 C 31.425781 34.78125 33.070312 33.796875 34.503906 32.207031 C 35.863281 30.652344 36.90625 28.988281 37.699219 27.359375 C 38.460938 25.480469 39.007812 23.53125 39.378906 21.398438 C 39.714844 19.375 39.515625 17.347656 38.890625 15.351562 C 38.578125 14.355469 38.121094 13.425781 37.628906 12.429688 C 37.140625 11.429688 36.613281 10.535156 36.050781 9.574219 C 35.417969 8.644531 34.890625 7.75 34.257812 6.824219 C 33.625 5.894531 33.097656 5 32.605469 4.003906 C 31.273438 1.644531 29.976562 -0.816406 28.75 -3.3125 C 27.523438 -5.8125 26.226562 -8.273438 24.890625 -10.804688 C 21.667969 -17.015625 18.40625 -23.296875 15.179688 -29.503906 C 11.953125 -35.714844 8.691406 -41.996094 5.394531 -48.347656 C 5.113281 -48.917969 4.621094 -49.382812 4.019531 -49.886719 C 3.417969 -50.386719 2.710938 -50.746094 1.964844 -51 C 1.222656 -51.253906 0.476562 -51.332031 -0.234375 -51.335938 C -1.019531 -51.308594 -1.660156 -50.992188 -2.160156 -50.570312 C -2.339844 -50.394531 -2.449219 -50.25 -2.519531 -50.214844 C -2.625 -50.074219 -2.699219 -50.039062 -2.769531 -50.003906 C -3.054688 -49.863281 -3.304688 -49.652344 -3.414062 -49.511719 C -3.558594 -49.265625 -3.734375 -49.085938 -3.808594 -48.875 C -3.386719 -48.375 -3.070312 -47.910156 -2.859375 -47.480469 C -2.296875 -46.339844 -1.84375 -45.234375 -1.425781 -44.023438 C -0.695312 -41.8125 0.0351562 -39.605469 0.730469 -37.464844 C 1.425781 -35.328125 2.230469 -33.152344 2.925781 -31.015625 C 2.992188 -30.695312 3.097656 -30.480469 3.203125 -30.265625 C 3.34375 -29.980469 3.378906 -29.730469 3.515625 -29.445312 L 3.726562 -28.664062 C 3.792969 -28.34375 3.863281 -28.023438 4.039062 -27.664062 C 2.222656 -27.214844 0.617188 -26.515625 -0.882812 -25.601562 C -2.347656 -24.617188 -3.425781 -23.203125 -4.042969 -21.394531 C -4.621094 -19.691406 -4.8125 -17.917969 -4.789062 -16.066406 C -4.734375 -14.148438 -4.355469 -12.472656 -3.691406 -10.941406 C -3.273438 -9.730469 -2.605469 -8.730469 -1.757812 -7.90625 C -0.910156 -7.082031 0.046875 -6.398438 1.109375 -6.035156 C 2.207031 -5.601562 3.273438 -5.414062 4.484375 -5.476562 C 5.621094 -5.503906 6.726562 -5.960938 7.726562 -6.804688 C 8.085938 -6.980469 8.371094 -7.300781 8.730469 -7.652344 C 9.085938 -8.003906 9.375 -8.324219 9.730469 -8.675781 C 10.308594 -9.667969 10.777344 -10.515625 11.101562 -11.296875 C 11.171875 -11.332031 11.210938 -11.4375 11.351562 -11.507812 C 11.421875 -11.542969 11.53125 -11.683594 11.640625 -11.824219 Z M 3.414062 -10 C 2.847656 -10.253906 2.386719 -10.824219 2.003906 -11.609375 C 1.652344 -12.324219 1.410156 -13 1.269531 -13.640625 C 1.203125 -14.140625 1.066406 -14.78125 1.035156 -15.5625 C 1.007812 -16.347656 0.976562 -17.128906 1.125 -17.910156 C 1.199219 -18.65625 1.347656 -19.4375 1.53125 -20.144531 C 1.714844 -20.855469 1.96875 -21.421875 2.394531 -21.8125 C 2.753906 -22.164062 3.183594 -22.375 3.609375 -22.40625 C 4 -22.332031 4.425781 -22.1875 4.816406 -21.9375 C 5.132812 -21.648438 5.449219 -21.363281 5.660156 -20.933594 C 5.871094 -20.507812 6.082031 -20.078125 6.148438 -19.757812 C 6.425781 -18.296875 6.34375 -16.839844 5.976562 -15.242188 C 5.535156 -13.613281 5.03125 -12.300781 4.417969 -11.203125 C 4.273438 -10.953125 4.128906 -10.707031 3.949219 -10.53125 C 3.773438 -10.355469 3.59375 -10.175781 3.414062 -10 Z M 3.414062 -10 "/></g></g></g></svg>