<svg xmlns="http://www.w3.org/2000/svg" xmlns:xlink="http://www.w3.org/1999/xlink" width="200" zoomAndPan="magnify" viewBox="0 0 375 374.999991" height="200" preserveAspectRatio="xMidYMid meet" version="1.0"><defs><g/><clipPath id="fc5db91fbc"><path d="M 73.800781 37.5 L 301.050781 37.5 L 301.050781 264.75 L 73.800781 264.75 Z M 73.800781 37.5 " clip-rule="nonzero"/></clipPath></defs><rect x="-37.5" width="450" fill="#ffffff" y="-37.499999" height="449.999989" fill-opacity="1"/><rect x="-37.5" width="450" fill="#ffffff" y="-37.499999" height="449.999989" fill-opacity="1"/><rect x="-37.5" width="450" fill="#ffffff" y="-37.499999" height="449.999989" fill-opacity="1"/><path fill="#f8906d" d="M 213.082031 103.476562 L 213.082031 99.8125 C 213.082031 93.890625 209.796875 88.570312 204.5 85.921875 L 198.953125 83.152344 C 200.964844 80.585938 202.085938 77.417969 202.085938 74.152344 L 202.085938 67.445312 C 202.085938 59.292969 195.992188 52.589844 188.210938 52.183594 C 184.113281 51.976562 180.28125 53.394531 177.335938 56.1875 C 174.425781 58.941406 172.765625 62.820312 172.765625 66.824219 L 172.765625 74.152344 C 172.765625 77.417969 173.886719 80.585938 175.894531 83.152344 L 170.351562 85.921875 C 165.054688 88.570312 161.769531 93.890625 161.769531 99.808594 L 161.769531 103.476562 Z M 173.628906 92.480469 L 183.757812 87.414062 L 183.757812 80.664062 L 182.546875 79.570312 C 180.964844 78.144531 180.09375 76.222656 180.09375 74.152344 L 180.09375 66.824219 C 180.09375 64.792969 180.90625 62.902344 182.382812 61.503906 C 183.851562 60.109375 185.847656 59.390625 187.820312 59.503906 C 191.644531 59.703125 194.757812 63.265625 194.757812 67.445312 L 194.757812 74.152344 C 194.757812 76.21875 193.886719 78.144531 192.304688 79.570312 L 191.089844 80.664062 L 191.089844 87.414062 L 201.222656 92.480469 C 202.851562 93.292969 204.121094 94.585938 204.898438 96.144531 L 169.957031 96.144531 C 170.730469 94.585938 172.003906 93.292969 173.628906 92.480469 " fill-opacity="1" fill-rule="nonzero"/><g clip-path="url(#fc5db91fbc)"><path fill="#f8906d" d="M 278.667969 83.40625 L 276.660156 80.707031 L 227.453125 111.101562 L 257.84375 61.894531 L 255.144531 59.882812 C 235.445312 45.242188 212.027344 37.5 187.425781 37.5 C 162.824219 37.5 139.40625 45.242188 119.703125 59.882812 L 117.007812 61.890625 L 147.402344 111.097656 L 98.191406 80.707031 L 96.183594 83.40625 C 81.542969 103.105469 73.800781 126.523438 73.800781 151.125 C 73.800781 175.726562 81.542969 199.144531 96.183594 218.84375 L 98.191406 221.542969 L 147.398438 191.148438 L 117.007812 240.359375 L 119.703125 242.367188 C 139.40625 257.007812 162.824219 264.75 187.425781 264.75 C 212.027344 264.75 235.445312 257.007812 255.144531 242.367188 L 257.84375 240.359375 L 227.449219 191.152344 L 276.65625 221.542969 L 278.667969 218.84375 C 293.308594 199.144531 301.050781 175.726562 301.050781 151.125 C 301.050781 126.523438 293.308594 103.105469 278.667969 83.40625 Z M 126.808594 63.804688 C 144.652344 51.378906 165.535156 44.832031 187.425781 44.832031 C 209.3125 44.832031 230.199219 51.378906 248.042969 63.804688 L 213.332031 120.007812 L 209.398438 116.078125 L 201.347656 117.519531 L 196.667969 110.804688 L 178.175781 110.804688 L 173.503906 117.519531 L 165.453125 116.078125 L 161.519531 120.007812 Z M 214.582031 170.621094 L 206.921875 178.28125 L 198.007812 176.679688 L 192.84375 184.113281 L 182.011719 184.113281 L 176.84375 176.683594 L 167.929688 178.285156 L 160.269531 170.625 L 161.871094 161.710938 L 154.4375 156.542969 L 154.4375 145.710938 L 161.867188 140.539062 L 160.265625 131.628906 L 167.925781 123.972656 L 176.839844 125.570312 L 182.007812 118.136719 L 192.839844 118.136719 L 198.007812 125.566406 L 206.921875 123.96875 L 214.582031 131.625 L 212.980469 140.535156 L 220.414062 145.707031 L 220.414062 156.539062 L 212.984375 161.707031 Z M 100.109375 211.742188 C 87.679688 193.898438 81.132812 173.015625 81.132812 151.125 C 81.132812 129.234375 87.679688 108.351562 100.109375 90.503906 L 156.3125 125.21875 L 152.382812 129.15625 L 153.824219 137.207031 L 147.105469 141.878906 L 147.105469 160.371094 L 153.820312 165.046875 L 152.378906 173.097656 L 156.308594 177.03125 Z M 176.429688 256.792969 L 176.429688 250.089844 L 198.421875 250.089844 L 198.421875 256.792969 C 194.785156 257.164062 191.128906 257.417969 187.425781 257.417969 C 183.722656 257.417969 180.066406 257.164062 176.429688 256.792969 Z M 213.082031 228.097656 L 161.765625 228.097656 L 161.765625 209.769531 C 161.765625 207.746094 163.410156 206.105469 165.433594 206.105469 L 209.417969 206.105469 C 211.441406 206.105469 213.082031 207.746094 213.082031 209.769531 Z M 161.765625 235.425781 L 213.082031 235.425781 L 213.082031 239.09375 C 213.082031 241.117188 211.441406 242.757812 209.417969 242.757812 L 165.433594 242.757812 C 163.410156 242.757812 161.765625 241.117188 161.765625 239.09375 Z M 248.042969 238.441406 C 235.261719 247.34375 220.902344 253.171875 205.753906 255.792969 L 205.753906 250.089844 L 209.417969 250.089844 C 215.480469 250.089844 220.414062 245.15625 220.414062 239.09375 L 220.414062 209.769531 C 220.414062 203.707031 215.480469 198.773438 209.417969 198.773438 L 165.433594 198.773438 C 159.371094 198.773438 154.4375 203.707031 154.4375 209.769531 L 154.4375 239.09375 C 154.4375 245.15625 159.371094 250.089844 165.433594 250.089844 L 169.101562 250.089844 L 169.101562 255.796875 C 153.945312 253.171875 139.589844 247.34375 126.808594 238.445312 L 161.519531 182.242188 L 165.453125 186.175781 L 173.503906 184.734375 L 178.179688 191.445312 L 196.671875 191.445312 L 201.347656 184.730469 L 209.398438 186.171875 L 213.332031 182.242188 Z M 274.742188 211.742188 L 218.539062 177.03125 L 222.472656 173.097656 L 221.03125 165.046875 L 227.746094 160.371094 L 227.746094 141.878906 L 221.03125 137.203125 L 222.472656 129.152344 L 218.539062 125.214844 L 274.746094 90.5 C 287.171875 108.351562 293.71875 129.234375 293.71875 151.125 C 293.71875 173.015625 287.171875 193.898438 274.742188 211.742188 " fill-opacity="1" fill-rule="nonzero"/></g><path fill="#f8906d" d="M 187.425781 132.796875 C 177.320312 132.796875 169.097656 141.019531 169.097656 151.125 C 169.097656 161.230469 177.320312 169.453125 187.425781 169.453125 C 197.53125 169.453125 205.753906 161.230469 205.753906 151.125 C 205.753906 141.019531 197.53125 132.796875 187.425781 132.796875 Z M 187.425781 162.121094 C 181.363281 162.121094 176.429688 157.1875 176.429688 151.125 C 176.429688 145.0625 181.363281 140.128906 187.425781 140.128906 C 193.488281 140.128906 198.421875 145.0625 198.421875 151.125 C 198.421875 157.1875 193.488281 162.121094 187.425781 162.121094 " fill-opacity="1" fill-rule="nonzero"/><path fill="#f8906d" d="M 260.730469 114.472656 C 244.566406 114.472656 231.410156 127.628906 231.410156 143.792969 C 231.410156 154.066406 236.714844 162.78125 246.070312 168.015625 L 246.070312 184.113281 L 275.390625 184.113281 L 275.390625 168.015625 C 284.746094 162.777344 290.054688 154.066406 290.054688 143.792969 C 290.054688 127.625 276.898438 114.472656 260.730469 114.472656 Z M 253.402344 176.78125 L 253.402344 169.453125 L 268.0625 169.453125 L 268.0625 176.78125 Z M 257.066406 143.792969 C 257.066406 141.773438 258.710938 140.128906 260.730469 140.128906 C 262.753906 140.128906 264.398438 141.773438 264.398438 143.792969 C 264.398438 145.816406 262.753906 147.460938 260.730469 147.460938 C 258.710938 147.460938 257.066406 145.816406 257.066406 143.792969 Z M 270.828125 162.121094 L 264.398438 162.121094 L 264.398438 154.117188 C 268.652344 152.597656 271.726562 148.566406 271.726562 143.792969 C 271.726562 137.730469 266.792969 132.796875 260.730469 132.796875 C 254.667969 132.796875 249.734375 137.730469 249.734375 143.792969 C 249.734375 148.566406 252.8125 152.597656 257.066406 154.117188 L 257.066406 162.121094 L 250.632812 162.121094 C 245.898438 159.710938 238.738281 154.351562 238.738281 143.792969 C 238.738281 131.667969 248.605469 121.800781 260.730469 121.800781 C 272.859375 121.800781 282.722656 131.667969 282.722656 143.792969 C 282.722656 154.351562 275.566406 159.710938 270.828125 162.121094 " fill-opacity="1" fill-rule="nonzero"/><path fill="#f8906d" d="M 88.460938 180.449219 L 139.777344 180.449219 L 139.777344 129.132812 L 88.460938 129.132812 Z M 117.785156 173.117188 L 110.453125 173.117188 L 110.453125 165.785156 L 117.785156 165.785156 Z M 110.453125 136.464844 L 117.785156 136.464844 L 117.785156 143.792969 L 110.453125 143.792969 Z M 95.792969 136.464844 L 103.121094 136.464844 L 103.121094 151.125 L 125.113281 151.125 L 125.113281 136.464844 L 132.445312 136.464844 L 132.445312 173.117188 L 125.113281 173.117188 L 125.113281 158.457031 L 103.121094 158.457031 L 103.121094 173.117188 L 95.792969 173.117188 L 95.792969 136.464844 " fill-opacity="1" fill-rule="nonzero"/><g fill="#0097b2" fill-opacity="1"><g transform="translate(9.825342, 271.447889)"><g><path d="M 18.402344 8.996094 C 17.910156 9.917969 17.320312 10.570312 16.507812 10.851562 C 15.695312 11.136719 14.773438 11.039062 13.679688 10.511719 C 12.773438 10.128906 11.996094 9.441406 11.425781 8.613281 C 10.792969 7.738281 10.207031 6.796875 9.730469 5.84375 C 9.191406 4.839844 8.558594 3.964844 7.988281 3.136719 C 7.308594 2.324219 6.496094 1.8125 5.558594 1.605469 C 4.734375 1.378906 3.953125 1.488281 3.160156 1.882812 C 2.363281 2.28125 1.695312 2.769531 1.105469 3.421875 C 0.464844 4.136719 0.00390625 4.882812 -0.332031 5.722656 C -0.667969 6.5625 -0.78125 7.375 -0.5625 8.136719 C -0.28125 10.140625 0.429688 11.972656 1.667969 13.503906 C 2.902344 15.03125 4.394531 16.355469 6.234375 17.34375 C 8.03125 18.398438 10.015625 19.199219 12.191406 19.746094 C 14.367188 20.289062 16.5625 20.550781 18.773438 20.523438 C 20.933594 20.5625 23.050781 20.265625 25.070312 19.699219 C 27.089844 19.128906 28.839844 18.261719 30.273438 17.152344 C 31.710938 16.042969 32.875 14.628906 33.59375 12.882812 C 34.265625 11.199219 34.492188 9.179688 34.117188 6.90625 C 33.707031 4.808594 33.207031 2.4375 32.5625 -0.140625 C 31.914062 -2.71875 31.492188 -5.324219 31.308594 -7.855469 C 31.125 -10.382812 31.398438 -12.863281 32.105469 -15.117188 C 32.746094 -17.421875 34.183594 -19.324219 36.445312 -21.003906 C 37.367188 -21.703125 38.484375 -22.257812 39.882812 -22.792969 C 41.285156 -23.332031 42.652344 -23.691406 44.148438 -23.960938 C 45.578125 -24.273438 47.042969 -24.367188 48.535156 -24.234375 C 49.964844 -24.152344 51.207031 -23.8125 52.414062 -23.300781 C 52.476562 -23.253906 52.601562 -23.160156 52.890625 -23.140625 C 53.574219 -23.125 54.320312 -23.058594 55.019531 -22.929688 C 55.71875 -22.800781 56.386719 -22.496094 57.019531 -22.019531 C 57.082031 -21.972656 57.148438 -21.921875 57.320312 -21.890625 C 57.449219 -21.796875 57.558594 -21.8125 57.734375 -21.777344 C 58.511719 -21.492188 59.355469 -21.15625 60.324219 -20.722656 C 61.179688 -20.277344 62.199219 -19.90625 63.152344 -19.585938 C 64.105469 -19.265625 65.152344 -19.074219 66.074219 -18.976562 C 66.996094 -18.878906 68 -19.019531 68.859375 -19.367188 C 69.652344 -19.761719 70.308594 -20.363281 70.882812 -21.125 C 71.457031 -21.886719 71.792969 -22.730469 72.113281 -23.683594 C 72.433594 -24.636719 72.53125 -25.558594 72.5 -26.574219 C 72.472656 -27.59375 72.296875 -28.417969 72.015625 -29.230469 C 71.777344 -29.707031 71.652344 -30.203125 71.589844 -30.648438 C 71.527344 -31.09375 71.195312 -31.441406 70.75 -31.777344 C 70.621094 -31.875 70.542969 -32.03125 70.558594 -32.320312 C 70.371094 -32.859375 69.878906 -33.527344 69.117188 -34.101562 C 68.292969 -34.726562 67.371094 -35.21875 66.386719 -35.761719 C 65.355469 -36.242188 64.324219 -36.722656 63.417969 -37.105469 C 62.402344 -37.476562 61.671875 -37.828125 61.195312 -37.988281 C 58.746094 -38.835938 56.429688 -39.589844 54.140625 -40.117188 C 51.851562 -40.648438 49.421875 -40.988281 46.941406 -41.265625 L 45.222656 -41.367188 C 43.1875 -41.308594 40.804688 -40.914062 38.195312 -40.09375 C 35.585938 -39.273438 33.070312 -38.183594 30.648438 -36.824219 C 28.230469 -35.460938 26.015625 -33.847656 24.183594 -31.941406 C 22.347656 -30.039062 21.167969 -27.945312 20.683594 -25.71875 C 20.011719 -22.84375 19.574219 -19.886719 19.488281 -16.867188 C 19.289062 -13.832031 19.296875 -10.9375 19.480469 -8.011719 C 19.492188 -6.707031 19.632812 -5.308594 19.789062 -3.796875 C 19.878906 -2.335938 19.972656 -0.871094 20.015625 0.65625 C 19.996094 2.132812 19.863281 3.628906 19.667969 5.074219 C 19.410156 6.472656 18.980469 7.839844 18.402344 8.996094 Z M 18.402344 8.996094 "/></g></g></g><g fill="#0097b2" fill-opacity="1"><g transform="translate(42.097947, 294.818902)"><g><path d="M 17.996094 -6.503906 C 18.167969 -6.957031 18.449219 -7.4375 18.6875 -7.847656 C 18.929688 -8.261719 19.28125 -8.699219 19.519531 -9.113281 C 20.003906 -9.933594 20.59375 -10.785156 21.117188 -11.679688 C 21.597656 -12.5 22.121094 -13.394531 22.464844 -14.296875 C 22.660156 -15.105469 22.789062 -15.949219 22.765625 -16.699219 C 22.675781 -17.488281 22.585938 -18.28125 22.425781 -19.109375 C 22.160156 -19.910156 21.769531 -20.507812 21.261719 -20.898438 C 20.714844 -21.21875 20.054688 -21.511719 19.316406 -21.667969 C 18.894531 -21.730469 18.636719 -21.605469 18.476562 -21.332031 C 18.246094 -21.097656 18.019531 -20.863281 17.859375 -20.585938 C 17.628906 -20.351562 17.4375 -20.1875 17.277344 -19.914062 C 16.511719 -19.074219 15.769531 -18.125 15.070312 -17.246094 C 14.371094 -16.363281 13.632812 -15.414062 13 -14.496094 C 12.542969 -14.027344 12.261719 -13.546875 11.941406 -13 C 11.617188 -12.449219 11.199219 -12.050781 10.714844 -11.691406 C 10.566406 -11.59375 10.523438 -11.523438 10.523438 -11.523438 C 10.523438 -11.523438 10.484375 -11.457031 10.445312 -11.386719 C 10.242188 -11.042969 10.054688 -10.878906 9.945312 -10.851562 C 9.769531 -10.863281 9.523438 -10.914062 9.246094 -11.074219 C 8.972656 -11.234375 8.726562 -11.285156 8.589844 -11.367188 C 8.382812 -11.488281 8.136719 -11.539062 7.933594 -11.660156 C 7.65625 -11.820312 7.371094 -11.804688 7.25 -11.597656 C 7.050781 -11.253906 7.066406 -10.96875 7.339844 -10.808594 C 7.535156 -10.511719 7.660156 -10.253906 7.785156 -9.996094 C 7.804688 -9.710938 7.890625 -9.382812 8.082031 -9.085938 C 8.238281 -8.71875 8.214844 -8.363281 7.945312 -8.0625 C 6.878906 -7.027344 6.019531 -5.871094 5.292969 -4.636719 L 3.125 -0.933594 L 1.839844 1.261719 C 1.359375 2.085938 0.984375 2.878906 0.679688 3.714844 C 0.375 4.550781 0.179688 5.355469 0.121094 6.242188 C -0.00390625 7.089844 0.113281 7.988281 0.488281 8.761719 C 0.714844 9.632812 1.203125 10.375 1.875 10.953125 C 2.480469 11.492188 3.238281 11.9375 4.179688 12.210938 C 5.4375 12.578125 6.1875 12.558594 6.539062 12.117188 C 6.886719 11.679688 7.152344 10.910156 7.289062 9.886719 C 7.324219 9.355469 7.417969 9.042969 7.578125 8.765625 C 7.699219 8.5625 7.898438 8.21875 8.140625 7.804688 C 8.554688 6.941406 9.035156 6.121094 9.519531 5.296875 C 10 4.472656 10.484375 3.652344 11.101562 2.90625 C 11.734375 1.988281 12.363281 1.066406 12.996094 0.148438 C 13.558594 -0.8125 14.296875 -1.761719 15.066406 -2.601562 C 15.496094 -3.179688 15.765625 -3.480469 15.914062 -3.578125 C 16.023438 -3.609375 16.433594 -3.367188 17.214844 -2.816406 C 17.382812 -2.625 17.65625 -2.464844 17.929688 -2.304688 C 18.207031 -2.144531 18.519531 -2.054688 18.835938 -1.960938 C 19.011719 -1.949219 19.257812 -1.898438 19.476562 -1.953125 C 19.652344 -1.941406 19.898438 -1.890625 20.183594 -1.90625 C 20.472656 -1.921875 20.660156 -2.089844 20.75 -2.402344 C 20.734375 -2.691406 20.757812 -3.042969 20.863281 -3.535156 C 20.664062 -4.296875 20.273438 -4.894531 19.726562 -5.214844 C 19.109375 -5.578125 18.53125 -6.007812 17.996094 -6.503906 Z M 17.996094 -6.503906 "/></g></g></g><g fill="#0097b2" fill-opacity="1"><g transform="translate(58.693836, 304.606559)"><g><path d="M 20.8125 12.910156 C 20.769531 12.625 20.761719 12.269531 20.753906 11.914062 C 20.742188 11.558594 20.734375 11.207031 20.796875 10.882812 L 20.921875 10.238281 C 20.917969 10.0625 20.949219 9.8125 20.941406 9.636719 C 20.792969 9.390625 20.820312 8.960938 21.023438 8.53125 C 21.152344 8.066406 21.386719 7.5625 21.65625 6.984375 C 21.925781 6.410156 22.234375 5.9375 22.472656 5.433594 C 22.675781 5.003906 22.949219 4.605469 23.082031 4.316406 C 23.28125 3.707031 23.550781 3.132812 23.894531 2.589844 C 24.234375 2.046875 24.433594 1.4375 24.589844 0.722656 C 24.648438 0.222656 24.601562 -0.238281 24.449219 -0.660156 C 24.222656 -1.117188 24.070312 -1.539062 23.984375 -2.105469 L 23.914062 -2.140625 C 23.660156 -2.347656 23.40625 -2.554688 23.152344 -2.761719 C 22.898438 -2.96875 22.644531 -3.175781 22.421875 -3.453125 C 22.132812 -3.589844 21.878906 -3.796875 21.449219 -3.996094 C 21.160156 -4.132812 20.84375 -4.019531 20.636719 -3.765625 C 20.355469 -3.542969 20.183594 -3.359375 20.050781 -3.074219 C 19.84375 -2.820312 19.636719 -2.566406 19.429688 -2.308594 C 19.015625 -1.800781 18.566406 -1.222656 18.085938 -0.570312 C 17.535156 0.0507812 16.980469 0.667969 16.355469 1.253906 C 15.730469 1.839844 15.105469 2.421875 14.441406 2.902344 C 13.707031 3.347656 13.039062 3.648438 12.472656 3.734375 C 12.046875 3.886719 11.585938 3.933594 11.230469 3.945312 C 10.84375 4.027344 10.382812 4.074219 9.992188 4.152344 C 9.710938 4.195312 9.566406 4.128906 9.421875 4.0625 C 9.4375 3.28125 9.667969 2.597656 9.972656 1.949219 C 10.273438 1.300781 10.652344 0.6875 11.097656 0.105469 C 11.578125 -0.546875 12.09375 -1.269531 12.714844 -2.03125 C 13.335938 -2.792969 13.851562 -3.519531 14.253906 -4.382812 C 14.625 -5.175781 14.746094 -5.996094 14.796875 -6.851562 C 14.738281 -7.667969 14.363281 -8.546875 13.554688 -9.449219 L 13.441406 -9.769531 C 13.246094 -10.472656 12.980469 -11.035156 12.542969 -11.59375 C 12.101562 -12.152344 11.554688 -12.671875 11.078125 -13.15625 C 10.863281 -13.257812 10.648438 -13.359375 10.503906 -13.425781 L 9.320312 -13.714844 C 8.75 -13.808594 8.363281 -13.726562 8.015625 -13.363281 C 7.878906 -13.074219 7.640625 -12.75 7.367188 -12.351562 C 6.78125 -11.480469 6.199219 -10.613281 5.546875 -9.777344 C 4.890625 -8.945312 4.238281 -8.109375 3.6875 -7.3125 C 2.660156 -5.863281 1.917969 -4.28125 1.640625 -2.566406 C 1.257812 -0.816406 1.234375 0.929688 1.457031 2.699219 C 1.542969 3.269531 1.632812 4.011719 1.792969 4.789062 C 1.921875 5.640625 2.226562 6.488281 2.535156 7.332031 C 2.839844 8.175781 3.179688 8.953125 3.625 9.6875 C 4 10.386719 4.511719 10.980469 5.054688 11.320312 C 5.851562 11.871094 6.539062 12.28125 7.21875 12.511719 C 7.792969 12.78125 8.4375 12.90625 9.003906 12.820312 C 9.539062 12.808594 10.136719 12.648438 10.773438 12.421875 C 11.40625 12.191406 12.140625 11.746094 13.054688 11.292969 C 13.300781 11.144531 13.546875 10.996094 13.789062 10.847656 C 14.003906 10.773438 14.246094 10.625 14.527344 10.402344 C 14.804688 10.183594 15.15625 9.996094 15.433594 9.777344 C 15.714844 9.554688 15.957031 9.40625 16.382812 9.253906 C 16.453125 9.289062 16.59375 9.175781 16.726562 8.890625 C 16.863281 8.601562 17.144531 8.558594 17.507812 8.726562 C 17.4375 8.871094 17.40625 8.941406 17.371094 9.015625 C 17.335938 9.085938 17.375 9.191406 17.34375 9.265625 L 17.253906 10.015625 C 17.03125 11.050781 17.234375 11.933594 17.816406 12.558594 C 17.785156 12.632812 17.820312 12.738281 17.820312 12.738281 C 17.789062 12.808594 17.828125 12.914062 17.96875 12.984375 C 18.046875 13.195312 18.261719 13.296875 18.40625 13.363281 C 18.621094 13.464844 18.839844 13.566406 19.054688 13.667969 C 19.269531 13.765625 19.519531 13.796875 19.808594 13.929688 C 19.953125 14 20.203125 14.027344 20.449219 13.878906 C 20.621094 13.699219 20.761719 13.585938 20.792969 13.515625 C 20.828125 13.441406 20.824219 13.265625 20.8125 12.910156 Z M 20.8125 12.910156 "/></g></g></g><g fill="#0097b2" fill-opacity="1"><g transform="translate(83.706674, 316.064647)"><g><path d="M 12.472656 -1.945312 L 12.597656 -1.820312 C 12.621094 -1.644531 12.617188 -1.390625 12.511719 -1.089844 C 11.574219 1.105469 10.710938 3.332031 9.921875 5.582031 C 9.058594 7.804688 8.144531 9.929688 7.207031 12.128906 C 6.6875 13.125 6.21875 14.222656 5.796875 15.425781 C 5.304688 16.597656 5.207031 17.828125 5.46875 19.015625 C 5.609375 19.570312 5.828125 20.152344 6.195312 20.785156 C 6.5625 21.417969 7.03125 22.003906 7.601562 22.542969 C 8.097656 23.050781 8.664062 23.589844 9.289062 23.976562 C 9.835938 24.335938 10.410156 24.621094 11.011719 24.832031 C 11.8125 24.945312 12.519531 24.855469 13.179688 24.410156 C 13.863281 23.894531 14.203125 23.171875 14.34375 22.292969 C 14.378906 21.464844 14.519531 20.585938 14.632812 19.78125 C 14.769531 18.90625 15.085938 18.003906 15.402344 17.105469 C 15.71875 16.203125 16.082031 15.40625 16.472656 14.53125 C 16.976562 12.855469 17.503906 11.101562 18.082031 9.453125 C 18.585938 7.773438 19.089844 6.097656 19.59375 4.421875 C 21.386719 -1.183594 23.558594 -6.65625 25.976562 -11.871094 C 28.394531 -17.089844 30.761719 -22.410156 33.082031 -27.828125 C 33.398438 -28.730469 33.6875 -29.554688 33.800781 -30.355469 C 33.914062 -31.160156 33.847656 -31.941406 33.683594 -32.671875 C 33.492188 -33.328125 33.097656 -33.886719 32.605469 -34.398438 C 32.035156 -34.933594 31.234375 -35.296875 30.207031 -35.492188 C 29.703125 -35.5 29.222656 -35.328125 28.941406 -35.007812 C 28.863281 -34.78125 28.710938 -34.582031 28.65625 -34.433594 C 28.53125 -34.308594 28.402344 -34.183594 28.351562 -34.035156 C 27.628906 -32.941406 26.882812 -31.769531 26.3125 -30.621094 C 25.742188 -29.472656 25.019531 -28.378906 24.324219 -27.359375 C 22.933594 -25.066406 21.691406 -22.722656 20.523438 -20.351562 C 19.328125 -17.90625 18.3125 -15.484375 17.34375 -12.960938 C 16.984375 -12.410156 16.527344 -12.316406 16.007812 -12.753906 C 14.890625 -13.652344 13.515625 -14.300781 11.890625 -14.703125 C 10.261719 -15.105469 8.777344 -14.949219 7.484375 -14.390625 C 6.269531 -13.808594 5.328125 -13.042969 4.585938 -12.125 C 3.738281 -11.15625 3.121094 -10.109375 2.625 -8.933594 C 2.152344 -7.585938 2.03125 -6.28125 2.390625 -5.140625 C 2.726562 -3.929688 3.234375 -2.742188 3.921875 -1.574219 C 4.3125 -0.765625 4.878906 -0.226562 5.632812 0.0351562 C 6.355469 0.375 7.132812 0.5625 7.988281 0.523438 C 8.765625 0.460938 9.5 0.296875 10.308594 -0.09375 C 11.042969 -0.511719 11.628906 -0.980469 12.117188 -1.652344 C 12.117188 -1.652344 12.21875 -1.699219 12.246094 -1.773438 C 12.246094 -1.773438 12.273438 -1.847656 12.472656 -1.945312 Z M 7.214844 -4.96875 C 6.863281 -4.921875 6.792969 -5.199219 7.054688 -5.953125 C 7.238281 -6.476562 7.421875 -7 7.78125 -7.550781 C 8.042969 -8.046875 8.300781 -8.546875 8.636719 -9.019531 C 8.839844 -9.367188 9.121094 -9.691406 9.429688 -10.089844 C 9.710938 -10.410156 9.992188 -10.734375 10.425781 -11.003906 C 10.425781 -11.003906 10.527344 -11.050781 10.628906 -11.101562 C 10.703125 -11.074219 10.804688 -11.125 10.933594 -11.246094 C 11.609375 -11.261719 11.933594 -10.980469 11.925781 -10.476562 C 11.683594 -9.550781 11.394531 -8.726562 10.984375 -8.027344 C 10.570312 -7.332031 10.082031 -6.660156 9.472656 -6.117188 C 9.214844 -5.867188 8.886719 -5.648438 8.453125 -5.375 C 7.921875 -5.058594 7.542969 -4.9375 7.214844 -4.96875 Z M 7.214844 -4.96875 "/></g></g></g><g fill="#0097b2" fill-opacity="1"><g transform="translate(106.325061, 323.761123)"><g><path d="M 7.476562 5.703125 C 8.320312 6.25 9.226562 6.566406 10.167969 6.726562 C 11.113281 6.890625 11.960938 6.78125 12.890625 6.363281 C 13.082031 6.25 13.335938 6.230469 13.488281 6.269531 L 14.820312 5.875 C 15.363281 5.6875 15.980469 5.519531 16.597656 5.347656 C 17.21875 5.179688 17.835938 5.011719 18.375 4.824219 C 18.917969 4.632812 19.363281 4.5 19.632812 4.40625 C 20 4.257812 20.289062 4.085938 20.601562 3.835938 C 20.816406 3.644531 21.164062 3.242188 21.554688 2.6875 C 21.59375 2.53125 21.710938 2.398438 21.769531 2.167969 L 21.890625 1.707031 C 22.070312 1.011719 21.800781 0.453125 21.265625 -0.015625 C 21 -0.25 20.710938 -0.40625 20.515625 -0.289062 C 20.246094 -0.195312 19.996094 -0.179688 19.722656 -0.0859375 C 19.335938 0.144531 19.046875 0.316406 18.660156 0.542969 C 18.273438 0.773438 17.960938 1.019531 17.671875 1.191406 C 15.621094 2.140625 13.765625 2.648438 11.933594 2.75 C 10.101562 2.851562 8.523438 2.28125 7.300781 0.980469 C 6.476562 0.355469 6.078125 -0.648438 6.011719 -1.980469 C 5.9375 -2.328125 5.9375 -2.65625 6 -2.886719 C 6.039062 -3.039062 6.078125 -3.195312 6.195312 -3.328125 C 6.3125 -3.460938 6.484375 -3.5 6.660156 -3.535156 C 6.832031 -3.574219 7.160156 -3.570312 7.585938 -3.625 C 8.433594 -3.734375 9.304688 -3.921875 10.078125 -4.378906 C 10.851562 -4.835938 11.550781 -5.3125 12.210938 -5.960938 C 12.851562 -6.535156 13.511719 -7.1875 14.171875 -7.835938 C 14.832031 -8.488281 15.492188 -9.140625 16.113281 -9.636719 C 16.636719 -10.074219 17.105469 -10.613281 17.4375 -11.265625 C 17.75 -11.839844 18.160156 -12.472656 18.492188 -13.125 C 18.6875 -13.570312 18.828125 -14.109375 18.832031 -14.761719 C 18.835938 -15.417969 18.820312 -15.996094 18.652344 -16.617188 C 18.464844 -17.15625 18.199219 -17.71875 17.816406 -18.144531 C 17.433594 -18.570312 16.953125 -18.941406 16.414062 -19.082031 L 15.644531 -19.277344 C 15.761719 -19.414062 15.878906 -19.546875 15.996094 -19.679688 C 16.035156 -19.835938 16.171875 -20.046875 16.386719 -20.238281 C 16.480469 -20.292969 16.425781 -20.390625 16.3125 -20.585938 C 16.175781 -20.703125 16.097656 -20.722656 16.003906 -20.664062 C 15.773438 -20.722656 15.597656 -20.6875 15.5 -20.628906 C 14.417969 -20.253906 13.394531 -19.777344 12.289062 -19.324219 C 11.75 -19.132812 11.4375 -18.886719 11.300781 -18.675781 C 10.875 -18.292969 10.546875 -17.96875 10.214844 -17.640625 C 9.867188 -17.238281 9.535156 -16.914062 9.203125 -16.589844 C 8.894531 -16.339844 8.660156 -16.074219 8.40625 -15.726562 C 7.941406 -15.191406 7.53125 -14.558594 7.066406 -14.023438 C 6.597656 -13.484375 6.113281 -12.871094 5.722656 -12.316406 C 5.136719 -11.316406 4.605469 -10.222656 3.980469 -9.070312 C 3.355469 -7.917969 2.980469 -6.785156 2.992188 -5.550781 C 2.867188 -4.433594 2.839844 -3.371094 2.890625 -2.292969 C 2.84375 -1.15625 2.988281 -0.132812 3.367188 0.949219 C 3.628906 1.839844 4.144531 2.710938 4.910156 3.566406 C 5.675781 4.417969 6.480469 5.117188 7.476562 5.703125 Z M 9.246094 -11.980469 L 9.753906 -12.671875 C 9.890625 -12.882812 10.105469 -13.074219 10.316406 -13.265625 C 10.433594 -13.398438 10.53125 -13.457031 10.648438 -13.589844 C 10.6875 -13.746094 10.785156 -13.800781 10.902344 -13.933594 C 11.347656 -14.394531 11.871094 -14.835938 12.339844 -15.371094 C 12.785156 -15.828125 13.230469 -16.289062 13.777344 -16.804688 C 14.125 -17.207031 14.417969 -17.378906 14.570312 -17.339844 C 14.722656 -17.300781 14.914062 -17.085938 15.199219 -16.601562 C 15.390625 -16.0625 15.386719 -15.40625 15.070312 -14.828125 C 14.683594 -14.273438 14.214844 -13.738281 13.59375 -13.242188 C 12.933594 -12.589844 12.292969 -12.015625 11.597656 -11.539062 C 10.800781 -11.003906 10.105469 -10.527344 9.40625 -10.050781 C 9.214844 -9.9375 9.117188 -9.878906 9.019531 -9.824219 C 8.84375 -9.785156 8.75 -9.730469 8.632812 -9.59375 C 8.671875 -9.75 8.613281 -9.847656 8.460938 -9.886719 C 8.582031 -10.675781 8.839844 -11.347656 9.246094 -11.980469 Z M 9.246094 -11.980469 "/></g></g></g><g fill="#0097b2" fill-opacity="1"><g transform="translate(124.954705, 328.602224)"><g><path d="M 14.851562 -4.082031 C 14.761719 -3.53125 14.578125 -2.917969 14.398438 -2.304688 C 14.125 -1.625 13.929688 -0.929688 13.65625 -0.25 C 13.382812 0.429688 13.1875 1.121094 12.929688 1.722656 C 12.667969 2.324219 12.5 2.863281 12.433594 3.253906 C 12.148438 4.011719 12.03125 4.71875 11.980469 5.515625 C 11.929688 6.3125 12.0625 6.980469 12.285156 7.582031 C 12.496094 8.257812 12.890625 8.808594 13.464844 9.222656 C 14.03125 9.71875 14.789062 10.007812 15.820312 10.09375 C 16.132812 10.148438 16.433594 10.277344 16.734375 10.40625 C 17.035156 10.535156 17.257812 10.652344 17.496094 10.691406 C 17.71875 10.808594 17.953125 10.847656 18.277344 10.820312 C 18.515625 10.859375 18.789062 10.664062 19.152344 10.402344 C 19.804688 9.863281 20.144531 9.277344 20.117188 8.464844 C 20.0625 8.296875 20.089844 8.140625 20.207031 7.917969 C 20.246094 7.679688 20.363281 7.460938 20.390625 7.300781 C 20.921875 5.535156 21.375 3.757812 21.839844 1.902344 C 22.296875 0.125 22.59375 -1.679688 22.824219 -3.574219 C 22.871094 -4.855469 22.792969 -6.320312 22.65625 -7.953125 C 22.445312 -9.601562 22.050781 -11.113281 21.472656 -12.5 C 20.882812 -13.804688 20.003906 -14.835938 18.824219 -15.511719 C 17.648438 -16.1875 16.210938 -16.265625 14.328125 -15.605469 C 14.148438 -15.476562 14.027344 -15.738281 14.027344 -16.222656 C 14.027344 -16.703125 14.050781 -17.34375 14.15625 -17.972656 C 14.179688 -18.613281 14.203125 -19.253906 14.308594 -19.878906 C 14.410156 -20.507812 14.382812 -20.835938 14.410156 -20.992188 C 14.199219 -21.671875 13.988281 -22.351562 13.777344 -23.027344 C 13.476562 -23.644531 13.082031 -24.191406 12.535156 -24.765625 C 12.324219 -24.960938 11.878906 -25.195312 11.304688 -25.613281 C 10.636719 -25.964844 9.957031 -26.234375 9.277344 -26.507812 C 8.597656 -26.78125 7.96875 -26.886719 7.472656 -26.804688 C 6.976562 -26.726562 6.664062 -26.292969 6.714844 -25.640625 C 6.664062 -25.328125 6.679688 -24.921875 6.707031 -24.597656 C 6.652344 -24.28125 6.589844 -23.890625 6.539062 -23.574219 C 6.433594 -22.949219 6.226562 -22.175781 5.96875 -21.09375 C 5.707031 -20.007812 5.449219 -18.921875 5.097656 -17.769531 C 4.734375 -16.542969 4.476562 -15.457031 4.140625 -14.382812 C 3.800781 -13.3125 3.59375 -12.539062 3.425781 -12.003906 C 3.101562 -11.011719 2.777344 -10.015625 2.542969 -9.085938 C 2.21875 -8.09375 2.207031 -7.046875 2.523438 -6.03125 C 2.589844 -5.453125 2.945312 -4.671875 3.507812 -3.691406 C 4.058594 -2.636719 4.726562 -1.800781 5.488281 -1.03125 C 6.246094 -0.261719 7.042969 0.273438 7.894531 0.492188 C 8.746094 0.714844 9.527344 0.359375 10.179688 -0.660156 C 10.503906 -1.171875 10.765625 -1.773438 10.894531 -2.558594 C 11.011719 -3.265625 11.203125 -3.957031 11.320312 -4.664062 L 11.4375 -5.367188 C 11.5 -5.761719 11.65625 -6.21875 11.734375 -6.6875 C 11.8125 -7.160156 11.96875 -7.617188 12.046875 -8.089844 C 12.109375 -8.480469 12.238281 -8.78125 12.605469 -9.042969 C 13.363281 -9.722656 14.261719 -10.300781 15.148438 -10.800781 C 15.554688 -10.8125 15.765625 -10.617188 15.792969 -10.292969 C 15.640625 -8.382812 15.382812 -6.332031 14.851562 -4.082031 Z M 14.851562 -4.082031 "/></g></g></g><g fill="#0097b2" fill-opacity="1"><g transform="translate(150.960028, 332.59445)"><g><path d="M 13.292969 -13.765625 C 13.246094 -14.246094 13.289062 -14.800781 13.324219 -15.277344 C 13.359375 -15.753906 13.480469 -16.300781 13.515625 -16.777344 C 13.585938 -17.730469 13.738281 -18.753906 13.816406 -19.785156 C 13.886719 -20.734375 13.960938 -21.765625 13.875 -22.730469 C 13.695312 -23.539062 13.4375 -24.355469 13.085938 -25.019531 C 12.65625 -25.6875 12.230469 -26.359375 11.71875 -27.03125 C 11.128906 -27.632812 10.515625 -28 9.886719 -28.125 C 9.253906 -28.171875 8.535156 -28.144531 7.804688 -27.960938 C 7.394531 -27.832031 7.21875 -27.605469 7.195312 -27.285156 C 7.09375 -26.976562 6.992188 -26.664062 6.96875 -26.347656 C 6.863281 -26.035156 6.769531 -25.804688 6.746094 -25.488281 C 6.425781 -24.394531 6.179688 -23.21875 5.9375 -22.121094 C 5.695312 -21.019531 5.449219 -19.84375 5.289062 -18.738281 C 5.085938 -18.117188 5.042969 -17.5625 4.996094 -16.929688 C 4.949219 -16.292969 4.75 -15.75 4.472656 -15.214844 C 4.378906 -15.058594 4.375 -14.980469 4.375 -14.980469 C 4.375 -14.980469 4.367188 -14.902344 4.363281 -14.824219 C 4.332031 -14.425781 4.238281 -14.195312 4.152344 -14.121094 C 3.988281 -14.054688 3.742188 -13.992188 3.425781 -14.015625 C 3.109375 -14.039062 2.867188 -13.976562 2.707031 -13.988281 C 2.46875 -14.007812 2.226562 -13.945312 1.988281 -13.960938 C 1.671875 -13.984375 1.421875 -13.84375 1.402344 -13.605469 C 1.375 -13.210938 1.515625 -12.960938 1.832031 -12.9375 C 2.136719 -12.753906 2.363281 -12.578125 2.589844 -12.402344 C 2.730469 -12.152344 2.949219 -11.898438 3.257812 -11.714844 C 3.554688 -11.453125 3.691406 -11.125 3.582031 -10.734375 C 3.082031 -9.335938 2.816406 -7.921875 2.710938 -6.496094 L 2.394531 -2.214844 L 2.207031 0.324219 C 2.136719 1.273438 2.152344 2.152344 2.246094 3.035156 C 2.339844 3.917969 2.519531 4.730469 2.859375 5.550781 C 3.117188 6.367188 3.617188 7.121094 4.296875 7.652344 C 4.882812 8.332031 5.648438 8.785156 6.507812 9.007812 C 7.289062 9.226562 8.160156 9.289062 9.128906 9.125 C 10.421875 8.898438 11.085938 8.550781 11.207031 8 C 11.328125 7.453125 11.226562 6.648438 10.898438 5.667969 C 10.699219 5.175781 10.640625 4.851562 10.664062 4.535156 C 10.683594 4.296875 10.710938 3.898438 10.746094 3.425781 C 10.738281 2.464844 10.808594 1.515625 10.878906 0.5625 C 10.949219 -0.386719 11.019531 -1.339844 11.246094 -2.277344 C 11.410156 -3.382812 11.570312 -4.484375 11.730469 -5.589844 C 11.8125 -6.699219 12.058594 -7.878906 12.378906 -8.96875 C 12.511719 -9.675781 12.621094 -10.066406 12.710938 -10.21875 C 12.796875 -10.292969 13.273438 -10.257812 14.21875 -10.109375 C 14.449219 -10.011719 14.765625 -9.988281 15.082031 -9.964844 C 15.402344 -9.941406 15.722656 -10 16.046875 -10.054688 C 16.210938 -10.121094 16.453125 -10.183594 16.625 -10.332031 C 16.789062 -10.398438 17.03125 -10.460938 17.28125 -10.601562 C 17.53125 -10.742188 17.628906 -10.972656 17.574219 -11.296875 C 17.433594 -11.546875 17.296875 -11.875 17.171875 -12.363281 C 16.660156 -12.957031 16.046875 -13.320312 15.414062 -13.367188 C 14.699219 -13.421875 13.992188 -13.554688 13.292969 -13.765625 Z M 13.292969 -13.765625 "/></g></g></g><g fill="#0097b2" fill-opacity="1"><g transform="translate(169.953292, 333.812502)"><g/></g></g><g fill="#0097b2" fill-opacity="1"><g transform="translate(182.318352, 334.352833)"><g><path d="M 17.09375 -13.644531 C 17.105469 -13.488281 17.195312 -13.335938 17.28125 -13.261719 C 17.296875 -13.105469 17.378906 -13.03125 17.378906 -13.03125 C 17.714844 -10.824219 18.050781 -8.617188 18.230469 -6.398438 C 18.40625 -4.179688 18.820312 -1.980469 19.472656 0.199219 C 20.25 2.929688 21.027344 5.65625 21.714844 8.3125 C 22.414062 11.050781 22.714844 13.816406 22.785156 16.683594 C 22.835938 17.316406 22.957031 17.863281 23.160156 18.40625 C 23.363281 18.949219 23.640625 19.40625 23.992188 19.855469 C 24.183594 20.238281 24.375 20.621094 24.40625 21.019531 C 24.445312 21.492188 24.566406 22.042969 24.921875 22.492188 C 25.199219 22.949219 25.558594 23.476562 25.992188 23.921875 C 26.425781 24.367188 26.863281 24.808594 27.289062 25.171875 C 27.722656 25.617188 28.066406 25.910156 28.40625 26.199219 C 28.929688 26.71875 29.515625 27.070312 30.160156 27.175781 C 30.734375 27.371094 31.386719 27.558594 32.039062 27.746094 C 33.015625 27.984375 33.96875 27.910156 35.050781 27.503906 C 35.28125 27.40625 35.585938 27.222656 35.890625 27.039062 C 36.195312 26.855469 36.507812 26.75 36.8125 26.566406 C 37.425781 26.277344 38.023438 25.753906 38.433594 24.921875 C 38.847656 24.089844 39.027344 23.359375 38.882812 22.574219 C 38.695312 22.191406 38.65625 21.714844 38.691406 21.152344 C 38.648438 20.597656 38.449219 20.136719 37.9375 19.699219 L 37.910156 19.382812 C 37.808594 19.070312 37.773438 18.675781 37.75 18.359375 C 37.726562 18.039062 37.613281 17.652344 37.507812 17.339844 C 36.902344 13.71875 36.0625 10.199219 35.0625 6.691406 C 34.074219 3.261719 32.996094 -0.242188 31.925781 -3.664062 C 30.898438 -6.535156 29.949219 -9.410156 29.078125 -12.371094 C 28.128906 -15.246094 27.332031 -18.210938 26.699219 -21.191406 C 26.382812 -22.121094 25.910156 -23.042969 25.1875 -24.101562 C 24.472656 -25.082031 24 -26 23.609375 -26.925781 C 23.339844 -27.300781 23.242188 -27.535156 23.226562 -27.691406 C 23.214844 -27.851562 23.433594 -28.109375 23.878906 -28.542969 C 24.394531 -29.0625 24.90625 -29.660156 25.421875 -30.179688 C 25.9375 -30.699219 26.449219 -31.296875 27.03125 -31.984375 C 27.546875 -32.503906 27.960938 -33.332031 28.195312 -34.390625 C 28.4375 -35.363281 28.59375 -36.414062 28.660156 -37.535156 C 28.652344 -38.652344 28.492188 -39.675781 28.25 -40.691406 C 28.007812 -41.710938 27.628906 -42.476562 27.101562 -43.074219 C 26.496094 -43.664062 25.734375 -44.242188 24.902344 -44.652344 C 24.074219 -45.066406 23.242188 -45.476562 22.492188 -45.894531 C 21.996094 -46.09375 21.351562 -46.203125 20.632812 -46.226562 C 19.910156 -46.246094 19.199219 -46.191406 18.40625 -46.128906 C 17.621094 -45.984375 16.914062 -45.847656 16.210938 -45.632812 C 15.433594 -45.410156 14.890625 -45.207031 14.429688 -45.011719 C 14.195312 -45.949219 14.113281 -46.980469 14.011719 -48.25 C 13.914062 -49.4375 13.742188 -50.621094 13.496094 -51.714844 C 13.246094 -52.8125 12.839844 -53.898438 12.289062 -54.808594 C 11.738281 -55.722656 10.960938 -56.457031 9.960938 -57.015625 C 9.300781 -57.28125 8.484375 -57.535156 7.5 -57.855469 C 6.445312 -58.089844 5.390625 -58.324219 4.269531 -58.394531 C 3.148438 -58.464844 2.03125 -58.457031 1.085938 -58.300781 C 0.140625 -58.144531 -0.625 -57.765625 -1.054688 -57.171875 C -1.558594 -56.496094 -1.8125 -55.675781 -1.902344 -54.792969 C -1.992188 -53.910156 -2 -53.03125 -1.933594 -52.160156 C -1.855469 -51.207031 -1.707031 -50.34375 -1.480469 -49.484375 C -1.246094 -48.546875 -1.101562 -47.757812 -1.046875 -47.046875 C -0.789062 -44.832031 -0.703125 -42.765625 -0.863281 -40.761719 C -1.015625 -38.675781 -1.089844 -36.597656 -0.921875 -34.535156 C -0.929688 -32.621094 -0.785156 -30.800781 -0.480469 -28.988281 C -0.257812 -27.171875 -0.269531 -25.335938 -0.441406 -23.488281 C -0.671875 -21.398438 -0.832031 -19.390625 -0.984375 -17.304688 C -1.136719 -15.21875 -1.058594 -13.234375 -0.898438 -11.253906 C -0.734375 -9.191406 -0.339844 -7.230469 0.289062 -5.367188 C 0.921875 -3.421875 1.867188 -1.585938 3.28125 0.136719 C 3.640625 0.667969 4.074219 1.109375 4.429688 1.558594 C 4.785156 2.011719 5.21875 2.453125 5.726562 2.8125 C 5.898438 2.957031 5.988281 3.109375 6.082031 3.261719 C 6.171875 3.414062 6.34375 3.558594 6.589844 3.621094 C 8.300781 5.078125 9.777344 5.597656 11.019531 5.179688 C 12.269531 4.839844 13.320312 4.039062 14.175781 2.777344 C 15.03125 1.511719 15.632812 0.0273438 15.976562 -1.675781 C 16.316406 -3.375 16.519531 -4.828125 16.417969 -6.097656 L 16.140625 -9.582031 C 16.128906 -9.742188 16.121094 -9.820312 16.1875 -9.984375 C 16.175781 -10.144531 16.242188 -10.308594 16.230469 -10.464844 C 16.21875 -10.625 16.277344 -10.871094 16.257812 -11.105469 C 16.246094 -11.265625 16.304688 -11.507812 16.445312 -11.761719 C 16.425781 -11.996094 16.480469 -12.320312 16.535156 -12.644531 C 16.507812 -12.960938 16.722656 -13.296875 17.09375 -13.644531 Z M 16.789062 -31.40625 L 16.605469 -33.703125 C 16.550781 -34.414062 16.414062 -35.121094 16.351562 -35.914062 C 16.292969 -36.628906 16.15625 -37.335938 16.015625 -38.121094 C 15.878906 -38.828125 15.738281 -39.613281 15.582031 -40.558594 C 15.898438 -40.585938 16.128906 -40.683594 16.433594 -40.867188 C 16.660156 -41.042969 16.890625 -41.140625 17.207031 -41.167969 C 17.683594 -41.203125 18.078125 -41.238281 18.542969 -41.433594 C 19.003906 -41.628906 19.386719 -41.820312 19.851562 -42.015625 C 20.160156 -42.121094 20.550781 -42.230469 20.949219 -42.261719 C 21.265625 -42.289062 21.65625 -42.398438 21.957031 -42.582031 C 22.933594 -41.386719 23.34375 -40.222656 23.195312 -39.09375 C 23.050781 -37.886719 22.578125 -36.8125 21.863281 -35.796875 C 20.847656 -34.519531 19.828125 -33.320312 18.800781 -32.203125 C 18.507812 -31.859375 18.285156 -31.683594 17.972656 -31.578125 C 17.664062 -31.472656 17.265625 -31.441406 16.789062 -31.40625 Z M 16.789062 -31.40625 "/></g></g></g><g fill="#0097b2" fill-opacity="1"><g transform="translate(216.929971, 331.024466)"><g><path d="M 9.191406 1.992188 C 10.1875 2.128906 11.140625 2.03125 12.0625 1.777344 C 12.984375 1.519531 13.707031 1.0625 14.371094 0.289062 C 14.5 0.105469 14.71875 -0.0195312 14.875 -0.046875 L 15.914062 -0.972656 C 16.324219 -1.371094 16.8125 -1.785156 17.300781 -2.203125 C 17.789062 -2.617188 18.277344 -3.03125 18.6875 -3.433594 C 19.097656 -3.835938 19.441406 -4.140625 19.648438 -4.34375 C 19.914062 -4.636719 20.105469 -4.914062 20.28125 -5.269531 C 20.394531 -5.535156 20.539062 -6.046875 20.65625 -6.714844 C 20.628906 -6.871094 20.675781 -7.042969 20.632812 -7.277344 L 20.542969 -7.746094 C 20.410156 -8.449219 19.933594 -8.84375 19.25 -9.039062 C 18.90625 -9.136719 18.582031 -9.15625 18.453125 -8.972656 C 18.25 -8.769531 18.027344 -8.648438 17.824219 -8.449219 C 17.570312 -8.078125 17.378906 -7.796875 17.125 -7.425781 C 16.871094 -7.054688 16.695312 -6.699219 16.507812 -6.421875 C 15.050781 -4.691406 13.589844 -3.445312 11.972656 -2.574219 C 10.355469 -1.703125 8.6875 -1.554688 7.027344 -2.210938 C 6.015625 -2.425781 5.226562 -3.167969 4.601562 -4.34375 C 4.386719 -4.625 4.25 -4.925781 4.207031 -5.160156 C 4.175781 -5.316406 4.148438 -5.472656 4.195312 -5.640625 C 4.246094 -5.8125 4.386719 -5.921875 4.527344 -6.027344 C 4.667969 -6.136719 4.96875 -6.273438 5.328125 -6.503906 C 6.050781 -6.960938 6.757812 -7.5 7.265625 -8.242188 C 7.773438 -8.984375 8.203125 -9.710938 8.523438 -10.582031 C 8.863281 -11.371094 9.183594 -12.242188 9.503906 -13.113281 C 9.828125 -13.980469 10.148438 -14.851562 10.5 -15.5625 C 10.789062 -16.183594 10.984375 -16.867188 11.007812 -17.601562 C 11.046875 -18.253906 11.148438 -19 11.171875 -19.734375 C 11.160156 -20.21875 11.058594 -20.765625 10.785156 -21.359375 C 10.511719 -21.957031 10.253906 -22.472656 9.835938 -22.960938 C 9.4375 -23.371094 8.957031 -23.765625 8.429688 -23.992188 C 7.902344 -24.214844 7.3125 -24.347656 6.765625 -24.242188 L 5.984375 -24.097656 C 6.03125 -24.269531 6.082031 -24.4375 6.128906 -24.609375 C 6.101562 -24.765625 6.132812 -25.015625 6.246094 -25.277344 C 6.308594 -25.371094 6.21875 -25.433594 6.03125 -25.5625 C 5.859375 -25.609375 5.78125 -25.597656 5.71875 -25.503906 C 5.484375 -25.460938 5.34375 -25.351562 5.28125 -25.257812 C 4.460938 -24.457031 3.734375 -23.59375 2.925781 -22.714844 C 2.515625 -22.3125 2.339844 -21.957031 2.308594 -21.707031 C 2.082031 -21.179688 1.921875 -20.746094 1.761719 -20.308594 C 1.613281 -19.796875 1.453125 -19.363281 1.292969 -18.929688 C 1.117188 -18.570312 1.019531 -18.230469 0.9375 -17.808594 C 0.742188 -17.125 0.640625 -16.378906 0.445312 -15.695312 C 0.25 -15.011719 0.0703125 -14.25 -0.046875 -13.582031 C -0.152344 -12.425781 -0.167969 -11.210938 -0.246094 -9.902344 C -0.320312 -8.59375 -0.179688 -7.40625 0.351562 -6.292969 C 0.714844 -5.230469 1.140625 -4.257812 1.644531 -3.300781 C 2.082031 -2.253906 2.652344 -1.386719 3.453125 -0.566406 C 4.066406 0.125 4.902344 0.695312 5.957031 1.144531 C 7.011719 1.59375 8.039062 1.886719 9.191406 1.992188 Z M 3.289062 -14.773438 L 3.453125 -15.613281 C 3.488281 -15.863281 3.601562 -16.125 3.710938 -16.390625 C 3.761719 -16.5625 3.824219 -16.652344 3.871094 -16.824219 C 3.84375 -16.980469 3.90625 -17.074219 3.957031 -17.246094 C 4.164062 -17.851562 4.453125 -18.46875 4.648438 -19.15625 C 4.859375 -19.761719 5.066406 -20.367188 5.339844 -21.0625 C 5.488281 -21.578125 5.675781 -21.855469 5.832031 -21.882812 C 5.988281 -21.914062 6.253906 -21.800781 6.71875 -21.484375 C 7.117188 -21.074219 7.390625 -20.480469 7.351562 -19.824219 C 7.234375 -19.15625 7.042969 -18.472656 6.691406 -17.757812 C 6.367188 -16.890625 6.03125 -16.097656 5.601562 -15.371094 C 5.109375 -14.550781 4.679688 -13.820312 4.25 -13.09375 C 4.125 -12.910156 4.0625 -12.816406 3.996094 -12.722656 C 3.855469 -12.617188 3.792969 -12.523438 3.742188 -12.351562 C 3.714844 -12.507812 3.621094 -12.570312 3.464844 -12.542969 C 3.238281 -13.308594 3.1875 -14.027344 3.289062 -14.773438 Z M 3.289062 -14.773438 "/></g></g></g><g fill="#0097b2" fill-opacity="1"><g transform="translate(235.727663, 327.395459)"><g><path d="M -0.773438 -13.621094 C -0.207031 -12.125 0.644531 -10.789062 1.648438 -9.496094 C 2.65625 -8.203125 3.480469 -7.269531 4.148438 -6.628906 C 4.5 -6.226562 4.875 -5.753906 5.230469 -5.355469 C 5.527344 -4.859375 5.75 -4.339844 5.894531 -3.804688 C 5.933594 -3.648438 5.953125 -3.574219 5.976562 -3.496094 C 5.996094 -3.417969 6.09375 -3.363281 6.113281 -3.285156 L 6.300781 -2.59375 C 6.359375 -2.363281 6.347656 -2.113281 6.40625 -1.882812 C 6.308594 -1.035156 6.109375 -0.238281 5.699219 0.691406 C 5.292969 1.625 4.765625 2.425781 4.15625 2.917969 C 3.738281 3.195312 3.414062 3.527344 3.148438 3.765625 C 2.882812 4 2.5625 4.332031 2.296875 4.570312 C 2.050781 4.882812 1.804688 5.195312 1.714844 5.464844 C 1.566406 5.835938 1.570312 6.164062 1.828125 6.503906 L 1.867188 6.660156 C 1.9375 7.21875 2.214844 7.636719 2.699219 7.917969 C 3.1875 8.199219 3.730469 8.382812 4.40625 8.449219 C 5.101562 8.589844 5.703125 8.675781 6.359375 8.664062 C 7.011719 8.652344 7.515625 8.683594 7.917969 8.65625 C 8.074219 8.617188 8.171875 8.671875 8.191406 8.75 C 8.273438 9.054688 8.449219 9.089844 8.601562 9.050781 C 8.753906 9.007812 8.886719 8.890625 9.039062 8.851562 C 9.65625 8.683594 10.289062 8.597656 10.902344 8.433594 C 11.519531 8.269531 12.210938 8.082031 12.804688 7.839844 C 13.398438 7.597656 13.894531 7.300781 14.425781 6.828125 C 14.898438 6.453125 15.335938 5.925781 15.628906 5.1875 C 15.835938 4.722656 15.960938 4.277344 16.144531 3.734375 C 16.273438 3.289062 16.476562 2.820312 16.757812 2.335938 C 17.433594 1.167969 17.546875 0.0664062 17.238281 -1.085938 C 16.929688 -2.238281 16.3125 -3.308594 15.542969 -4.335938 C 14.796875 -5.285156 13.894531 -6.195312 12.835938 -7.066406 C 11.800781 -7.855469 10.960938 -8.539062 10.140625 -9.140625 C 10.140625 -9.140625 10.042969 -9.195312 10.042969 -9.195312 C 10.042969 -9.195312 10.042969 -9.195312 10.023438 -9.273438 C 9.613281 -9.574219 9.203125 -9.875 8.769531 -10.253906 C 8.339844 -10.632812 7.910156 -11.011719 7.480469 -11.390625 C 6.464844 -12.105469 5.867188 -13.097656 5.539062 -14.324219 C 5.210938 -15.554688 5.480469 -16.695312 6.347656 -17.753906 C 6.574219 -18.140625 6.722656 -18.511719 6.675781 -18.992188 C 6.570312 -19.375 6.390625 -19.738281 5.980469 -20.039062 C 5.59375 -20.265625 5.242188 -20.335938 5.046875 -20.449219 C 4.234375 -20.722656 3.480469 -20.769531 2.832031 -20.429688 C 1.875 -20.007812 1.015625 -19.53125 0.175781 -18.976562 C -0.773438 -18.226562 -1.222656 -17.449219 -1.304688 -16.523438 C -1.363281 -15.519531 -1.195312 -14.578125 -0.773438 -13.621094 Z M -0.773438 -13.621094 "/></g></g></g><g fill="#0097b2" fill-opacity="1"><g transform="translate(254.765684, 322.206436)"><g><path d="M 8.320312 -17.144531 C 8.183594 -17.519531 7.902344 -17.839844 7.515625 -18.207031 C 7.261719 -18.453125 7.105469 -18.652344 7.027344 -18.878906 C 6.6875 -19.347656 6.332031 -19.640625 5.925781 -19.835938 C 5.164062 -20.070312 4.460938 -20.15625 3.757812 -19.992188 C 3.28125 -19.90625 2.808594 -19.820312 2.359375 -19.660156 C 1.910156 -19.5 1.539062 -19.117188 1.273438 -18.683594 C 1.175781 -18.480469 0.976562 -18.324219 0.855469 -18.195312 C 0.683594 -17.964844 0.558594 -17.839844 0.539062 -17.660156 C 0.441406 -17.457031 0.367188 -17.433594 0.367188 -17.433594 C -0.0703125 -16.769531 -0.386719 -16.234375 -0.601562 -15.652344 C -0.890625 -15.042969 -1.105469 -14.460938 -1.394531 -13.851562 C -1.609375 -13.265625 -1.746094 -12.710938 -1.785156 -12.105469 C -1.898438 -11.476562 -1.933594 -10.871094 -1.925781 -10.371094 C -1.945312 -10.191406 -1.941406 -9.941406 -1.886719 -9.792969 C -1.910156 -9.617188 -1.929688 -9.4375 -1.878906 -9.289062 C -1.984375 -7.226562 -1.644531 -5.320312 -0.800781 -3.429688 C -0.03125 -1.507812 1.183594 0 2.789062 1.199219 C 3.738281 1.960938 4.777344 2.515625 5.890625 2.792969 C 7.003906 3.074219 8.0625 3.203125 9.164062 2.976562 C 10.292969 2.828125 11.265625 2.480469 12.207031 1.808594 C 13.148438 1.136719 13.859375 0.289062 14.4375 -0.929688 C 15.015625 -2.148438 15.269531 -3.332031 15.242188 -4.589844 C 15.167969 -5.746094 15.316406 -6.980469 15.691406 -8.296875 C 15.90625 -8.878906 15.917969 -9.558594 15.800781 -10.359375 C 15.683594 -11.160156 15.445312 -11.835938 15.054688 -12.457031 C 14.664062 -13.078125 14.226562 -13.597656 13.589844 -13.960938 C 12.953125 -14.324219 12.296875 -14.511719 11.570312 -14.421875 C 11.34375 -14.339844 11.09375 -14.335938 10.863281 -14.507812 C 10.304688 -14.644531 10.035156 -14.464844 10.015625 -14.035156 C 10.027344 -13.535156 10.132812 -13.234375 10.515625 -13.117188 C 12.246094 -12.046875 13 -10.878906 12.828125 -9.46875 C 12.65625 -8.058594 11.980469 -6.636719 10.953125 -5.257812 C 10.417969 -4.390625 9.527344 -3.816406 8.402344 -3.417969 C 7.953125 -3.257812 7.621094 -3.476562 7.484375 -4.101562 C 7.34375 -4.726562 7.226562 -5.53125 7.234375 -6.460938 C 7.238281 -7.390625 7.246094 -8.320312 7.277344 -9.175781 C 7.308594 -10.03125 7.375 -10.5625 7.445312 -10.839844 C 7.445312 -10.839844 7.417969 -10.914062 7.511719 -11.117188 C 7.582031 -11.394531 7.652344 -11.675781 7.722656 -11.953125 C 7.820312 -12.15625 7.964844 -12.460938 8.183594 -12.792969 C 8.230469 -12.894531 8.277344 -12.996094 8.300781 -13.171875 C 8.246094 -13.320312 8.296875 -13.421875 8.390625 -13.625 C 8.414062 -13.800781 8.433594 -13.980469 8.457031 -14.15625 C 8.402344 -14.304688 8.449219 -14.40625 8.546875 -14.609375 C 8.636719 -15.0625 8.65625 -15.492188 8.519531 -15.867188 C 8.386719 -16.242188 8.328125 -16.640625 8.320312 -17.144531 Z M 8.320312 -17.144531 "/></g></g></g><g fill="#0097b2" fill-opacity="1"><g transform="translate(274.891125, 315.041559)"><g><path d="M 23.238281 -7.730469 C 22.996094 -7.878906 22.714844 -8.101562 22.4375 -8.320312 C 22.160156 -8.542969 21.878906 -8.761719 21.671875 -9.015625 L 21.257812 -9.523438 C 21.117188 -9.632812 20.945312 -9.816406 20.804688 -9.925781 C 20.523438 -9.96875 20.210938 -10.261719 20.007812 -10.695312 C 19.734375 -11.09375 19.496094 -11.597656 19.226562 -12.171875 C 18.957031 -12.746094 18.792969 -13.285156 18.558594 -13.789062 C 18.355469 -14.222656 18.222656 -14.6875 18.089844 -14.976562 C 17.746094 -15.515625 17.476562 -16.09375 17.28125 -16.703125 C 17.082031 -17.3125 16.738281 -17.855469 16.292969 -18.433594 C 15.945312 -18.796875 15.5625 -19.058594 15.140625 -19.210938 C 14.644531 -19.328125 14.222656 -19.484375 13.730469 -19.78125 L 13.660156 -19.746094 C 13.335938 -19.683594 13.015625 -19.621094 12.695312 -19.558594 C 12.371094 -19.492188 12.050781 -19.429688 11.695312 -19.441406 C 11.40625 -19.304688 11.085938 -19.242188 10.652344 -19.039062 C 10.367188 -18.90625 10.25 -18.585938 10.3125 -18.265625 C 10.304688 -17.910156 10.335938 -17.660156 10.46875 -17.371094 C 10.53125 -17.050781 10.59375 -16.730469 10.65625 -16.40625 C 10.785156 -15.765625 10.945312 -15.050781 11.136719 -14.261719 C 11.257812 -13.441406 11.378906 -12.621094 11.429688 -11.765625 C 11.480469 -10.910156 11.527344 -10.054688 11.472656 -9.238281 C 11.34375 -8.390625 11.148438 -7.683594 10.851562 -7.191406 C 10.699219 -6.769531 10.4375 -6.386719 10.21875 -6.105469 C 10.03125 -5.753906 9.773438 -5.371094 9.585938 -5.019531 C 9.4375 -4.773438 9.292969 -4.707031 9.148438 -4.640625 C 8.558594 -5.152344 8.183594 -5.765625 7.878906 -6.414062 C 7.574219 -7.0625 7.34375 -7.742188 7.183594 -8.460938 C 6.992188 -9.246094 6.765625 -10.105469 6.574219 -11.070312 C 6.386719 -12.035156 6.160156 -12.894531 5.753906 -13.757812 C 5.382812 -14.550781 4.828125 -15.167969 4.203125 -15.753906 C 3.542969 -16.234375 2.625 -16.503906 1.414062 -16.464844 L 1.097656 -16.578125 C 0.429688 -16.882812 -0.171875 -17.039062 -0.882812 -17.054688 C -1.59375 -17.074219 -2.34375 -16.988281 -3.019531 -16.933594 C -3.234375 -16.832031 -3.453125 -16.730469 -3.59375 -16.664062 L -4.574219 -15.941406 C -5.011719 -15.5625 -5.195312 -15.210938 -5.140625 -14.710938 C -5.003906 -14.421875 -4.90625 -14.027344 -4.777344 -13.5625 C -4.480469 -12.558594 -4.1875 -11.558594 -3.964844 -10.519531 C -3.742188 -9.484375 -3.519531 -8.445312 -3.257812 -7.515625 C -2.804688 -5.796875 -2.0625 -4.214844 -0.921875 -2.902344 C 0.179688 -1.488281 1.503906 -0.351562 3.007812 0.609375 C 3.496094 0.90625 4.128906 1.3125 4.828125 1.6875 C 5.566406 2.132812 6.410156 2.4375 7.257812 2.746094 C 8.101562 3.050781 8.914062 3.285156 9.765625 3.414062 C 10.542969 3.574219 11.324219 3.558594 11.933594 3.359375 C 12.867188 3.101562 13.621094 2.835938 14.234375 2.460938 C 14.808594 2.1875 15.316406 1.777344 15.613281 1.285156 C 15.945312 0.867188 16.207031 0.304688 16.4375 -0.328125 C 16.667969 -0.964844 16.796875 -1.8125 17.035156 -2.804688 C 17.078125 -3.085938 17.121094 -3.371094 17.164062 -3.652344 C 17.238281 -3.867188 17.28125 -4.148438 17.289062 -4.503906 C 17.300781 -4.859375 17.378906 -5.25 17.390625 -5.605469 C 17.398438 -5.960938 17.441406 -6.242188 17.59375 -6.664062 C 17.667969 -6.699219 17.671875 -6.878906 17.535156 -7.164062 C 17.402344 -7.453125 17.550781 -7.699219 17.910156 -7.867188 C 17.976562 -7.722656 18.011719 -7.652344 18.042969 -7.578125 C 18.078125 -7.507812 18.183594 -7.46875 18.21875 -7.398438 L 18.738281 -6.851562 C 19.390625 -6.015625 20.199219 -5.605469 21.054688 -5.652344 C 21.085938 -5.582031 21.191406 -5.542969 21.191406 -5.542969 C 21.226562 -5.472656 21.332031 -5.433594 21.476562 -5.5 C 21.6875 -5.425781 21.902344 -5.523438 22.046875 -5.59375 C 22.265625 -5.695312 22.480469 -5.796875 22.695312 -5.894531 C 22.910156 -5.996094 23.09375 -6.171875 23.382812 -6.304688 C 23.527344 -6.375 23.707031 -6.546875 23.75 -6.828125 C 23.722656 -7.078125 23.726562 -7.257812 23.691406 -7.328125 C 23.660156 -7.402344 23.519531 -7.511719 23.238281 -7.730469 Z M 23.238281 -7.730469 "/></g></g></g><g fill="#0097b2" fill-opacity="1"><g transform="translate(299.635915, 303.125774)"><g><path d="M 8.535156 -21.191406 C 8.425781 -21.222656 8.386719 -21.289062 8.347656 -21.359375 C 8.347656 -21.359375 8.238281 -21.386719 8.15625 -21.523438 C 7.980469 -21.511719 7.871094 -21.539062 7.652344 -21.59375 C 7.433594 -21.652344 7.21875 -21.707031 7.066406 -21.804688 C 6.671875 -21.847656 6.425781 -21.792969 6.234375 -21.496094 C 5.507812 -20.695312 4.816406 -19.828125 4.089844 -19.03125 C 3.402344 -18.164062 3.039062 -17.210938 2.9375 -16.132812 L 2.890625 -15.277344 C 2.777344 -14.839844 2.574219 -14.71875 2.261719 -15.089844 C 2.113281 -15.1875 2.03125 -15.324219 1.949219 -15.460938 C 1.871094 -15.597656 1.679688 -15.761719 1.601562 -15.898438 C 1.480469 -16.105469 1.355469 -16.308594 1.234375 -16.515625 C 1.113281 -16.71875 0.992188 -16.925781 0.761719 -17.160156 C 0.167969 -17.542969 -0.609375 -17.917969 -1.601562 -18.347656 C -2.550781 -18.710938 -3.53125 -18.960938 -4.539062 -19.105469 C -5.507812 -19.179688 -6.460938 -19.078125 -7.335938 -18.839844 C -8.171875 -18.53125 -8.773438 -17.992188 -9.136719 -17.039062 C -9.496094 -16.085938 -9.308594 -15.457031 -8.605469 -15.042969 C -8.265625 -14.78125 -8.0625 -14.441406 -7.902344 -14.167969 C -7.699219 -13.824219 -7.496094 -13.480469 -7.199219 -13.289062 C -6.996094 -12.945312 -6.835938 -12.671875 -6.671875 -12.398438 C -6.511719 -12.125 -6.308594 -11.785156 -6.148438 -11.507812 C -5.742188 -10.824219 -5.109375 -9.90625 -4.464844 -8.8125 C -3.816406 -7.714844 -3.0625 -6.59375 -2.332031 -5.359375 C -1.605469 -4.128906 -0.878906 -2.898438 -0.234375 -1.800781 C 0.414062 -0.707031 0.871094 0.222656 1.207031 0.949219 C 1.929688 2.644531 2.996094 4.136719 4.433594 5.320312 C 5.800781 6.542969 7.515625 7.101562 9.5625 6.816406 L 11.253906 6.554688 C 11.785156 6.519531 12.265625 6.238281 12.652344 5.640625 C 12.652344 5.640625 12.71875 5.597656 12.789062 5.558594 C 13.035156 5.503906 13.199219 5.316406 13.324219 5.058594 C 13.449219 4.800781 13.574219 4.542969 13.699219 4.285156 C 13.753906 4.066406 13.878906 3.808594 13.894531 3.519531 C 13.949219 3.304688 13.898438 3.058594 13.84375 2.8125 C 13.671875 2.359375 13.429688 1.949219 13.117188 1.578125 C 12.804688 1.210938 12.425781 0.878906 11.910156 0.628906 C 11.433594 0.449219 11.054688 0.121094 10.839844 -0.398438 C 10.519531 -0.945312 10.101562 -1.808594 9.496094 -2.835938 L 7.597656 -6.054688 C 6.949219 -7.148438 6.34375 -8.175781 5.804688 -9.242188 C 5.269531 -10.308594 4.921875 -11.210938 4.871094 -11.921875 C 4.675781 -13.191406 4.65625 -14.472656 4.953125 -15.847656 C 5.25 -17.222656 5.695312 -18.5 6.289062 -19.683594 C 6.414062 -19.941406 6.621094 -20.0625 6.894531 -20.222656 C 7.5625 -20.339844 8.109375 -20.664062 8.535156 -21.191406 Z M 8.535156 -21.191406 "/></g></g></g><g fill="#0097b2" fill-opacity="1"><g transform="translate(317.543116, 292.428811)"><g><path d="M 0.757812 -10.078125 C 0.695312 -10.03125 0.710938 -10.144531 0.660156 -10.496094 C 0.652344 -10.78125 0.664062 -11.179688 0.671875 -11.574219 C 0.621094 -11.925781 0.585938 -12.390625 0.597656 -12.785156 C 0.542969 -13.136719 0.578125 -13.359375 0.597656 -13.46875 C 0.675781 -13.914062 0.816406 -14.402344 1.023438 -14.9375 C 1.207031 -15.363281 1.347656 -15.851562 1.445312 -16.40625 C 1.464844 -16.515625 1.480469 -16.625 1.519531 -16.847656 C 1.492188 -17.023438 1.578125 -17.179688 1.617188 -17.402344 C 1.820312 -17.9375 1.742188 -18.464844 1.53125 -18.898438 C 1.320312 -19.335938 1.175781 -19.816406 1.027344 -20.296875 L 0.980469 -20.363281 C 0.761719 -20.398438 0.648438 -20.417969 0.558594 -20.550781 C 0.464844 -20.679688 0.308594 -20.761719 0.152344 -20.847656 C -0.429688 -21.117188 -0.851562 -21.304688 -1.230469 -21.425781 C -1.628906 -21.4375 -2.070312 -21.511719 -2.625 -21.609375 C -3.066406 -21.683594 -3.328125 -21.5 -3.339844 -21.101562 C -3.378906 -20.882812 -3.414062 -20.660156 -3.542969 -20.570312 C -3.675781 -20.476562 -3.757812 -20.320312 -3.84375 -20.164062 C -4.671875 -18.992188 -5.324219 -17.851562 -5.773438 -16.558594 C -6.222656 -15.265625 -6.449219 -13.9375 -6.4375 -12.679688 C -6.445312 -11.3125 -6.253906 -10.082031 -5.78125 -8.863281 C -5.371094 -7.59375 -4.65625 -6.445312 -3.632812 -5.414062 C -3.265625 -4.894531 -2.660156 -4.449219 -1.988281 -4.046875 C -1.269531 -3.582031 -0.574219 -3.292969 0.179688 -3.046875 C 0.9375 -2.804688 1.710938 -2.671875 2.507812 -2.648438 C 3.300781 -2.628906 3.957031 -2.800781 4.609375 -3.257812 C 5.304688 -3.652344 5.988281 -4.332031 6.625 -5.367188 C 7.300781 -6.332031 7.933594 -7.363281 8.476562 -8.527344 C 9.0625 -9.625 9.539062 -10.738281 10.015625 -11.855469 C 10.429688 -12.925781 10.867188 -13.820312 11.175781 -14.621094 C 11.242188 -14.667969 11.304688 -14.714844 11.261719 -14.777344 C 11.261719 -14.777344 11.277344 -14.890625 11.363281 -15.046875 L 11.671875 -15.847656 C 11.773438 -16.117188 11.859375 -16.273438 11.878906 -16.382812 C 11.851562 -16.558594 11.777344 -16.800781 11.703125 -17.039062 C 11.613281 -17.171875 11.539062 -17.410156 11.53125 -17.699219 C 11.488281 -17.761719 11.375 -17.78125 11.328125 -17.847656 C 11.199219 -17.753906 10.996094 -17.902344 10.8125 -18.164062 C 10.65625 -18.246094 10.480469 -18.21875 10.351562 -18.128906 C 10.285156 -18.082031 10.265625 -17.972656 10.25 -17.859375 C 10.164062 -17.703125 10.0625 -17.4375 9.894531 -17.125 C 9.808594 -16.964844 9.789062 -16.855469 9.726562 -16.808594 C 9.707031 -16.699219 9.640625 -16.652344 9.578125 -16.605469 L 9.382812 -16.46875 C 9.296875 -16.3125 9.132812 -16 8.945312 -15.574219 C 8.738281 -15.039062 8.550781 -14.617188 8.34375 -14.082031 C 8.140625 -13.546875 8 -13.058594 7.8125 -12.632812 C 7.625 -12.207031 7.523438 -11.941406 7.394531 -11.847656 C 6.863281 -11.085938 6.242188 -10.449219 5.554688 -9.769531 C 4.867188 -9.089844 4.085938 -8.539062 3.375 -8.03125 C 3.113281 -7.847656 2.722656 -7.574219 2.242188 -7.429688 C 1.9375 -7.308594 1.652344 -7.300781 1.558594 -7.433594 C 1.402344 -7.515625 1.265625 -7.710938 1.238281 -7.886719 L 1.09375 -8.367188 L 1.046875 -8.433594 C 1.046875 -8.433594 1.066406 -8.542969 0.972656 -8.671875 L 0.753906 -9.394531 C 0.753906 -9.394531 0.710938 -9.460938 0.710938 -9.460938 C 0.710938 -9.460938 0.730469 -9.570312 0.683594 -9.636719 C 0.589844 -9.765625 0.5625 -9.941406 0.757812 -10.078125 Z M 0.757812 -10.078125 "/></g></g></g><g fill="#0097b2" fill-opacity="1"><g transform="translate(334.663432, 280.146964)"><g><path d="M 8.996094 -2.734375 C 9.933594 -3.101562 10.71875 -3.652344 11.398438 -4.324219 C 12.082031 -4.996094 12.488281 -5.746094 12.695312 -6.746094 C 12.714844 -6.96875 12.847656 -7.183594 12.96875 -7.285156 L 13.425781 -8.597656 C 13.589844 -9.148438 13.8125 -9.746094 14.039062 -10.347656 C 14.261719 -10.949219 14.484375 -11.546875 14.648438 -12.097656 C 14.8125 -12.648438 14.964844 -13.085938 15.046875 -13.359375 C 15.136719 -13.746094 15.167969 -14.082031 15.148438 -14.480469 C 15.117188 -14.765625 14.996094 -15.285156 14.773438 -15.925781 C 14.671875 -16.046875 14.628906 -16.21875 14.476562 -16.402344 L 14.171875 -16.769531 C 13.714844 -17.320312 13.101562 -17.433594 12.410156 -17.269531 C 12.066406 -17.1875 11.769531 -17.046875 11.75 -16.820312 C 11.667969 -16.546875 11.535156 -16.332031 11.453125 -16.058594 C 11.414062 -15.609375 11.382812 -15.273438 11.339844 -14.828125 C 11.300781 -14.378906 11.320312 -13.980469 11.289062 -13.644531 C 10.863281 -11.425781 10.191406 -9.625 9.203125 -8.078125 C 8.214844 -6.53125 6.832031 -5.585938 5.058594 -5.351562 C 4.074219 -5.046875 3.023438 -5.3125 1.90625 -6.035156 C 1.578125 -6.175781 1.3125 -6.371094 1.160156 -6.554688 C 1.058594 -6.675781 0.957031 -6.796875 0.917969 -6.972656 C 0.875 -7.144531 0.949219 -7.308594 1.019531 -7.46875 C 1.089844 -7.632812 1.285156 -7.898438 1.488281 -8.273438 C 1.894531 -9.027344 2.25 -9.839844 2.332031 -10.738281 C 2.414062 -11.632812 2.433594 -12.476562 2.292969 -13.394531 C 2.203125 -14.25 2.058594 -15.164062 1.917969 -16.082031 C 1.773438 -16.996094 1.632812 -17.914062 1.59375 -18.707031 C 1.542969 -19.390625 1.378906 -20.082031 1.042969 -20.730469 C 0.757812 -21.324219 0.484375 -22.023438 0.148438 -22.675781 C -0.0976562 -23.09375 -0.453125 -23.519531 -0.980469 -23.910156 C -1.511719 -24.296875 -1.988281 -24.621094 -2.589844 -24.84375 C -3.140625 -25.007812 -3.75 -25.121094 -4.320312 -25.058594 C -4.890625 -25 -5.46875 -24.824219 -5.898438 -24.46875 L -6.507812 -23.960938 C -6.550781 -24.132812 -6.589844 -24.304688 -6.628906 -24.480469 C -6.730469 -24.601562 -6.824219 -24.835938 -6.855469 -25.121094 C -6.84375 -25.234375 -6.957031 -25.242188 -7.179688 -25.261719 C -7.351562 -25.222656 -7.414062 -25.171875 -7.425781 -25.058594 C -7.609375 -24.90625 -7.679688 -24.746094 -7.6875 -24.632812 C -8.015625 -23.535156 -8.230469 -22.425781 -8.503906 -21.265625 C -8.667969 -20.714844 -8.648438 -20.316406 -8.554688 -20.082031 C -8.496094 -19.511719 -8.421875 -19.054688 -8.351562 -18.597656 C -8.230469 -18.078125 -8.160156 -17.621094 -8.085938 -17.160156 C -8.066406 -16.765625 -7.984375 -16.417969 -7.855469 -16.011719 C -7.691406 -15.320312 -7.417969 -14.617188 -7.253906 -13.925781 C -7.089844 -13.234375 -6.878906 -12.480469 -6.652344 -11.839844 C -6.1875 -10.78125 -5.605469 -9.710938 -5.035156 -8.53125 C -4.464844 -7.347656 -3.765625 -6.382812 -2.757812 -5.667969 C -1.921875 -4.917969 -1.078125 -4.273438 -0.171875 -3.683594 C 0.722656 -2.980469 1.640625 -2.503906 2.738281 -2.175781 C 3.613281 -1.871094 4.621094 -1.78125 5.761719 -1.902344 C 6.902344 -2.023438 7.9375 -2.269531 8.996094 -2.734375 Z M -4.324219 -14.503906 L -4.585938 -15.320312 C -4.679688 -15.554688 -4.707031 -15.839844 -4.738281 -16.121094 C -4.78125 -16.296875 -4.769531 -16.40625 -4.808594 -16.582031 C -4.914062 -16.703125 -4.902344 -16.816406 -4.941406 -16.988281 C -5.054688 -17.621094 -5.105469 -18.300781 -5.269531 -18.992188 C -5.378906 -19.625 -5.492188 -20.253906 -5.59375 -21 C -5.714844 -21.515625 -5.683594 -21.851562 -5.5625 -21.957031 C -5.441406 -22.058594 -5.15625 -22.085938 -4.59375 -22.035156 C -4.046875 -21.875 -3.515625 -21.488281 -3.230469 -20.894531 C -3.007812 -20.253906 -2.84375 -19.5625 -2.804688 -18.769531 C -2.664062 -17.851562 -2.570312 -16.996094 -2.589844 -16.152344 C -2.621094 -15.195312 -2.644531 -14.351562 -2.664062 -13.507812 C -2.683594 -13.28125 -2.695312 -13.171875 -2.703125 -13.058594 C -2.777344 -12.894531 -2.785156 -12.785156 -2.746094 -12.609375 C -2.847656 -12.734375 -2.957031 -12.742188 -3.082031 -12.640625 C -3.652344 -13.203125 -4.046875 -13.800781 -4.324219 -14.503906 Z M -4.324219 -14.503906 "/></g></g></g><g fill="#0097b2" fill-opacity="1"><g transform="translate(349.314046, 267.822022)"><g><path d="M -7.308594 -11.519531 C -6.085938 -10.488281 -4.691406 -9.738281 -3.183594 -9.097656 C -1.675781 -8.457031 -0.5 -8.046875 0.394531 -7.808594 C 0.898438 -7.632812 1.457031 -7.398438 1.960938 -7.222656 C 2.460938 -6.933594 2.90625 -6.589844 3.296875 -6.191406 C 3.40625 -6.078125 3.460938 -6.019531 3.515625 -5.964844 C 3.570312 -5.90625 3.683594 -5.90625 3.738281 -5.847656 L 4.238281 -5.335938 C 4.40625 -5.164062 4.511719 -4.9375 4.679688 -4.765625 C 5.003906 -3.972656 5.21875 -3.183594 5.316406 -2.171875 C 5.414062 -1.15625 5.34375 -0.203125 5.050781 0.523438 C 4.820312 0.96875 4.703125 1.417969 4.582031 1.753906 C 4.464844 2.089844 4.347656 2.539062 4.230469 2.871094 C 4.167969 3.265625 4.105469 3.65625 4.160156 3.941406 C 4.207031 4.335938 4.375 4.617188 4.765625 4.792969 L 4.875 4.90625 C 5.207031 5.359375 5.652344 5.59375 6.214844 5.601562 C 6.777344 5.609375 7.339844 5.503906 7.960938 5.234375 C 8.640625 5.015625 9.207031 4.800781 9.773438 4.472656 C 10.339844 4.144531 10.792969 3.925781 11.132812 3.703125 C 11.246094 3.59375 11.359375 3.597656 11.414062 3.652344 C 11.636719 3.882812 11.804688 3.828125 11.917969 3.714844 C 12.035156 3.605469 12.09375 3.4375 12.207031 3.328125 C 12.664062 2.882812 13.175781 2.5 13.628906 2.054688 C 14.085938 1.613281 14.601562 1.113281 15 0.613281 C 15.402344 0.113281 15.691406 -0.386719 15.925781 -1.058594 C 16.15625 -1.617188 16.28125 -2.289062 16.179688 -3.078125 C 16.128906 -3.585938 16.023438 -4.039062 15.921875 -4.601562 C 15.816406 -5.050781 15.765625 -5.558594 15.773438 -6.121094 C 15.792969 -7.46875 15.359375 -8.488281 14.527344 -9.34375 C 13.699219 -10.199219 12.640625 -10.832031 11.464844 -11.355469 C 10.347656 -11.820312 9.117188 -12.175781 7.769531 -12.421875 C 6.480469 -12.609375 5.414062 -12.792969 4.40625 -12.921875 C 4.40625 -12.921875 4.292969 -12.921875 4.292969 -12.921875 C 4.292969 -12.921875 4.292969 -12.921875 4.238281 -12.980469 C 3.734375 -13.042969 3.226562 -13.105469 2.667969 -13.226562 C 2.105469 -13.347656 1.546875 -13.46875 0.988281 -13.589844 C -0.25 -13.71875 -1.25 -14.296875 -2.136719 -15.210938 C -3.023438 -16.121094 -3.34375 -17.25 -3.101562 -18.597656 C -3.09375 -19.046875 -3.144531 -19.441406 -3.417969 -19.839844 C -3.695312 -20.125 -4.03125 -20.351562 -4.535156 -20.417969 C -4.984375 -20.421875 -5.324219 -20.316406 -5.546875 -20.320312 C -6.394531 -20.164062 -7.074219 -19.835938 -7.476562 -19.222656 C -8.105469 -18.390625 -8.625 -17.554688 -9.085938 -16.660156 C -9.554688 -15.542969 -9.566406 -14.644531 -9.1875 -13.796875 C -8.75 -12.890625 -8.140625 -12.148438 -7.308594 -11.519531 Z M -7.308594 -11.519531 "/></g></g></g></svg>